<?xml version="1.0" encoding="UTF-8" standalone="no"?>
<!-- Created with Inkscape (http://www.inkscape.org/) -->

<svg
   width="276.40845mm"
   height="79.408592mm"
   viewBox="0 0 276.40845 79.408592"
   version="1.1"
   id="svg1"
   xml:space="preserve"
   inkscape:version="1.3.2 (091e20e, 2023-11-25, custom)"
   sodipodi:docname="Electronic back.svg"
   xmlns:inkscape="http://www.inkscape.org/namespaces/inkscape"
   xmlns:sodipodi="http://sodipodi.sourceforge.net/DTD/sodipodi-0.dtd"
   xmlns="http://www.w3.org/2000/svg"
   xmlns:svg="http://www.w3.org/2000/svg"><sodipodi:namedview
     id="namedview1"
     pagecolor="#ffffff"
     bordercolor="#000000"
     borderopacity="0.25"
     inkscape:showpageshadow="2"
     inkscape:pageopacity="0.0"
     inkscape:pagecheckerboard="0"
     inkscape:deskcolor="#d1d1d1"
     inkscape:document-units="mm"
     inkscape:zoom="0.4894542"
     inkscape:cx="454.58799"
     inkscape:cy="556.7426"
     inkscape:window-width="1920"
     inkscape:window-height="991"
     inkscape:window-x="1647"
     inkscape:window-y="-9"
     inkscape:window-maximized="1"
     inkscape:current-layer="layer1" /><defs
     id="defs1"><marker
       id="DistanceX"
       orient="auto"
       refX="0"
       refY="0"
       style="overflow:visible"><path
         d="M 3,-3 -3,3 M 0,-5 V 5"
         style="stroke:#000000;stroke-width:0.5"
         id="path1" /></marker><pattern
       id="Hatch"
       patternUnits="userSpaceOnUse"
       width="8"
       height="8"
       x="0"
       y="0"><path
         d="M8 4 l-4,4"
         stroke="#000000"
         stroke-width="0.25"
         linecap="square"
         id="path2" /><path
         d="M6 2 l-4,4"
         stroke="#000000"
         stroke-width="0.25"
         linecap="square"
         id="path3" /><path
         d="M4 0 l-4,4"
         stroke="#000000"
         stroke-width="0.25"
         linecap="square"
         id="path4" /></pattern><symbol
       id="*MODEL_SPACE" /><symbol
       id="*PAPER_SPACE" /></defs><g
     inkscape:label="Layer 1"
     inkscape:groupmode="layer"
     id="layer1"
     transform="translate(33.279622,-108.79594)"><path
       id="path6"
       style="fill:none;stroke:#000000;stroke-width:0.264583"
       d="m 100.18717,117.25693 c -0.454627,0.0356 -0.909111,0.0707 -1.314652,0.23151 -0.390105,0.15468 -0.734837,0.42554 -1.079521,0.69608 -0.280523,0.32451 -0.5611,0.64885 -0.721403,1.02474 -0.158961,0.37275 -0.200062,0.79629 -0.240812,1.21956 0.01907,0.28829 0.03858,0.57665 0.129191,0.84078 0.08589,0.25038 0.235843,0.4788 0.386023,0.70745 0.18854,0.19521 0.37695,0.39058 0.600997,0.5271 0.232333,0.14156 0.50308,0.21977 0.773596,0.29817 -0.419203,0.26686 -0.838459,0.53402 -1.07952,0.91778 -0.210484,0.33506 -0.284999,0.75918 -0.359668,1.18339 0.03219,0.30429 0.06444,0.60866 0.175699,0.88005 0.117181,0.2858 0.3217,0.53513 0.526583,0.78445 0.315611,0.26251 0.631435,0.52463 0.992705,0.67489 0.388802,0.1617 0.830588,0.19361 1.272272,0.22531 0.26485,-0.0113 0.52937,-0.0225 0.78497,-0.0775 0.24051,-0.0518 0.47306,-0.14256 0.70538,-0.23306 0.20754,-0.11036 0.41504,-0.22029 0.59169,-0.36793 0.16671,-0.1393 0.30575,-0.31225 0.44494,-0.48473 0.11824,-0.20728 0.23664,-0.41404 0.32504,-0.63303 0.10527,-0.26091 0.1681,-0.53876 0.231,-0.81598 l -1.76682,-0.30075 c -0.031,0.19997 -0.0618,0.39941 -0.14314,0.57671 -0.069,0.15052 -0.17425,0.28512 -0.27957,0.41961 -0.12211,0.0994 -0.2445,0.1989 -0.38396,0.2558 -0.1401,0.0572 -0.29766,0.0713 -0.45527,0.0853 -0.15526,-0.0101 -0.310572,-0.0201 -0.44855,-0.0749 -0.126164,-0.0501 -0.237619,-0.13781 -0.349333,-0.22531 -0.08749,-0.11232 -0.175169,-0.22472 -0.225309,-0.3514 -0.05524,-0.1396 -0.06503,-0.2962 -0.07493,-0.4532 0.01528,-0.18646 0.03056,-0.37311 0.10232,-0.53485 0.06825,-0.15388 0.187607,-0.28551 0.306958,-0.41703 0.16248,-0.10305 0.324862,-0.20615 0.501264,-0.26355 0.21476,-0.0698 0.45039,-0.0704 0.68574,-0.0734 l 0.21136,-1.56321 c -0.15773,0.0421 -0.31552,0.0839 -0.47594,0.108 -0.13345,0.0199 -0.26875,0.0277 -0.40411,0.0357 -0.179822,-0.0181 -0.359704,-0.0365 -0.516764,-0.10594 -0.159461,-0.0705 -0.295506,-0.19342 -0.431498,-0.31677 -0.113282,-0.16031 -0.226405,-0.32081 -0.291455,-0.49816 -0.07386,-0.20135 -0.08548,-0.42469 -0.09715,-0.64803 0.01217,-0.23603 0.02415,-0.47228 0.101286,-0.68574 0.0679,-0.18788 0.186127,-0.35828 0.304374,-0.52865 0.142502,-0.13131 0.285443,-0.26245 0.453202,-0.33745 0.165749,-0.0742 0.355805,-0.0934 0.546215,-0.11265 0.17694,0.0152 0.35389,0.0307 0.5116,0.094 0.15576,0.0625 0.29296,0.17169 0.42995,0.28112 0.11793,0.14682 0.23577,0.29381 0.31367,0.45888 0.0907,0.19214 0.12732,0.40915 0.16382,0.6258 l 1.85518,-0.2253 c -0.0762,-0.39798 -0.15216,-0.79594 -0.33073,-1.14154 -0.17198,-0.33287 -0.43889,-0.61702 -0.7059,-0.90123 -0.325,-0.2277 -0.65022,-0.45517 -1.00976,-0.5855 -0.38713,-0.14037 -0.81408,-0.16783 -1.24126,-0.19533 z m 12.87828,0.17001 -3.40341,5.2e-4 c -0.52486,0.002 -1.04979,0.004 -1.57406,0.0238 -0.28718,0.0111 -0.57445,0.0277 -0.86145,0.0444 -0.25263,0.0385 -0.50533,0.077 -0.74104,0.16278 -0.21362,0.0778 -0.41315,0.19438 -0.61288,0.31109 -0.17428,0.14113 -0.34836,0.28218 -0.49093,0.45011 -0.14777,0.17407 -0.26147,0.37692 -0.37517,0.5798 -0.0925,0.21487 -0.18533,0.42994 -0.23823,0.65423 -0.0515,0.21831 -0.0652,0.4456 -0.0791,0.67283 0.0189,0.27728 0.0375,0.55428 0.12247,0.80977 0.0819,0.24593 0.22522,0.47186 0.36845,0.69763 0.18756,0.19984 0.37514,0.39953 0.59687,0.54725 0.24225,0.1614 0.52518,0.26099 0.80822,0.36019 -0.20447,0.10951 -0.4086,0.21874 -0.58033,0.36638 -0.17004,0.14618 -0.30804,0.32959 -0.44597,0.51315 -0.11039,0.20056 -0.2206,0.40151 -0.2837,0.61598 -0.0634,0.21521 -0.0794,0.44414 -0.0951,0.67335 0.0118,0.20911 0.024,0.41829 0.077,0.61649 0.0512,0.19124 0.14046,0.37238 0.22996,0.55346 0.107,0.16409 0.21387,0.32811 0.3452,0.46974 0.1258,0.13565 0.27406,0.2508 0.4222,0.36587 0.16005,0.0959 0.32042,0.19163 0.49144,0.25993 0.1764,0.0704 0.36436,0.11176 0.55242,0.15296 0.24447,0.0287 0.48861,0.057 0.73381,0.0739 h 5.1e-4 c 0.34436,0.0246 0.68982,0.0249 1.0356,0.0253 l 3.99717,5.2e-4 z m -4.11138,1.68362 c 0.0744,2.1e-4 0.14881,8e-4 0.22325,0.002 h 1.86913 v 2.67529 l -1.63039,-5.2e-4 c -0.38038,0.003 -0.76054,0.007 -1.13636,-0.0367 -0.21903,-0.0251 -0.43675,-0.0664 -0.65423,-0.10749 -0.12804,-0.0529 -0.25579,-0.10531 -0.3638,-0.18551 -0.10053,-0.0746 -0.18397,-0.17301 -0.26717,-0.27131 -0.0636,-0.11333 -0.12679,-0.2265 -0.16329,-0.34778 -0.0398,-0.13238 -0.0478,-0.27412 -0.0548,-0.41599 0.009,-0.16465 0.0172,-0.32946 0.0708,-0.47853 0.0474,-0.13176 0.1299,-0.25144 0.2124,-0.37103 0.10273,-0.0962 0.20519,-0.19239 0.32452,-0.25839 0.12419,-0.0687 0.26664,-0.10456 0.40876,-0.14056 0.16416,-0.0175 0.32848,-0.0352 0.493,-0.046 0.22236,-0.0145 0.44494,-0.0177 0.66817,-0.017 z m 0.29042,4.33927 c 0.15947,-0.001 0.31903,-4.7e-4 0.47853,10e-4 l 1.32343,5.2e-4 v 2.31252 h -1.15962 c -0.38154,0.001 -0.76293,0.003 -1.14411,-0.009 -0.1939,-0.006 -0.38755,-0.0158 -0.58136,-0.0258 -0.15403,-0.0259 -0.30841,-0.0516 -0.44287,-0.11834 -0.11567,-0.0574 -0.21666,-0.14536 -0.31781,-0.23306 -0.0745,-0.10742 -0.14902,-0.21476 -0.19172,-0.33332 -0.0473,-0.13105 -0.0561,-0.27548 -0.0641,-0.42013 0.0103,-0.15145 0.0202,-0.30318 0.0739,-0.43769 0.0495,-0.12414 0.13622,-0.23393 0.22272,-0.34365 0.11274,-0.0896 0.22525,-0.17891 0.35192,-0.23771 0.14257,-0.0661 0.30281,-0.0931 0.46302,-0.12041 0.16993,-0.01 0.34002,-0.0198 0.51005,-0.0258 0.15932,-0.005 0.31854,-0.008 0.478,-0.009 z m 68.3333,11.33264 c -0.45308,0.0371 -0.90646,0.0742 -1.29294,0.2558 -0.36323,0.17069 -0.66764,0.46905 -0.97204,0.76739 -0.28482,0.53634 -0.56933,1.07236 -0.73639,1.64021 -0.22766,0.77388 -0.23698,1.60626 -0.24598,2.43861 0.008,0.83294 0.0163,1.66624 0.24392,2.44068 0.16602,0.56475 0.44896,1.09834 0.73174,1.63194 0.30568,0.30236 0.6114,0.6048 0.9772,0.77773 0.38666,0.18281 0.84065,0.2207 1.29449,0.2589 0.45308,-0.0371 0.90596,-0.0742 1.29243,-0.25579 0.36323,-0.17069 0.66763,-0.46906 0.97203,-0.7674 0.28485,-0.53517 0.5699,-1.07035 0.73691,-1.63711 0.22707,-0.77055 0.23646,-1.59938 0.24546,-2.42827 -0.001,-0.83169 -0.003,-1.66358 -0.22376,-2.43965 -0.15306,-0.53824 -0.41115,-1.04965 -0.66972,-1.56114 -0.32268,-0.32726 -0.64583,-0.65429 -1.0356,-0.8413 -0.39376,-0.18894 -0.85552,-0.2348 -1.31775,-0.2806 z m -7.72201,0.17053 c -0.0208,0.47293 -0.0418,0.9458 -0.1049,1.41284 -0.0724,0.53581 -0.2002,1.06358 -0.32815,1.59163 -0.16277,0.55174 -0.32531,1.10349 -0.5395,1.63453 -0.21264,0.52721 -0.47617,1.03421 -0.73949,1.54099 -0.26151,0.45159 -0.52283,0.90304 -0.83199,1.31981 -0.25179,0.33941 -0.53515,0.65579 -0.81855,0.97204 v 1.39164 h 6.55515 v -1.78077 l -4.35891,5.2e-4 c 0.42951,-0.59035 0.85901,-1.18096 1.21492,-1.81281 0.36678,-0.65111 0.65557,-1.34616 0.94413,-2.04122 0.23748,-0.7054 0.47483,-1.41103 0.61805,-2.13527 0.1358,-0.68675 0.18661,-1.3902 0.23771,-2.09393 z m 17.21704,0 c -0.52486,0.002 -1.04981,0.003 -1.57407,0.0238 -0.28716,0.0111 -0.57392,0.0278 -0.86092,0.0445 -0.25263,0.0385 -0.50532,0.077 -0.74104,0.16278 -0.21361,0.0778 -0.41368,0.19438 -0.6134,0.31109 -0.17428,0.14115 -0.34837,0.28217 -0.49093,0.4501 -0.14778,0.17407 -0.26147,0.37695 -0.37517,0.57981 -0.0925,0.21487 -0.18481,0.42993 -0.23771,0.65422 -0.0515,0.21831 -0.0657,0.44561 -0.0796,0.67283 0.0189,0.27726 0.038,0.55428 0.12299,0.80977 0.0819,0.24595 0.22522,0.47186 0.36845,0.69763 0.18756,0.19984 0.37513,0.39954 0.59686,0.54726 0.24225,0.16142 0.52518,0.26046 0.80822,0.35966 -0.20447,0.10951 -0.4091,0.2193 -0.58084,0.36691 -0.17004,0.14618 -0.30804,0.32958 -0.44597,0.51314 -0.11039,0.20056 -0.2206,0.40152 -0.2837,0.61599 -0.0634,0.21521 -0.0789,0.44416 -0.0946,0.67334 0.0118,0.20916 0.0235,0.4183 0.0765,0.6165 0.0512,0.19124 0.14098,0.37239 0.23048,0.55345 0.107,0.16409 0.21386,0.32811 0.3452,0.46974 0.1258,0.13568 0.27406,0.2508 0.42219,0.36587 0.16006,0.0959 0.3199,0.19164 0.49093,0.25994 0.17639,0.0705 0.36436,0.11186 0.55242,0.15296 0.24447,0.0288 0.48912,0.057 0.73432,0.0739 0.34436,0.0246 0.69031,0.0247 1.03611,0.0253 l 3.99718,5.1e-4 v -10.001 z m 5.12268,0 v 1.68465 h 5.58674 v 2.7218 h -5.02036 v 1.68465 h 5.02036 v 2.21692 h -5.39553 v 1.69189 h 7.41453 V 134.953 Z m -14.61771,1.41852 c 0.11265,0.009 0.22519,0.0183 0.32815,0.0548 0.10279,0.0364 0.19577,0.10011 0.28887,0.16381 0.0894,0.10549 0.17889,0.21086 0.24649,0.32815 0.0962,0.16682 0.14841,0.35757 0.20051,0.54828 0.0511,0.31065 0.10201,0.6214 0.13281,0.9338 0.0483,0.49194 0.0464,0.98789 0.0444,1.48414 7e-4,0.50348 0.001,1.00702 -0.0496,1.50586 -0.0341,0.33393 -0.0911,0.66603 -0.14831,0.99787 -0.0471,0.16904 -0.0944,0.33816 -0.18087,0.48524 -0.0656,0.1116 -0.15354,0.21054 -0.24184,0.30954 -0.0939,0.0647 -0.18819,0.12888 -0.29198,0.16588 -0.1032,0.0366 -0.2157,0.0468 -0.32866,0.0558 -0.11273,-0.009 -0.22585,-0.0189 -0.32866,-0.0558 -0.10299,-0.037 -0.19587,-0.10118 -0.28887,-0.16588 -0.0894,-0.10636 -0.1788,-0.21315 -0.2465,-0.33124 -0.0959,-0.16735 -0.1483,-0.35792 -0.2005,-0.54881 -0.0511,-0.31065 -0.10201,-0.6214 -0.13281,-0.93379 -0.0483,-0.49194 -0.0464,-0.98841 -0.0444,-1.48467 -8e-4,-0.50292 -0.001,-1.00557 0.0496,-1.50378 0.0341,-0.33224 0.0911,-0.66256 0.14831,-0.9927 0.0471,-0.16905 0.0944,-0.3382 0.18086,-0.48525 0.0656,-0.1116 0.15355,-0.21054 0.24185,-0.30954 0.0939,-0.0647 0.18818,-0.12898 0.29197,-0.16588 0.1032,-0.0366 0.21621,-0.0468 0.32918,-0.0558 z m 8.78758,0.2651 c 0.0744,2.2e-4 0.1488,8e-4 0.22324,0.002 h 1.86914 v 2.67219 l -1.63039,0.001 c -0.3804,0.004 -0.76107,0.008 -1.13689,-0.0356 -0.21903,-0.0252 -0.43622,-0.0659 -0.6537,-0.10697 -0.12804,-0.0528 -0.25631,-0.10584 -0.36432,-0.18604 -0.10053,-0.0746 -0.18345,-0.173 -0.26665,-0.2713 -0.0636,-0.11333 -0.12732,-0.2265 -0.16382,-0.34778 -0.0398,-0.13238 -0.0478,-0.27413 -0.0548,-0.416 0.009,-0.16465 0.0172,-0.32945 0.0708,-0.47852 0.0473,-0.13176 0.12989,-0.25145 0.21239,-0.37104 0.10277,-0.0962 0.20572,-0.19238 0.32505,-0.25838 0.12418,-0.0687 0.26612,-0.10456 0.40824,-0.14056 0.16416,-0.0175 0.32847,-0.0351 0.493,-0.046 0.22236,-0.0144 0.44545,-0.0172 0.66869,-0.0165 z m 0.29042,4.33875 c 0.15946,-0.001 0.31902,-4.8e-4 0.47852,5.2e-4 l 1.32344,-5.2e-4 v 2.31252 h -1.15962 c -0.38156,0.002 -0.76348,0.004 -1.14463,-0.008 -0.1939,-0.006 -0.38755,-0.0158 -0.58136,-0.0258 -0.15403,-0.0258 -0.30789,-0.0515 -0.44235,-0.11834 -0.11567,-0.0574 -0.21717,-0.14536 -0.31833,-0.23306 -0.0745,-0.10742 -0.14902,-0.21476 -0.19172,-0.33332 -0.0473,-0.13105 -0.0561,-0.27545 -0.0641,-0.42013 0.0103,-0.15145 0.0207,-0.30316 0.0744,-0.4377 0.0495,-0.12414 0.13571,-0.23392 0.22221,-0.34364 0.11274,-0.0896 0.22577,-0.17902 0.35244,-0.23772 0.14257,-0.0661 0.30281,-0.0932 0.46302,-0.1204 0.16993,-0.01 0.33949,-0.0198 0.50953,-0.0258 v 5.2e-4 c 0.15932,-0.005 0.31906,-0.008 0.47852,-0.009 z m 32.31121,1.89911 c -0.0209,0.47285 -0.0418,0.94583 -0.10491,1.41284 -0.0724,0.53581 -0.2002,1.06358 -0.32814,1.59163 -0.16277,0.55176 -0.32584,1.10351 -0.54002,1.63453 -0.21264,0.52721 -0.47566,1.03421 -0.73897,1.54099 -0.26152,0.45156 -0.52283,0.90306 -0.83199,1.31981 -0.25179,0.33941 -0.53568,0.65569 -0.81908,0.97204 v 1.39164 h 6.55568 v -1.78025 h -4.35891 c 0.42957,-0.59041 0.859,-1.18099 1.21491,-1.81281 0.36678,-0.65114 0.65557,-1.34613 0.94413,-2.04122 0.23748,-0.7054 0.47483,-1.411 0.61805,-2.13527 0.1358,-0.68673 0.18661,-1.39031 0.23771,-2.09393 z m 9.44748,0 c -0.52488,0.002 -1.0498,0.003 -1.57406,0.0238 -0.28719,0.011 -0.57393,0.0277 -0.86093,0.0445 -0.25263,0.0385 -0.50533,0.0769 -0.74104,0.16278 -0.21362,0.0778 -0.41316,0.19439 -0.61288,0.31109 -0.17429,0.14113 -0.34888,0.28217 -0.49145,0.4501 -0.14777,0.1741 -0.26147,0.37695 -0.37517,0.57981 -0.0925,0.21487 -0.18481,0.42996 -0.23771,0.65422 -0.0515,0.2183 -0.0657,0.44561 -0.0796,0.67283 0.0189,0.27729 0.0379,0.55429 0.12299,0.80977 0.0819,0.24596 0.22521,0.47189 0.36845,0.69763 0.18756,0.19984 0.37512,0.39951 0.59686,0.54726 0.24225,0.16139 0.52518,0.26046 0.80822,0.35966 -0.20446,0.10951 -0.40911,0.21927 -0.58084,0.36691 -0.17004,0.14618 -0.308,0.32958 -0.44597,0.51314 -0.11044,0.20058 -0.2206,0.40149 -0.2837,0.61599 -0.0633,0.21518 -0.0789,0.44413 -0.0946,0.67334 0.0118,0.20913 0.0234,0.41827 0.0765,0.6165 0.0512,0.19121 0.14098,0.37238 0.23048,0.55346 0.107,0.16405 0.21387,0.3281 0.3452,0.46973 0.1258,0.13568 0.27406,0.2508 0.42219,0.36587 0.16005,0.0959 0.31991,0.19164 0.49093,0.25994 0.1764,0.0705 0.36436,0.11186 0.55242,0.15296 0.24447,0.0288 0.48912,0.057 0.73432,0.0739 0.34437,0.0246 0.69031,0.0249 1.03612,0.0243 l 3.99717,-0.001 v -9.99836 z m -244.700308,1.17978 c -0.456753,0.0287 -0.913593,0.0574 -1.320849,0.21652 -0.370342,0.14471 -0.699986,0.39707 -1.029395,0.64957 -0.257575,0.31728 -0.515124,0.63445 -0.662492,0.99581 -0.157007,0.385 -0.188748,0.82014 -0.220658,1.25522 0.01644,0.26901 0.03258,0.53807 0.108004,0.78961 0.07222,0.2409 0.198729,0.46602 0.325044,0.69092 0.166105,0.20293 0.33208,0.40569 0.532785,0.56431 0.217142,0.17156 0.475128,0.29112 0.732771,0.41082 -0.204489,0.10384 -0.409349,0.2076 -0.581876,0.35037 -0.164276,0.13591 -0.299305,0.3073 -0.434599,0.47852 -0.105438,0.18912 -0.211031,0.37842 -0.271301,0.58085 -0.06241,0.20963 -0.07643,0.43343 -0.09043,0.65732 0.03128,0.35526 0.06248,0.71067 0.196887,1.02164 0.131326,0.30387 0.361397,0.56523 0.591178,0.82683 0.30535,0.21253 0.610626,0.4249 0.947229,0.54725 0.393579,0.14305 0.829765,0.16262 1.266073,0.18242 0.439362,-0.0191 0.878851,-0.0382 1.274858,-0.18242 0.336006,-0.12242 0.640885,-0.33474 0.945678,-0.54725 0.227793,-0.26184 0.4553,-0.52343 0.585494,-0.82683 0.133595,-0.31131 0.164507,-0.66657 0.195337,-1.02164 -0.01383,-0.21349 -0.02748,-0.42696 -0.08423,-0.62839 -0.05628,-0.19976 -0.154735,-0.38776 -0.253215,-0.57567 -0.136178,-0.17595 -0.272491,-0.35204 -0.43925,-0.49041 -0.188082,-0.15608 -0.414835,-0.26433 -0.641821,-0.37259 0.265851,-0.12989 0.531704,-0.25977 0.750342,-0.44596 0.198837,-0.16931 0.358526,-0.3851 0.518315,-0.601 0.117378,-0.23278 0.23471,-0.4657 0.30179,-0.7121 0.06809,-0.25014 0.0845,-0.51409 0.100769,-0.77825 -0.0405,-0.46167 -0.08147,-0.92355 -0.268201,-1.31672 -0.178578,-0.376 -0.490739,-0.68917 -0.803051,-1.00252 -0.33087,-0.20881 -0.661892,-0.41784 -1.021644,-0.53743 -0.393613,-0.13087 -0.821345,-0.1547 -1.249536,-0.1788 z m 9.5699589,0.17725 c -0.5249138,0.002 -1.0498039,0.003 -1.5740642,0.0238 -0.2871835,0.0111 -0.5739284,0.0277 -0.8609293,0.0444 -0.2526264,0.0385 -0.5053285,0.0769 -0.7410401,0.16278 -0.2136143,0.0778 -0.4131583,0.19441 -0.6128823,0.31109 -0.174283,0.14115 -0.348878,0.28269 -0.491443,0.45062 -0.147778,0.17407 -0.261475,0.37695 -0.375171,0.57981 -0.09251,0.21487 -0.184832,0.42945 -0.237712,0.65371 -0.05147,0.2183 -0.06566,0.4456 -0.07958,0.67282 0.01887,0.27726 0.03794,0.55428 0.12299,0.80977 0.08188,0.24595 0.225221,0.4719 0.368453,0.69764 0.187561,0.19984 0.375127,0.3995 0.596862,0.54725 0.242247,0.16139 0.525185,0.26098 0.8082198,0.36018 -0.2044617,0.10951 -0.4091088,0.21876 -0.5808428,0.36639 -0.170039,0.14616 -0.308018,0.3301 -0.445968,0.51366 -0.110417,0.20058 -0.220615,0.40097 -0.283703,0.61547 -0.06331,0.21518 -0.07891,0.44416 -0.09457,0.67334 0.01185,0.20916 0.02344,0.4183 0.07648,0.6165 0.05118,0.19124 0.140957,0.3724 0.230477,0.55346 0.106995,0.16409 0.213864,0.32811 0.345198,0.46974 0.125801,0.13568 0.274065,0.2508 0.422197,0.36587 0.160056,0.0959 0.3199075,0.19163 0.4909258,0.25993 0.1763973,0.0705 0.3643582,0.11186 0.552421,0.15296 0.2444693,0.0288 0.4891201,0.0575 0.7343221,0.0744 0.3443599,0.0246 0.6902671,0.0243 1.0361125,0.0238 l 3.9971721,-5.2e-4 v -9.99836 z M 227.70703,144.5581 c 0.0744,2.2e-4 0.14882,8e-4 0.22324,0.002 h 1.86914 v 2.67271 h -1.63039 c -0.38039,0.004 -0.76107,0.008 -1.13688,-0.0351 -0.21904,-0.0252 -0.43624,-0.0664 -0.65371,-0.10749 -0.12804,-0.0529 -0.25631,-0.10532 -0.36432,-0.18552 -0.10053,-0.0746 -0.18345,-0.173 -0.26665,-0.2713 -0.0636,-0.1133 -0.12741,-0.22652 -0.16381,-0.34778 -0.0398,-0.13237 -0.0478,-0.27464 -0.0548,-0.41651 0.009,-0.16462 0.0172,-0.32894 0.0708,-0.47801 0.0473,-0.13174 0.12989,-0.25148 0.21239,-0.37104 0.10277,-0.0962 0.20572,-0.19238 0.32504,-0.25838 0.12419,-0.0687 0.26613,-0.10456 0.40825,-0.14056 0.16412,-0.0176 0.32847,-0.0351 0.49299,-0.046 0.22237,-0.0142 0.44548,-0.0172 0.66869,-0.0165 z m -243.958751,1.03766 c 0.193789,0.0182 0.387344,0.0368 0.556555,0.11111 0.168257,0.0739 0.312343,0.20295 0.456303,0.33228 0.118197,0.171 0.236374,0.34187 0.304374,0.5302 0.07914,0.21913 0.09012,0.46175 0.101286,0.70435 -0.01509,0.18632 -0.02984,0.37266 -0.08578,0.5457 -0.05742,0.17759 -0.157917,0.34129 -0.258382,0.50488 -0.135067,0.14116 -0.270212,0.28239 -0.434082,0.36329 -0.180943,0.0894 -0.39734,0.10502 -0.613399,0.12092 -0.19273,-0.0169 -0.3852,-0.0337 -0.553972,-0.10646 -0.164711,-0.0711 -0.306658,-0.19551 -0.448551,-0.31987 -0.115307,-0.1592 -0.230513,-0.31808 -0.296623,-0.49506 -0.0734,-0.19655 -0.08647,-0.41507 -0.09922,-0.63356 0.0094,-0.24445 0.01875,-0.4892 0.09715,-0.71055 0.0653,-0.18436 0.178815,-0.35257 0.291972,-0.5209 0.138912,-0.12433 0.277616,-0.24877 0.439766,-0.31987 0.16477,-0.0722 0.353841,-0.0893 0.542603,-0.10646 z m 8.8284015,0.31936 c 0.0744,2.2e-4 0.1488261,8e-4 0.2232422,0.002 l 1.8691365,5.2e-4 v 2.67219 l -1.6303914,5.2e-4 c -0.3804445,0.004 -0.7610659,0.008 -1.1368815,-0.0351 -0.219032,-0.0251 -0.436228,-0.0664 -0.6537069,-0.10749 -0.1280366,-0.0528 -0.2563083,-0.10584 -0.3643188,-0.18604 -0.1005255,-0.0746 -0.1834707,-0.173 -0.2666504,-0.2713 -0.063632,-0.1133 -0.1273683,-0.22652 -0.1638143,-0.34778 -0.03978,-0.13237 -0.04688,-0.27412 -0.05426,-0.41599 0.0086,-0.16465 0.017224,-0.32946 0.070797,-0.47853 0.04735,-0.13173 0.1293926,-0.25093 0.2118733,-0.37052 0.1027691,-0.0962 0.205718,-0.19238 0.3250448,-0.25838 0.1241845,-0.0687 0.2661258,-0.10508 0.4082438,-0.14108 0.1641548,-0.0176 0.3284676,-0.0351 0.4929932,-0.046 0.2223702,-0.0142 0.4454916,-0.0172 0.668693,-0.0165 z m 235.4207695,2.98173 c 0.15947,-0.001 0.31902,-4.8e-4 0.47853,5.2e-4 l 1.32343,-5.2e-4 v 2.31252 h -1.15962 c -0.38154,0.002 -0.76344,0.004 -1.14463,-0.008 -0.1939,-0.006 -0.38756,-0.0158 -0.58136,-0.0258 -0.15404,-0.0259 -0.3079,-0.0515 -0.44235,-0.11834 -0.11568,-0.0574 -0.21716,-0.14536 -0.31833,-0.23306 -0.0745,-0.10742 -0.14902,-0.21476 -0.19172,-0.33332 -0.0473,-0.13105 -0.0561,-0.27548 -0.0641,-0.42013 0.0103,-0.15145 0.0207,-0.30316 0.0744,-0.4377 0.0495,-0.12414 0.13571,-0.23389 0.22221,-0.34364 0.11274,-0.0896 0.22577,-0.17902 0.35243,-0.23772 0.14257,-0.0661 0.30281,-0.0931 0.46302,-0.1204 0.16993,-0.01 0.34002,-0.0198 0.51005,-0.0258 v 5.2e-4 c 0.15932,-0.006 0.31854,-0.008 0.478,-0.009 z m -235.1303479,1.35703 c 0.1594672,-0.001 0.3189957,-4.9e-4 0.4785237,5.1e-4 l 1.3234334,-5.1e-4 v 2.31252 l -1.1596191,5.1e-4 c -0.3814777,0.002 -0.763449,0.004 -1.144633,-0.008 -0.1938993,-0.006 -0.3875531,-0.0158 -0.5813598,-0.0258 -0.1540374,-0.0259 -0.307892,-0.0516 -0.4423503,-0.11834 -0.1156728,-0.0574 -0.2171425,-0.14484 -0.3183268,-0.23254 -0.074556,-0.10742 -0.1489846,-0.21527 -0.1917196,-0.33383 -0.047228,-0.13105 -0.055719,-0.27545 -0.064079,-0.42013 0.010253,-0.15142 0.020735,-0.30265 0.074414,-0.43719 0.04953,-0.12414 0.1362177,-0.23389 0.2227254,-0.34364 0.1127413,-0.0896 0.2252532,-0.17953 0.3519165,-0.23823 0.1425731,-0.0661 0.3028107,-0.0932 0.4630209,-0.12041 0.169928,-0.01 0.3400122,-0.0198 0.5100464,-0.0258 v 0.001 c 0.1593209,-0.006 0.3185395,-0.009 0.478007,-0.01 z m -9.0645631,0.0894 c 0.167857,0.0107 0.335795,0.0213 0.485242,0.0801 0.136086,0.0536 0.256934,0.14731 0.377754,0.24081 0.0944,0.12284 0.18867,0.24543 0.24288,0.38344 0.06161,0.15689 0.07143,0.33354 0.08113,0.51004 -0.01117,0.16825 -0.02213,0.33628 -0.08165,0.48576 -0.05466,0.13732 -0.15053,0.25886 -0.24598,0.38034 -0.122687,0.0954 -0.24512,0.19076 -0.383439,0.24546 -0.152715,0.0605 -0.324326,0.0714 -0.496094,0.0822 -0.166195,-0.0111 -0.332415,-0.0223 -0.480074,-0.0811 -0.135792,-0.0541 -0.25609,-0.14838 -0.376204,-0.24288 -0.09445,-0.12073 -0.188772,-0.24145 -0.242879,-0.37776 -0.05925,-0.14925 -0.07026,-0.31731 -0.08113,-0.48524 0.01,-0.17682 0.01976,-0.35345 0.08165,-0.51056 0.05476,-0.13904 0.15058,-0.26292 0.24598,-0.38654 0.122192,-0.0944 0.244285,-0.18878 0.381889,-0.24288 0.151292,-0.0596 0.321008,-0.0702 0.490926,-0.0811 z m 189.873161,0.046 c -0.45307,0.0371 -0.90594,0.0742 -1.29242,0.2558 -0.36323,0.1707 -0.66764,0.46905 -0.97204,0.76739 -0.28482,0.53637 -0.56984,1.0729 -0.7369,1.64073 -0.22767,0.77388 -0.23647,1.60625 -0.24547,2.43861 0.008,0.83293 0.0163,1.66575 0.24392,2.44016 0.16601,0.56475 0.44896,1.09831 0.73173,1.63194 0.30567,0.30234 0.6109,0.60479 0.97669,0.77773 0.38667,0.18281 0.84066,0.22122 1.29449,0.25942 0.45308,-0.0371 0.90647,-0.0742 1.29295,-0.2558 0.36323,-0.17068 0.66763,-0.46905 0.97203,-0.76739 0.28484,-0.5352 0.56938,-1.07037 0.73639,-1.63711 0.22706,-0.77057 0.23646,-1.59937 0.24546,-2.42828 -0.001,-0.83169 -0.003,-1.66356 -0.22324,-2.43964 -0.15305,-0.53824 -0.41168,-1.04968 -0.67024,-1.56115 -0.32269,-0.32729 -0.64532,-0.6548 -1.03508,-0.84181 -0.39376,-0.18893 -0.85604,-0.2348 -1.31827,-0.2806 z m 7.76956,0 c -0.45308,0.0371 -0.90595,0.0742 -1.29243,0.2558 -0.36323,0.1707 -0.66764,0.46905 -0.97204,0.76739 -0.28482,0.53637 -0.56984,1.0729 -0.7369,1.64073 -0.22766,0.77388 -0.23646,1.60625 -0.24546,2.43861 0.008,0.83293 0.0163,1.66575 0.24391,2.44016 0.16602,0.56475 0.44844,1.09831 0.73122,1.63194 0.30567,0.30234 0.6114,0.60479 0.9772,0.77773 0.38666,0.18281 0.84066,0.22122 1.2945,0.25942 0.45307,-0.0371 0.90594,-0.0742 1.29242,-0.2558 0.36323,-0.17068 0.66764,-0.46905 0.97204,-0.76739 0.28485,-0.5352 0.56989,-1.07037 0.7369,-1.63711 0.22707,-0.77057 0.23647,-1.59937 0.24547,-2.42828 -0.001,-0.83169 -0.003,-1.66356 -0.22325,-2.43964 -0.15306,-0.53824 -0.41168,-1.04968 -0.67024,-1.56115 -0.32268,-0.32729 -0.64531,-0.6548 -1.03508,-0.84181 -0.39376,-0.18893 -0.85604,-0.2348 -1.31826,-0.2806 z m 15.5391,0 c -0.45308,0.0371 -0.90647,0.0742 -1.29295,0.2558 -0.36323,0.1707 -0.66763,0.46905 -0.97203,0.76739 -0.28482,0.53637 -0.56933,1.0729 -0.73639,1.64073 -0.22766,0.77388 -0.23698,1.60625 -0.24598,2.43861 0.008,0.83293 0.0163,1.66575 0.24391,2.44016 0.16602,0.56475 0.44896,1.09831 0.73174,1.63194 0.30567,0.30234 0.6114,0.60479 0.9772,0.77773 0.38666,0.18281 0.84066,0.22122 1.2945,0.25942 0.45307,-0.0371 0.90595,-0.0742 1.29243,-0.2558 0.36323,-0.17068 0.66763,-0.46905 0.97203,-0.76739 0.28485,-0.5352 0.5699,-1.07037 0.73691,-1.63711 0.22707,-0.77057 0.23646,-1.59937 0.24546,-2.42828 -0.001,-0.83169 -0.003,-1.66356 -0.22376,-2.43964 -0.15306,-0.53824 -0.41117,-1.04968 -0.66973,-1.56115 -0.32268,-0.32729 -0.64582,-0.6548 -1.03559,-0.84181 -0.39376,-0.18893 -0.85553,-0.2348 -1.31775,-0.2806 z m -9.43405,0.17157 v 10.04073 l 1.55546,-5.2e-4 c 0.13721,-0.29936 0.274,-0.59796 0.46509,-0.8568 0.20568,-0.2786 0.474,-0.51106 0.74207,-0.7431 0.2748,-0.20561 0.54954,-0.41083 0.84749,-0.57516 0.25003,-0.13788 0.51653,-0.24687 0.7829,-0.35605 v -1.73891 c -0.45761,0.17614 -0.91554,0.35254 -1.33222,0.59841 -0.4075,0.24046 -0.77568,0.54723 -1.14411,0.85421 v -7.22281 z m -13.87461,1.418 c 0.11266,0.009 0.2257,0.0184 0.32867,0.0548 0.10278,0.0364 0.19577,0.0996 0.28887,0.1633 0.0894,0.10546 0.17889,0.21135 0.24649,0.32866 0.0962,0.16682 0.14789,0.35706 0.19999,0.54777 0.0511,0.31064 0.10253,0.6214 0.13333,0.9338 0.0483,0.49191 0.0464,0.98838 0.0444,1.48466 7e-4,0.50347 0.001,1.00703 -0.0496,1.50585 -0.0341,0.33393 -0.0911,0.66552 -0.14831,0.99736 -0.0472,0.16905 -0.0945,0.33819 -0.18087,0.48524 -0.0656,0.11163 -0.15406,0.21054 -0.24236,0.30954 -0.0939,0.0647 -0.18767,0.1295 -0.29146,0.1664 -0.1032,0.0366 -0.21621,0.0463 -0.32918,0.0553 -0.11273,-0.009 -0.22533,-0.0184 -0.32814,-0.0553 -0.10298,-0.0369 -0.19587,-0.1017 -0.28887,-0.1664 -0.0894,-0.10636 -0.1788,-0.21262 -0.2465,-0.33073 -0.0959,-0.16733 -0.1482,-0.35842 -0.2005,-0.54932 -0.0511,-0.31062 -0.10201,-0.62089 -0.13281,-0.93328 v -5.1e-4 c -0.0483,-0.49192 -0.0464,-0.98787 -0.0444,-1.48415 -8e-4,-0.50295 -0.001,-1.00606 0.0496,-1.5043 0.0341,-0.33221 0.0911,-0.66207 0.14831,-0.99219 0.0471,-0.16907 0.094,-0.33819 0.18035,-0.48524 0.0656,-0.11163 0.15406,-0.21064 0.24236,-0.30954 0.0939,-0.0647 0.18767,-0.1294 0.29146,-0.1664 0.10317,-0.0366 0.21621,-0.0463 0.32917,-0.0553 z m 7.76956,0 c 0.11265,0.009 0.22517,0.0184 0.32814,0.0548 0.10278,0.0364 0.19629,0.0996 0.28939,0.1633 0.0894,0.10546 0.1789,0.21135 0.2465,0.32866 0.0962,0.16682 0.14788,0.35706 0.19998,0.54777 0.0511,0.31064 0.10253,0.6214 0.13333,0.9338 0.0483,0.49191 0.0459,0.98838 0.0439,1.48466 7e-4,0.50347 0.002,1.00703 -0.0491,1.50585 -0.034,0.33393 -0.0911,0.66552 -0.14831,0.99736 -0.0472,0.16905 -0.0945,0.33819 -0.18087,0.48524 -0.0656,0.11163 -0.15406,0.21054 -0.24236,0.30954 -0.0939,0.0647 -0.18767,0.1295 -0.29146,0.1664 -0.10319,0.0366 -0.21621,0.0463 -0.32917,0.0553 -0.11273,-0.009 -0.22533,-0.0184 -0.32815,-0.0553 -0.10298,-0.0369 -0.19639,-0.1017 -0.28939,-0.1664 -0.0894,-0.10636 -0.17828,-0.21262 -0.24598,-0.33073 -0.0959,-0.16733 -0.1483,-0.35842 -0.2005,-0.54932 -0.0511,-0.31062 -0.10253,-0.6214 -0.13333,-0.93379 -0.0483,-0.49192 -0.0459,-0.98787 -0.0439,-1.48415 -8e-4,-0.50295 -0.002,-1.00606 0.0491,-1.5043 0.0341,-0.33221 0.0911,-0.66207 0.14831,-0.99219 0.0472,-0.16907 0.0945,-0.33819 0.18087,-0.48524 0.0656,-0.11163 0.15406,-0.21064 0.24236,-0.30954 0.0939,-0.0647 0.18767,-0.1294 0.29146,-0.1664 0.10319,-0.0366 0.21621,-0.0463 0.32918,-0.0553 z m 15.5391,0 c 0.11265,0.009 0.22517,0.0184 0.32814,0.0548 0.10279,0.0364 0.19578,0.0996 0.28888,0.1633 0.0894,0.10546 0.17889,0.21135 0.24649,0.32866 0.0962,0.16682 0.14841,0.35758 0.20051,0.54829 0.0511,0.31064 0.102,0.62088 0.1328,0.93328 0.0483,0.49191 0.0464,0.98838 0.0444,1.48466 8e-4,0.50347 0.001,1.00703 -0.0496,1.50585 -0.0341,0.33393 -0.0911,0.66552 -0.14831,0.99736 -0.0472,0.16905 -0.0944,0.33819 -0.18087,0.48524 -0.0656,0.11163 -0.15355,0.21054 -0.24185,0.30954 -0.0939,0.0647 -0.18818,0.1295 -0.29197,0.1664 -0.10319,0.0366 -0.21622,0.0463 -0.32918,0.0553 -0.11273,-0.009 -0.22532,-0.0184 -0.32814,-0.0553 -0.10298,-0.0369 -0.19587,-0.1017 -0.28887,-0.1664 -0.0894,-0.10636 -0.1788,-0.21262 -0.2465,-0.33073 -0.0959,-0.16733 -0.14821,-0.35842 -0.20051,-0.54932 -0.0511,-0.31062 -0.102,-0.62089 -0.1328,-0.93328 -0.0483,-0.4919 -0.0465,-0.98838 -0.0445,-1.48466 -8e-4,-0.50295 -0.001,-1.00606 0.0496,-1.5043 0.0341,-0.33221 0.0911,-0.66207 0.14831,-0.99219 0.0471,-0.16907 0.0944,-0.33819 0.18087,-0.48524 0.0656,-0.11163 0.15355,-0.21064 0.24185,-0.30954 0.0939,-0.0647 0.18818,-0.1294 0.29197,-0.1664 0.1032,-0.0366 0.21621,-0.0463 0.32918,-0.0553 z M 94.896533,170.35653 v 10.04124 h 1.554944 c 0.137279,-0.29886 0.274518,-0.59795 0.465605,-0.85679 0.205677,-0.27861 0.474004,-0.51055 0.742073,-0.74259 0.274791,-0.20561 0.549534,-0.41135 0.847494,-0.57568 0.250037,-0.1379 0.51659,-0.24665 0.782898,-0.35501 v -1.73995 c -0.457542,0.17665 -0.91554,0.35306 -1.332219,0.59893 -0.407507,0.24046 -0.775767,0.54722 -1.144116,0.8537 v -7.22385 z m 6.998537,0 v 10.04124 h 1.55546 c 0.13722,-0.29886 0.27452,-0.59795 0.46561,-0.85679 0.20567,-0.27861 0.47348,-0.51055 0.74155,-0.74259 0.27479,-0.20561 0.54954,-0.41135 0.8475,-0.57568 0.25003,-0.1379 0.51654,-0.24665 0.7829,-0.35501 v -1.73995 c -0.45761,0.17665 -0.91503,0.35306 -1.33171,0.59893 -0.40751,0.24046 -0.77622,0.54722 -1.14463,0.8537 v -7.22385 z m 11.15953,5.1e-4 c -0.5249,0.002 -1.04929,0.003 -1.57355,0.0238 -0.28719,0.0111 -0.57445,0.0277 -0.86145,0.0445 -0.25263,0.0385 -0.50533,0.0769 -0.74104,0.16278 -0.21362,0.0778 -0.41316,0.1949 -0.61288,0.31161 -0.17429,0.14116 -0.34887,0.28216 -0.49144,0.4501 -0.14777,0.17406 -0.26147,0.37696 -0.37517,0.57981 -0.0925,0.21487 -0.18481,0.42941 -0.23771,0.6537 -0.0515,0.21831 -0.0652,0.4456 -0.0791,0.67283 0.0189,0.27725 0.0374,0.55481 0.12247,0.81029 0.0819,0.24595 0.22522,0.47136 0.36846,0.69711 0.18756,0.19984 0.37512,0.40006 0.59686,0.54777 0.24225,0.16142 0.52518,0.26047 0.80822,0.35967 -0.20446,0.10951 -0.4086,0.21929 -0.58033,0.3669 -0.17004,0.14618 -0.30799,0.32958 -0.44596,0.51315 -0.11044,0.20055 -0.22112,0.401 -0.28422,0.61547 -0.0633,0.21522 -0.0789,0.44467 -0.0946,0.67386 0.0118,0.20915 0.0235,0.4183 0.0765,0.6165 0.0512,0.19124 0.14098,0.37189 0.23048,0.55294 0.107,0.1641 0.21386,0.32862 0.34519,0.47025 0.1258,0.13568 0.27406,0.25028 0.4222,0.36535 0.16005,0.0959 0.31991,0.19215 0.49093,0.26045 0.1764,0.0704 0.36487,0.11125 0.55293,0.15245 0.24447,0.0287 0.4886,0.0575 0.73381,0.0744 0.34436,0.0247 0.69029,0.0244 1.03611,0.0248 l 3.99717,5.1e-4 V 170.3571 Z m -0.70745,1.68362 c 0.0744,2.2e-4 0.14883,8e-4 0.22324,0.002 h 1.86914 v 2.67477 l -1.6304,-5.1e-4 c -0.3804,0.003 -0.76055,0.007 -1.13636,-0.0362 -0.21903,-0.0252 -0.43674,-0.0664 -0.65422,-0.10748 -0.12804,-0.0528 -0.2558,-0.10584 -0.36381,-0.18604 -0.10053,-0.0746 -0.18396,-0.173 -0.26716,-0.2713 -0.0636,-0.11332 -0.12742,-0.2265 -0.16382,-0.34778 -0.0398,-0.13237 -0.0473,-0.27413 -0.0543,-0.416 0.009,-0.16465 0.0172,-0.32945 0.0708,-0.47852 0.0473,-0.13176 0.12989,-0.25144 0.21239,-0.37104 0.10277,-0.0962 0.20521,-0.19186 0.32453,-0.25786 0.12419,-0.0687 0.26664,-0.10508 0.40876,-0.14108 0.16415,-0.0175 0.32795,-0.0351 0.49247,-0.046 0.22238,-0.0144 0.4455,-0.0172 0.6687,-0.0165 z m 0.29042,4.33824 c 0.15946,-8.8e-4 0.31901,7e-5 0.47852,0.002 l 1.32344,5.1e-4 v 2.31252 l -1.15962,-0.001 c -0.38159,0.001 -0.76293,0.003 -1.14412,-0.009 -0.1939,-0.006 -0.38808,-0.0153 -0.58188,-0.0253 -0.15404,-0.0258 -0.3079,-0.0521 -0.44235,-0.11886 -0.11568,-0.0574 -0.21711,-0.14494 -0.31832,-0.23254 -0.0746,-0.10742 -0.14902,-0.21477 -0.19172,-0.33332 -0.0472,-0.13105 -0.0556,-0.27597 -0.0636,-0.42064 0.0103,-0.15145 0.0202,-0.30265 0.0739,-0.43719 0.0495,-0.12415 0.13623,-0.23392 0.22273,-0.34364 0.11274,-0.0896 0.22528,-0.17953 0.35191,-0.23823 0.14257,-0.0661 0.30282,-0.0932 0.46303,-0.12041 0.16993,-0.01 0.34,-0.0198 0.51004,-0.0258 0.15932,-0.005 0.31855,-0.008 0.47801,-0.009 z" /><path
       id="path201"
       style="fill:none;stroke:#000000;stroke-width:0.264583"
       d="m -33.147331,108.92823 v 25.70955 h 4.571814 v 27.7244 h -4.571814 v 25.71006 H 6.8905355 c 0.5522844,0 0.9999388,-0.44818 0.9999389,-1.00045 v -3.57188 H 35.614364 v 3.57188 c 0,0.55228 0.447654,1.00045 0.999939,1.00045 h 25.724011 c 0.552284,0 1.000456,-0.44817 1.000456,-1.00045 v -3.57188 h 27.723889 v 3.57188 c 0,0.55227 0.447654,1.00045 0.999939,1.00045 h 25.724012 c 0.55228,0 0.99994,-0.44818 0.99994,-1.00045 v -3.57188 h 27.7244 v 3.57188 c 0,0.55227 0.44766,1.00045 0.99994,1.00045 h 25.72401 c 0.55228,0 0.99994,-0.44818 0.99994,-1.00045 v -3.57188 h 27.72441 v 3.57188 c 0,0.55227 0.44766,1.00045 0.99994,1.00045 h 40.03735 v -25.71006 h -4.57182 v -27.7244 h 4.57182 v -25.70955 h -41.03729 v 4.57182 h -27.72441 v -4.57182 h -27.72389 v 4.57182 h -27.7244 v -4.57182 H 91.062659 v 4.57182 H 63.33877 v -4.57182 H 35.614364 v 4.57182 H 7.8904744 v -4.57182 z m 98.07205,24.57163 c 8.284256,0 15.000118,6.71586 15.000118,15.00012 0,8.28426 -6.715862,15.00012 -15.000118,15.00012 -8.284253,0 -15.000118,-6.71586 -15.000118,-15.00012 0,-8.28426 6.715865,-15.00012 15.000118,-15.00012 z m 79.999771,0 c 8.28425,0 15.00012,6.71586 15.00012,15.00012 0,8.28426 -6.71587,15.00012 -15.00012,15.00012 -8.28425,0 -14.9996,-6.71586 -14.9996,-15.00012 0,-8.28426 6.71535,-15.00012 14.9996,-15.00012 z" /></g></svg>
