<?xml version="1.0" encoding="UTF-8" standalone="no"?>
<!-- Created with Inkscape (http://www.inkscape.org/) -->

<svg
   width="276.40845mm"
   height="79.408592mm"
   viewBox="0 0 276.40845 79.408592"
   version="1.1"
   id="svg1"
   xml:space="preserve"
   inkscape:version="1.3.2 (091e20e, 2023-11-25, custom)"
   sodipodi:docname="Electronic front.svg"
   xmlns:inkscape="http://www.inkscape.org/namespaces/inkscape"
   xmlns:sodipodi="http://sodipodi.sourceforge.net/DTD/sodipodi-0.dtd"
   xmlns="http://www.w3.org/2000/svg"
   xmlns:svg="http://www.w3.org/2000/svg"><sodipodi:namedview
     id="namedview1"
     pagecolor="#ffffff"
     bordercolor="#000000"
     borderopacity="0.25"
     inkscape:showpageshadow="2"
     inkscape:pageopacity="0.0"
     inkscape:pagecheckerboard="0"
     inkscape:deskcolor="#d1d1d1"
     inkscape:document-units="mm"
     inkscape:zoom="0.69219276"
     inkscape:cx="273.76767"
     inkscape:cy="33.950081"
     inkscape:window-width="1920"
     inkscape:window-height="991"
     inkscape:window-x="1647"
     inkscape:window-y="-9"
     inkscape:window-maximized="1"
     inkscape:current-layer="layer1" /><defs
     id="defs1"><marker
       id="DistanceX"
       orient="auto"
       refX="0"
       refY="0"
       style="overflow:visible"><path
         d="M 3,-3 -3,3 M 0,-5 V 5"
         style="stroke:#000000;stroke-width:0.5"
         id="path1" /></marker><pattern
       id="Hatch"
       patternUnits="userSpaceOnUse"
       width="8"
       height="8"
       x="0"
       y="0"><path
         d="M8 4 l-4,4"
         stroke="#000000"
         stroke-width="0.25"
         linecap="square"
         id="path2" /><path
         d="M6 2 l-4,4"
         stroke="#000000"
         stroke-width="0.25"
         linecap="square"
         id="path3" /><path
         d="M4 0 l-4,4"
         stroke="#000000"
         stroke-width="0.25"
         linecap="square"
         id="path4" /></pattern><symbol
       id="*MODEL_SPACE" /><symbol
       id="*PAPER_SPACE" /></defs><g
     inkscape:label="Layer 1"
     inkscape:groupmode="layer"
     id="layer1"
     transform="translate(33.279622,-108.79594)"><path
       id="path5"
       style="fill:none;stroke:#000000;stroke-width:0.264583"
       d="m -33.147331,108.92823 v 25.70955 h 4.571814 v 27.7244 h -4.571814 v 25.71006 H 6.8905355 c 0.5522844,0 0.9999388,-0.44818 0.9999389,-1.00045 v -3.57188 H 35.614364 v 3.57188 c 0,0.55228 0.447654,1.00045 0.999939,1.00045 h 25.724011 c 0.552284,0 1.000456,-0.44817 1.000456,-1.00045 v -3.57188 h 27.723889 v 3.57188 c 0,0.55227 0.447654,1.00045 0.999939,1.00045 h 25.724012 c 0.55229,1e-5 0.99994,-0.44817 0.99994,-1.00045 v -3.57188 h 27.7244 v 3.57188 c 0,0.55228 0.44765,1.00046 0.99994,1.00045 h 25.72401 c 0.55228,0 0.99994,-0.44818 0.99994,-1.00045 v -3.57188 h 27.72441 v 3.57188 c 0,0.55227 0.44766,1.00045 0.99994,1.00045 h 40.03735 v -25.71006 h -4.57182 v -27.7244 h 4.57182 v -25.70955 h -41.03729 v 4.57182 h -27.72441 v -4.57182 h -27.72389 v 4.57182 h -27.7244 v -4.57182 H 91.062659 v 4.57182 H 63.33877 v -4.57182 H 35.614364 v 4.57182 H 7.8904744 v -4.57182 z m 20.571871,10.07174 h 85.090414 c 0.552283,0 0.999939,0.44765 0.999939,0.99994 v 56.88025 c 1.1e-5,0.55229 -0.447648,0.99994 -0.999939,0.99994 H -12.57546 c -0.552291,0 -0.99995,-0.44765 -0.999939,-0.99994 v -56.88025 c 0,-0.55228 0.447656,-0.99994 0.999939,-0.99994 z m 92.089986,4.63021 c 0.899999,0 1.800407,0.59989 1.800407,1.79989 0,2.4 -3.600297,2.4 -3.600297,0 0,-1.2 0.899892,-1.79989 1.79989,-1.79989 z m -99.090592,5.2e-4 c 0.899998,0 1.800524,0.59977 1.800924,1.79937 8e-4,2.3992 -3.599497,2.3992 -3.600297,0 -4e-4,-1.1996 0.899375,-1.79937 1.799373,-1.79937 z m 208.000736,9.61905 h 8.99997 c 0.5523,-1e-5 0.99995,0.44815 0.99994,1.00045 v 28.49956 c -1e-5,0.55228 -0.44766,1.00046 -0.99994,1.00045 h -8.99997 c -0.55226,0 -0.99992,-0.44817 -0.99993,-1.00045 V 134.2502 c -1e-5,-0.55229 0.44766,-1.00045 0.99993,-1.00045 z M 79.514526,169.65011 c 0.899999,0 1.800407,0.59989 1.800407,1.79989 0,2.4 -3.600297,2.4 -3.600297,0 0,-1.2 0.899892,-1.79989 1.79989,-1.79989 z m -99.090592,5.2e-4 c 0.899998,0 1.800524,0.59977 1.800924,1.79937 8e-4,2.3992 -3.599497,2.3992 -3.600297,0 -4e-4,-1.1996 0.899375,-1.79937 1.799373,-1.79937 z" /><path
       d="m 102.44223,124.9132 c 0.41668,-0.24587 0.87427,-0.42222 1.33184,-0.59889 v 1.74018 c -0.26634,0.10839 -0.53269,0.21722 -0.78273,0.35512 -0.29796,0.16433 -0.57275,0.36994 -0.84754,0.57555 -0.26807,0.23204 -0.53614,0.46405 -0.74182,0.74265 -0.19108,0.25885 -0.32832,0.5579 -0.46557,0.85674 l -1.555236,-2e-4 v -10.04094 h 1.916906 l -6e-5,7.22365 c 0.36832,-0.30646 0.7367,-0.6134 1.14421,-0.85386 z"
       style="fill:none;stroke:#000000;stroke-width:0.264583"
       id="path12"
       sodipodi:nodetypes="sccscscccccs" /><path
       id="path31"
       style="fill:none;stroke:#000000;stroke-width:0.264583"
       d="m 110.54106,168.76128 c -0.52487,0.002 -1.0498,0.004 -1.57407,0.0243 -0.28718,0.0111 -0.57444,0.0277 -0.86144,0.0444 -0.25263,0.0385 -0.50533,0.0769 -0.74104,0.16279 -0.21362,0.0778 -0.41316,0.19438 -0.61289,0.31109 -0.17428,0.14113 -0.34835,0.28214 -0.49092,0.4501 -0.14777,0.17407 -0.26147,0.37693 -0.37517,0.57981 -0.0925,0.21484 -0.18533,0.42996 -0.23823,0.65422 -0.0515,0.21831 -0.0652,0.4456 -0.0791,0.67283 0.0189,0.27728 0.0375,0.55429 0.12248,0.80977 0.0819,0.24595 0.22522,0.47186 0.36845,0.69763 0.18757,0.19982 0.37512,0.39951 0.59686,0.54725 0.24224,0.16139 0.52518,0.26047 0.80822,0.35967 -0.20447,0.10949 -0.40859,0.21927 -0.58032,0.36691 -0.17004,0.14618 -0.30804,0.3296 -0.44597,0.51314 -0.11039,0.20058 -0.22112,0.40152 -0.28422,0.61599 -0.0634,0.21518 -0.0789,0.44413 -0.0946,0.67334 0.0118,0.20913 0.024,0.41828 0.077,0.6165 0.0512,0.19122 0.14046,0.37237 0.22996,0.55345 0.107,0.16409 0.21387,0.32811 0.3452,0.46974 0.1258,0.13568 0.27405,0.25081 0.42219,0.36587 0.16005,0.0959 0.32043,0.19163 0.49145,0.25993 0.1764,0.0704 0.36436,0.11177 0.55242,0.15297 0.24447,0.0288 0.4886,0.057 0.7338,0.0739 0.34437,0.0246 0.69033,0.0249 1.03611,0.0253 l 3.99718,5.1e-4 v -10.00145 z m -0.70797,1.68361 c 0.0744,2.2e-4 0.14881,8e-4 0.22324,0.002 l 1.86914,5.2e-4 v 2.67477 l -1.63039,-5.1e-4 c -0.3804,0.003 -0.76055,0.007 -1.13637,-0.0367 -0.21903,-0.0252 -0.43674,-0.0664 -0.65422,-0.10749 -0.12803,-0.0529 -0.25579,-0.10532 -0.3638,-0.18552 -0.10053,-0.0746 -0.18397,-0.173 -0.26717,-0.2713 -0.0636,-0.1133 -0.12732,-0.22649 -0.16382,-0.34778 -0.0398,-0.13237 -0.0473,-0.27413 -0.0543,-0.416 0.009,-0.16462 0.0172,-0.32945 0.0708,-0.47852 0.0473,-0.13173 0.12989,-0.25147 0.21239,-0.37104 0.10277,-0.0962 0.20521,-0.19238 0.32453,-0.25838 0.12419,-0.0686 0.26665,-0.10446 0.40876,-0.14056 0.16416,-0.0176 0.32796,-0.0351 0.49248,-0.046 0.22237,-0.0144 0.44546,-0.0177 0.66869,-0.0171 z m 0.29042,4.33824 c 0.15946,-8.8e-4 0.31902,7e-5 0.47852,0.002 l 1.32344,5.1e-4 v 2.31252 l -1.15962,-0.001 c -0.38156,0.001 -0.76294,0.003 -1.14412,-0.009 -0.1939,-0.006 -0.38806,-0.0158 -0.58187,-0.0258 -0.15403,-0.0259 -0.30789,-0.0515 -0.44235,-0.11834 -0.11567,-0.0574 -0.21661,-0.14536 -0.31781,-0.23306 -0.0746,-0.10742 -0.14954,-0.21476 -0.19224,-0.33332 -0.0472,-0.13104 -0.0556,-0.27547 -0.0636,-0.42012 0.0103,-0.15145 0.0202,-0.30318 0.0739,-0.4377 0.0495,-0.12414 0.13623,-0.2339 0.22273,-0.34365 0.11274,-0.0896 0.22525,-0.17901 0.35192,-0.23771 0.14257,-0.0661 0.30281,-0.0931 0.46302,-0.12041 0.16993,-0.01 0.34001,-0.0198 0.51004,-0.0258 0.15932,-0.005 0.31855,-0.008 0.47801,-0.009 z" /><path
       d="m 219.7175,146.37575 c -0.0797,-0.16203 -0.201,-0.30398 -0.32231,-0.44595 -0.138,-0.11041 -0.276,-0.22082 -0.43315,-0.28393 -0.15278,-0.0614 -0.32366,-0.078 -0.49454,-0.0946 -0.19368,0.0217 -0.38736,0.0436 -0.55423,0.1219 -0.17332,0.0813 -0.31774,0.22355 -0.46214,0.36579 -0.12096,0.19862 -0.24191,0.39724 -0.31208,0.61137 -0.0884,0.2698 -0.0962,0.5642 -0.10402,0.85863 0.008,0.27691 0.0168,0.55385 0.10317,0.80576 0.0695,0.20264 0.18951,0.3891 0.30951,0.57555 0.15,0.13427 0.3,0.26855 0.47494,0.34531 0.18184,0.0798 0.39063,0.0975 0.59942,0.11512 0.27283,-0.036 0.54568,-0.0719 0.78274,-0.18246 0.26152,-0.12197 0.4795,-0.3347 0.6975,-0.54719 l 1.55524,0.22511 -0.98239,5.20436 h -5.0681 v -1.79388 h 3.61527 l 0.30009,-1.6986 c -0.21272,0.0935 -0.42549,0.18701 -0.64797,0.24048 -0.21453,0.0515 -0.4381,0.0658 -0.66166,0.0801 -0.40925,-0.0389 -0.81849,-0.0778 -1.17838,-0.23191 -0.36112,-0.1546 -0.67254,-0.42518 -0.98397,-0.69577 -0.25853,-0.34137 -0.51705,-0.68274 -0.66507,-1.06583 -0.16027,-0.41476 -0.19098,-0.87841 -0.22169,-1.34207 0.029,-0.39939 0.0581,-0.79877 0.17905,-1.16816 0.11938,-0.36452 0.32828,-0.69982 0.53718,-1.03513 0.36105,-0.38595 0.72209,-0.77187 1.16473,-0.99248 0.45657,-0.22754 0.99994,-0.27919 1.54332,-0.33083 0.43182,0.0241 0.86363,0.0481 1.25682,0.18587 0.35462,0.12425 0.67782,0.34094 1.00102,0.55763 0.26247,0.27464 0.52493,0.54925 0.69748,0.87143 0.18229,0.34036 0.26424,0.7338 0.34612,1.12721 l -1.90987,0.19813 c -0.0374,-0.20189 -0.0747,-0.40345 -0.16203,-0.58096 z"
       style="fill:none;stroke:#000000;stroke-width:0.264583"
       id="path49"
       sodipodi:nodetypes="scscscscscscscccccccccscscscscscsccs" /><path
       id="path56"
       style="fill:none;stroke:#000000;stroke-width:0.264583"
       d="m 162.71617,150.77684 c -0.45315,0.0362 -0.90664,0.0729 -1.29346,0.25373 -0.36356,0.16997 -0.66809,0.46756 -0.97307,0.76533 -0.28586,0.5358 -0.57185,1.07167 -0.74001,1.63918 -0.2292,0.77343 -0.24013,1.60574 -0.25063,2.43809 0.006,0.83297 0.0131,1.66582 0.23926,2.44068 0.16493,0.56507 0.4469,1.09932 0.72864,1.63349 0.30509,0.30292 0.61019,0.60563 0.97565,0.77928 0.38631,0.18352 0.83969,0.2229 1.29346,0.262 0.45314,-0.0362 0.90663,-0.0723 1.29346,-0.25321 0.36356,-0.17 0.66861,-0.46809 0.97359,-0.76585 0.28589,-0.53462 0.57138,-1.06912 0.73949,-1.63556 0.22858,-0.77009 0.23973,-1.59887 0.25063,-2.42775 2.6e-4,-0.83172 5.9e-4,-1.66367 -0.21859,-2.44017 -0.15202,-0.53852 -0.40958,-1.05018 -0.66715,-1.56217 -0.32205,-0.3279 -0.64413,-0.6561 -1.03352,-0.84388 -0.3934,-0.18967 -0.85561,-0.23649 -1.31775,-0.28319 z m -0.003,1.58957 c 0.11264,0.009 0.22524,0.0187 0.32814,0.0553 0.10272,0.0366 0.19587,0.10054 0.28887,0.16434 0.0892,0.10565 0.17807,0.21123 0.24547,0.32866 0.0958,0.167 0.14777,0.35796 0.19947,0.5488 0.0505,0.31073 0.10105,0.62135 0.13125,0.93379 0.0474,0.49205 0.0443,0.98839 0.0413,1.48467 -3e-4,0.50347 -4e-4,1.00662 -0.0522,1.50533 -0.0347,0.33388 -0.0926,0.66565 -0.15038,0.99736 -0.0475,0.16896 -0.0952,0.33835 -0.1819,0.48524 -0.0658,0.1115 -0.15448,0.21022 -0.24288,0.30902 -0.094,0.0645 -0.18811,0.12857 -0.29197,0.16537 -0.10327,0.0365 -0.2162,0.0458 -0.32918,0.0548 -0.11271,-0.01 -0.2254,-0.0187 -0.32814,-0.0558 -0.10292,-0.0371 -0.19546,-0.10212 -0.28836,-0.16692 -0.0892,-0.10654 -0.17858,-0.21303 -0.24598,-0.33125 -0.0955,-0.16753 -0.14757,-0.35883 -0.19947,-0.54983 -0.0505,-0.31073 -0.10116,-0.62135 -0.13126,-0.9338 -0.0475,-0.49201 -0.0443,-0.9884 -0.0413,-1.48466 2e-4,-0.50294 6.1e-4,-1.00568 0.0527,-1.50378 0.0347,-0.33216 0.0921,-0.66217 0.14986,-0.99219 0.0475,-0.16896 0.0952,-0.33786 0.18191,-0.48473 0.0658,-0.1115 0.15437,-0.21022 0.24287,-0.30902 0.094,-0.0645 0.18812,-0.12918 0.29198,-0.16588 0.10327,-0.0365 0.2162,-0.0458 0.32918,-0.0548 z" /><path
       id="path65"
       style="fill:none;stroke:#000000;stroke-width:0.264583"
       d="m 147.17706,150.74687 c -0.45315,0.0362 -0.90611,0.0724 -1.29294,0.25322 -0.36356,0.16997 -0.66861,0.46808 -0.97359,0.76584 -0.28586,0.53581 -0.57184,1.07115 -0.74,1.63866 -0.2292,0.77343 -0.23952,1.60576 -0.25012,2.43809 0.006,0.83296 0.0131,1.66632 0.23927,2.4412 0.16492,0.56505 0.44638,1.09932 0.72812,1.63349 0.30509,0.30292 0.61019,0.60564 0.97565,0.77928 0.38631,0.18353 0.84022,0.22238 1.29398,0.26148 0.45315,-0.0362 0.90611,-0.0724 1.29294,-0.25321 0.36356,-0.16999 0.6686,-0.46756 0.97358,-0.76533 0.28588,-0.53461 0.5719,-1.06911 0.74001,-1.63556 0.22858,-0.77009 0.23921,-1.59936 0.25011,-2.42827 2.6e-4,-0.83169 5.9e-4,-1.66315 -0.21859,-2.43965 -0.15202,-0.53854 -0.40957,-1.05069 -0.66714,-1.56269 -0.32205,-0.32789 -0.64412,-0.65558 -1.03353,-0.84336 -0.39339,-0.18968 -0.85562,-0.23649 -1.31775,-0.28319 z m -0.003,1.58957 c 0.11264,0.009 0.22525,0.0186 0.32815,0.0553 0.10271,0.0366 0.19587,0.0999 0.28887,0.16382 0.0892,0.10565 0.17858,0.21176 0.24598,0.32917 0.0958,0.16701 0.14725,0.35745 0.19895,0.54829 0.0505,0.31073 0.10106,0.62186 0.13126,0.93431 0.0474,0.49205 0.0443,0.98787 0.0413,1.48415 -3e-4,0.50347 -3.9e-4,1.00713 -0.0522,1.50585 -0.0347,0.33388 -0.0926,0.66562 -0.15038,0.99736 -0.0475,0.16896 -0.0947,0.33782 -0.18138,0.48472 -0.0658,0.1115 -0.15438,0.21023 -0.24288,0.30903 -0.094,0.0645 -0.1881,0.12908 -0.29197,0.16588 -0.10327,0.0365 -0.2162,0.0458 -0.32918,0.0548 -0.11271,-0.01 -0.2254,-0.0192 -0.32815,-0.0563 -0.10291,-0.0371 -0.19597,-0.1015 -0.28887,-0.1664 -0.0892,-0.10653 -0.17858,-0.21351 -0.24598,-0.33176 -0.0956,-0.1675 -0.14705,-0.35836 -0.19895,-0.54932 -0.0505,-0.31073 -0.10106,-0.62135 -0.13126,-0.9338 -0.0475,-0.49202 -0.0443,-0.98841 -0.0413,-1.48466 2e-4,-0.50295 9e-5,-1.00568 0.0522,-1.50379 0.0347,-0.33215 0.0926,-0.66217 0.15038,-0.99218 0.0475,-0.16896 0.0947,-0.33836 0.18138,-0.48525 0.0658,-0.11147 0.15438,-0.21022 0.24288,-0.30902 0.094,-0.0644 0.18811,-0.12867 0.29197,-0.16536 0.10327,-0.0366 0.2162,-0.0458 0.32918,-0.0548 z" /><path
       style="fill:none;stroke:#000000;stroke-width:0.264583"
       d="m 137.46637,135.29168 c -0.0524,0.70338 -0.10483,1.40699 -0.24196,2.09348 -0.14462,0.72398 -0.38347,1.42891 -0.62232,2.13384 -0.28991,0.6945 -0.57981,1.38903 -0.94786,2.03943 -0.35713,0.63114 -0.78784,1.22079 -1.21861,1.81062 l 4.35895,0.008 -0.003,1.78062 -6.55554,-0.0132 0.003,-1.39148 c 0.28383,-0.31554 0.56783,-0.6313 0.82027,-0.9702 0.30997,-0.41616 0.57237,-0.86725 0.83476,-1.31831 0.26429,-0.50626 0.52859,-1.01254 0.74225,-1.53932 0.21521,-0.53062 0.37906,-1.08207 0.5429,-1.63351 0.12897,-0.52779 0.25794,-1.05558 0.33137,-1.59126 0.064,-0.46691 0.0858,-0.93977 0.10757,-1.41216 z"
       id="path75"
       sodipodi:nodetypes="cscscccccscscscc" /><path
       id="path93"
       style="fill:none;stroke:#000000;stroke-width:0.264583"
       d="m 152.8346,135.32094 c -0.52486,0.001 -1.04977,0.002 -1.57407,0.0212 -0.28721,0.0106 -0.57388,0.0268 -0.86092,0.0429 -0.25269,0.038 -0.50568,0.0758 -0.74156,0.16123 -0.21377,0.0774 -0.41345,0.19375 -0.6134,0.31006 -0.17455,0.14081 -0.34907,0.2814 -0.49196,0.44907 -0.14812,0.17377 -0.26263,0.37664 -0.37672,0.57929 -0.0929,0.21468 -0.18545,0.42901 -0.23875,0.65319 -0.0519,0.21821 -0.0662,0.44563 -0.0806,0.67283 0.0183,0.2773 0.0363,0.55464 0.12092,0.81028 0.0814,0.24612 0.22411,0.47212 0.3669,0.69815 0.18718,0.20021 0.37438,0.40064 0.59583,0.5488 0.24194,0.16188 0.52487,0.26142 0.80771,0.36122 -0.20467,0.10911 -0.40934,0.21806 -0.58136,0.36535 -0.17032,0.14584 -0.30868,0.32936 -0.44701,0.51263 -0.11083,0.20037 -0.22175,0.40058 -0.28525,0.61495 -0.0637,0.21508 -0.0795,0.4442 -0.0956,0.67335 0.0114,0.20916 0.0228,0.41817 0.0754,0.6165 0.0508,0.19132 0.13972,0.37273 0.22892,0.55397 0.10668,0.16431 0.21363,0.3289 0.34469,0.47077 0.12554,0.13592 0.27325,0.25103 0.42116,0.36639 0.15987,0.0962 0.32004,0.19236 0.49092,0.26096 0.17627,0.0708 0.36393,0.11198 0.55191,0.15348 0.24441,0.0291 0.48915,0.0585 0.73432,0.076 v -5.2e-4 c 0.34431,0.0233 0.68975,0.0268 1.0356,0.0264 l 3.99717,0.008 0.0196,-9.99887 z m -0.71055,1.6831 c 0.0744,3.2e-4 0.14883,8e-4 0.22324,0.002 l 1.86862,0.003 -0.005,2.67477 -1.63039,-0.004 c -0.3804,0.004 -0.76115,0.006 -1.13688,-0.0377 -0.21898,-0.0256 -0.43631,-0.067 -0.65371,-0.10852 -0.12794,-0.0531 -0.25595,-0.10616 -0.3638,-0.18656 -0.10038,-0.0748 -0.18314,-0.17341 -0.26614,-0.27181 -0.0634,-0.11343 -0.12709,-0.22645 -0.16329,-0.34779 -0.0396,-0.13245 -0.0468,-0.27464 -0.0538,-0.41651 0.009,-0.16463 0.0179,-0.32905 0.0718,-0.47801 0.0476,-0.13166 0.13021,-0.25108 0.21291,-0.37052 0.10296,-0.096 0.2061,-0.19216 0.32556,-0.25786 0.12431,-0.0684 0.26657,-0.10393 0.40876,-0.13953 0.16419,-0.0172 0.32844,-0.0349 0.49299,-0.0455 0.2224,-0.0139 0.4455,-0.0159 0.6687,-0.015 z m 0.28163,4.33875 c 0.15947,-7.5e-4 0.31901,5.7e-4 0.47853,0.002 l 1.32395,0.003 -0.005,2.31252 -1.1591,-0.003 c -0.38159,6e-4 -0.76349,0.001 -1.14463,-0.0114 -0.19389,-0.007 -0.38757,-0.0163 -0.58136,-0.0264 -0.15398,-0.0262 -0.30802,-0.0524 -0.44235,-0.11937 -0.11557,-0.0576 -0.21627,-0.14568 -0.3173,-0.23358 -0.0744,-0.10755 -0.1487,-0.21522 -0.1912,-0.33383 -0.047,-0.13116 -0.0556,-0.27596 -0.0636,-0.42064 0.0105,-0.15142 0.0215,-0.30275 0.0754,-0.43718 0.0498,-0.12404 0.13603,-0.23355 0.22273,-0.34314 0.11292,-0.0893 0.22618,-0.17869 0.35295,-0.23719 0.1427,-0.0659 0.30276,-0.0923 0.46302,-0.11886 0.16995,-0.009 0.34,-0.0188 0.51005,-0.0248 0.15933,-0.006 0.31854,-0.008 0.478,-0.009 z" /><path
       id="path103"
       style="fill:none;stroke:#000000;stroke-width:0.264583"
       d="m 143.33957,135.13232 c -0.45315,0.0362 -0.90611,0.0723 -1.29294,0.25321 -0.36356,0.16997 -0.66861,0.46809 -0.97359,0.76585 -0.28586,0.53578 -0.57183,1.07115 -0.74,1.63866 -0.22919,0.77343 -0.23962,1.60577 -0.25012,2.43809 0.006,0.83297 0.0131,1.66634 0.23926,2.4412 0.16492,0.56507 0.44638,1.09877 0.72813,1.63297 0.30508,0.30292 0.61019,0.60616 0.97565,0.7798 0.38631,0.18353 0.84021,0.22238 1.29397,0.26148 0.45315,-0.0362 0.90612,-0.0724 1.29295,-0.25321 0.36356,-0.16999 0.6686,-0.46756 0.97358,-0.76533 0.28588,-0.53461 0.5719,-1.06911 0.74001,-1.63556 0.22858,-0.77009 0.23921,-1.59936 0.25011,-2.42827 2.6e-4,-0.83169 5.9e-4,-1.66315 -0.21859,-2.43965 -0.15201,-0.53854 -0.40956,-1.05069 -0.66714,-1.56269 -0.32204,-0.3279 -0.64413,-0.65558 -1.03353,-0.84336 -0.39339,-0.1897 -0.85562,-0.23649 -1.31775,-0.28319 z m -0.003,1.58957 c 0.11264,0.009 0.22524,0.0187 0.32814,0.0553 0.10271,0.0366 0.19536,0.0999 0.28836,0.16382 0.0892,0.10565 0.17858,0.21175 0.24598,0.32917 0.0958,0.16701 0.14777,0.35748 0.19947,0.54829 0.0505,0.31076 0.10064,0.62186 0.13074,0.93431 0.0475,0.49204 0.0449,0.98787 0.0419,1.48415 -3e-4,0.50347 -9.1e-4,1.00713 -0.0527,1.50585 -0.0347,0.33387 -0.0926,0.66561 -0.15038,0.99735 -0.0475,0.16896 -0.0947,0.33783 -0.18139,0.48473 -0.0658,0.1115 -0.15437,0.21022 -0.24287,0.30902 -0.094,0.0645 -0.18812,0.12919 -0.29198,0.16589 -0.10327,0.0365 -0.2162,0.0458 -0.32918,0.0548 -0.11271,-0.009 -0.22539,-0.0192 -0.32814,-0.0563 -0.10291,-0.0371 -0.19597,-0.10212 -0.28887,-0.16692 -0.0892,-0.10653 -0.17807,-0.213 -0.24546,-0.33125 -0.0955,-0.1675 -0.14758,-0.35835 -0.19948,-0.54932 -0.0505,-0.31076 -0.10105,-0.62134 -0.13125,-0.93379 -0.0474,-0.49202 -0.0444,-0.98841 -0.0413,-1.48466 2e-4,-0.50295 2e-4,-1.00568 0.0522,-1.50379 0.0347,-0.33218 0.0926,-0.66217 0.15038,-0.99218 0.0475,-0.16896 0.0952,-0.33836 0.1819,-0.48525 0.0658,-0.1115 0.15438,-0.21022 0.24288,-0.30902 0.094,-0.0645 0.18758,-0.12857 0.29145,-0.16537 0.10326,-0.0366 0.21672,-0.0458 0.3297,-0.0548 z" /><path
       d="m 163.52796,143.65041 0.004,-2.21691 -5.02046,-0.01 0.003,-1.68487 5.02046,0.01 0.005,-2.72169 -5.58662,-0.0109 0.003,-1.68486 7.60571,0.0148 -0.0194,9.99998 -7.41472,-0.0143 0.003,-1.69166 z"
       style="fill:none;stroke:#000000;stroke-width:0.264583"
       id="path105"
       sodipodi:nodetypes="ccccccccccccc" /><path
       id="path107"
       style="fill:none;stroke:#000000;stroke-width:0.264583"
       d="m 139.40751,150.73188 c -0.45315,0.0362 -0.90611,0.0724 -1.29294,0.25322 -0.36356,0.16997 -0.66861,0.46757 -0.97359,0.76533 -0.28586,0.53578 -0.57184,1.07166 -0.74,1.63917 -0.2292,0.77343 -0.23952,1.60578 -0.25012,2.4381 0.006,0.83297 0.0131,1.66582 0.23926,2.44068 0.16493,0.56507 0.44638,1.09932 0.72813,1.63349 0.30508,0.30292 0.61019,0.60616 0.97565,0.7798 0.38631,0.18352 0.8402,0.22238 1.29397,0.26148 0.45314,-0.0362 0.90612,-0.0724 1.29295,-0.25322 0.36356,-0.16999 0.6686,-0.46755 0.97358,-0.76532 0.28589,-0.53461 0.5719,-1.06911 0.74001,-1.63556 0.22858,-0.77009 0.23921,-1.59937 0.25011,-2.42828 2.6e-4,-0.83169 5.9e-4,-1.66315 -0.21859,-2.43964 -0.15202,-0.53854 -0.40957,-1.0507 -0.66714,-1.5627 -0.32205,-0.3279 -0.64413,-0.65558 -1.03353,-0.84336 -0.3934,-0.1897 -0.85561,-0.23649 -1.31775,-0.28319 z m -0.003,1.58957 c 0.11263,0.009 0.22525,0.0182 0.32814,0.0548 0.10272,0.0366 0.19536,0.10043 0.28836,0.16433 0.0892,0.10565 0.17858,0.21124 0.24598,0.32866 0.0958,0.16701 0.14777,0.35799 0.19947,0.54881 0.0505,0.31076 0.10106,0.62134 0.13126,0.93379 0.0474,0.49204 0.0443,0.98838 0.0413,1.48466 -3e-4,0.50347 -9.1e-4,1.00713 -0.0527,1.50585 -0.0347,0.33387 -0.0926,0.66562 -0.15038,0.99736 -0.0475,0.16896 -0.0947,0.33782 -0.18139,0.48472 -0.0658,0.11149 -0.15447,0.21023 -0.24287,0.30903 -0.094,0.0645 -0.18811,0.12918 -0.29198,0.16588 -0.10327,0.0365 -0.2162,0.0458 -0.32918,0.0548 -0.1127,-0.009 -0.22539,-0.0192 -0.32814,-0.0563 -0.10291,-0.0372 -0.19597,-0.10201 -0.28887,-0.16691 -0.0892,-0.10652 -0.17806,-0.213 -0.24546,-0.33125 -0.0955,-0.1675 -0.14758,-0.35835 -0.19948,-0.54932 -0.0505,-0.31076 -0.10105,-0.62134 -0.13125,-0.93379 -0.0475,-0.49202 -0.0443,-0.98842 -0.0413,-1.48467 2e-4,-0.50295 10e-5,-1.00619 0.0522,-1.5043 0.0347,-0.33218 0.0926,-0.66218 0.15038,-0.99219 0.0475,-0.16896 0.0952,-0.33783 0.1819,-0.48472 0.0658,-0.1115 0.15386,-0.21023 0.24236,-0.30903 0.094,-0.0645 0.18811,-0.12856 0.29197,-0.16536 0.10327,-0.0366 0.21671,-0.0458 0.3297,-0.0548 z" /><path
       style="fill:none;stroke:#000000;stroke-width:0.264583"
       d="m 153.26251,160.96917 0.0193,-10.04076 1.91691,0.005 -0.0141,7.22324 c 0.36893,-0.30627 0.73791,-0.61252 1.14588,-0.85218 0.41716,-0.24506 0.87509,-0.42053 1.33302,-0.59551 l -0.003,1.73886 c -0.26676,0.10842 -0.53333,0.21671 -0.78363,0.35413 -0.29828,0.16376 -0.57347,0.36883 -0.84866,0.57391 -0.26852,0.23151 -0.53704,0.46302 -0.74326,0.74121 -0.19158,0.25847 -0.3294,0.55726 -0.46716,0.85541 z"
       id="path118"
       sodipodi:nodetypes="ccccsccscscc" /><path
       id="path133"
       style="fill:none;stroke:#000000;stroke-width:0.264583"
       d="m 231.47579,144.18655 -3.40392,5.1e-4 c -0.52487,0.002 -1.04981,0.003 -1.57407,0.0238 -0.28719,0.0111 -0.57392,0.0277 -0.86093,0.0444 -0.25262,0.0385 -0.50533,0.0769 -0.74104,0.16278 -0.21362,0.0778 -0.41368,0.19438 -0.6134,0.31109 -0.17428,0.14113 -0.34836,0.28217 -0.49092,0.4501 -0.14778,0.17407 -0.26148,0.37693 -0.37517,0.57981 -0.0925,0.21487 -0.18481,0.42994 -0.23771,0.65423 -0.0515,0.21831 -0.0657,0.4456 -0.0796,0.67282 0.0189,0.27728 0.038,0.55429 0.12299,0.80977 0.0819,0.24596 0.22523,0.47186 0.36846,0.69763 0.18756,0.19984 0.37512,0.39955 0.59686,0.54726 0.24225,0.1614 0.52519,0.26098 0.80822,0.36018 -0.20446,0.10951 -0.4091,0.21875 -0.58084,0.36639 -0.17004,0.14618 -0.30805,0.32958 -0.44597,0.51315 -0.1104,0.20054 -0.22061,0.40151 -0.28371,0.61598 -0.0634,0.21522 -0.0789,0.44413 -0.0946,0.67334 0.0118,0.20912 0.0234,0.41827 0.0765,0.6165 0.0512,0.19124 0.14097,0.37238 0.23047,0.55346 0.10699,0.1641 0.21387,0.32811 0.3452,0.46974 0.12581,0.13565 0.27407,0.25079 0.4222,0.36586 0.16006,0.0959 0.31991,0.19164 0.49093,0.25994 0.1764,0.0704 0.36435,0.11176 0.55242,0.15296 0.24447,0.0288 0.48911,0.057 0.73432,0.0739 0.34436,0.0246 0.69031,0.0248 1.03611,0.0253 l 3.99717,5.1e-4 z m -4.11137,1.68413 c 0.0744,2.2e-4 0.1488,8e-4 0.22324,0.002 h 1.86914 v 2.67219 l -1.6304,5.2e-4 c -0.3804,0.004 -0.76107,0.008 -1.13688,-0.0351 -0.21903,-0.0252 -0.43622,-0.0664 -0.6537,-0.10749 -0.12804,-0.0529 -0.25631,-0.10532 -0.36432,-0.18552 -0.10052,-0.0746 -0.18345,-0.173 -0.26665,-0.2713 -0.0636,-0.11332 -0.12732,-0.2265 -0.16382,-0.34778 -0.0398,-0.13237 -0.0478,-0.27416 -0.0548,-0.416 0.009,-0.16465 0.0172,-0.32946 0.0708,-0.47852 0.0473,-0.13177 0.12989,-0.25145 0.21239,-0.37104 0.10277,-0.0962 0.20572,-0.19238 0.32505,-0.25838 0.12418,-0.0687 0.26612,-0.10456 0.40824,-0.14056 0.16416,-0.0175 0.32846,-0.0351 0.49299,-0.046 0.22237,-0.0143 0.44546,-0.0172 0.6687,-0.0165 z m 0.29042,4.33772 c 0.15946,-8.7e-4 0.31901,5.9e-4 0.47852,0.003 l 1.32344,5.1e-4 v 2.31252 l -1.15962,-0.001 c -0.38157,0.001 -0.76345,0.003 -1.14464,-0.009 -0.1939,-0.006 -0.38755,-0.0158 -0.58136,-0.0258 -0.15404,-0.0259 -0.30789,-0.0515 -0.44235,-0.11834 -0.11568,-0.0574 -0.21716,-0.14484 -0.31832,-0.23254 -0.0745,-0.10742 -0.14902,-0.21479 -0.19172,-0.33332 -0.0473,-0.13105 -0.0561,-0.276 -0.0641,-0.42064 0.0103,-0.15145 0.0207,-0.30267 0.0744,-0.43718 0.0495,-0.12415 0.13571,-0.23392 0.22221,-0.34365 0.11275,-0.0896 0.22577,-0.17953 0.35243,-0.23823 0.14258,-0.0661 0.30281,-0.0931 0.46302,-0.12041 0.16993,-0.01 0.33949,-0.0198 0.50953,-0.0258 0.15932,-0.006 0.31907,-0.008 0.47853,-0.009 z" /><path
       id="path148"
       style="fill:none;stroke:#000000;stroke-width:0.264583"
       d="m 101.42068,168.58454 c -0.51639,0.0489 -1.0329,0.0975 -1.47691,0.30334 -0.436601,0.20238 -0.802815,0.55642 -1.169437,0.91054 -0.294865,0.52051 -0.590197,1.04111 -0.762744,1.59629 -0.23155,0.74506 -0.242462,1.55253 -0.253732,2.36006 0.0097,0.79163 0.01951,1.5834 0.243913,2.3151 0.165766,0.54052 0.448313,1.04817 0.731222,1.55598 0.347534,0.34319 0.695279,0.68652 1.112076,0.88263 0.415652,0.19557 0.900392,0.24474 1.384932,0.29404 0.44218,-0.0354 0.88398,-0.0706 1.27434,-0.23254 0.37424,-0.15525 0.70123,-0.42713 1.02784,-0.69867 0.26347,-0.34533 0.52656,-0.69053 0.67748,-1.07848 0.16496,-0.42395 0.19584,-0.89871 0.22634,-1.37356 -0.0291,-0.45648 -0.0586,-0.91288 -0.21445,-1.3224 -0.14293,-0.37565 -0.39227,-0.71187 -0.64183,-1.048 -0.29556,-0.26559 -0.59093,-0.53135 -0.93689,-0.68316 -0.33487,-0.14695 -0.71706,-0.18708 -1.09916,-0.22738 -0.34719,0.0358 -0.69441,0.0717 -0.99425,0.20981 -0.30347,0.13983 -0.55841,0.38419 -0.813389,0.6289 0.0278,-0.48474 0.05529,-0.96908 0.190686,-1.42524 0.08525,-0.28724 0.213153,-0.56332 0.341063,-0.83922 0.14154,-0.15907 0.28308,-0.31818 0.46044,-0.40928 0.1629,-0.0837 0.35621,-0.10993 0.54932,-0.13643 0.14663,0.009 0.29343,0.018 0.42478,0.0682 0.11925,0.0456 0.22563,0.12514 0.33228,0.20464 0.0872,0.11102 0.17443,0.22209 0.23203,0.34623 0.0701,0.15129 0.0966,0.32176 0.12299,0.49196 l 1.85518,-0.20412 c -0.0796,-0.37859 -0.15929,-0.75709 -0.33435,-1.08676 -0.15067,-0.28372 -0.37185,-0.5314 -0.59324,-0.77876 -0.26973,-0.1819 -0.53946,-0.36384 -0.83561,-0.46819 -0.3315,-0.11682 -0.69631,-0.13595 -1.06092,-0.15555 z m -0.20464,4.95887 c 0.18366,0.0196 0.36762,0.0391 0.52555,0.11317 0.16109,0.0756 0.29511,0.20823 0.42943,0.34055 0.11093,0.1896 0.22221,0.37924 0.28681,0.58239 h -5.2e-4 c 0.0842,0.26461 0.0896,0.5521 0.0956,0.83975 -0.004,0.28091 -0.007,0.56188 -0.0879,0.82114 -0.0597,0.19241 -0.16113,0.37295 -0.26303,0.55345 -0.1239,0.12234 -0.24819,0.24481 -0.39687,0.31471 -0.14629,0.0688 -0.31651,0.0864 -0.4868,0.10439 -0.18411,-0.0253 -0.36818,-0.0504 -0.52606,-0.12765 -0.17458,-0.0855 -0.31691,-0.23483 -0.45941,-0.38395 -0.12409,-0.19971 -0.24827,-0.3993 -0.31987,-0.61547 -0.08571,-0.25884 -0.09601,-0.54131 -0.106457,-0.82372 0.0081,-0.25525 0.01618,-0.51054 0.09457,-0.74362 0.0637,-0.18938 0.17358,-0.36372 0.2837,-0.53847 0.13223,-0.12732 0.2646,-0.25483 0.4222,-0.32763 0.15361,-0.0709 0.3313,-0.09 0.50901,-0.10904 z" /><path
       id="path164"
       style="fill:none;stroke:#000000;stroke-width:0.264583"
       d="m 110.54106,118.54367 c -0.52487,0.002 -1.0498,0.004 -1.57407,0.0243 -0.28718,0.011 -0.57444,0.0272 -0.86144,0.0439 -0.25263,0.0385 -0.50533,0.0774 -0.74104,0.1633 -0.21362,0.0778 -0.41316,0.19438 -0.61289,0.31109 -0.17428,0.14112 -0.34835,0.28217 -0.49092,0.4501 -0.14777,0.17407 -0.26147,0.37696 -0.37517,0.57981 -0.0925,0.21487 -0.18533,0.42997 -0.23823,0.65423 -0.0515,0.21831 -0.0652,0.44508 -0.0791,0.67231 0.0189,0.27725 0.0375,0.5548 0.12248,0.81028 0.0819,0.24595 0.22522,0.47188 0.36845,0.69763 0.18757,0.19984 0.37512,0.39952 0.59686,0.54726 0.24224,0.16139 0.52518,0.26047 0.80822,0.35967 -0.20447,0.10951 -0.40859,0.21927 -0.58032,0.3669 -0.17004,0.14619 -0.30804,0.32958 -0.44597,0.51315 -0.11039,0.20058 -0.22112,0.40096 -0.28422,0.61546 -0.0634,0.21518 -0.0789,0.44465 -0.0946,0.67386 0.0118,0.20913 0.024,0.41831 0.077,0.6165 0.0512,0.19125 0.14046,0.37241 0.22996,0.55346 0.107,0.1641 0.21387,0.32811 0.3452,0.46974 0.1258,0.13568 0.27405,0.25083 0.42219,0.36587 0.16005,0.0959 0.32043,0.19163 0.49145,0.25993 0.1764,0.0704 0.36436,0.11124 0.55242,0.15244 0.24447,0.0287 0.4886,0.0575 0.7338,0.0744 0.34437,0.0246 0.69033,0.0244 1.03611,0.0248 l 3.99718,5.2e-4 v -10.00094 z m -0.70797,1.68362 c 0.0744,2.1e-4 0.14881,8e-4 0.22324,0.002 h 1.86914 v 2.67477 l -1.63039,-5.2e-4 c -0.3804,0.003 -0.76055,0.007 -1.13637,-0.0362 -0.21903,-0.0251 -0.43674,-0.0663 -0.65422,-0.10749 -0.12803,-0.0528 -0.25579,-0.10583 -0.3638,-0.18603 -0.10053,-0.0746 -0.18397,-0.173 -0.26717,-0.2713 -0.0636,-0.1133 -0.12732,-0.22653 -0.16382,-0.34779 -0.0398,-0.13237 -0.0473,-0.27412 -0.0543,-0.41599 0.009,-0.16465 0.0172,-0.32946 0.0708,-0.47853 0.0473,-0.13173 0.12989,-0.25092 0.21239,-0.37052 0.10277,-0.0962 0.20521,-0.19238 0.32453,-0.25838 0.12419,-0.0688 0.26665,-0.10507 0.40876,-0.14107 0.16416,-0.0175 0.32796,-0.0352 0.49248,-0.046 0.22237,-0.0144 0.44546,-0.0172 0.66869,-0.0165 z m 0.29042,4.33875 c 0.15946,-0.001 0.31902,5e-5 0.47852,0.002 l 1.32344,5.2e-4 v 2.31252 h -1.15962 c -0.38156,0.001 -0.76294,0.003 -1.14412,-0.009 -0.1939,-0.006 -0.38806,-0.0153 -0.58187,-0.0253 -0.15403,-0.0259 -0.30789,-0.0521 -0.44235,-0.11885 -0.11567,-0.0574 -0.21661,-0.14495 -0.31781,-0.23255 -0.0746,-0.10742 -0.14954,-0.21475 -0.19224,-0.33331 -0.0472,-0.13104 -0.0556,-0.27596 -0.0636,-0.42064 0.0103,-0.15142 0.0202,-0.30265 0.0739,-0.43719 0.0495,-0.12415 0.13623,-0.2339 0.22273,-0.34365 0.11274,-0.0896 0.22525,-0.17952 0.35192,-0.23822 0.14257,-0.0661 0.30281,-0.0932 0.46302,-0.12041 0.16993,-0.01 0.34001,-0.0198 0.51004,-0.0258 0.15932,-0.005 0.31855,-0.008 0.47801,-0.009 z" /></g></svg>
