<?xml version="1.0" encoding="UTF-8" standalone="no"?>
<!-- Created with Inkscape (http://www.inkscape.org/) -->

<svg
   width="276.40845mm"
   height="276.40897mm"
   viewBox="0 0 276.40845 276.40897"
   version="1.1"
   id="svg1"
   xml:space="preserve"
   inkscape:version="1.3.2 (091e20e, 2023-11-25, custom)"
   sodipodi:docname="Electronic bottom.svg"
   xmlns:inkscape="http://www.inkscape.org/namespaces/inkscape"
   xmlns:sodipodi="http://sodipodi.sourceforge.net/DTD/sodipodi-0.dtd"
   xmlns="http://www.w3.org/2000/svg"
   xmlns:svg="http://www.w3.org/2000/svg"><sodipodi:namedview
     id="namedview1"
     pagecolor="#ffffff"
     bordercolor="#000000"
     borderopacity="0.25"
     inkscape:showpageshadow="2"
     inkscape:pageopacity="0.0"
     inkscape:pagecheckerboard="0"
     inkscape:deskcolor="#d1d1d1"
     inkscape:document-units="mm"
     inkscape:zoom="0.4894542"
     inkscape:cx="325.87319"
     inkscape:cy="709.9745"
     inkscape:window-width="1920"
     inkscape:window-height="991"
     inkscape:window-x="1647"
     inkscape:window-y="-9"
     inkscape:window-maximized="1"
     inkscape:current-layer="layer1" /><defs
     id="defs1"><marker
       id="DistanceX"
       orient="auto"
       refX="0"
       refY="0"
       style="overflow:visible"><path
         d="M 3,-3 -3,3 M 0,-5 V 5"
         style="stroke:#000000;stroke-width:0.5"
         id="path1" /></marker><pattern
       id="Hatch"
       patternUnits="userSpaceOnUse"
       width="8"
       height="8"
       x="0"
       y="0"><path
         d="M8 4 l-4,4"
         stroke="#000000"
         stroke-width="0.25"
         linecap="square"
         id="path2" /><path
         d="M6 2 l-4,4"
         stroke="#000000"
         stroke-width="0.25"
         linecap="square"
         id="path3" /><path
         d="M4 0 l-4,4"
         stroke="#000000"
         stroke-width="0.25"
         linecap="square"
         id="path4" /></pattern><symbol
       id="*MODEL_SPACE" /><symbol
       id="*PAPER_SPACE" /></defs><g
     inkscape:label="Layer 1"
     inkscape:groupmode="layer"
     id="layer1"
     transform="translate(33.279622,-10.295496)"><path
       id="path5"
       style="fill:none;stroke:#000000;stroke-width:0.264583"
       d="m 7.8904744,10.427787 v 4.572331 H -28.575517 v 36.465474 h -4.571814 v 27.724406 h 4.571814 v 27.723892 h -4.571814 v 27.72389 h 4.571814 v 27.7244 h -4.571814 v 27.72389 h 4.571814 v 27.72441 h -4.571814 v 27.72389 h 4.571814 v 36.46547 H 7.8904744 v 4.57233 H 35.614364 v -4.57233 H 63.33877 v 4.57233 h 27.723889 v -4.57233 h 27.723891 v 4.57233 h 27.7244 v -4.57233 h 27.72389 v 4.57233 h 27.72441 v -4.57233 h 36.46547 v -36.46547 h 4.57182 v -27.72389 h -4.57182 v -27.72441 h 4.57182 v -27.72389 h -4.57182 v -27.7244 h 4.57182 v -27.72389 h -4.57182 V 79.189998 h 4.57182 V 51.465592 h -4.57182 V 15.000118 h -36.46547 v -4.572331 h -27.72441 v 4.572331 h -27.72389 v -4.572331 h -27.7244 v 4.572331 H 91.062659 V 10.427787 H 63.33877 v 4.572331 H 35.614364 V 10.427787 Z M 103.92492,75.89976 c 0.55,0 1.09968,0.36686 1.09968,1.100191 0,1.466664 -2.19987,1.466664 -2.19987,0 0,-0.733331 0.55019,-1.100191 1.10019,-1.100191 z m 12.50001,0 c 0.55,0 1.09968,0.36686 1.09968,1.100191 0,1.466664 -2.19987,1.466664 -2.19987,0 0,-0.733331 0.55021,-1.100191 1.10019,-1.100191 z m -6.00015,4.700488 h 5.80017 c 0.55228,0 0.99994,0.447659 0.99994,0.999939 v 11.799797 c 1e-5,0.55229 -0.44765,0.999939 -0.99994,0.999939 h -6.06837 c -0.35727,-4e-6 -0.68746,-0.19031 -0.86609,-0.499711 -0.17863,-0.309406 -0.50831,-0.500228 -0.86558,-0.500228 h -9.300211 c -0.552282,0 -0.999935,-0.447659 -0.999939,-0.999939 v -9.799919 c 4e-6,-0.55228 0.447657,-0.999939 0.999939,-0.999939 h 9.567891 c 0.35727,0 0.68747,-0.190822 0.8661,-0.500228 0.17864,-0.309391 0.50883,-0.499713 0.86609,-0.499711 z m -6.49986,16.29978 c 0.55,0 1.09968,0.366859 1.09968,1.100192 0,1.466662 -2.19987,1.466662 -2.19987,0 0,-0.733333 0.55019,-1.100192 1.10019,-1.100192 z m 12.50001,0 c 0.55,0 1.09968,0.366859 1.09968,1.100192 0,1.466662 -2.19987,1.466662 -2.19987,0 0,-0.733333 0.55021,-1.100192 1.10019,-1.100192 z m -11.50007,31.154692 c 0.25592,0 0.51168,0.0972 0.70694,0.29248 l 31.81976,31.82028 c 0.39053,0.39053 0.39053,1.02334 0,1.41387 l -4.24264,4.24264 c -0.39052,0.39052 -1.02386,0.39052 -1.41438,0 l -10.96006,-10.96006 c -0.3905,-0.39052 -1.02334,-0.39052 -1.41386,0 l -13.78882,13.78882 c -0.39052,0.39052 -1.02387,0.39052 -1.41439,0 L 72.397648,136.83299 c -0.390527,-0.39053 -0.390527,-1.02385 0,-1.41438 l 4.242635,-4.24264 c 0.390524,-0.39052 1.023862,-0.39052 1.414384,0 l 10.960055,10.96006 c 0.390522,0.39052 1.02386,0.39052 1.414384,0 L 104.21741,128.3472 c 0.19526,-0.19526 0.45153,-0.29248 0.70745,-0.29248 z m 15.99903,2.64583 c 0.89998,0 1.80052,0.59977 1.80092,1.79937 8e-4,2.3992 -3.5995,2.3992 -3.6003,0 -4e-4,-1.1996 0.89938,-1.79937 1.79938,-1.79937 z m -31.999085,0.002 c 0.899329,0 1.79854,0.59915 1.79989,1.79782 -0.0027,2.39735 -3.59708,2.39735 -3.59978,0 0.0013,-1.19867 0.900561,-1.79782 1.79989,-1.79782 z m 31.999085,31.99856 c 0.89998,0 1.80052,0.59978 1.80092,1.79938 8e-4,2.39918 -3.5995,2.39918 -3.6003,0 -4e-4,-1.1996 0.89938,-1.79938 1.79938,-1.79938 z m -31.999085,0.002 c 0.899329,0 1.79854,0.59915 1.79989,1.79783 -0.0027,2.39733 -3.59708,2.39733 -3.59978,0 0.0013,-1.19868 0.900561,-1.79783 1.79989,-1.79783 z" /><path
       id="path27"
       style="fill:none;stroke:#000000;stroke-width:0.264583"
       d="m 89.613135,32.677075 v 10.041248 h 1.55546 c 0.13722,-0.298873 0.274,-0.597954 0.465088,-0.856795 0.205676,-0.278606 0.474006,-0.510578 0.742074,-0.742591 0.274791,-0.205608 0.549533,-0.411369 0.847493,-0.575675 0.250036,-0.137901 0.516535,-0.246656 0.782898,-0.355017 v -1.739946 c -0.457599,0.17665 -0.91554,0.353052 -1.332218,0.59893 -0.407508,0.240453 -0.775695,0.547242 -1.144116,0.853695 v -7.223849 z m 14.563455,0 -3.40393,5.17e-4 c -0.5249,0.0021 -1.049802,0.0034 -1.574064,0.02377 -0.287186,0.01108 -0.573927,0.02777 -0.860929,0.04444 -0.252627,0.0385 -0.505328,0.07692 -0.74104,0.162781 -0.213614,0.07781 -0.41316,0.194384 -0.612883,0.311092 -0.174284,0.141129 -0.348878,0.282661 -0.491443,0.450618 -0.147773,0.17407 -0.261477,0.376928 -0.37517,0.57981 -0.09251,0.214842 -0.184832,0.429446 -0.237712,0.653707 -0.05147,0.218305 -0.06566,0.445603 -0.07958,0.672827 0.01887,0.277283 0.03794,0.554806 0.12299,0.810286 0.08188,0.245956 0.225221,0.471348 0.368453,0.697115 0.187563,0.199814 0.375126,0.400027 0.596863,0.547771 0.242247,0.161393 0.525186,0.260449 0.808219,0.359667 -0.20446,0.109485 -0.40911,0.218751 -0.580843,0.366386 -0.17004,0.146182 -0.30802,0.330122 -0.445967,0.513664 -0.110418,0.20058 -0.220614,0.400997 -0.283704,0.615466 -0.06331,0.215186 -0.07891,0.444137 -0.09457,0.673344 0.01185,0.209127 0.02344,0.418274 0.07648,0.6165 0.05118,0.191214 0.140957,0.372374 0.230477,0.553455 0.106998,0.164095 0.213865,0.328081 0.345199,0.469739 0.125802,0.13565 0.274064,0.250802 0.422196,0.365869 0.160057,0.09588 0.319907,0.192159 0.490926,0.260449 0.1764,0.07044 0.364358,0.111295 0.552421,0.152445 0.24447,0.02871 0.489121,0.05748 0.734322,0.07441 0.344361,0.02461 0.690292,0.02437 1.036109,0.02481 l 3.99718,5.17e-4 z m -4.11138,1.684135 c 0.0744,2.24e-4 0.14883,8.75e-4 0.22324,0.0016 h 1.86914 v 2.674773 l -1.63039,-5.17e-4 c -0.38042,0.0031 -0.760553,0.0071 -1.136367,-0.03617 -0.21903,-0.02519 -0.436745,-0.06637 -0.654224,-0.107487 -0.128037,-0.05286 -0.256308,-0.105865 -0.364319,-0.186035 -0.100526,-0.07459 -0.18347,-0.173031 -0.26665,-0.271301 -0.06363,-0.113294 -0.127365,-0.226498 -0.163815,-0.347783 -0.03978,-0.132368 -0.04686,-0.274126 -0.05426,-0.415995 0.0086,-0.164624 0.01723,-0.329458 0.0708,-0.478524 0.04735,-0.131733 0.129393,-0.251471 0.211873,-0.371036 0.102769,-0.09618 0.205718,-0.191856 0.325045,-0.257866 0.124185,-0.06869 0.266126,-0.105086 0.408244,-0.141076 0.164156,-0.01761 0.328467,-0.03514 0.492993,-0.04599 0.222371,-0.01467 0.445502,-0.01721 0.66869,-0.01654 z m 0.29042,4.338753 c 0.15947,-9.62e-4 0.31901,1e-6 0.47853,0.0016 l 1.32343,5.16e-4 v 2.312004 h -1.15962 c -0.38159,0.0013 -0.76345,0.0029 -1.144633,-0.0093 -0.193897,-0.0064 -0.387553,-0.01604 -0.58136,-0.02584 -0.154038,-0.02588 -0.307892,-0.05159 -0.442351,-0.118339 -0.11567,-0.05744 -0.217143,-0.144864 -0.318326,-0.232544 -0.07456,-0.107421 -0.14898,-0.215271 -0.19172,-0.33383 -0.04723,-0.131048 -0.05568,-0.275481 -0.06408,-0.420129 0.01025,-0.151447 0.02073,-0.302669 0.07441,-0.437183 0.04953,-0.124143 0.136216,-0.233899 0.222726,-0.343648 0.112742,-0.08956 0.225252,-0.179488 0.351916,-0.238228 0.142574,-0.06612 0.30281,-0.09285 0.463021,-0.11989 0.169928,-0.0098 0.340013,-0.01974 0.510047,-0.02584 0.15932,-0.0057 0.31854,-0.0083 0.478,-0.0093 z M -9.1555135,141.05857 v 2.01228 h -1.2412675 v 1.68517 h 1.2412675 v 6.3438 h 1.6102376 l 4.3382365,-6.35103 v -1.67794 h -4.0927734 v -2.01228 z m 11.869043,0 c -0.5248741,0.002 -1.0498066,0.003 -1.5740642,0.0238 -0.28718607,0.011 -0.57393108,0.0278 -0.86092933,0.0445 -0.2526263,0.0385 -0.50533115,0.0769 -0.74104004,0.16278 -0.21361622,0.0778 -0.41315945,0.19491 -0.61288253,0.31161 -0.1742833,0.14113 -0.3488751,0.28217 -0.4914428,0.4501 -0.1477749,0.17407 -0.2614742,0.37696 -0.3751709,0.57981 -0.092509,0.21487 -0.1848378,0.42944 -0.2377116,0.6537 -0.051469,0.21831 -0.065148,0.44561 -0.079065,0.67283 0.018867,0.27729 0.037423,0.5548 0.1224732,0.81029 0.081886,0.24595 0.225221,0.47137 0.368453,0.69711 0.1875627,0.19984 0.3751239,0.40002 0.5968627,0.54777 0.24224677,0.16139 0.52518199,0.26047 0.80821945,0.35967 -0.20446431,0.10952 -0.40911036,0.21876 -0.5808431,0.36639 -0.17003945,0.14619 -0.30749985,0.33009 -0.44545085,0.51366 -0.110421,0.20058 -0.2211224,0.40097 -0.2842204,0.61547 -0.063307,0.21518 -0.078905,0.44465 -0.094568,0.67386 0.011848,0.20913 0.023437,0.41778 0.076481,0.61598 0.051176,0.19124 0.1409579,0.37241 0.2304769,0.55346 0.1069973,0.16409 0.2138651,0.3281 0.3451985,0.46973 0.12580127,0.13568 0.27406451,0.25083 0.42219648,0.36587 0.16005672,0.0959 0.31990508,0.19215 0.49092611,0.26045 0.17639735,0.0704 0.36487502,0.11125 0.55293782,0.15245 0.24446923,0.0288 0.48860323,0.0575 0.73380529,0.0744 0.3443625,0.0246 0.6903082,0.0242 1.0361125,0.0248 l 3.9971721,5.1e-4 v -10.00094 z m -0.7074504,1.68362 c 0.074413,2.2e-4 0.1488033,8e-4 0.2232422,0.002 h 1.8691365 v 2.67271 l -1.6303914,5.1e-4 c -0.3804035,0.004 -0.7605491,0.008 -1.1363647,-0.0351 -0.2190321,-0.0252 -0.43674741,-0.0664 -0.65422367,-0.10748 -0.12803677,-0.0529 -0.25578889,-0.10584 -0.36380209,-0.18604 -0.10052284,-0.0746 -0.18399032,-0.173 -0.26716715,-0.2713 -0.0636321,-0.1133 -0.12736804,-0.22652 -0.16381429,-0.34778 -0.03978,-0.13237 -0.0468783,-0.27413 -0.0542603,-0.416 0.008596,-0.16462 0.0172214,-0.32945 0.0707967,-0.47852 0.04734968,-0.13173 0.12990918,-0.25096 0.21239013,-0.37052 0.10276651,-0.0962 0.20520128,-0.19238 0.324528,-0.25838 0.12418444,-0.0687 0.26664006,-0.10508 0.40876058,-0.14108 0.16415479,-0.0176 0.32795079,-0.0351 0.49247639,-0.046 0.2223702,-0.0143 0.445453,-0.0172 0.668693,-0.0165 z m -9.3058919,2.01383 h 2.2985677 l -2.2985677,3.41736 z m 218.4724528,1.464 -6.71897,5.1e-4 v 1.78077 l 3.80597,-5.1e-4 c -0.0557,0.0884 -0.11142,0.17739 -0.17312,0.26199 -0.0682,0.0934 -0.1436,0.18124 -0.2191,0.26924 -0.13518,0.13856 -0.27019,0.27731 -0.40825,0.41289 -0.24114,0.2368 -0.49112,0.46469 -0.74104,0.69247 -0.26129,0.23966 -0.52258,0.47918 -0.76739,0.73484 -0.16773,0.17518 -0.32784,0.35784 -0.48783,0.54053 -0.16018,0.21283 -0.32013,0.42537 -0.45423,0.65371 -0.1177,0.20037 -0.21556,0.41297 -0.31316,0.62528 -0.0707,0.20698 -0.14099,0.41414 -0.18139,0.62684 -0.0409,0.21579 -0.0505,0.4372 -0.0605,0.65887 0.0344,0.37867 0.0687,0.75746 0.21136,1.08986 0.14098,0.32855 0.38788,0.61167 0.63458,0.89504 0.32301,0.23249 0.64567,0.46534 1.00408,0.59893 0.40971,0.15272 0.86592,0.17587 1.32188,0.19947 0.42356,-0.0229 0.84723,-0.0461 1.23817,-0.1726 0.35565,-0.11507 0.6842,-0.31543 1.01286,-0.51625 0.27144,-0.28818 0.54275,-0.57662 0.71778,-0.91261 0.21171,-0.4064 0.28235,-0.88251 0.35295,-1.35857 l -1.90996,-0.1912 c -0.0207,0.24761 -0.0414,0.49602 -0.12971,0.71933 -0.0671,0.16988 -0.17331,0.3256 -0.27957,0.48111 -0.13285,0.10538 -0.26559,0.21039 -0.41599,0.27079 -0.16547,0.0663 -0.35228,0.0785 -0.53899,0.0904 -0.18734,-0.0105 -0.37482,-0.0206 -0.54157,-0.0858 -0.14744,-0.0576 -0.27843,-0.15803 -0.40979,-0.25839 -0.10033,-0.13433 -0.20068,-0.26912 -0.25838,-0.41909 -0.0673,-0.17484 -0.0773,-0.3708 -0.0863,-0.56689 0.0198,-0.1987 0.0395,-0.39712 0.0987,-0.58291 0.0661,-0.20743 0.18185,-0.39883 0.29714,-0.59015 0.17827,-0.21092 0.35619,-0.422 0.54363,-0.62425 0.32956,-0.3556 0.68751,-0.68417 1.04542,-1.01286 0.46572,-0.43315 0.93175,-0.86664 1.3441,-1.34668 0.28792,-0.3352 0.54942,-0.69301 0.81132,-1.0511 0.16352,-0.30392 0.32715,-0.60782 0.43667,-0.93018 0.10734,-0.31592 0.16309,-0.6497 0.21859,-0.98288 z m 6.00945,0 c -0.52488,0.001 -1.0498,0.004 -1.57406,0.0238 -0.28718,0.0111 -0.57393,0.0272 -0.86093,0.0439 -0.25263,0.0385 -0.50533,0.077 -0.74104,0.16278 -0.21361,0.0778 -0.41368,0.19491 -0.6134,0.31161 -0.17428,0.14113 -0.34837,0.28217 -0.49093,0.4501 -0.14778,0.17407 -0.26147,0.37692 -0.37517,0.57981 -0.0925,0.21486 -0.18481,0.42943 -0.23771,0.65371 -0.0515,0.21831 -0.0657,0.44561 -0.0796,0.67283 0.0189,0.27729 0.038,0.5548 0.12299,0.81028 0.0819,0.24596 0.22522,0.47188 0.36845,0.69763 0.18756,0.19984 0.37514,0.39954 0.59686,0.54726 0.24225,0.16139 0.52519,0.26047 0.80822,0.35967 -0.20446,0.10951 -0.4091,0.21927 -0.58084,0.3669 -0.17004,0.14619 -0.30804,0.32958 -0.44597,0.51315 -0.11039,0.20056 -0.2206,0.40099 -0.2837,0.61546 -0.0634,0.21521 -0.0789,0.44465 -0.0946,0.67386 0.0118,0.20913 0.0235,0.41827 0.0765,0.6165 0.0512,0.19124 0.14046,0.37238 0.22996,0.55346 0.10699,0.1641 0.21438,0.3281 0.34572,0.46974 0.1258,0.13565 0.27355,0.2508 0.42168,0.36587 0.16006,0.0959 0.32042,0.19163 0.49144,0.25993 0.1764,0.0705 0.36436,0.11134 0.55242,0.15244 0.24447,0.0288 0.48912,0.0575 0.73432,0.0744 0.34436,0.0246 0.68978,0.0246 1.0356,0.0243 h 3.99769 v -9.99888 z M 2.2965007,147.08043 c 0.159462,-8.8e-4 0.3190156,7e-5 0.4785237,0.002 l 1.3234334,5.1e-4 v 2.31252 l -1.1596191,-0.001 c -0.3815677,0.001 -0.7629296,0.003 -1.1441162,-0.009 -0.1938967,-0.006 -0.3880699,-0.0158 -0.5818766,-0.0258 -0.1540348,-0.0259 -0.30789211,-0.0516 -0.44235029,-0.11834 -0.1156755,-0.0574 -0.21662577,-0.14536 -0.31781006,-0.23306 -0.0745567,-0.10742 -0.14950095,-0.21476 -0.19223633,-0.33332 -0.0472279,-0.13104 -0.055201,-0.27599 -0.063562,-0.42064 0.0102526,-0.15145 0.0202215,-0.30265 0.0738973,-0.43719 0.0495325,-0.12414 0.13622016,-0.23389 0.22272542,-0.34364 0.11274391,-0.0896 0.22525292,-0.17902 0.3519165,-0.23772 0.14257296,-0.0661 0.30281066,-0.0932 0.46302086,-0.1204 0.169928,-0.01 0.3400095,-0.0198 0.5100464,-0.0258 0.1593195,-0.006 0.3185447,-0.008 0.478007,-0.009 z m 214.1781393,0.82269 c 0.0744,7e-5 0.14832,5.3e-4 0.22273,0.001 l 1.86965,-0.001 v 2.67529 h -1.63039 c -0.38041,0.004 -0.76106,0.008 -1.13688,-0.0357 -0.21903,-0.0251 -0.43623,-0.0664 -0.65371,-0.10749 -0.12804,-0.0529 -0.2563,-0.10583 -0.36432,-0.18603 -0.10052,-0.0746 -0.18345,-0.17249 -0.26665,-0.27079 -0.0636,-0.11332 -0.12731,-0.22701 -0.16381,-0.3483 -0.0398,-0.13237 -0.0478,-0.27415 -0.0548,-0.41599 0.009,-0.16465 0.0172,-0.32895 0.0708,-0.47801 0.0473,-0.13176 0.12989,-0.25145 0.21239,-0.37104 0.10277,-0.0962 0.20571,-0.19238 0.32504,-0.25838 0.12418,-0.0687 0.26613,-0.10456 0.40825,-0.14056 0.16416,-0.0175 0.32846,-0.0352 0.49299,-0.046 0.22237,-0.0143 0.44551,-0.0173 0.66869,-0.0171 z m 0.29042,4.33823 c 0.15947,-0.001 0.31901,5e-5 0.47853,0.002 l 1.32343,-5.1e-4 v 2.31252 h -1.16014 c -0.38155,0.002 -0.76292,0.004 -1.14411,-0.008 -0.1939,-0.006 -0.38755,-0.0158 -0.58136,-0.0258 -0.15404,-0.0259 -0.30841,-0.0521 -0.44287,-0.11886 -0.11567,-0.0574 -0.2166,-0.14484 -0.31781,-0.23254 -0.0746,-0.10742 -0.14902,-0.21479 -0.19172,-0.33332 -0.0472,-0.13105 -0.0561,-0.27599 -0.0641,-0.42064 0.0103,-0.15145 0.0207,-0.30267 0.0744,-0.43718 0.0495,-0.12414 0.13571,-0.23393 0.22221,-0.34365 0.11275,-0.0896 0.22577,-0.17901 0.35243,-0.23771 v -5.2e-4 c 0.14258,-0.0661 0.30281,-0.0931 0.46302,-0.12041 0.16993,-0.01 0.33949,-0.0198 0.50953,-0.0258 0.15932,-0.006 0.31906,-0.008 0.47852,-0.009 z m -30.87511,73.39242 c -0.45308,0.0371 -0.90595,0.0742 -1.29243,0.2558 -0.36323,0.17069 -0.66764,0.46906 -0.97204,0.7674 -0.28482,0.53637 -0.56984,1.07289 -0.7369,1.64072 -0.22767,0.77388 -0.23646,1.60626 -0.24546,2.43861 0.008,0.83296 0.0163,1.66577 0.24391,2.44016 0.16602,0.56476 0.44896,1.09833 0.73174,1.63195 0.30568,0.30234 0.61088,0.6048 0.97668,0.77773 0.38666,0.18282 0.84066,0.22121 1.2945,0.25941 0.45307,-0.0371 0.90646,-0.0742 1.29294,-0.2558 0.36323,-0.17071 0.66763,-0.46905 0.97203,-0.76739 0.28484,-0.53517 0.56938,-1.07037 0.73639,-1.63711 0.22707,-0.77055 0.23647,-1.59988 0.24547,-2.42879 -10e-4,-0.83172 -0.003,-1.66308 -0.22325,-2.43913 -0.15306,-0.53827 -0.41168,-1.04966 -0.67024,-1.56115 -0.32268,-0.32727 -0.64532,-0.65477 -1.03508,-0.8418 -0.39376,-0.18892 -0.85604,-0.23481 -1.31826,-0.28061 z m -7.7215,0.17054 c -0.0209,0.47282 -0.0418,0.94581 -0.1049,1.41283 -0.0724,0.5358 -0.20021,1.06409 -0.32815,1.59215 -0.16277,0.55176 -0.32583,1.10349 -0.54001,1.63453 -0.21264,0.52718 -0.47567,1.03369 -0.73898,1.54047 -0.26151,0.45157 -0.52334,0.90356 -0.8325,1.32033 -0.25179,0.33941 -0.5351,0.65569 -0.81856,0.97204 v 1.39164 h 6.55516 v -1.78077 h -4.35839 c 0.42958,-0.59043 0.859,-1.18098 1.21491,-1.81281 0.36678,-0.65114 0.65505,-1.34616 0.94361,-2.04122 0.23748,-0.7054 0.47536,-1.41048 0.61857,-2.13475 0.1358,-0.68672 0.18661,-1.39085 0.23771,-2.09444 z m 17.21652,0 c -0.52481,0.002 -1.04928,0.004 -1.57354,0.0238 -0.28718,0.0111 -0.57445,0.0277 -0.86145,0.0444 -0.25262,0.0385 -0.50533,0.0769 -0.74104,0.16278 -0.21361,0.0778 -0.41316,0.1949 -0.61288,0.31161 -0.17429,0.14113 -0.34837,0.28215 -0.49093,0.4501 -0.14778,0.17407 -0.26147,0.37693 -0.37517,0.57981 -0.0925,0.21484 -0.18533,0.42945 -0.23823,0.65371 -0.0515,0.21831 -0.0652,0.44559 -0.0791,0.67282 0.0189,0.27728 0.0374,0.55483 0.12247,0.81029 0.0819,0.24598 0.22521,0.47135 0.36845,0.69711 0.18756,0.19984 0.37513,0.40003 0.59687,0.54777 0.24225,0.1614 0.52518,0.26047 0.80822,0.35967 -0.20446,0.10949 -0.4086,0.21875 -0.58033,0.36639 -0.17004,0.14618 -0.308,0.33012 -0.44597,0.51366 -0.11044,0.20058 -0.22112,0.401 -0.28422,0.61547 -0.0633,0.21521 -0.0789,0.44466 -0.0946,0.67386 0.0118,0.20913 0.0239,0.41776 0.077,0.61598 0.0512,0.19124 0.14046,0.37238 0.22996,0.55346 0.10699,0.16409 0.21387,0.32811 0.3452,0.46974 0.12581,0.13565 0.27407,0.25079 0.4222,0.36586 0.16006,0.0959 0.32042,0.19215 0.49144,0.26045 0.1764,0.0704 0.36435,0.11125 0.55242,0.15245 0.24446,0.0288 0.4886,0.0575 0.73381,0.0744 0.34434,0.0246 0.69037,0.0244 1.03611,0.0238 l 3.99717,-5.1e-4 v -9.99887 z m 5.1232,0 v 1.68516 h 5.58674 v 2.72128 h -5.02088 v 1.68517 h 5.02088 v 2.21692 h -5.39605 v 1.69137 h 7.41505 v -9.9999 z m -14.61822,1.41903 c 0.11265,0.009 0.22517,0.0179 0.32814,0.0543 0.10279,0.0364 0.19629,0.10011 0.28939,0.16381 0.0894,0.10549 0.1789,0.21086 0.2465,0.32815 0.0962,0.16682 0.14788,0.35755 0.19998,0.54829 0.0511,0.31062 0.10253,0.62139 0.13333,0.93379 0.0483,0.49194 0.0464,0.98838 0.0444,1.48466 7e-4,0.5035 0.001,1.00705 -0.0496,1.50585 -0.034,0.33393 -0.0911,0.66552 -0.14831,0.99736 -0.0471,0.16907 -0.0944,0.33819 -0.18087,0.48524 -0.0656,0.11163 -0.15406,0.21064 -0.24236,0.30954 -0.0939,0.0647 -0.18767,0.1294 -0.29146,0.1664 -0.10319,0.0366 -0.21621,0.0463 -0.32917,0.0553 -0.11273,-0.009 -0.22533,-0.0184 -0.32815,-0.0553 -0.10298,-0.037 -0.19639,-0.1017 -0.28939,-0.1664 -0.0894,-0.10636 -0.17828,-0.21264 -0.24598,-0.33073 -0.0959,-0.16734 -0.1482,-0.35845 -0.2005,-0.54932 -0.0511,-0.31065 -0.10253,-0.62143 -0.13333,-0.93379 -0.0483,-0.49194 -0.0459,-0.98787 -0.0439,-1.48415 -8e-4,-0.50292 -0.002,-1.00609 0.0491,-1.5043 0.0341,-0.33224 0.0916,-0.66208 0.14883,-0.99218 0.0472,-0.16907 0.0939,-0.33819 0.18035,-0.48525 0.0656,-0.11163 0.15406,-0.21054 0.24236,-0.30954 0.0939,-0.0647 0.18767,-0.1295 0.29146,-0.1664 0.1032,-0.0366 0.21621,-0.0463 0.32918,-0.0553 z m 8.78757,0.26458 c 0.0744,2.2e-4 0.14884,8e-4 0.22324,0.002 l 1.86914,5.2e-4 v 2.67219 l -1.63039,5.2e-4 c -0.38035,0.004 -0.76057,0.008 -1.13636,-0.0351 -0.21903,-0.0251 -0.43675,-0.0664 -0.65423,-0.10749 -0.12804,-0.0529 -0.25579,-0.10594 -0.3638,-0.18604 -0.10052,-0.0746 -0.18397,-0.173 -0.26717,-0.2713 -0.0636,-0.11329 -0.1269,-0.2265 -0.1633,-0.34778 -0.0398,-0.13238 -0.0478,-0.27413 -0.0548,-0.416 0.009,-0.16463 0.0172,-0.32946 0.0708,-0.47852 0.0473,-0.13174 0.12989,-0.25147 0.21239,-0.37104 0.10277,-0.0962 0.20521,-0.19238 0.32453,-0.25838 0.12419,-0.0687 0.26664,-0.10456 0.40876,-0.14056 0.16415,-0.0176 0.32796,-0.0351 0.49248,-0.046 0.22237,-0.0142 0.44548,-0.0172 0.66869,-0.0165 z m 2.09238,4.33876 v 2.31252 l -1.15962,5.1e-4 c -0.38151,0.002 -0.76292,0.004 -1.14411,-0.008 -0.1939,-0.006 -0.38755,-0.0153 -0.58136,-0.0253 -0.15404,-0.0259 -0.30841,-0.0522 -0.44287,-0.11885 -0.11568,-0.0574 -0.21666,-0.14485 -0.31781,-0.23255 -0.0745,-0.10742 -0.14902,-0.21477 -0.19172,-0.33331 -0.0473,-0.13107 -0.0561,-0.276 -0.0641,-0.42065 0.0103,-0.15141 0.0202,-0.30266 0.0739,-0.43718 0.0495,-0.12414 0.13622,-0.2339 0.22272,-0.34365 0.11274,-0.0896 0.22526,-0.17952 0.35192,-0.23822 0.14258,-0.0661 0.30281,-0.0931 0.46302,-0.12041 0.16992,-0.01 0.34001,-0.0198 0.51005,-0.0258 v 0.001 c 0.31864,-0.011 0.63758,-0.0113 0.95653,-0.009 z m -14.78153,9.41441 c -0.45306,0.0371 -0.90646,0.0742 -1.29294,0.2558 -0.36323,0.17068 -0.66763,0.46905 -0.97203,0.76739 -0.28482,0.53634 -0.56934,1.07238 -0.73639,1.64021 -0.22767,0.77388 -0.23647,1.60623 -0.24547,2.43861 0.008,0.83293 0.0157,1.66625 0.2434,2.44068 0.16602,0.56476 0.44896,1.0983 0.73174,1.63194 0.30568,0.30233 0.6114,0.60479 0.9772,0.77773 0.38666,0.18281 0.84067,0.2207 1.29449,0.2589 0.45308,-0.0371 0.90596,-0.0742 1.29243,-0.2558 0.36323,-0.17068 0.66764,-0.46904 0.97204,-0.76739 0.28485,-0.53517 0.56989,-1.07034 0.7369,-1.63711 0.22706,-0.77054 0.23647,-1.59937 0.24547,-2.42828 -0.001,-0.83169 -0.003,-1.66356 -0.22325,-2.43964 -0.15306,-0.53824 -0.41167,-1.04965 -0.67024,-1.56115 -0.32268,-0.32726 -0.64531,-0.65428 -1.03508,-0.84129 -0.39376,-0.18893 -0.85604,-0.2348 -1.31827,-0.2806 z m 7.76956,0 c -0.45307,0.0371 -0.90647,0.0742 -1.29295,0.2558 -0.36323,0.17068 -0.66763,0.46905 -0.97203,0.76739 -0.28482,0.53634 -0.56933,1.07238 -0.73639,1.64021 -0.22767,0.77388 -0.23698,1.60623 -0.24598,2.43861 0.008,0.83293 0.0162,1.66625 0.24391,2.44068 0.16602,0.56476 0.44895,1.0983 0.73174,1.63194 0.30567,0.30233 0.61141,0.60479 0.9772,0.77773 0.38667,0.18281 0.84066,0.2207 1.2945,0.2589 0.45308,-0.0371 0.90594,-0.0742 1.29242,-0.2558 0.36323,-0.17068 0.66764,-0.46904 0.97204,-0.76739 0.28484,-0.53517 0.56989,-1.07034 0.7369,-1.63711 0.22706,-0.77054 0.23647,-1.59937 0.24547,-2.42828 -0.001,-0.83169 -0.003,-1.66356 -0.22376,-2.43964 -0.15306,-0.53824 -0.41116,-1.04965 -0.66973,-1.56115 -0.32268,-0.32726 -0.64583,-0.65428 -1.03559,-0.84129 -0.39376,-0.18893 -0.85552,-0.2348 -1.31775,-0.2806 z m 15.53858,0 c -0.45307,0.0371 -0.90596,0.0742 -1.29242,0.2558 -0.36323,0.17068 -0.66764,0.46905 -0.97204,0.76739 -0.28482,0.53634 -0.56984,1.07238 -0.7369,1.64021 -0.22767,0.77388 -0.23647,1.60623 -0.24547,2.43861 0.008,0.83293 0.0163,1.66625 0.24392,2.44068 0.16602,0.56476 0.44894,1.0983 0.73173,1.63194 0.30567,0.30233 0.6109,0.60479 0.97669,0.77773 0.38667,0.18281 0.84065,0.2207 1.29449,0.2589 0.45308,-0.0371 0.90647,-0.0742 1.29295,-0.2558 0.36323,-0.17068 0.66763,-0.46904 0.97203,-0.76739 0.28484,-0.53517 0.56938,-1.07034 0.73639,-1.63711 0.22706,-0.77054 0.23646,-1.59937 0.24546,-2.42828 -0.001,-0.83169 -0.003,-1.66356 -0.22324,-2.43964 -0.15306,-0.53824 -0.41168,-1.04965 -0.67024,-1.56115 -0.32268,-0.32726 -0.64532,-0.65428 -1.03508,-0.84129 -0.39376,-0.18893 -0.85604,-0.2348 -1.31827,-0.2806 z m -9.43405,0.17105 v 10.04125 l 1.55546,-5.2e-4 c 0.13727,-0.29945 0.27452,-0.59847 0.46561,-0.85731 0.20567,-0.27861 0.474,-0.51055 0.74207,-0.74259 0.27479,-0.20561 0.54954,-0.41135 0.8475,-0.57568 0.25004,-0.1379 0.51606,-0.24697 0.78238,-0.35605 v -1.73839 c -0.45755,0.17606 -0.91503,0.35202 -1.3317,0.59789 -0.40751,0.24046 -0.77578,0.54767 -1.14412,0.85473 v -7.22333 z m -13.87409,1.418 c 0.11266,0.009 0.22519,0.0183 0.32815,0.0548 0.10279,0.0364 0.19577,0.10011 0.28887,0.16381 0.0894,0.10549 0.1789,0.21086 0.2465,0.32815 0.0962,0.16682 0.1484,0.35757 0.2005,0.54828 0.0511,0.31065 0.10201,0.62141 0.13281,0.9338 0.0483,0.49194 0.0464,0.98786 0.0444,1.48414 8e-4,0.50347 0.001,1.00704 -0.0496,1.50585 -0.034,0.33393 -0.0912,0.66604 -0.14831,0.99788 -0.0472,0.16904 -0.0944,0.33819 -0.18087,0.48524 -0.0656,0.1116 -0.15354,0.21054 -0.24184,0.30954 -0.0939,0.0647 -0.18767,0.12898 -0.29146,0.16588 -0.1032,0.0366 -0.21622,0.0463 -0.32918,0.0553 -0.11273,-0.009 -0.22584,-0.0184 -0.32866,-0.0553 -0.10298,-0.0369 -0.19587,-0.10118 -0.28887,-0.16588 -0.0894,-0.10636 -0.1788,-0.21317 -0.2465,-0.33125 -0.0959,-0.16735 -0.1482,-0.3579 -0.2005,-0.5488 -0.0511,-0.31065 -0.10201,-0.6214 -0.13281,-0.93379 -0.0483,-0.49194 -0.0464,-0.98842 -0.0444,-1.48467 -8e-4,-0.50295 -0.001,-1.00557 0.0496,-1.50378 0.0341,-0.33223 0.0912,-0.66256 0.14831,-0.99271 0.0472,-0.16904 0.0944,-0.33818 0.18087,-0.48524 0.0656,-0.1116 0.15406,-0.21054 0.24236,-0.30954 0.0939,-0.0647 0.18767,-0.12888 0.29146,-0.16588 0.1032,-0.0366 0.21621,-0.0468 0.32917,-0.0558 z m 7.76956,0 c 0.11266,0.009 0.22517,0.0183 0.32814,0.0548 0.10278,0.0364 0.19577,0.10011 0.28887,0.16381 0.0894,0.10549 0.1789,0.21086 0.2465,0.32815 0.0962,0.16682 0.1484,0.35757 0.2005,0.54828 0.0511,0.31065 0.10201,0.62141 0.13281,0.9338 0.0483,0.49194 0.0464,0.98786 0.0444,1.48414 7e-4,0.50347 0.001,1.00704 -0.0496,1.50585 -0.0341,0.33393 -0.0912,0.66604 -0.14831,0.99788 -0.0471,0.16904 -0.0944,0.33819 -0.18086,0.48524 -0.0656,0.1116 -0.15355,0.21054 -0.24185,0.30954 -0.0939,0.0647 -0.18818,0.12898 -0.29197,0.16588 -0.1032,0.0366 -0.21569,0.0468 -0.32866,0.0558 -0.11273,-0.009 -0.22586,-0.0189 -0.32867,-0.0558 -0.10298,-0.0369 -0.19587,-0.10118 -0.28887,-0.16588 -0.0894,-0.10636 -0.17879,-0.21317 -0.24649,-0.33125 -0.0959,-0.16735 -0.14821,-0.3579 -0.20051,-0.5488 -0.0511,-0.31065 -0.10201,-0.6214 -0.13281,-0.93379 -0.0483,-0.49194 -0.0464,-0.98842 -0.0444,-1.48467 -8e-4,-0.50295 -0.001,-1.00557 0.0496,-1.50378 0.0341,-0.33223 0.0911,-0.66256 0.14831,-0.99271 0.0472,-0.16904 0.0944,-0.33818 0.18087,-0.48524 0.0656,-0.1116 0.15355,-0.21054 0.24185,-0.30954 0.0939,-0.0647 0.18818,-0.1294 0.29197,-0.1664 0.10319,-0.0366 0.21622,-0.0463 0.32918,-0.0553 z m 15.53858,0 c 0.11266,0.009 0.22518,0.0183 0.32815,0.0548 0.10278,0.0364 0.19629,0.10011 0.28939,0.16381 0.0894,0.10549 0.17889,0.21086 0.24649,0.32815 0.0962,0.16682 0.14789,0.35757 0.19999,0.54828 0.0511,0.31065 0.10253,0.62141 0.13333,0.9338 0.0483,0.49194 0.0464,0.98786 0.0444,1.48414 7e-4,0.50347 0.001,1.00704 -0.0496,1.50585 -0.034,0.33393 -0.0911,0.66604 -0.14831,0.99788 -0.0472,0.16904 -0.0944,0.33819 -0.18087,0.48524 -0.0656,0.1116 -0.15406,0.21054 -0.24236,0.30954 -0.0939,0.0647 -0.18767,0.12898 -0.29146,0.16588 -0.1032,0.0366 -0.21621,0.0468 -0.32918,0.0558 -0.11273,-0.009 -0.22533,-0.0189 -0.32814,-0.0558 -0.10298,-0.0369 -0.19587,-0.10118 -0.28887,-0.16588 -0.0894,-0.10636 -0.1788,-0.21317 -0.2465,-0.33125 -0.0959,-0.16735 -0.1482,-0.3579 -0.2005,-0.5488 -0.0511,-0.31065 -0.10253,-0.6214 -0.13333,-0.93379 h 5.2e-4 c -0.0483,-0.49194 -0.0465,-0.98842 -0.0445,-1.48467 -9e-4,-0.50295 -0.002,-1.00557 0.0491,-1.50378 0.0341,-0.33223 0.0917,-0.66256 0.14883,-0.99271 0.0471,-0.16904 0.0938,-0.33818 0.18035,-0.48524 0.0656,-0.1116 0.15406,-0.21054 0.24236,-0.30954 0.0939,-0.0647 0.18765,-0.1294 0.29145,-0.1664 0.10319,-0.0366 0.21622,-0.0463 0.32918,-0.0553 z M 95.88562,254.43046 c -0.454629,0.0356 -0.909104,0.0707 -1.314648,0.23152 -0.390102,0.15466 -0.73484,0.42554 -1.079521,0.69608 -0.280524,0.32451 -0.561103,0.64885 -0.721403,1.02474 -0.158961,0.37274 -0.200062,0.79628 -0.240812,1.21956 0.01907,0.28831 0.03858,0.57612 0.129191,0.84026 0.08589,0.25037 0.235841,0.47929 0.386023,0.70797 0.18854,0.19521 0.37695,0.39057 0.600997,0.5271 0.232333,0.14155 0.503083,0.21977 0.773596,0.29817 -0.419201,0.26686 -0.838459,0.534 -1.079521,0.91778 -0.210483,0.33507 -0.284998,0.75918 -0.359668,1.18339 0.03219,0.3043 0.06444,0.60867 0.1757,0.88005 0.117179,0.28581 0.321697,0.53512 0.526583,0.78444 0.315611,0.26252 0.631435,0.52462 0.992704,0.6749 0.388803,0.1617 0.83059,0.19361 1.272274,0.22531 0.264853,-0.0113 0.529372,-0.0225 0.784965,-0.0775 0.240514,-0.0518 0.473066,-0.14256 0.705383,-0.23306 0.207547,-0.11036 0.415042,-0.22081 0.591696,-0.36845 0.166703,-0.1393 0.305742,-0.3117 0.444934,-0.48421 0.118244,-0.20724 0.236664,-0.41453 0.325044,-0.63355 0.105275,-0.26088 0.168054,-0.53818 0.230994,-0.81597 l -1.766817,-0.29973 c -0.03091,0.1992 -0.06182,0.39888 -0.143144,0.5762 -0.06903,0.15052 -0.17425,0.28514 -0.279569,0.41961 -0.122114,0.0995 -0.244488,0.199 -0.383956,0.2558 -0.140099,0.0571 -0.297658,0.0713 -0.45527,0.0853 -0.15526,-0.0101 -0.310571,-0.0201 -0.448551,-0.0749 -0.126162,-0.0501 -0.237619,-0.13781 -0.349333,-0.22531 -0.08749,-0.11232 -0.175169,-0.22474 -0.225309,-0.3514 -0.05524,-0.13959 -0.06503,-0.29669 -0.07493,-0.45372 0.01528,-0.18642 0.03056,-0.37257 0.102319,-0.53433 0.06825,-0.15386 0.187605,-0.2855 0.306958,-0.41703 0.16248,-0.10301 0.324861,-0.20615 0.501262,-0.26355 0.214759,-0.0704 0.45034,-0.0714 0.685746,-0.0744 l 0.211357,-1.56166 c -0.157666,0.0413 -0.315513,0.0834 -0.47594,0.10748 -0.133453,0.0199 -0.268754,0.0277 -0.40411,0.0357 -0.179827,-0.0181 -0.359707,-0.0365 -0.516764,-0.10594 -0.159464,-0.0705 -0.295507,-0.19394 -0.431498,-0.31729 -0.113282,-0.16028 -0.226406,-0.32029 -0.291456,-0.49764 -0.07386,-0.20138 -0.08548,-0.4247 -0.09715,-0.64803 0.01217,-0.23604 0.02415,-0.4723 0.101286,-0.68574 0.0679,-0.18788 0.186127,-0.35826 0.304374,-0.52865 0.142502,-0.13129 0.285441,-0.26245 0.453202,-0.33745 0.165746,-0.0742 0.355816,-0.0934 0.54622,-0.11266 0.176943,0.0152 0.353887,0.0308 0.511597,0.0941 0.155752,0.0625 0.292954,0.17172 0.429948,0.28112 0.117926,0.14685 0.235746,0.2938 0.313676,0.45888 0.0907,0.19214 0.127264,0.40886 0.163814,0.62632 l 1.855184,-0.22634 c -0.07612,-0.39743 -0.152163,-0.79542 -0.330729,-1.14102 -0.171984,-0.33287 -0.438892,-0.61701 -0.7059,-0.90123 -0.325004,-0.22773 -0.650213,-0.45566 -1.009758,-0.58602 -0.387128,-0.14033 -0.814095,-0.16742 -1.241268,-0.19482 z m 9.47487,0.17105 c -0.52492,0.001 -1.0498,0.003 -1.57406,0.0233 -0.28718,0.011 -0.57445,0.0272 -0.86145,0.0439 -0.25263,0.0385 -0.50533,0.0775 -0.74104,0.1633 -0.21361,0.0778 -0.41315,0.19438 -0.61288,0.31109 -0.17428,0.14113 -0.34838,0.28214 -0.49092,0.4501 -0.14778,0.17407 -0.26149,0.37693 -0.37518,0.57981 -0.0925,0.21485 -0.18532,0.42996 -0.23822,0.65423 -0.0515,0.2183 -0.0652,0.44509 -0.0791,0.67231 0.0189,0.27728 0.038,0.5548 0.12299,0.81028 0.0819,0.24596 0.22471,0.47187 0.36794,0.69764 0.18756,0.19981 0.37513,0.39951 0.59686,0.54725 0.24225,0.1614 0.5257,0.26047 0.80874,0.35967 -0.20447,0.10948 -0.40911,0.21926 -0.58085,0.3669 -0.17004,0.14618 -0.30804,0.32961 -0.44596,0.51315 -0.1104,0.20058 -0.22061,0.40099 -0.28371,0.61546 -0.0634,0.21519 -0.0794,0.44465 -0.0951,0.67386 0.0118,0.20912 0.024,0.41827 0.077,0.6165 0.0512,0.19121 0.14047,0.37238 0.22997,0.55346 0.10697,0.1641 0.21385,0.32809 0.34519,0.46974 0.1258,0.13566 0.27407,0.2508 0.4222,0.36587 0.16006,0.0959 0.32043,0.19163 0.49144,0.25993 0.1764,0.0704 0.36436,0.11124 0.55242,0.15244 0.24447,0.0288 0.48861,0.0575 0.73381,0.0744 0.34436,0.0246 0.69026,0.0245 1.03611,0.0243 h 3.99769 v -9.99836 z m -0.70796,1.68259 c 0.0744,8e-5 0.14882,5.3e-4 0.22324,10e-4 l 1.86914,-5.1e-4 v 2.67477 h -1.6304 c -0.38045,0.004 -0.76054,0.008 -1.13636,-0.0357 -0.21903,-0.0252 -0.43674,-0.0664 -0.65422,-0.10749 -0.12804,-0.0529 -0.2558,-0.10583 -0.36381,-0.18603 -0.10053,-0.0746 -0.18396,-0.17249 -0.26716,-0.27079 -0.0636,-0.11329 -0.1268,-0.22702 -0.1633,-0.3483 -0.0398,-0.13237 -0.0478,-0.27412 -0.0548,-0.41599 0.009,-0.16462 0.0172,-0.32894 0.0708,-0.47801 0.0473,-0.13174 0.12989,-0.25147 0.21239,-0.37103 0.10277,-0.0962 0.2052,-0.19239 0.32453,-0.25839 0.12418,-0.0687 0.26664,-0.10456 0.40876,-0.14056 0.16399,-0.0176 0.32812,-0.0351 0.49247,-0.046 0.2222,-0.0142 0.44567,-0.0173 0.6687,-0.017 z m 0.29042,4.33823 c 0.15947,-10e-4 0.31899,6e-5 0.47852,0.002 l 1.32344,-5.2e-4 v 2.31252 h -1.15962 c -0.38149,0.002 -0.76294,0.004 -1.14412,-0.008 -0.1939,-0.006 -0.38755,-0.0158 -0.58136,-0.0258 -0.15404,-0.0259 -0.30841,-0.0515 -0.44287,-0.11834 -0.11567,-0.0574 -0.21666,-0.14536 -0.31781,-0.23306 -0.0745,-0.10742 -0.14902,-0.21475 -0.19172,-0.33331 -0.0473,-0.13105 -0.0561,-0.27549 -0.0641,-0.42013 0.0103,-0.15145 0.0202,-0.30319 0.0739,-0.4377 0.0495,-0.12415 0.13623,-0.2339 0.22273,-0.34365 0.11274,-0.0896 0.22525,-0.17901 0.35191,-0.23771 v -5.2e-4 c 0.14258,-0.0661 0.30282,-0.0931 0.46303,-0.12041 0.1699,-0.01 0.34001,-0.0198 0.51004,-0.0258 0.15932,-0.005 0.31854,-0.008 0.47801,-0.009 z" /></g></svg>
