<?xml version="1.0" encoding="UTF-8" standalone="no"?>
<!-- Created with Inkscape (http://www.inkscape.org/) -->

<svg
   width="276.40845mm"
   height="276.40897mm"
   viewBox="0 0 276.40845 276.40897"
   version="1.1"
   id="svg1"
   xml:space="preserve"
   inkscape:version="1.3.2 (091e20e, 2023-11-25, custom)"
   sodipodi:docname="Electronic top.svg"
   xmlns:inkscape="http://www.inkscape.org/namespaces/inkscape"
   xmlns:sodipodi="http://sodipodi.sourceforge.net/DTD/sodipodi-0.dtd"
   xmlns="http://www.w3.org/2000/svg"
   xmlns:svg="http://www.w3.org/2000/svg"><sodipodi:namedview
     id="namedview1"
     pagecolor="#ffffff"
     bordercolor="#000000"
     borderopacity="0.25"
     inkscape:showpageshadow="2"
     inkscape:pageopacity="0.0"
     inkscape:pagecheckerboard="0"
     inkscape:deskcolor="#d1d1d1"
     inkscape:document-units="mm"
     inkscape:zoom="0.4894542"
     inkscape:cx="611.90608"
     inkscape:cy="403.51069"
     inkscape:window-width="1920"
     inkscape:window-height="991"
     inkscape:window-x="1647"
     inkscape:window-y="-9"
     inkscape:window-maximized="1"
     inkscape:current-layer="layer1" /><defs
     id="defs1"><marker
       id="DistanceX"
       orient="auto"
       refX="0"
       refY="0"
       style="overflow:visible"><path
         d="M 3,-3 -3,3 M 0,-5 V 5"
         style="stroke:#000000;stroke-width:0.5"
         id="path1" /></marker><pattern
       id="Hatch"
       patternUnits="userSpaceOnUse"
       width="8"
       height="8"
       x="0"
       y="0"><path
         d="M8 4 l-4,4"
         stroke="#000000"
         stroke-width="0.25"
         linecap="square"
         id="path2" /><path
         d="M6 2 l-4,4"
         stroke="#000000"
         stroke-width="0.25"
         linecap="square"
         id="path3" /><path
         d="M4 0 l-4,4"
         stroke="#000000"
         stroke-width="0.25"
         linecap="square"
         id="path4" /></pattern><symbol
       id="*MODEL_SPACE" /><symbol
       id="*PAPER_SPACE" /></defs><g
     inkscape:label="Layer 1"
     inkscape:groupmode="layer"
     id="layer1"
     transform="translate(33.279622,-10.295496)"><path
       style="fill:none;stroke:#000000;stroke-width:0.264583"
       d="m 109.23102,266.75423 c 0.26632,-0.10873 0.53267,-0.21755 0.7827,-0.35545 0.29797,-0.16434 0.57276,-0.36994 0.84755,-0.57555 0.26807,-0.23204 0.53614,-0.46405 0.74181,-0.74266 0.19109,-0.25884 0.32832,-0.5579 0.4656,-0.85639 l 1.55525,5.4e-4 v 10.04094 h -1.9169 l 4e-5,-7.22531 c -0.36834,0.30743 -0.73672,0.61438 -1.14423,0.85483 -0.41668,0.24588 -0.87427,0.42222 -1.33182,0.59792 z"
       id="path6"
       sodipodi:nodetypes="cscscccccscc" /><path
       id="path21"
       style="fill:none;stroke:#000000;stroke-width:0.264583"
       d="m 208.2953,146.09031 -3.99769,5.1e-4 v 9.99888 h 3.40444 c 0.52443,-0.001 1.04928,-0.003 1.57355,-0.0233 0.28718,-0.0111 0.57445,-0.0277 0.86144,-0.0444 0.25262,-0.0385 0.50532,-0.0769 0.74104,-0.16278 0.21362,-0.0778 0.41316,-0.1949 0.61289,-0.31161 0.17428,-0.14112 0.34833,-0.28217 0.49092,-0.4501 0.14777,-0.1741 0.26149,-0.37696 0.37517,-0.57981 0.0925,-0.21487 0.18533,-0.42945 0.23823,-0.65371 0.0515,-0.21831 0.0651,-0.44559 0.0791,-0.67282 -0.0189,-0.27728 -0.0375,-0.55481 -0.12248,-0.81029 -0.0819,-0.24595 -0.22523,-0.47135 -0.36845,-0.69712 -0.18756,-0.19981 -0.37511,-0.40002 -0.59686,-0.54777 -0.24223,-0.16139 -0.5252,-0.26046 -0.80822,-0.35966 0.20444,-0.10949 0.40859,-0.21876 0.58033,-0.36639 0.17004,-0.14619 0.30801,-0.33011 0.44596,-0.51366 0.11046,-0.20058 0.22112,-0.401 0.28422,-0.61547 0.0633,-0.21518 0.079,-0.44465 0.0946,-0.67386 -0.0118,-0.20913 -0.024,-0.41827 -0.077,-0.6165 -0.0512,-0.19121 -0.14046,-0.37186 -0.22996,-0.55294 -0.10699,-0.16409 -0.21389,-0.32811 -0.3452,-0.46974 -0.12581,-0.13568 -0.27407,-0.25081 -0.42219,-0.36587 -0.16007,-0.0959 -0.32043,-0.19214 -0.49144,-0.26044 -0.1764,-0.0704 -0.36437,-0.11125 -0.55243,-0.15245 -0.24445,-0.0288 -0.48859,-0.0575 -0.7338,-0.0744 -0.34436,-0.0246 -0.69035,-0.0247 -1.03611,-0.0243 z m -0.2465,1.66295 c 0.19066,7.6e-4 0.38147,0.004 0.57206,0.01 0.19389,0.006 0.38755,0.0153 0.58136,0.0253 0.15404,0.0259 0.3084,0.0521 0.44286,0.11885 0.11568,0.0574 0.21666,0.14486 0.31781,0.23254 0.0745,0.10743 0.14902,0.21476 0.19172,0.33332 0.0473,0.13104 0.0561,0.27599 0.0641,0.42064 -0.0102,0.15145 -0.0202,0.30264 -0.0739,0.43719 -0.0495,0.12411 -0.13623,0.23391 -0.22273,0.34364 -0.11274,0.0896 -0.22527,0.17902 -0.35192,0.23772 -0.14259,0.0661 -0.30281,0.0931 -0.46302,0.1204 -0.16994,0.01 -0.33999,0.0204 -0.51004,0.0264 -0.31864,0.011 -0.63793,0.0113 -0.95757,0.008 h -1.32343 v -2.31252 h 1.16117 c 0.19049,-0.001 0.38088,-0.002 0.57154,-0.002 z m 0.18345,3.97598 c 0.28534,-7e-4 0.56975,0.005 0.85163,0.0377 0.21903,0.0252 0.43675,0.0664 0.65422,0.10749 0.12803,0.0529 0.2558,0.10584 0.3638,0.18604 0.10051,0.0746 0.18397,0.17248 0.26717,0.27078 0.0636,0.1133 0.1269,0.22701 0.1633,0.3483 0.0398,0.13237 0.0478,0.27412 0.0548,0.41599 -0.009,0.16462 -0.0172,0.32894 -0.0708,0.47801 -0.0473,0.13173 -0.12989,0.25147 -0.21239,0.37104 -0.10277,0.0962 -0.20521,0.19238 -0.32453,0.25838 -0.12417,0.0687 -0.26665,0.10456 -0.40876,0.14056 -0.16414,0.0176 -0.32848,0.0356 -0.49299,0.0465 -0.2965,0.0198 -0.59412,0.0185 -0.89142,0.0145 l -1.87017,-5.2e-4 v -2.67219 l 1.63039,-5.1e-4 c 0.0953,-0.001 0.19066,-0.002 0.28577,-0.002 z" /><path
       style="fill:none;stroke:#000000;stroke-width:0.264583"
       d="m 218.8601,146.04858 v 10.04094 h -1.91558 l 3e-5,-7.22317 c -0.36836,0.3069 -0.73674,0.61387 -1.14425,0.85433 -0.41669,0.24587 -0.87426,0.42222 -1.33207,0.59841 v -1.73886 c 0.26657,-0.10923 0.53292,-0.21808 0.78295,-0.35598 0.29798,-0.16431 0.57275,-0.36992 0.84754,-0.57553 0.26808,-0.23203 0.53615,-0.46407 0.74182,-0.74268 0.19108,-0.25884 0.32832,-0.55787 0.46601,-0.85719 z"
       id="path32"
       sodipodi:nodetypes="ccccsccscscc" /><path
       id="path43"
       style="fill:none;stroke:#000000;stroke-width:0.264583"
       d="m -0.69349772,143.08016 c -0.45307738,0.0371 -0.90595118,0.0742 -1.29242758,0.25579 -0.3632302,0.17071 -0.6676335,0.46905 -0.9720337,0.7674 -0.2848448,0.5352 -0.5698985,1.07037 -0.7369059,1.63711 -0.2270736,0.77054 -0.2362031,1.59936 -0.2454631,2.42827 0.00135,0.83172 0.00255,1.66306 0.2232422,2.43913 0.1530587,0.53824 0.4116795,1.04969 0.6702434,1.56115 0.3226801,0.32729 0.645311,0.65478 1.0350789,0.84181 0.3937578,0.18891 0.8560391,0.2348 1.31826578,0.2806 0.45307734,-0.0371 0.90595109,-0.0742 1.29242757,-0.2558 0.36323022,-0.17071 0.66763355,-0.46905 0.97203365,-0.76739 0.2848211,-0.53636 0.5698455,-1.07291 0.736906,-1.64073 0.2276787,-0.77388 0.236523,-1.60626 0.245463,-2.43861 -0.0081,-0.83296 -0.016255,-1.66575 -0.2439127,-2.44016 -0.1660207,-0.56475 -0.4484404,-1.09834 -0.7312216,-1.63195 -0.3056755,-0.30234 -0.61140463,-0.60477 -0.97720129,-0.77773 -0.3866617,-0.18278 -0.8406553,-0.22069 -1.29449463,-0.25889 z m 0,1.58905 c 0.11272826,0.009 0.22533101,0.0184 0.32814534,0.0553 0.10298367,0.037 0.19635269,0.1017 0.28938803,0.1664 0.0893788,0.10637 0.17832328,0.21262 0.24597981,0.33073 0.095869,0.16732 0.14824941,0.35845 0.20050456,0.54932 0.0511254,0.31064 0.10256213,0.62142 0.13332519,0.93379 0.0484399,0.49194 0.046042,0.98787 0.043925,1.48415 8.149e-4,0.50294 0.001996,1.00609 -0.0490926,1.5043 -0.0340677,0.33224 -0.091164,0.66258 -0.14831136,0.9927 -0.047154,0.16907 -0.0944097,0.33767 -0.18086751,0.48473 -0.0656219,0.11162 -0.15409492,0.21064 -0.24236247,0.30954 -0.09390848,0.0647 -0.18766443,0.1295 -0.29145508,0.1664 -0.10319797,0.0366 -0.21621248,0.0463 -0.32917887,0.0553 -0.11265418,-0.009 -0.22517757,-0.0179 -0.32814542,-0.0543 -0.1027853,-0.0364 -0.1962551,-0.10011 -0.289388,-0.16381 -0.0894,-0.10549 -0.1783599,-0.21083 -0.2459798,-0.32815 -0.096157,-0.16682 -0.1483976,-0.35755 -0.2005046,-0.54829 -0.051125,-0.31062 -0.1025622,-0.6214 -0.1333252,-0.93379 -0.048436,-0.49194 -0.046045,-0.98838 -0.043925,-1.48466 -7.06e-4,-0.50351 -0.00177,-1.00703 0.049093,-1.50585 0.034049,-0.33393 0.091156,-0.66552 0.1483113,-0.99736 0.047157,-0.16907 0.094413,-0.33818 0.1808676,-0.48524 0.065622,-0.11163 0.1540945,-0.21064 0.2423624,-0.30954 0.093908,-0.0647 0.1876618,-0.1294 0.2914551,-0.1664 0.10319535,-0.0366 0.21621518,-0.0463 0.32917892,-0.0553 z" /><path
       id="path45"
       style="fill:none;stroke:#000000;stroke-width:0.264583"
       d="m 16.921448,52.815898 c -0.45308,0.0371 -0.905951,0.07416 -1.292428,0.255798 -0.36323,0.170683 -0.667634,0.469051 -0.972034,0.767395 -0.284845,0.535198 -0.569899,1.070372 -0.736905,1.637109 -0.227078,0.770546 -0.236163,1.599364 -0.245463,2.428276 0.0014,0.831691 0.0026,1.663569 0.223242,2.439644 0.153059,0.538241 0.411679,1.04968 0.670243,1.561145 0.32268,0.32729 0.645314,0.654776 1.035079,0.841809 0.393761,0.188937 0.856039,0.234803 1.318266,0.280603 0.453077,-0.03709 0.906467,-0.07419 1.292944,-0.255798 0.36323,-0.170709 0.667634,-0.469051 0.972034,-0.767395 0.28482,-0.536363 0.569328,-1.072904 0.736389,-1.640727 0.227675,-0.773879 0.23708,-1.606259 0.24598,-2.438611 -0.0081,-0.832934 -0.01626,-1.665752 -0.243913,-2.440161 -0.166021,-0.564753 -0.448958,-1.098331 -0.731738,-1.631941 -0.305676,-0.30234 -0.611405,-0.604799 -0.977202,-0.777731 -0.386662,-0.182802 -0.840658,-0.221205 -1.294494,-0.259415 z m 0,1.589567 c 0.112729,0.0093 0.225848,0.01838 0.328662,0.05529 0.102981,0.03694 0.195841,0.101739 0.288871,0.166399 0.08938,0.106362 0.178837,0.212619 0.246497,0.330729 0.09587,0.167323 0.148254,0.358423 0.200504,0.54932 0.05112,0.310621 0.102049,0.620884 0.132809,0.933277 0.04844,0.491913 0.04654,0.988385 0.04444,1.484663 8.1e-4,0.502946 0.0015,1.006065 -0.04961,1.504301 -0.03407,0.332211 -0.09116,0.662068 -0.148311,0.992188 -0.04715,0.169069 -0.09442,0.338186 -0.180868,0.485242 -0.06562,0.111628 -0.153586,0.210612 -0.241846,0.309541 -0.09391,0.06467 -0.18818,0.129439 -0.291971,0.166399 -0.103198,0.03661 -0.216215,0.04599 -0.329179,0.05529 -0.112654,-0.0091 -0.225178,-0.01835 -0.328146,-0.05478 -0.102785,-0.03638 -0.195741,-0.100134 -0.288871,-0.163814 -0.0894,-0.10549 -0.178876,-0.210829 -0.246496,-0.328145 -0.09616,-0.16682 -0.148395,-0.357548 -0.200505,-0.548287 -0.05113,-0.31062 -0.102048,-0.620884 -0.132808,-0.933277 -0.04844,-0.491913 -0.04654,-0.988385 -0.04444,-1.484664 -7e-4,-0.503475 -0.0013,-1.007032 0.04961,-1.505851 0.03405,-0.33393 0.09115,-0.665514 0.148312,-0.997355 0.04715,-0.169068 0.09441,-0.338187 0.180867,-0.485242 0.06562,-0.111627 0.153586,-0.210592 0.241846,-0.309541 0.09391,-0.06466 0.187664,-0.129459 0.291455,-0.166399 0.103198,-0.03664 0.216213,-0.04599 0.329179,-0.05529 z" /><path
       id="path53"
       style="fill:none;stroke:#000000;stroke-width:0.264583"
       d="m 32.460551,52.815898 c -0.453078,0.0371 -0.905951,0.07416 -1.292428,0.255798 -0.363229,0.170683 -0.667631,0.469051 -0.972033,0.767395 -0.284843,0.535198 -0.569896,1.070372 -0.736906,1.637109 -0.227075,0.770546 -0.236163,1.599364 -0.245463,2.428276 0.0014,0.831691 0.0026,1.663569 0.223242,2.439644 0.153061,0.538241 0.411679,1.04968 0.670243,1.561145 0.32268,0.32729 0.645312,0.654776 1.035079,0.841809 0.393761,0.188937 0.856041,0.234803 1.318266,0.280603 0.453076,-0.03709 0.905951,-0.07419 1.292428,-0.255798 0.36323,-0.170709 0.667636,-0.469051 0.972033,-0.767395 0.284821,-0.536363 0.569848,-1.072904 0.736906,-1.640727 0.227675,-0.773879 0.236563,-1.606259 0.245463,-2.438611 -0.0081,-0.832934 -0.01626,-1.665752 -0.243913,-2.440161 -0.166017,-0.564753 -0.448437,-1.098331 -0.731221,-1.631941 -0.305676,-0.30234 -0.611403,-0.604799 -0.977201,-0.777731 -0.386662,-0.182802 -0.840657,-0.221205 -1.294495,-0.259415 z m 0,1.589567 c 0.112731,0.0093 0.225331,0.01838 0.328145,0.05529 0.102984,0.03694 0.196348,0.101739 0.289388,0.166399 0.08938,0.106362 0.17832,0.212619 0.24598,0.330729 0.09587,0.167323 0.148255,0.358423 0.200505,0.54932 0.05112,0.310621 0.102565,0.620884 0.133325,0.933277 0.04844,0.491913 0.04603,0.988385 0.04393,1.484663 8.2e-4,0.502946 0.002,1.006065 -0.04909,1.504301 -0.03407,0.332211 -0.09116,0.662068 -0.148311,0.992188 -0.04715,0.169069 -0.09441,0.338186 -0.180868,0.485242 -0.06562,0.111628 -0.154092,0.210612 -0.242362,0.309541 -0.09391,0.06467 -0.187664,0.129439 -0.291455,0.166399 -0.103198,0.03661 -0.216213,0.04599 -0.329179,0.05529 -0.112652,-0.0091 -0.22518,-0.01835 -0.328145,-0.05478 -0.102788,-0.03638 -0.196259,-0.100134 -0.289388,-0.163814 -0.0894,-0.10549 -0.178877,-0.210829 -0.246497,-0.328145 -0.09616,-0.16682 -0.147878,-0.357548 -0.199988,-0.548287 -0.05113,-0.31062 -0.102565,-0.620884 -0.133325,-0.933277 -0.04844,-0.491913 -0.04603,-0.988385 -0.04392,-1.484664 -7e-4,-0.503475 -0.0018,-1.007032 0.04909,-1.505851 0.03405,-0.33393 0.09115,-0.665514 0.148311,-0.997355 0.04715,-0.169068 0.09441,-0.338187 0.180868,-0.485242 0.06562,-0.111627 0.154102,-0.210592 0.242362,-0.309541 0.09391,-0.06466 0.187664,-0.129459 0.291455,-0.166399 0.103195,-0.03664 0.216215,-0.04599 0.329179,-0.05529 z" /><path
       d="m 42.4392,76.369844 c 0.143217,-0.724244 0.380696,-1.42965 0.618176,-2.135056 0.288559,-0.69506 0.577117,-1.390147 0.943895,-2.04126 0.35591,-0.631852 0.785477,-1.222296 1.215106,-1.812951 l -4.358946,-1.86e-4 v -1.780646 h 6.555317 l 8e-6,1.39196 c -0.283377,0.316561 -0.566761,0.63287 -0.818547,0.972278 -0.30916,0.416745 -0.570677,0.868336 -0.832194,1.319927 -0.263311,0.506783 -0.526621,1.013539 -0.739259,1.540748 -0.214183,0.531045 -0.376957,1.082807 -0.539731,1.634543 -0.127942,0.528055 -0.255884,1.05611 -0.328274,1.591918 -0.06309,0.467043 -0.08399,0.939959 -0.104868,1.412584 h -1.848605 c 0.05108,-0.703421 0.102125,-1.407107 0.237922,-2.093859 z"
       style="fill:none;stroke:#000000;stroke-width:0.264583"
       id="path64"
       sodipodi:nodetypes="scscccccscscsccs" /><path
       id="path81"
       style="fill:none;stroke:#000000;stroke-width:0.264583"
       d="m 23.429061,68.464555 v 9.998873 h 3.403926 c 0.524888,-0.0016 1.049804,-0.0029 1.574065,-0.02325 0.287186,-0.01108 0.573928,-0.02777 0.860929,-0.04444 0.252627,-0.0385 0.50533,-0.07692 0.74104,-0.162781 0.213616,-0.07781 0.413676,-0.194384 0.613399,-0.311092 0.174284,-0.141155 0.34836,-0.282688 0.490926,-0.450619 0.147778,-0.174069 0.261475,-0.376954 0.375171,-0.579809 0.09251,-0.214868 0.184842,-0.42942 0.237712,-0.653707 0.05147,-0.218308 0.06566,-0.445604 0.07958,-0.672827 -0.01887,-0.277257 -0.03794,-0.554288 -0.12299,-0.80977 -0.08189,-0.245956 -0.225221,-0.471863 -0.368453,-0.697632 -0.187563,-0.19984 -0.375127,-0.399536 -0.596863,-0.547253 -0.242247,-0.161423 -0.525184,-0.260965 -0.80822,-0.360185 0.204462,-0.109511 0.409111,-0.218775 0.580844,-0.366386 0.170039,-0.146182 0.308014,-0.330096 0.445967,-0.513664 0.110421,-0.200553 0.220604,-0.400995 0.283704,-0.615466 0.0633,-0.215212 0.07891,-0.444162 0.09457,-0.673344 -0.01185,-0.209153 -0.02344,-0.4183 -0.07648,-0.6165 -0.05118,-0.191241 -0.140957,-0.3724 -0.230477,-0.553454 -0.106997,-0.164094 -0.213865,-0.328108 -0.345199,-0.469739 -0.125801,-0.135679 -0.274064,-0.250802 -0.422196,-0.365869 -0.160055,-0.09588 -0.319909,-0.191643 -0.490926,-0.259933 -0.176401,-0.07046 -0.364359,-0.111822 -0.552422,-0.152962 -0.244469,-0.02871 -0.48912,-0.05697 -0.734322,-0.0739 -0.34436,-0.02461 -0.690292,-0.0247 -1.036112,-0.02429 z m 3.751192,1.662947 c 0.190732,7.82e-4 0.381465,0.0032 0.572058,0.0093 0.193899,0.0061 0.38755,0.01604 0.58136,0.02584 0.154035,0.02587 0.307891,0.05158 0.44235,0.118339 0.115673,0.05741 0.217141,0.144884 0.318327,0.232544 0.07456,0.107421 0.14899,0.21527 0.19172,0.33383 0.04723,0.131048 0.05568,0.275456 0.06408,0.42013 -0.01025,0.151446 -0.02073,0.302642 -0.07441,0.437182 -0.04953,0.124143 -0.135698,0.233927 -0.222208,0.343648 -0.112742,0.08959 -0.225772,0.179489 -0.352434,0.238229 -0.142571,0.06612 -0.30281,0.09288 -0.46302,0.119889 -0.169929,0.0097 -0.340012,0.01974 -0.510047,0.02584 -0.318641,0.0114 -0.637502,0.01099 -0.95653,0.0088 l -1.322917,5.17e-4 v -2.31252 l 1.159102,-5.17e-4 c 0.190792,-0.0011 0.381844,-0.0018 0.572575,-10e-4 z m 0.183451,3.975985 c 0.285091,-6.88e-4 0.569768,0.0053 0.851628,0.03772 0.219033,0.02519 0.436227,0.06635 0.653707,0.107487 0.128037,0.05284 0.256308,0.105348 0.364319,0.185518 0.100526,0.07461 0.18347,0.173032 0.26665,0.271302 0.06363,0.113319 0.127364,0.226497 0.163814,0.347782 0.03978,0.132371 0.04738,0.274125 0.05478,0.415995 -0.0086,0.16465 -0.01723,0.329458 -0.0708,0.478524 -0.04735,0.131763 -0.12991,0.251445 -0.21239,0.371037 -0.10277,0.09618 -0.205718,0.192392 -0.325045,0.258382 -0.124184,0.06869 -0.266123,0.10455 -0.408244,0.14056 -0.164155,0.01757 -0.328468,0.03514 -0.492993,0.04599 -0.296495,0.01958 -0.594297,0.01819 -0.891935,0.01499 l -1.86862,-5.17e-4 v -2.672705 h 1.629875 c 0.0951,-9.9e-4 0.190224,-0.0018 0.285253,-0.0021 z" /><path
       id="path93"
       style="fill:none;stroke:#000000;stroke-width:0.264583"
       d="m 95.624654,20.789429 v 9.998873 l 3.403927,5.16e-4 c 0.524856,-0.0012 1.049809,-0.0029 1.574059,-0.02325 0.28718,-0.01111 0.57445,-0.02777 0.86145,-0.04444 0.25263,-0.0385 0.5048,-0.07692 0.74052,-0.162781 0.21361,-0.07781 0.41367,-0.194384 0.6134,-0.311092 0.17428,-0.141128 0.34836,-0.282171 0.49093,-0.450101 0.14778,-0.174069 0.26147,-0.376927 0.37517,-0.57981 0.0925,-0.214841 0.18481,-0.429936 0.23771,-0.654224 0.0515,-0.21828 0.0657,-0.445603 0.0796,-0.672827 -0.0189,-0.277283 -0.038,-0.554315 -0.12299,-0.809769 -0.0819,-0.245983 -0.2247,-0.471863 -0.36793,-0.697632 -0.18756,-0.19984 -0.37514,-0.399537 -0.59687,-0.547254 -0.24224,-0.161396 -0.52569,-0.260965 -0.80873,-0.360184 0.20447,-0.109511 0.4091,-0.218748 0.58084,-0.366386 0.17004,-0.146182 0.30805,-0.329579 0.44597,-0.513147 0.1104,-0.200554 0.2206,-0.401513 0.2837,-0.615983 0.0634,-0.215212 0.0794,-0.444137 0.0951,-0.673344 -0.0118,-0.209127 -0.024,-0.418274 -0.077,-0.6165 -0.0512,-0.19124 -0.14046,-0.372374 -0.22996,-0.553455 -0.10699,-0.164094 -0.21438,-0.328108 -0.34572,-0.469738 -0.1258,-0.135652 -0.27355,-0.250802 -0.42168,-0.36587 -0.16006,-0.09588 -0.32043,-0.191642 -0.49144,-0.259932 -0.17641,-0.07043 -0.36436,-0.111782 -0.55242,-0.152962 -0.24447,-0.02869 -0.48912,-0.05697 -0.73432,-0.0739 -0.34436,-0.02461 -0.68981,-0.02486 -1.035597,-0.0248 z m 3.751192,1.663464 c 0.190728,8.31e-4 0.381467,0.0032 0.572058,0.0093 0.193896,0.0064 0.387546,0.01604 0.581356,0.02584 0.15404,0.0259 0.30841,0.05159 0.44287,0.118339 0.11567,0.05741 0.21661,0.145381 0.31781,0.233061 0.0746,0.107421 0.14902,0.21478 0.19172,0.333313 0.0472,0.131048 0.0561,0.275482 0.0641,0.420129 -0.0103,0.151448 -0.0207,0.303185 -0.0744,0.4377 -0.0495,0.12414 -0.13571,0.233899 -0.22221,0.343648 -0.11274,0.08956 -0.22578,0.178971 -0.35244,0.237711 -0.14258,0.06611 -0.30281,0.09337 -0.46302,0.120406 -0.16993,0.0098 -0.3395,0.01922 -0.509527,0.02532 -0.318641,0.0114 -0.638051,0.01139 -0.957047,0.0088 h -1.322917 v -2.31252 h 1.159619 c 0.190776,-9.1e-4 0.381332,-0.0019 0.572058,-10e-4 z m 0.183452,3.975468 c 0.285075,-5.41e-4 0.569762,0.0058 0.851632,0.03824 0.21903,0.02519 0.43622,0.06637 0.6537,0.107487 0.12804,0.05286 0.25631,0.105348 0.36432,0.185518 0.10053,0.07461 0.18345,0.173031 0.26665,0.271301 0.0636,0.113321 0.12732,0.226498 0.16382,0.347783 0.0398,0.132369 0.0478,0.274152 0.0548,0.415995 -0.009,0.16465 -0.0172,0.329485 -0.0708,0.478524 -0.0474,0.131763 -0.12989,0.251446 -0.21239,0.371036 -0.10277,0.09618 -0.20572,0.192373 -0.32505,0.258383 -0.12418,0.06869 -0.26612,0.104551 -0.40824,0.140559 -0.16416,0.01757 -0.32848,0.03514 -0.493,0.04599 -0.29649,0.01956 -0.594194,0.01822 -0.891931,0.01602 h -1.86862 v -2.674772 h 1.629875 c 0.0951,-9.02e-4 0.190228,-0.0019 0.285254,-0.0021 z" /><path
       id="path110"
       style="fill:none;stroke:#000000;stroke-width:0.264583"
       d="m 108.33964,20.748604 c -0.44219,0.03543 -0.8845,0.07062 -1.27486,0.232544 -0.37424,0.155258 -0.70072,0.427124 -1.02732,0.698666 -0.26347,0.345306 -0.52708,0.690528 -0.678,1.078487 -0.16496,0.423941 -0.19533,0.898713 -0.22583,1.373559 0.0291,0.456486 0.0581,0.912878 0.21394,1.3224 0.14293,0.375655 0.39278,0.711873 0.64234,1.047998 0.29556,0.265589 0.59094,0.531372 0.9369,0.683163 0.33487,0.146954 0.71704,0.187026 1.09915,0.227376 0.34718,-0.0358 0.69442,-0.07164 0.99426,-0.209806 0.30348,-0.139833 0.55841,-0.38419 0.81339,-0.628902 -0.0278,0.484742 -0.0558,0.969068 -0.19121,1.425236 -0.0853,0.287231 -0.21316,0.563317 -0.34106,0.839225 -0.14154,0.159067 -0.28308,0.318157 -0.46044,0.409277 -0.16289,0.08369 -0.35569,0.109966 -0.5488,0.136426 -0.14664,-0.009 -0.29343,-0.01799 -0.42478,-0.06821 -0.11925,-0.04556 -0.22563,-0.125109 -0.33228,-0.204639 -0.0872,-0.111019 -0.17443,-0.222089 -0.23203,-0.346232 -0.0702,-0.151289 -0.0967,-0.322019 -0.12299,-0.492993 l -1.85518,0.205672 c 0.0796,0.378076 0.15928,0.756594 0.33434,1.086239 0.15067,0.283739 0.37186,0.531405 0.59325,0.778764 0.26973,0.181901 0.53946,0.36332 0.83561,0.467671 0.3315,0.116784 0.69631,0.136483 1.06091,0.156063 0.5164,-0.04887 1.03238,-0.09752 1.4764,-0.30334 0.4366,-0.20238 0.80332,-0.556394 1.16995,-0.910539 0.29486,-0.520488 0.58968,-1.041085 0.76223,-1.596285 0.23159,-0.745066 0.24295,-1.552503 0.25425,-2.360063 -0.01,-0.791632 -0.0195,-1.5834 -0.24391,-2.315104 -0.16577,-0.54049 -0.44883,-1.048189 -0.73174,-1.555977 -0.34753,-0.343191 -0.69477,-0.686499 -1.11156,-0.882634 -0.41566,-0.195554 -0.9004,-0.244719 -1.38493,-0.294039 z m -0.0884,1.589051 c 0.18411,0.02529 0.3682,0.05085 0.52607,0.128157 0.17458,0.08549 0.31689,0.23432 0.4594,0.383439 0.12408,0.199707 0.24828,0.399793 0.31988,0.615983 0.0857,0.258815 0.096,0.541307 0.10645,0.823723 -0.008,0.255243 -0.0162,0.510062 -0.0946,0.743107 -0.0637,0.189415 -0.1741,0.364228 -0.28422,0.538985 -0.13223,0.127318 -0.26407,0.254839 -0.42168,0.327629 -0.15361,0.07091 -0.33131,0.08999 -0.50902,0.109037 -0.18366,-0.01966 -0.36762,-0.03903 -0.52555,-0.113172 -0.16109,-0.07559 -0.29511,-0.208255 -0.42943,-0.340547 -0.11092,-0.1896 -0.2222,-0.37922 -0.2868,-0.582394 -0.0842,-0.264609 -0.0896,-0.552113 -0.0956,-0.839742 0.004,-0.280933 0.007,-0.561872 0.0879,-0.821138 0.0597,-0.192405 0.16165,-0.372982 0.26355,-0.553455 0.12391,-0.122343 0.24767,-0.244779 0.39635,-0.314709 0.1463,-0.06879 0.31702,-0.08691 0.48731,-0.104903 z" /><path
       id="path119"
       style="fill:none;stroke:#000000;stroke-width:0.264583"
       d="m 36.328015,68.423214 c -0.453077,0.03709 -0.905951,0.07419 -1.292427,0.255798 -0.363231,0.170683 -0.667633,0.469051 -0.972034,0.767395 -0.284845,0.535173 -0.569896,1.070346 -0.736906,1.637109 -0.227075,0.770546 -0.236163,1.599364 -0.245463,2.428276 0.0014,0.83169 0.0026,1.663569 0.223242,2.439644 0.153059,0.538242 0.41168,1.049654 0.670243,1.561145 0.322681,0.327263 0.645311,0.654286 1.035079,0.841293 0.393758,0.188938 0.85604,0.234803 1.318266,0.280603 0.453078,-0.0371 0.906468,-0.07419 1.292944,-0.255799 0.36323,-0.170682 0.667633,-0.46905 0.972034,-0.767395 0.284818,-0.536335 0.569331,-1.072878 0.736389,-1.640726 0.227687,-0.77388 0.23708,-1.606233 0.24598,-2.438611 -0.0081,-0.832933 -0.01626,-1.665726 -0.243913,-2.440161 -0.166017,-0.564753 -0.448957,-1.098331 -0.731738,-1.631942 -0.305676,-0.302366 -0.611405,-0.604799 -0.977201,-0.77773 -0.386662,-0.182802 -0.840658,-0.220689 -1.294495,-0.258899 z m 0,1.58905 c 0.112728,0.0093 0.225848,0.01893 0.328662,0.05581 0.102981,0.03694 0.195832,0.101221 0.288872,0.165881 0.08938,0.106363 0.178836,0.212646 0.246496,0.330729 0.09587,0.167349 0.148255,0.358425 0.200505,0.549321 0.05112,0.310647 0.102048,0.6214 0.132808,0.933793 0.04844,0.491939 0.04654,0.987895 0.04444,1.484147 8.2e-4,0.502946 0.0015,1.00609 -0.04961,1.504301 -0.03407,0.332236 -0.09116,0.662557 -0.148311,0.992704 -0.04715,0.169042 -0.09441,0.338187 -0.180867,0.485242 -0.06562,0.111601 -0.153576,0.210075 -0.241846,0.309025 -0.09391,0.06466 -0.188181,0.129458 -0.291972,0.166398 -0.103196,0.03665 -0.216215,0.04599 -0.329179,0.05529 -0.112654,-0.0091 -0.225179,-0.0178 -0.328145,-0.05426 -0.102785,-0.03638 -0.195742,-0.100154 -0.288871,-0.163814 -0.0894,-0.10549 -0.178877,-0.210855 -0.246497,-0.328145 -0.09616,-0.16682 -0.148395,-0.357576 -0.200505,-0.548287 -0.05112,-0.310648 -0.102048,-0.6214 -0.132808,-0.933793 -0.04844,-0.49194 -0.04654,-0.988386 -0.04444,-1.484664 -7.1e-4,-0.503475 -0.0013,-1.006516 0.04961,-1.505335 0.03405,-0.33393 0.09115,-0.666031 0.148311,-0.997872 0.04715,-0.169041 0.09441,-0.338186 0.180867,-0.485241 0.06562,-0.111601 0.153586,-0.210592 0.241846,-0.309542 0.09391,-0.06466 0.187664,-0.128941 0.291455,-0.165881 0.103198,-0.03665 0.216213,-0.04651 0.329179,-0.05581 z" /><path
       d="m 16.123541,70.155654 v 2.216917 h 5.020464 v 1.684867 h -5.020464 v 2.721689 h 5.586632 v 1.684867 H 14.104442 V 68.463988 h 7.414734 v 1.691666 z"
       style="fill:none;stroke:#000000;stroke-width:0.264583"
       id="path124"
       sodipodi:nodetypes="ccccccccccccc" /><path
       id="path127"
       style="fill:none;stroke:#000000;stroke-width:0.264583"
       d="m 40.230103,52.815898 c -0.453077,0.0371 -0.906468,0.07416 -1.292945,0.255798 -0.363233,0.170683 -0.667633,0.469051 -0.972033,0.767395 -0.284845,0.535198 -0.56938,1.070372 -0.73639,1.637109 -0.227077,0.770546 -0.236163,1.599364 -0.245463,2.428276 0.0014,0.831691 0.0026,1.663569 0.223242,2.439644 0.153062,0.538241 0.41168,1.04968 0.670244,1.561145 0.322682,0.32729 0.64531,0.654776 1.035079,0.841809 0.393757,0.188937 0.856042,0.234803 1.318266,0.280603 0.45308,-0.03709 0.90595,-0.07419 1.292427,-0.255798 0.36323,-0.170709 0.667634,-0.469051 0.972034,-0.767395 0.284821,-0.536363 0.569848,-1.072904 0.736906,-1.640727 0.227674,-0.773879 0.236563,-1.606259 0.245463,-2.438611 -0.0081,-0.832934 -0.01626,-1.665752 -0.243913,-2.440161 -0.166021,-0.564753 -0.448958,-1.098331 -0.731738,-1.631941 -0.305676,-0.30234 -0.611405,-0.604799 -0.977202,-0.777731 -0.386661,-0.182802 -0.840138,-0.221205 -1.293977,-0.259415 z m 0,1.589567 c 0.11273,0.0093 0.22533,0.01838 0.328145,0.05529 0.102981,0.03694 0.195831,0.101739 0.288871,0.166399 0.08938,0.106362 0.178837,0.212619 0.246497,0.330729 0.09587,0.167323 0.148254,0.358423 0.200504,0.54932 0.05112,0.310621 0.102049,0.620884 0.132809,0.933277 0.04844,0.491913 0.04654,0.988385 0.04444,1.484663 8.2e-4,0.502946 0.0015,1.006065 -0.04961,1.504301 -0.03407,0.332211 -0.09116,0.662068 -0.148311,0.992188 -0.04715,0.169069 -0.09389,0.338186 -0.180351,0.485242 -0.06563,0.111628 -0.154103,0.210612 -0.242363,0.309541 -0.09391,0.06467 -0.187664,0.129439 -0.291455,0.166399 -0.103197,0.03661 -0.216212,0.04599 -0.329178,0.05529 -0.112651,-0.0091 -0.225695,-0.01835 -0.328663,-0.05478 -0.102785,-0.03638 -0.195741,-0.100134 -0.288871,-0.163814 -0.0894,-0.10549 -0.178876,-0.210829 -0.246496,-0.328145 -0.09616,-0.16682 -0.147878,-0.357548 -0.199988,-0.548287 -0.05112,-0.31062 -0.102565,-0.620884 -0.133325,-0.933277 -0.04844,-0.491913 -0.04654,-0.988385 -0.04444,-1.484664 -7.1e-4,-0.503475 -0.0013,-1.007032 0.04961,-1.505851 0.03405,-0.33393 0.09115,-0.665514 0.148312,-0.997355 0.04715,-0.169068 0.09441,-0.338187 0.180867,-0.485242 0.06562,-0.111627 0.154093,-0.210592 0.242363,-0.309541 0.09391,-0.06466 0.187665,-0.129459 0.291455,-0.166399 0.103196,-0.03664 0.216216,-0.04599 0.329179,-0.05529 z" /><path
       style="fill:none;stroke:#000000;stroke-width:0.264583"
       d="m 26.355354,52.814704 v 10.040937 h -1.916641 l -1.5e-5,-7.222807 c -0.368394,0.307261 -0.736776,0.61423 -1.144284,0.854684 -0.416679,0.245877 -0.874268,0.422222 -1.331896,0.598064 v -1.738869 c 0.266395,-0.108875 0.532746,-0.217725 0.782785,-0.355599 0.29796,-0.164333 0.572751,-0.369941 0.847542,-0.575549 0.268068,-0.232039 0.536139,-0.464079 0.741815,-0.742685 0.191085,-0.258842 0.328319,-0.557874 0.465513,-0.857541 z"
       id="path137"
       sodipodi:nodetypes="ccccsccccscc" /><path
       d="m -10.40869,145.25504 c 0.297961,-0.16431 0.5727543,-0.36991 0.8475453,-0.57555 0.2680679,-0.23201 0.5361384,-0.46405 0.7418149,-0.74266 0.1910848,-0.25884 0.3283188,-0.55787 0.4655675,-0.85691 l 1.555238,3e-5 v 10.04094 h -1.9169062 l 6.21e-5,-7.22346 c -0.3683198,0.30662 -0.7366992,0.61359 -1.1442078,0.85404 -0.4166788,0.24588 -0.8742678,0.42222 -1.3318408,0.59871 v -1.74019 c 0.266337,-0.1082 0.532691,-0.21705 0.782727,-0.35495 z"
       style="fill:none;stroke:#000000;stroke-width:0.264583"
       id="path143"
       sodipodi:nodetypes="scscccccsccs" /><path
       id="path160"
       style="fill:none;stroke:#000000;stroke-width:0.264583"
       d="m -21.362004,143.11943 v 10.00146 h 3.403927 c 0.524862,-0.002 1.049803,-0.004 1.574064,-0.0238 0.287184,-0.011 0.573928,-0.0277 0.86093,-0.0444 0.252625,-0.0385 0.505328,-0.077 0.74104,-0.16278 0.213613,-0.0778 0.413159,-0.1949 0.612882,-0.31161 0.174284,-0.14113 0.348878,-0.28214 0.491443,-0.4501 0.147775,-0.17407 0.261478,-0.37692 0.375171,-0.57981 0.09251,-0.21484 0.184831,-0.42944 0.237711,-0.6537 0.05147,-0.2183 0.06566,-0.44561 0.07958,-0.67283 -0.01886,-0.27729 -0.03794,-0.55481 -0.12299,-0.81029 -0.08188,-0.24596 -0.225221,-0.47134 -0.368453,-0.69711 -0.187563,-0.19981 -0.375126,-0.40002 -0.596863,-0.54777 -0.242246,-0.16139 -0.525184,-0.26047 -0.808219,-0.35967 0.204462,-0.10948 0.40911,-0.21875 0.580843,-0.36639 0.17004,-0.14618 0.308019,-0.33012 0.445968,-0.51366 0.110418,-0.20058 0.220603,-0.40099 0.283703,-0.61547 0.06331,-0.21518 0.07891,-0.44465 0.09457,-0.67386 -0.01185,-0.20913 -0.02344,-0.41775 -0.07648,-0.61598 -0.05117,-0.19121 -0.140957,-0.37238 -0.230477,-0.55346 -0.106995,-0.1641 -0.213864,-0.32808 -0.345198,-0.46973 -0.125804,-0.13566 -0.274068,-0.2508 -0.422197,-0.36587 -0.160057,-0.0959 -0.319907,-0.19215 -0.490926,-0.26045 -0.1764,-0.0704 -0.364358,-0.11145 -0.552421,-0.15245 -0.24447,-0.0286 -0.489119,-0.057 -0.734322,-0.0739 -0.344363,-0.0249 -0.690318,-0.0247 -1.036113,-0.0253 z m 3.751193,1.66501 c 0.190727,7.7e-4 0.381465,0.003 0.572058,0.009 0.1939,0.006 0.387553,0.0158 0.58136,0.0258 0.154036,0.0259 0.307891,0.0515 0.44235,0.11834 0.115673,0.0574 0.217144,0.14485 0.318327,0.23255 0.07456,0.10742 0.148979,0.21527 0.191719,0.33383 0.04723,0.13105 0.05568,0.27548 0.06408,0.42013 -0.01025,0.15145 -0.02073,0.30267 -0.07441,0.43718 -0.04953,0.12414 -0.136217,0.2339 -0.222725,0.34365 -0.112742,0.0896 -0.225253,0.17953 -0.351917,0.23823 -0.142574,0.0661 -0.302808,0.0931 -0.463021,0.1204 -0.169926,0.01 -0.340012,0.0198 -0.510046,0.0258 -0.318643,0.011 -0.637526,0.0107 -0.956531,0.007 l -1.323433,-5.2e-4 v -2.30994 l 1.159619,-5.1e-4 c 0.190779,-0.001 0.381846,-0.002 0.572575,-0.001 z m 0.183451,3.97599 c 0.285079,-8.3e-4 0.569766,0.005 0.851628,0.0377 0.219031,0.0252 0.436229,0.0659 0.653706,0.10697 0.128037,0.0529 0.256308,0.10584 0.364319,0.18604 0.100526,0.0746 0.183471,0.173 0.266651,0.2713 0.06363,0.11329 0.127364,0.22649 0.163814,0.34778 0.03978,0.13237 0.04686,0.27413 0.05426,0.416 -0.0086,0.16462 -0.01671,0.32945 -0.07028,0.47852 -0.04735,0.13174 -0.12991,0.25148 -0.21239,0.37104 -0.102769,0.0962 -0.205721,0.19238 -0.325045,0.25838 -0.124183,0.0687 -0.266127,0.10456 -0.408243,0.14056 -0.164156,0.0176 -0.328471,0.0351 -0.492994,0.046 -0.296493,0.0191 -0.594189,0.018 -0.891935,0.015 h -1.869136 v -2.67271 l 1.630391,-5.1e-4 c 0.0951,-10e-4 0.190228,-0.002 0.285254,-0.002 z" /><path
       style="fill:none;stroke:#000000;stroke-width:0.264583"
       d="m 221.70643,149.00941 c 0.07,-0.47621 0.14068,-0.95259 0.3524,-1.35899 0.17502,-0.336 0.44649,-0.62418 0.71792,-0.91234 0.32867,-0.20082 0.65733,-0.40166 1.01299,-0.51673 0.39092,-0.12647 0.81449,-0.14936 1.23804,-0.17222 0.45598,0.0236 0.91193,0.0468 1.32164,0.19953 0.35841,0.13356 0.68141,0.36605 1.00441,0.59856 0.24673,0.28334 0.49342,0.56671 0.63439,0.89527 0.14262,0.3324 0.17704,0.71107 0.21146,1.08972 -0.01,0.22166 -0.0196,0.44333 -0.0605,0.6591 -0.0403,0.21272 -0.11099,0.41971 -0.18163,0.62672 -0.0976,0.2123 -0.19525,0.4246 -0.31294,0.625 -0.13412,0.22831 -0.2943,0.44114 -0.45447,0.65397 -0.16,0.18272 -0.31999,0.36541 -0.48774,0.54059 -0.24479,0.25567 -0.50609,0.49533 -0.76737,0.73499 -0.24992,0.22778 -0.49985,0.45556 -0.74096,0.69236 -0.13806,0.1356 -0.27327,0.27414 -0.40844,0.4127 -0.0755,0.088 -0.151,0.17603 -0.21913,0.26942 -0.0617,0.0846 -0.11739,0.17362 -0.17353,0.26222 l 3.80692,-4.1e-4 v 1.78065 l -6.7198,2.6e-4 c 0.0561,-0.33332 0.11157,-0.66694 0.21891,-0.98285 0.10954,-0.32237 0.27305,-0.62629 0.43656,-0.93025 0.26191,-0.35806 0.5238,-0.71614 0.81174,-1.05132 0.41236,-0.48006 0.87808,-0.91321 1.3438,-1.34636 0.3579,-0.32869 0.7158,-0.65738 1.04536,-1.01295 0.18744,-0.20225 0.36571,-0.4132 0.54399,-0.62416 0.11528,-0.19132 0.23058,-0.38261 0.29673,-0.59004 0.0592,-0.18579 0.0791,-0.3845 0.0989,-0.58322 -0.01,-0.19609 -0.0188,-0.39217 -0.0861,-0.56701 -0.0577,-0.14999 -0.15804,-0.28432 -0.25835,-0.41867 -0.13138,-0.10036 -0.26272,-0.20074 -0.41014,-0.25834 -0.16677,-0.0652 -0.35412,-0.0757 -0.54145,-0.0861 -0.18671,0.0119 -0.37343,0.0241 -0.53887,0.0904 -0.15042,0.0604 -0.28327,0.16576 -0.41611,0.27113 -0.10626,0.15549 -0.21252,0.31101 -0.27967,0.4809 -0.0883,0.22331 -0.10893,0.47146 -0.13018,0.71924 z"
       id="path166"
       sodipodi:nodetypes="cscscscscscscscscsccccscscscscscscccscc" /><path
       style="fill:none;stroke:#000000;stroke-width:0.264583"
       d="m 102.23233,266.75423 c 0.26637,-0.10873 0.53272,-0.21755 0.78276,-0.35545 0.29796,-0.16434 0.57275,-0.36994 0.84754,-0.57555 0.26807,-0.23204 0.53614,-0.46405 0.74182,-0.74266 0.19109,-0.25884 0.32832,-0.5579 0.46553,-0.85639 l 1.55519,5.4e-4 v 10.04094 h -1.91664 l -3e-5,-7.22531 c -0.36841,0.30743 -0.73679,0.61438 -1.1443,0.85483 -0.41668,0.24588 -0.87427,0.42222 -1.33187,0.59792 z"
       id="path186"
       sodipodi:nodetypes="cscscccccscc" /><path
       id="path201"
       style="fill:none;stroke:#000000;stroke-width:0.264583"
       d="m 92.061564,264.26449 v 10.00094 l 3.403927,-5.2e-4 c 0.524901,-0.002 1.049802,-0.004 1.574064,-0.0243 0.287186,-0.011 0.574444,-0.0277 0.861446,-0.0444 0.252626,-0.0385 0.505328,-0.0769 0.74104,-0.16278 0.213616,-0.0778 0.413163,-0.19438 0.612883,-0.31109 0.174283,-0.14113 0.348361,-0.28217 0.490926,-0.4501 0.147777,-0.17407 0.26147,-0.37695 0.37517,-0.57981 0.0925,-0.21487 0.18533,-0.42995 0.23823,-0.65422 0.0515,-0.2183 0.0652,-0.44561 0.0791,-0.67283 -0.0189,-0.27726 -0.0379,-0.55429 -0.12299,-0.80977 -0.0819,-0.24596 -0.2247,-0.47189 -0.367932,-0.69763 -0.187563,-0.19984 -0.375126,-0.39952 -0.596863,-0.54726 -0.242247,-0.1614 -0.525701,-0.26046 -0.808736,-0.35966 0.204463,-0.10951 0.40911,-0.21927 0.580843,-0.36691 0.17004,-0.14616 0.308018,-0.32957 0.445967,-0.51314 0.110417,-0.20058 0.221121,-0.40098 0.284221,-0.61547 0.06331,-0.21519 0.07891,-0.44465 0.09457,-0.67386 -0.01185,-0.20912 -0.02396,-0.4183 -0.077,-0.6165 -0.05118,-0.19124 -0.14044,-0.3724 -0.22996,-0.55346 -0.106998,-0.16409 -0.214382,-0.3281 -0.345716,-0.46973 -0.125802,-0.13568 -0.273547,-0.25083 -0.421679,-0.36587 -0.160057,-0.0959 -0.320424,-0.19164 -0.491443,-0.25994 -0.176398,-0.0705 -0.364358,-0.11134 -0.552421,-0.15244 -0.24447,-0.0288 -0.48912,-0.0575 -0.734322,-0.0744 -0.344361,-0.0246 -0.689762,-0.0247 -1.035596,-0.0248 z m 3.751192,1.66346 c 0.190734,7.7e-4 0.381467,0.003 0.572058,0.009 0.1939,0.006 0.387555,0.0158 0.58136,0.0258 0.154038,0.0259 0.308408,0.0515 0.442867,0.11834 0.115676,0.0574 0.216629,0.14485 0.31781,0.23255 0.07456,0.10742 0.14898,0.21527 0.19172,0.33383 0.04723,0.13105 0.05568,0.27546 0.06408,0.42013 -0.01025,0.15142 -0.02022,0.30316 -0.0739,0.4377 -0.04953,0.12414 -0.136215,0.23338 -0.222725,0.34313 -0.112742,0.0896 -0.225769,0.17953 -0.352433,0.23823 -0.142574,0.0661 -0.30281,0.0932 -0.463021,0.1204 -0.169928,0.01 -0.339493,0.0198 -0.50953,0.0258 -0.318641,0.011 -0.638004,0.0107 -0.957047,0.008 h -1.322917 v -2.31252 l 1.159619,5.2e-4 c 0.1908,-10e-4 0.381326,-0.002 0.572058,-10e-4 z m 0.183452,3.97599 c 0.285095,-4.9e-4 0.569766,0.005 0.851627,0.0377 0.219033,0.0251 0.436227,0.0664 0.653707,0.10749 0.128037,0.0528 0.256308,0.10583 0.364319,0.18603 0.100526,0.0746 0.18347,0.17249 0.26665,0.27079 0.06363,0.11329 0.127365,0.22652 0.163815,0.34778 0.03978,0.13237 0.04738,0.27464 0.05478,0.41651 -0.0086,0.16465 -0.01723,0.32894 -0.0708,0.47801 -0.04735,0.13174 -0.12991,0.25145 -0.21239,0.37104 -0.102769,0.0962 -0.205718,0.19238 -0.325045,0.25838 -0.124185,0.0688 -0.266123,0.10456 -0.408244,0.14056 -0.164156,0.0175 -0.328467,0.0351 -0.492993,0.046 -0.296495,0.0196 -0.593767,0.019 -0.891418,0.016 h -1.869137 v -2.67477 h 1.629875 c 0.09511,-8.8e-4 0.190221,-0.001 0.285254,-0.002 z" /><path
       id="path215"
       style="fill:none;stroke:#000000;stroke-width:0.264583"
       d="m 7.8904744,10.427787 v 4.572331 H -28.575517 v 36.465474 h -4.571814 v 27.724406 h 4.571814 v 27.723892 h -4.571814 v 27.72389 h 4.571814 v 27.7244 h -4.571814 v 27.72389 h 4.571814 v 27.72441 h -4.571814 v 27.72389 h 4.571814 v 36.46547 H 7.8904744 v 4.57233 H 35.614364 v -4.57233 H 63.33877 v 4.57233 h 27.723889 v -4.57233 h 27.723891 v 4.57233 h 27.7244 v -4.57233 h 27.72389 v 4.57233 h 27.72441 v -4.57233 h 36.46547 v -36.46547 h 4.57182 v -27.72389 h -4.57182 v -27.72441 h 4.57182 v -27.72389 h -4.57182 v -27.7244 h 4.57182 v -27.72389 h -4.57182 V 79.189998 h 4.57182 V 51.465592 h -4.57182 V 15.000118 h -36.46547 v -4.572331 h -27.72441 v 4.572331 h -27.72389 v -4.572331 h -27.7244 v 4.572331 H 91.062659 V 10.427787 H 63.33877 v 4.572331 H 35.614364 V 10.427787 Z M -16.076538,41.001115 c 1.250002,0 2.500339,0.833227 2.501139,2.499072 0.0016,3.331692 -4.998095,3.331692 -4.999695,0 -8.16e-4,-1.665845 1.248554,-2.499072 2.498556,-2.499072 z m 0,9.999906 c 1.250002,0 2.500339,0.833226 2.501139,2.499073 0.0016,3.33169 -4.998095,3.33169 -4.999695,0 -8.16e-4,-1.665847 1.248554,-2.499073 2.498556,-2.499073 z m 98.693201,57.498819 h 44.615877 c 7.42517,4.14097 13.55096,10.26729 17.69195,17.69246 v 44.61536 c -4.14099,7.42515 -10.26678,13.55149 -17.69195,17.69246 H 82.616663 C 75.191511,184.35915 69.065698,178.23281 64.924719,170.80766 V 126.1923 c 4.140979,-7.42517 10.266792,-13.55149 17.691944,-17.69246 z M 69.173556,110.601 c 1.075001,0 2.150689,0.71652 2.151289,2.14922 0.0012,2.86543 -4.298796,2.86543 -4.299996,0 -6.18e-4,-1.4327 1.073704,-2.14922 2.148707,-2.14922 z m 71.500544,0 c 1.07503,0 2.15027,0.71652 2.15077,2.14922 0.001,2.86543 -4.29899,2.86543 -4.29999,0 -6.2e-4,-1.4327 1.07419,-2.14922 2.14922,-2.14922 z m -71.500544,71.50003 c 1.075001,0 2.150689,0.71599 2.151289,2.14871 0.0012,2.86541 -4.298796,2.86541 -4.299996,0 -6.18e-4,-1.43272 1.073704,-2.14871 2.148707,-2.14871 z m 71.500544,0 c 1.07503,0 2.15027,0.71599 2.15077,2.14871 0.001,2.86541 -4.29899,2.86541 -4.29999,0 -6.2e-4,-1.43272 1.07419,-2.14871 2.14922,-2.14871 z" /></g></svg>
