<?xml version="1.0" encoding="UTF-8" standalone="no"?>
<!-- Created with Inkscape (http://www.inkscape.org/) -->

<svg
   width="276.40845mm"
   height="79.408592mm"
   viewBox="0 0 276.40845 79.408592"
   version="1.1"
   id="svg1"
   xml:space="preserve"
   inkscape:version="1.3.2 (091e20e, 2023-11-25, custom)"
   sodipodi:docname="Electronic left.svg"
   xmlns:inkscape="http://www.inkscape.org/namespaces/inkscape"
   xmlns:sodipodi="http://sodipodi.sourceforge.net/DTD/sodipodi-0.dtd"
   xmlns="http://www.w3.org/2000/svg"
   xmlns:svg="http://www.w3.org/2000/svg"><sodipodi:namedview
     id="namedview1"
     pagecolor="#ffffff"
     bordercolor="#000000"
     borderopacity="0.25"
     inkscape:showpageshadow="2"
     inkscape:pageopacity="0.0"
     inkscape:pagecheckerboard="0"
     inkscape:deskcolor="#d1d1d1"
     inkscape:document-units="mm"
     inkscape:zoom="0.97890839"
     inkscape:cx="409.12919"
     inkscape:cy="-30.135609"
     inkscape:window-width="1920"
     inkscape:window-height="991"
     inkscape:window-x="1647"
     inkscape:window-y="-9"
     inkscape:window-maximized="1"
     inkscape:current-layer="layer1" /><defs
     id="defs1"><marker
       id="DistanceX"
       orient="auto"
       refX="0"
       refY="0"
       style="overflow:visible"><path
         d="M 3,-3 -3,3 M 0,-5 V 5"
         style="stroke:#000000;stroke-width:0.5"
         id="path1" /></marker><pattern
       id="Hatch"
       patternUnits="userSpaceOnUse"
       width="8"
       height="8"
       x="0"
       y="0"><path
         d="M8 4 l-4,4"
         stroke="#000000"
         stroke-width="0.25"
         linecap="square"
         id="path2" /><path
         d="M6 2 l-4,4"
         stroke="#000000"
         stroke-width="0.25"
         linecap="square"
         id="path3" /><path
         d="M4 0 l-4,4"
         stroke="#000000"
         stroke-width="0.25"
         linecap="square"
         id="path4" /></pattern><symbol
       id="*MODEL_SPACE" /><symbol
       id="*PAPER_SPACE" /></defs><g
     inkscape:label="Layer 1"
     inkscape:groupmode="layer"
     id="layer1"
     transform="translate(33.279622,-108.79594)"><path
       id="path13"
       style="fill:none;stroke:#000000;stroke-width:0.264583"
       d="m -7.7995239,143.82946 -3.4039271,5.2e-4 c -0.524879,0.002 -1.049803,0.004 -1.574064,0.0248 -0.287183,0.0112 -0.573928,0.0277 -0.860929,0.0444 -0.252624,0.0385 -0.505331,0.0769 -0.74104,0.16278 -0.213617,0.0778 -0.413676,0.19438 -0.613399,0.31109 -0.174283,0.14112 -0.348361,0.28217 -0.490926,0.4501 -0.147775,0.17407 -0.261471,0.37693 -0.375171,0.57981 -0.0925,0.21487 -0.184842,0.42993 -0.237712,0.65422 -0.05147,0.2183 -0.06566,0.4456 -0.07958,0.67283 0.01886,0.27728 0.03794,0.55429 0.12299,0.80977 0.08188,0.24596 0.225221,0.47186 0.368453,0.69763 0.187561,0.19984 0.375126,0.39954 0.596863,0.54726 0.242249,0.16139 0.525182,0.26046 0.808219,0.35966 -0.204464,0.10951 -0.40911,0.21928 -0.580843,0.36691 -0.170039,0.14619 -0.308014,0.32957 -0.445967,0.51314 -0.11042,0.20056 -0.220604,0.401 -0.283704,0.61547 -0.0633,0.21521 -0.07891,0.44465 -0.09457,0.67386 0.01185,0.20913 0.02344,0.41827 0.07648,0.6165 0.05118,0.19124 0.140957,0.37238 0.230477,0.55346 0.106997,0.16409 0.213866,0.3281 0.345199,0.46973 0.125802,0.13565 0.274064,0.25081 0.422196,0.36587 0.160057,0.0959 0.319906,0.19164 0.490926,0.25994 0.176398,0.0705 0.364359,0.11134 0.552421,0.15244 0.244467,0.0288 0.48912,0.0575 0.734323,0.0744 0.344362,0.0246 0.690302,0.0248 1.036112,0.0248 h 3.9971721 z m -4.1113771,1.68414 c 0.0744,2.1e-4 0.148835,8e-4 0.223242,0.002 h 1.8691369 v 2.67477 h -1.6303919 c -0.38041,0.004 -0.761064,0.007 -1.136881,-0.0362 -0.219032,-0.0251 -0.436228,-0.0664 -0.653707,-0.10749 -0.128038,-0.0529 -0.256305,-0.10532 -0.364319,-0.18552 -0.100523,-0.0746 -0.18347,-0.173 -0.26665,-0.2713 -0.06363,-0.11332 -0.127366,-0.22649 -0.163814,-0.34778 -0.03978,-0.13237 -0.04738,-0.27464 -0.05478,-0.41651 0.0086,-0.16465 0.01723,-0.32894 0.0708,-0.47801 0.04735,-0.13176 0.12991,-0.25145 0.21239,-0.37104 0.102769,-0.0962 0.20572,-0.19238 0.325045,-0.25838 0.124187,-0.0687 0.266126,-0.10456 0.408244,-0.14056 0.164158,-0.0175 0.328467,-0.0352 0.492993,-0.046 0.222369,-0.0148 0.445506,-0.0182 0.668693,-0.0176 z m 0.290422,4.33927 c 0.159463,-0.001 0.319013,-4.7e-4 0.478523,0.001 l 1.3234339,5.2e-4 v 2.312 l -1.1596189,-5.1e-4 c -0.381577,0.002 -0.76345,0.004 -1.144633,-0.008 -0.1939,-0.006 -0.387553,-0.0158 -0.58136,-0.0258 -0.154035,-0.0259 -0.307894,-0.0515 -0.44235,-0.11834 -0.115673,-0.0574 -0.217142,-0.14536 -0.318327,-0.23306 -0.07456,-0.10743 -0.14899,-0.21479 -0.19172,-0.33332 -0.04723,-0.13105 -0.05568,-0.27548 -0.06408,-0.42013 0.01025,-0.15145 0.02074,-0.30318 0.07442,-0.4377 0.04953,-0.12414 0.135698,-0.23392 0.222208,-0.34364 0.112741,-0.0896 0.225771,-0.17902 0.352433,-0.23772 0.142573,-0.0661 0.30281,-0.0931 0.463021,-0.1204 0.169926,-0.01 0.34001,-0.0198 0.510047,-0.0258 0.15932,-0.005 0.318544,-0.008 0.478007,-0.009 z" /><path
       d="m 188.36767,159.79108 c -0.29796,0.16433 -0.57275,0.36994 -0.84754,0.57555 -0.26807,0.23204 -0.53614,0.46405 -0.74181,0.74266 -0.19109,0.25884 -0.32832,0.5579 -0.46554,0.85723 l -1.5552,3.1e-4 v -10.04094 h 1.91664 l 3e-5,7.22314 c 0.36842,-0.30696 0.7368,-0.6139 1.14431,-0.85435 0.41668,-0.24588 0.87427,-0.42223 1.33188,-0.5984 v 1.73887 c -0.26638,0.10921 -0.53273,0.21803 -0.78277,0.35593 z"
       style="fill:none;stroke:#000000;stroke-width:0.264583"
       id="path22"
       sodipodi:nodetypes="scscccccsccs" /><path
       id="path28"
       style="fill:none;stroke:#000000;stroke-width:0.264583"
       d="m 170.88311,151.75456 c -0.45308,0.0371 -0.90647,0.0742 -1.29294,0.2558 -0.36323,0.17068 -0.66763,0.46905 -0.97204,0.76739 -0.28481,0.53633 -0.56934,1.07291 -0.73639,1.64073 -0.22767,0.77388 -0.23646,1.60623 -0.24546,2.43861 0.008,0.83293 0.0163,1.66576 0.24391,2.44016 0.16602,0.56476 0.44844,1.09831 0.73122,1.63195 0.30568,0.30233 0.61141,0.6048 0.9772,0.77773 0.38667,0.18281 0.84066,0.22121 1.2945,0.25941 0.45308,-0.0371 0.90596,-0.0742 1.29243,-0.2558 0.36323,-0.17068 0.66763,-0.46904 0.97203,-0.76739 0.28485,-0.53517 0.5699,-1.07034 0.73691,-1.63711 0.22706,-0.77054 0.23646,-1.59936 0.24546,-2.42828 -0.001,-0.83169 -0.003,-1.66356 -0.22324,-2.43964 -0.15306,-0.53824 -0.41168,-1.04966 -0.67025,-1.56115 -0.32268,-0.32727 -0.64531,-0.65481 -1.03507,-0.84181 -0.39375,-0.18894 -0.85604,-0.2348 -1.31827,-0.2806 z m 0,1.58957 c 0.11266,0.009 0.22518,0.0184 0.32814,0.0548 0.10279,0.0364 0.19629,0.0996 0.28939,0.16329 0.0894,0.10549 0.17838,0.21135 0.24598,0.32867 0.0962,0.16678 0.14841,0.35757 0.20051,0.54828 0.0511,0.31065 0.10252,0.62092 0.13332,0.93328 0.0483,0.49194 0.0459,0.98838 0.0439,1.48466 7e-4,0.50348 0.002,1.00703 -0.0491,1.50585 -0.034,0.33393 -0.0916,0.66552 -0.14882,0.99736 -0.0472,0.16904 -0.0939,0.33819 -0.18035,0.48524 -0.0656,0.11161 -0.15407,0.21054 -0.24237,0.30954 -0.0939,0.0647 -0.18766,0.1295 -0.29145,0.1664 -0.1032,0.0366 -0.21621,0.0463 -0.32918,0.0553 -0.11273,-0.009 -0.22533,-0.0184 -0.32815,-0.0553 -0.10298,-0.0369 -0.19638,-0.1017 -0.28938,-0.1664 -0.0894,-0.10636 -0.1789,-0.21265 -0.2465,-0.33073 -0.0959,-0.16735 -0.14779,-0.35842 -0.19999,-0.54932 -0.0511,-0.31064 -0.10252,-0.62088 -0.13332,-0.93327 -0.0483,-0.49194 -0.0464,-0.98842 -0.0444,-1.48467 -8e-4,-0.50295 -0.001,-1.00609 0.0496,-1.5043 0.0341,-0.33224 0.0911,-0.66204 0.14832,-0.99219 0.0472,-0.16904 0.0944,-0.33819 0.18086,-0.48524 0.0656,-0.11161 0.15407,-0.21054 0.24237,-0.30954 0.0939,-0.0647 0.18765,-0.1294 0.29145,-0.1664 0.10319,-0.0366 0.21622,-0.0463 0.32918,-0.0553 z" /><path
       d="m 194.98943,144.62651 v -2.21691 h -5.02046 v -1.68484 h 5.02046 v -2.72169 h -5.58663 v -1.68487 h 7.60573 v 10.00001 h -7.41473 v -1.6917 z"
       style="fill:none;stroke:#000000;stroke-width:0.264583"
       id="path36"
       sodipodi:nodetypes="ccccccccccccc" /><path
       id="path37"
       style="fill:none;stroke:#000000;stroke-width:0.264583"
       d="m 174.78468,136.14776 c -0.45308,0.0371 -0.90595,0.0742 -1.29243,0.2558 -0.36323,0.17068 -0.66763,0.46903 -0.97203,0.7674 -0.28482,0.53633 -0.56985,1.07239 -0.73691,1.64021 -0.22767,0.7739 -0.23646,1.60626 -0.24546,2.43861 0.008,0.83296 0.0163,1.66624 0.24391,2.44067 0.16602,0.56473 0.44896,1.09834 0.73174,1.63195 0.30568,0.30234 0.6114,0.60479 0.9772,0.77773 0.38666,0.18281 0.84014,0.2207 1.29398,0.2589 0.45307,-0.0371 0.90646,-0.0742 1.29294,-0.2558 0.36323,-0.17071 0.66764,-0.46905 0.97204,-0.7674 0.28485,-0.53517 0.56938,-1.07037 0.73639,-1.63711 0.22707,-0.77054 0.23646,-1.59936 0.24546,-2.42827 -0.001,-0.83172 -0.003,-1.6636 -0.22324,-2.43965 -0.15306,-0.53827 -0.41169,-1.04964 -0.67025,-1.56114 -0.32267,-0.32729 -0.64531,-0.65427 -1.03507,-0.84129 -0.39376,-0.18891 -0.85605,-0.23481 -1.31827,-0.28061 z m 0,1.58905 c 0.11265,0.009 0.22569,0.0184 0.32866,0.0548 0.10279,0.0364 0.19577,0.10011 0.28887,0.16381 0.0894,0.10549 0.1789,0.21086 0.2465,0.32815 0.0962,0.16682 0.1484,0.35755 0.2005,0.54829 0.0511,0.31062 0.10201,0.6214 0.13281,0.93379 0.0483,0.49194 0.0464,0.98787 0.0444,1.48415 7e-4,0.5035 0.001,1.00703 -0.0496,1.50585 -0.034,0.33393 -0.0911,0.66603 -0.14832,0.99787 -0.0472,0.16907 -0.0945,0.33818 -0.18086,0.48524 -0.0656,0.11162 -0.15407,0.21064 -0.24237,0.30954 -0.0939,0.0647 -0.18766,0.12888 -0.29145,0.16588 -0.10319,0.0366 -0.21622,0.0468 -0.32918,0.0558 -0.11273,-0.009 -0.22533,-0.0189 -0.32815,-0.0558 -0.10298,-0.037 -0.19587,-0.10118 -0.28887,-0.16588 -0.0894,-0.10636 -0.17879,-0.21316 -0.24649,-0.33124 -0.0959,-0.16735 -0.14821,-0.35794 -0.20051,-0.54881 -0.0511,-0.31065 -0.10201,-0.62142 -0.13281,-0.93379 -0.0483,-0.49194 -0.0464,-0.98838 -0.0444,-1.48466 -8e-4,-0.50292 -0.001,-1.00558 0.0496,-1.50379 0.0341,-0.33223 0.0911,-0.66258 0.14831,-0.9927 0.0471,-0.16904 0.0945,-0.33818 0.18087,-0.48524 0.0656,-0.11163 0.15355,-0.21055 0.24185,-0.30955 0.0939,-0.0647 0.18766,-0.12898 0.29145,-0.16588 0.1032,-0.0366 0.21621,-0.0468 0.32918,-0.0558 z" /><path
       id="path53"
       style="fill:none;stroke:#000000;stroke-width:0.264583"
       d="m 112.93678,117.47448 -3.40341,5.2e-4 c -0.52492,0.002 -1.04981,0.004 -1.57407,0.0243 -0.28719,0.0111 -0.57444,0.0277 -0.86144,0.0444 -0.25263,0.0385 -0.50533,0.0769 -0.74104,0.16278 -0.21362,0.0778 -0.41317,0.19438 -0.61289,0.31109 -0.17429,0.14113 -0.34887,0.28217 -0.49144,0.4501 -0.14777,0.17407 -0.26147,0.37695 -0.37517,0.57981 -0.0925,0.21486 -0.18481,0.42997 -0.23771,0.65423 -0.0515,0.21831 -0.0652,0.44559 -0.0791,0.67282 0.0189,0.27726 0.0374,0.55429 0.12248,0.80977 0.0819,0.24596 0.22522,0.4719 0.36845,0.69764 0.18757,0.19984 0.37512,0.39951 0.59686,0.54725 0.24224,0.1614 0.52518,0.26047 0.80822,0.35967 -0.20446,0.10951 -0.4086,0.21926 -0.58033,0.3669 -0.17004,0.14618 -0.30803,0.32958 -0.44596,0.51315 -0.11039,0.20058 -0.22112,0.40096 -0.28422,0.61546 -0.0634,0.21519 -0.0789,0.44466 -0.0946,0.67386 0.0118,0.20913 0.0235,0.4183 0.0765,0.6165 0.0512,0.19124 0.14098,0.37241 0.23048,0.55346 0.107,0.1641 0.21387,0.32811 0.3452,0.46974 0.1258,0.13568 0.27405,0.25083 0.42219,0.36587 0.16005,0.0959 0.31991,0.19163 0.49093,0.25993 0.1764,0.0705 0.36488,0.11134 0.55294,0.15244 0.24447,0.0288 0.4886,0.0575 0.7338,0.0744 0.34437,0.0246 0.69027,0.0246 1.03611,0.0248 l 3.99718,5.2e-4 z m -4.11138,1.68414 c 0.0744,2.1e-4 0.14882,8e-4 0.22324,0.002 l 1.86914,-5.2e-4 v 2.67529 l -1.63039,-5.2e-4 c -0.38044,0.003 -0.76056,0.007 -1.13637,-0.0362 -0.21904,-0.0252 -0.43674,-0.0664 -0.65422,-0.10749 -0.12803,-0.0529 -0.25579,-0.10532 -0.3638,-0.18552 -0.10053,-0.0746 -0.18397,-0.173 -0.26717,-0.2713 -0.0636,-0.11329 -0.12742,-0.22652 -0.16382,-0.34778 -0.0398,-0.13237 -0.0473,-0.27412 -0.0543,-0.41599 0.009,-0.16463 0.0172,-0.32947 0.0708,-0.47853 0.0474,-0.13174 0.12989,-0.25146 0.21239,-0.37103 0.10277,-0.0962 0.20521,-0.19239 0.32453,-0.25839 0.12419,-0.0687 0.26664,-0.10456 0.40876,-0.14056 0.16415,-0.0176 0.32795,-0.0352 0.49248,-0.046 0.22236,-0.0146 0.44549,-0.0177 0.66869,-0.017 z m 0.29042,4.33875 c 0.15947,-0.001 0.319,5e-5 0.47852,0.002 h 1.32344 v 2.31252 l -1.15962,-5.1e-4 c -0.38161,0.002 -0.76293,0.004 -1.14412,-0.008 -0.1939,-0.006 -0.38807,-0.0153 -0.58187,-0.0253 -0.15404,-0.0259 -0.30789,-0.0522 -0.44235,-0.11886 -0.11567,-0.0574 -0.21664,-0.14484 -0.31781,-0.23254 -0.0745,-0.10742 -0.14954,-0.21476 -0.19224,-0.33332 -0.0473,-0.13105 -0.0556,-0.27599 -0.0636,-0.42064 0.0103,-0.15144 0.0202,-0.30265 0.0739,-0.43719 0.0495,-0.12414 0.13623,-0.23389 0.22273,-0.34364 0.11274,-0.0896 0.22525,-0.17953 0.35192,-0.23823 0.14257,-0.0661 0.30281,-0.0932 0.46302,-0.12041 0.16993,-0.01 0.34001,-0.0198 0.51004,-0.0258 0.15933,-0.005 0.31854,-0.008 0.47801,-0.009 z" /><path
       id="path61"
       style="fill:none;stroke:#000000;stroke-width:0.264583"
       d="m 95.473759,167.16654 c -0.453078,0.0371 -0.905951,0.0742 -1.292428,0.2558 -0.363229,0.17068 -0.667634,0.46905 -0.972033,0.76739 -0.284821,0.53636 -0.569845,1.07239 -0.736906,1.64021 -0.227675,0.77391 -0.236563,1.60627 -0.245463,2.43861 0.0081,0.83297 0.01625,1.66624 0.243912,2.44068 0.16602,0.56472 0.448441,1.09833 0.731222,1.63194 0.305676,0.30234 0.611405,0.6048 0.977201,0.77773 0.386662,0.18281 0.840657,0.2207 1.294495,0.2589 0.453076,-0.0371 0.905951,-0.0742 1.292428,-0.25579 0.36323,-0.17071 0.667633,-0.46905 0.972033,-0.7674 0.284845,-0.53517 0.569899,-1.07038 0.736906,-1.63711 0.227078,-0.77055 0.236163,-1.59936 0.245463,-2.42827 -0.0014,-0.83171 -0.0026,-1.6636 -0.223242,-2.43965 -0.153059,-0.53826 -0.41168,-1.04965 -0.670243,-1.56114 -0.32268,-0.32729 -0.645312,-0.65426 -1.035079,-0.8413 -0.393758,-0.18891 -0.85604,-0.2348 -1.318266,-0.2806 z m 0,1.58905 c 0.112654,0.009 0.225178,0.0184 0.328145,0.0548 0.102786,0.0364 0.196258,0.10011 0.289388,0.16381 0.0894,0.10549 0.17836,0.21086 0.24598,0.32815 0.09616,0.16682 0.148395,0.35754 0.200505,0.54828 0.05112,0.31062 0.102565,0.62141 0.133325,0.9338 0.04844,0.49194 0.04603,0.98788 0.04393,1.48414 7.1e-4,0.50351 0.0018,1.00704 -0.04909,1.50586 -0.03405,0.33393 -0.09115,0.66603 -0.148311,0.99787 -0.04715,0.16907 -0.09441,0.33818 -0.180868,0.48524 -0.06562,0.11163 -0.154092,0.21064 -0.242362,0.30954 -0.09391,0.0647 -0.187667,0.12888 -0.291455,0.16588 -0.103198,0.0366 -0.216216,0.0468 -0.329179,0.0558 -0.112731,-0.009 -0.225331,-0.0189 -0.328145,-0.0558 -0.102984,-0.037 -0.196349,-0.10118 -0.289388,-0.16588 -0.08938,-0.10636 -0.17832,-0.21265 -0.24598,-0.33073 -0.09587,-0.16735 -0.148245,-0.35845 -0.200505,-0.54932 -0.05112,-0.31064 -0.102565,-0.62142 -0.133325,-0.93379 -0.04844,-0.49194 -0.04603,-0.98839 -0.04393,-1.48467 -8.1e-4,-0.50291 -0.002,-1.00557 0.04909,-1.50378 0.03407,-0.33224 0.09116,-0.66258 0.148311,-0.9927 0.04715,-0.16907 0.09441,-0.3382 0.180868,-0.48525 0.06562,-0.11163 0.154092,-0.21054 0.242362,-0.30954 0.09391,-0.0647 0.187667,-0.12898 0.291455,-0.16588 0.103198,-0.0366 0.216212,-0.0468 0.329179,-0.0558 z" /><path
       id="path76"
       style="fill:none;stroke:#000000;stroke-width:0.264583"
       d="m 233.31702,143.11788 -3.40289,5.2e-4 c -0.52548,0.002 -1.05031,0.004 -1.57458,0.0243 -0.28718,0.0111 -0.57446,0.0272 -0.86145,0.0439 -0.25263,0.0385 -0.50532,0.0774 -0.74104,0.1633 -0.2136,0.0778 -0.41315,0.19439 -0.61288,0.31109 -0.17428,0.14113 -0.34837,0.28217 -0.49092,0.4501 -0.14777,0.17407 -0.26146,0.37692 -0.37517,0.57981 -0.0925,0.21487 -0.18533,0.42994 -0.23823,0.65422 -0.0515,0.21831 -0.0651,0.44512 -0.0791,0.67231 0.0189,0.27729 0.0374,0.55481 0.12247,0.81029 0.0819,0.24596 0.22522,0.47186 0.36846,0.69763 0.18754,0.19984 0.37511,0.39954 0.59686,0.54726 0.24225,0.16142 0.52517,0.26046 0.80822,0.35966 -0.20447,0.10951 -0.40861,0.21928 -0.58033,0.36691 -0.17005,0.14619 -0.30799,0.32957 -0.44596,0.51314 -0.11043,0.20056 -0.22112,0.401 -0.28422,0.61547 -0.0633,0.21521 -0.079,0.44468 -0.0946,0.67386 0.0118,0.20913 0.024,0.4183 0.077,0.6165 0.0512,0.19124 0.14046,0.37236 0.22996,0.55345 0.107,0.16409 0.21385,0.3281 0.34519,0.46974 0.12581,0.13565 0.27406,0.25081 0.4222,0.36587 0.16005,0.0959 0.31993,0.19164 0.49093,0.25993 0.1764,0.0704 0.36487,0.11125 0.55293,0.15245 0.24448,0.0287 0.48862,0.0575 0.73381,0.0744 0.34438,0.0246 0.69013,0.0245 1.0356,0.0248 l 3.99768,5.2e-4 z m -4.11137,1.68413 c 0.0743,2.2e-4 0.14846,8e-4 0.22272,0.002 h 1.86966 v 2.67478 l -1.62988,-5.2e-4 c -0.38074,0.003 -0.76107,0.007 -1.13688,-0.0362 -0.21902,-0.0251 -0.43673,-0.0664 -0.65422,-0.10749 -0.12803,-0.0529 -0.25578,-0.10584 -0.36381,-0.18604 -0.10052,-0.0746 -0.18396,-0.173 -0.26716,-0.2713 -0.0636,-0.11332 -0.12732,-0.22649 -0.16382,-0.34778 -0.0398,-0.13237 -0.0473,-0.27412 -0.0543,-0.41599 0.009,-0.16465 0.0172,-0.32947 0.0708,-0.47853 0.0474,-0.13176 0.12989,-0.25093 0.21239,-0.37052 0.10276,-0.0962 0.20521,-0.19238 0.32453,-0.25838 0.1242,-0.0687 0.26663,-0.10508 0.40876,-0.14108 0.16415,-0.0175 0.32792,-0.0352 0.49247,-0.046 0.22237,-0.0145 0.44576,-0.0172 0.6687,-0.0165 z m 0.29042,4.33876 c 0.15951,-0.001 0.31936,5e-5 0.47904,0.002 h 1.32343 v 2.31252 l -1.15962,5.1e-4 c -0.38205,10e-4 -0.76344,0.003 -1.14463,-0.009 -0.19391,-0.006 -0.38808,-0.0158 -0.58188,-0.0258 -0.15402,-0.0259 -0.30789,-0.0515 -0.44235,-0.11833 -0.11568,-0.0574 -0.21663,-0.14485 -0.31781,-0.23255 -0.0745,-0.10742 -0.14943,-0.21527 -0.19223,-0.33383 -0.0473,-0.13105 -0.0556,-0.27548 -0.0636,-0.42013 0.0103,-0.15145 0.0202,-0.30316 0.0739,-0.4377 0.0495,-0.12414 0.13623,-0.23341 0.22273,-0.34313 0.11274,-0.0896 0.22526,-0.17943 0.35192,-0.23823 0.14253,-0.0661 0.30282,-0.0931 0.46302,-0.1204 0.16992,-0.01 0.34002,-0.0198 0.51004,-0.0258 0.15932,-0.006 0.3185,-0.008 0.47801,-0.009 z" /><path
       id="path94"
       style="fill:none;stroke:#000000;stroke-width:0.264583"
       d="m 220.19276,142.94786 c -0.4454,0.0347 -0.89036,0.0694 -1.28364,0.23203 -0.37423,0.15471 -0.70131,0.42506 -1.02836,0.69557 -0.26244,0.34576 -0.52502,0.69156 -0.67541,1.07952 -0.1655,0.42693 -0.19551,0.90532 -0.22531,1.38337 0.0296,0.4532 0.0592,0.90644 0.21394,1.3131 0.1429,0.37547 0.39276,0.71116 0.64234,1.04697 0.29726,0.26657 0.5944,0.53286 0.94206,0.68523 0.33944,0.1488 0.72718,0.18902 1.11466,0.22892 0.34158,-0.0369 0.68319,-0.0741 0.9772,-0.21187 0.30096,-0.14099 0.55194,-0.38737 0.80305,-0.63407 -0.0257,0.48654 -0.0518,0.97275 -0.18707,1.4304 -0.0851,0.28787 -0.21318,0.56437 -0.34158,0.84078 -0.1437,0.1591 -0.2876,0.31818 -0.46664,0.40928 -0.16637,0.0846 -0.36327,0.11052 -0.56017,0.13642 -0.14314,-0.009 -0.28633,-0.0189 -0.41444,-0.0682 -0.11825,-0.0455 -0.22371,-0.12514 -0.32918,-0.20464 -0.0872,-0.11163 -0.17391,-0.22311 -0.23151,-0.34778 -0.0706,-0.15291 -0.0969,-0.32529 -0.12351,-0.49765 l -1.85467,0.20413 c 0.0823,0.37339 0.16446,0.74634 0.34003,1.07022 0.15521,0.28627 0.38327,0.53405 0.61134,0.78186 0.27246,0.18595 0.5449,0.37208 0.84491,0.47852 0.32543,0.11546 0.68346,0.13768 1.04128,0.15968 0.5146,-0.0491 1.02928,-0.0985 1.47174,-0.30385 0.43611,-0.20238 0.80189,-0.55639 1.16789,-0.91054 0.29485,-0.52107 0.58963,-1.04213 0.76222,-1.59784 0.23188,-0.74673 0.24315,-1.55595 0.25425,-2.36523 -0.01,-0.78817 -0.0202,-1.5764 -0.24391,-2.30477 -0.16574,-0.53943 -0.4488,-1.04624 -0.73174,-1.55287 -0.34692,-0.34322 -0.69369,-0.68653 -1.11001,-0.88264 -0.4141,-0.19506 -0.897,-0.24444 -1.37976,-0.29404 z m -0.0951,1.58957 c 0.18248,0.0254 0.36452,0.0508 0.52141,0.12712 0.1746,0.085 0.31754,0.23277 0.46044,0.38086 0.12507,0.19936 0.25026,0.39889 0.32246,0.61495 0.0868,0.25987 0.0972,0.54383 0.10749,0.82786 -0.008,0.25514 -0.0164,0.51015 -0.0956,0.74259 -0.0643,0.18875 -0.17519,0.36262 -0.28629,0.5364 -0.13324,0.12634 -0.26664,0.25284 -0.42478,0.32504 -0.15417,0.0704 -0.3322,0.089 -0.51005,0.10801 -0.18367,-0.0196 -0.3671,-0.0391 -0.52503,-0.11318 -0.16108,-0.0756 -0.29563,-0.20824 -0.42995,-0.34054 -0.1109,-0.19018 -0.22159,-0.38025 -0.28629,-0.58395 -0.0847,-0.26628 -0.0896,-0.55554 -0.0956,-0.84491 0.004,-0.27909 0.008,-0.55799 0.0889,-0.81493 0.0602,-0.19122 0.16323,-0.37038 0.26613,-0.54932 0.12491,-0.12136 0.24972,-0.24283 0.39894,-0.31213 0.14687,-0.0682 0.31741,-0.0859 0.48783,-0.10387 z" /><path
       style="fill:none;stroke:#000000;stroke-width:0.264583"
       d="m 101.57893,177.37881 v -10.04094 h 1.91664 l 1e-5,7.22301 c 0.36839,-0.30707 0.73676,-0.61404 1.14427,-0.85449 0.41669,-0.24588 0.87427,-0.42222 1.33191,-0.59827 v 1.73888 c -0.2664,0.1091 -0.53276,0.21792 -0.78279,0.35582 -0.29796,0.16433 -0.57276,0.36994 -0.84755,0.57555 -0.26807,0.23201 -0.53614,0.46405 -0.74181,0.74266 -0.19109,0.25884 -0.32832,0.55787 -0.4655,0.85735 z"
       id="path103"
       sodipodi:nodetypes="ccccsccscscc" /><path
       id="path115"
       style="fill:none;stroke:#000000;stroke-width:0.264583"
       d="m 112.73834,167.33759 c -0.52492,0.001 -1.04981,0.003 -1.57407,0.0232 -0.28718,0.0111 -0.57393,0.0277 -0.86093,0.0445 -0.25262,0.0385 -0.50533,0.0769 -0.74104,0.16278 -0.21361,0.0778 -0.41316,0.19439 -0.61288,0.31109 -0.17428,0.14113 -0.34888,0.28266 -0.49144,0.45062 -0.14778,0.17407 -0.26147,0.37692 -0.37517,0.57981 -0.0925,0.21484 -0.18481,0.42944 -0.23771,0.6537 -0.0515,0.21831 -0.0657,0.44561 -0.0796,0.67283 0.0189,0.27729 0.0379,0.55431 0.12299,0.80977 0.0819,0.24598 0.22522,0.47186 0.36845,0.69763 0.18756,0.19984 0.37512,0.39951 0.59686,0.54726 0.24225,0.16139 0.52519,0.26098 0.80822,0.36018 -0.20446,0.10948 -0.40911,0.21876 -0.58084,0.36639 -0.17004,0.14618 -0.308,0.3296 -0.44597,0.51314 -0.11044,0.20058 -0.2206,0.40152 -0.2837,0.61599 -0.0633,0.21521 -0.0789,0.44413 -0.0946,0.67334 0.0118,0.20913 0.0235,0.41827 0.0765,0.6165 0.0512,0.19121 0.14098,0.37237 0.23048,0.55345 0.10699,0.1641 0.21386,0.3281 0.34519,0.46974 0.12581,0.13565 0.27407,0.2508 0.4222,0.36587 0.16006,0.0959 0.31991,0.19164 0.49093,0.25993 0.1764,0.0704 0.36435,0.11177 0.55242,0.15297 0.24447,0.0288 0.48911,0.0575 0.73432,0.0744 0.34436,0.0246 0.69025,0.0246 1.03611,0.0243 l 3.99717,-5.2e-4 v -9.99835 z m -0.70745,1.68258 c 0.0744,8e-5 0.14882,5.4e-4 0.22324,0.001 l 1.86914,-5.2e-4 v 2.67477 h -1.63039 c -0.38033,0.004 -0.76107,0.008 -1.13689,-0.0357 -0.21903,-0.0251 -0.43622,-0.0664 -0.6537,-0.10749 -0.12804,-0.0529 -0.25631,-0.10542 -0.36432,-0.18552 -0.10052,-0.0746 -0.18345,-0.173 -0.26665,-0.2713 -0.0636,-0.11332 -0.12742,-0.22649 -0.16382,-0.34778 -0.0398,-0.13237 -0.0473,-0.27416 -0.0543,-0.416 0.009,-0.16465 0.0172,-0.32945 0.0708,-0.47852 0.0473,-0.13173 0.12937,-0.25148 0.21187,-0.37104 0.10277,-0.0962 0.20573,-0.19238 0.32505,-0.25838 0.12419,-0.0687 0.26612,-0.10456 0.40824,-0.14056 0.16415,-0.0176 0.32846,-0.0352 0.49299,-0.046 0.22237,-0.0142 0.44549,-0.0173 0.6687,-0.0171 z m 0.29042,4.33876 c 0.15947,-10e-4 0.31899,-4.7e-4 0.47852,0.001 h 1.32344 v 2.31252 l -1.15962,-5.2e-4 c -0.38149,0.002 -0.76345,0.004 -1.14464,-0.008 -0.1939,-0.006 -0.38755,-0.0158 -0.58136,-0.0258 -0.15404,-0.0259 -0.30789,-0.0515 -0.44235,-0.11833 -0.11568,-0.0574 -0.21715,-0.14536 -0.31832,-0.23306 -0.0745,-0.10742 -0.14902,-0.21479 -0.19172,-0.33332 -0.0473,-0.13108 -0.0561,-0.27548 -0.0641,-0.42013 0.0103,-0.15145 0.0207,-0.30319 0.0744,-0.4377 0.0495,-0.12414 0.13623,-0.23391 0.22273,-0.34364 0.11274,-0.0896 0.22526,-0.17902 0.35192,-0.23772 0.14257,-0.0661 0.30281,-0.0931 0.46302,-0.1204 0.16993,-0.01 0.34,-0.0198 0.51004,-0.0258 0.15932,-0.006 0.31854,-0.008 0.47801,-0.009 z" /><path
       d="m 102.94537,125.915 c -0.17503,0.33599 -0.44648,0.62417 -0.71793,0.91233 -0.32866,0.20082 -0.65732,0.40164 -1.01296,0.51671 -0.39095,0.12649 -0.81451,0.14938 -1.238066,0.17224 -0.455962,-0.0236 -0.911921,-0.0468 -1.321626,-0.19952 -0.35841,-0.13356 -0.681421,-0.36605 -1.004432,-0.59857 -0.246703,-0.28337 -0.493403,-0.56671 -0.634381,-0.8953 -0.142619,-0.33237 -0.177038,-0.71104 -0.211461,-1.08968 0.0098,-0.22167 0.01961,-0.44334 0.06054,-0.65911 0.04036,-0.21272 0.11099,-0.4197 0.181618,-0.62671 0.09761,-0.21231 0.195228,-0.42461 0.312925,-0.625 0.134107,-0.22831 0.294288,-0.44114 0.45447,-0.654 0.15999,-0.1827 0.319984,-0.36539 0.487722,-0.54057 0.2448,-0.25567 0.506098,-0.49533 0.767392,-0.73499 0.249915,-0.22778 0.49983,-0.45556 0.740963,-0.69236 0.13806,-0.1356 0.273246,-0.27416 0.408426,-0.4127 0.0755,-0.088 0.15099,-0.17602 0.21913,-0.26945 0.0617,-0.0846 0.1174,-0.17359 0.17311,-0.26289 l -3.806288,-2.9e-4 v -1.78064 l 6.718898,4.4e-4 c -0.0554,0.33402 -0.11089,0.66763 -0.21822,0.98354 -0.10952,0.32234 -0.27304,0.6263 -0.43656,0.93025 -0.26191,0.35806 -0.52381,0.71612 -0.81174,1.05132 -0.41235,0.48006 -0.87807,0.91321 -1.34379,1.34636 -0.3579,0.32869 -0.715808,0.65738 -1.045362,1.01296 -0.187447,0.20225 -0.36572,0.4132 -0.543997,0.62415 -0.115286,0.19129 -0.230576,0.38261 -0.296727,0.59005 -0.05925,0.18576 -0.07908,0.38449 -0.09891,0.58322 0.0094,0.19608 0.01881,0.39216 0.08612,0.567 0.05772,0.14999 0.15804,0.28432 0.258355,0.41865 0.131347,0.10038 0.262694,0.20074 0.41013,0.25837 0.166759,0.0652 0.3541,0.0756 0.541441,0.0861 0.18671,-0.0119 0.37341,-0.0241 0.53888,-0.0904 0.1504,-0.0604 0.28325,-0.16577 0.4161,-0.27114 0.10626,-0.15548 0.21253,-0.31101 0.27967,-0.4809 0.0883,-0.2233 0.10893,-0.47146 0.12962,-0.71994 l 1.90999,0.19075 c -0.0707,0.47691 -0.14133,0.9533 -0.35305,1.3597 z"
       style="fill:none;stroke:#000000;stroke-width:0.264583"
       id="path125"
       sodipodi:nodetypes="scscccscscscscscsccccscscscscscsccccccs" /><path
       id="path154"
       style="fill:none;stroke:#000000;stroke-width:0.264583"
       d="m 184.28022,136.31829 c -0.52485,0.002 -1.0498,0.004 -1.57406,0.0238 -0.28719,0.0111 -0.57445,0.0277 -0.86145,0.0444 -0.25262,0.0385 -0.50533,0.0769 -0.74104,0.16278 -0.21361,0.0778 -0.41316,0.19438 -0.61288,0.31109 -0.17428,0.14113 -0.34836,0.28214 -0.49092,0.4501 -0.14778,0.17406 -0.26149,0.37693 -0.37518,0.57981 -0.0925,0.21484 -0.18532,0.42997 -0.23822,0.65422 -0.0515,0.21831 -0.0652,0.44561 -0.0791,0.67283 0.0189,0.27728 0.0375,0.55432 0.12247,0.80977 0.0819,0.24598 0.22523,0.47186 0.36846,0.69763 0.18756,0.19984 0.37513,0.39952 0.59686,0.54726 0.24225,0.1614 0.52519,0.26098 0.80822,0.36018 -0.20446,0.10948 -0.40859,0.21875 -0.58033,0.36639 -0.17004,0.14618 -0.30799,0.3296 -0.44596,0.51314 -0.11044,0.20058 -0.22112,0.40152 -0.28422,0.61599 -0.0633,0.21522 -0.0789,0.44413 -0.0946,0.67334 0.0118,0.20912 0.0239,0.41827 0.077,0.6165 0.0512,0.19124 0.14046,0.37238 0.22996,0.55346 0.10699,0.1641 0.21386,0.32811 0.34519,0.46973 0.12581,0.13565 0.27407,0.2508 0.4222,0.36587 0.16006,0.0959 0.32042,0.19164 0.49144,0.25994 0.1764,0.0704 0.36435,0.11176 0.55242,0.15296 0.24447,0.0288 0.4886,0.057 0.73381,0.0739 h 5.2e-4 c 0.34436,0.0246 0.6898,0.0247 1.03559,0.0253 l 3.99769,5.1e-4 v -10.00094 z m -0.70796,1.68362 c 0.0744,2.2e-4 0.14932,8e-4 0.22376,0.002 h 1.86862 v 2.67219 l -1.6304,5.2e-4 c -0.38037,0.004 -0.76054,0.008 -1.13636,-0.0351 -0.21903,-0.0251 -0.43674,-0.0664 -0.65422,-0.10749 -0.12804,-0.0529 -0.2558,-0.10532 -0.36381,-0.18552 -0.10052,-0.0746 -0.18396,-0.173 -0.26716,-0.2713 -0.0636,-0.11329 -0.1268,-0.2265 -0.1633,-0.34778 -0.0398,-0.13237 -0.0478,-0.27415 -0.0548,-0.416 0.009,-0.16465 0.0172,-0.32946 0.0708,-0.47852 0.0473,-0.13174 0.12989,-0.25147 0.21239,-0.37104 0.10277,-0.0962 0.20521,-0.19238 0.32453,-0.25838 0.12419,-0.0687 0.26664,-0.10456 0.40876,-0.14056 0.16416,-0.0175 0.32846,-0.0351 0.49299,-0.046 0.22237,-0.0143 0.44494,-0.0172 0.66818,-0.0165 z m 0.29042,4.33824 c 0.15946,-8.8e-4 0.31902,5.8e-4 0.47852,0.003 l 1.32344,5.2e-4 v 2.30994 h -1.15962 c -0.38157,0.002 -0.76293,0.004 -1.14412,-0.008 -0.1939,-0.006 -0.38755,-0.0158 -0.58136,-0.0258 -0.15404,-0.0259 -0.30841,-0.0516 -0.44287,-0.11834 -0.11568,-0.0574 -0.21665,-0.14536 -0.31781,-0.23306 -0.0745,-0.10742 -0.14902,-0.21479 -0.19172,-0.33332 -0.0473,-0.13105 -0.0561,-0.27549 -0.0641,-0.42013 0.0103,-0.15145 0.0202,-0.30319 0.0739,-0.4377 0.0495,-0.12415 0.13623,-0.2339 0.22273,-0.34364 0.11275,-0.0896 0.22525,-0.17902 0.35191,-0.23772 0.14258,-0.0661 0.30282,-0.0931 0.46303,-0.1204 0.16993,-0.01 0.34,-0.0198 0.51004,-0.0258 0.15932,-0.005 0.31855,-0.008 0.47801,-0.009 z" /><path
       style="fill:none;stroke:#000000;stroke-width:0.264583"
       d="m 170.2555,144.40114 v 1.78065 h -6.55532 l 1e-5,-1.39163 c 0.28341,-0.31623 0.56679,-0.63254 0.81858,-0.97195 0.30916,-0.41677 0.57067,-0.86833 0.83219,-1.31993 0.26331,-0.50678 0.52662,-1.01356 0.73926,-1.54074 0.21418,-0.53105 0.37696,-1.08281 0.53973,-1.63457 0.12794,-0.52806 0.25589,-1.05611 0.32828,-1.59192 0.0631,-0.46702 0.084,-0.93993 0.10484,-1.41289 h 1.8486 c -0.051,0.70373 -0.1021,1.40744 -0.23789,2.09416 -0.14322,0.72427 -0.3807,1.42968 -0.61818,2.13509 -0.28856,0.69506 -0.57712,1.39012 -0.94389,2.04126 -0.35592,0.63182 -0.78548,1.22229 -1.21501,1.8126 z"
       id="path164"
       sodipodi:nodetypes="ccccscscsccscscc" /><path
       id="path168"
       style="fill:none;stroke:#000000;stroke-width:0.264583"
       d="m 178.65266,151.75456 c -0.45308,0.0371 -0.90646,0.0742 -1.29294,0.2558 -0.36323,0.17068 -0.66764,0.46905 -0.97204,0.76739 -0.28482,0.53633 -0.56933,1.07291 -0.73639,1.64073 -0.22767,0.77388 -0.23698,1.60623 -0.24598,2.43861 0.008,0.83293 0.0163,1.66576 0.24392,2.44016 0.16602,0.56476 0.44895,1.09831 0.73174,1.63195 0.30566,0.30233 0.61141,0.6048 0.9772,0.77773 0.38667,0.18281 0.84066,0.22121 1.29449,0.25941 0.45308,-0.0371 0.90595,-0.0742 1.29243,-0.2558 0.36323,-0.17068 0.66763,-0.46904 0.97203,-0.76739 0.28484,-0.53517 0.5699,-1.07034 0.73691,-1.63711 0.22706,-0.77054 0.23646,-1.59936 0.24546,-2.42828 -10e-4,-0.83169 -0.003,-1.66356 -0.22324,-2.43964 -0.15306,-0.53824 -0.41168,-1.04966 -0.67024,-1.56115 -0.32269,-0.32727 -0.64532,-0.65481 -1.03508,-0.84181 -0.39376,-0.18894 -0.85604,-0.2348 -1.31827,-0.2806 z m 0,1.58957 c 0.11266,0.009 0.22518,0.0184 0.32815,0.0548 0.10278,0.0364 0.19577,0.0996 0.28887,0.16329 0.0894,0.10549 0.17889,0.21135 0.24649,0.32867 0.0962,0.16678 0.14841,0.35757 0.20051,0.54828 0.0511,0.31065 0.10201,0.62089 0.13281,0.93328 0.0483,0.49194 0.0464,0.98838 0.0444,1.48466 7e-4,0.50348 0.001,1.00703 -0.0496,1.50585 -0.0341,0.33393 -0.0911,0.66552 -0.14831,0.99736 -0.0471,0.16904 -0.0944,0.33819 -0.18087,0.48524 -0.0656,0.11161 -0.15355,0.21054 -0.24184,0.30954 -0.0939,0.0647 -0.18767,0.1295 -0.29146,0.1664 -0.1032,0.0366 -0.21621,0.0463 -0.32918,0.0553 -0.11273,-0.009 -0.22585,-0.0184 -0.32866,-0.0553 -0.10298,-0.0369 -0.19587,-0.1017 -0.28887,-0.1664 -0.0894,-0.10636 -0.1788,-0.21265 -0.2465,-0.33073 -0.0959,-0.16735 -0.1482,-0.35842 -0.2005,-0.54932 -0.0511,-0.31064 -0.10201,-0.62088 -0.13281,-0.93327 -0.0483,-0.49194 -0.0464,-0.98842 -0.0444,-1.48467 -8e-4,-0.50295 -0.001,-1.00609 0.0496,-1.5043 0.0341,-0.33224 0.0911,-0.66204 0.14831,-0.99219 0.0471,-0.16904 0.0945,-0.33819 0.18086,-0.48524 0.0656,-0.11161 0.15407,-0.21054 0.24237,-0.30954 0.0939,-0.0647 0.18766,-0.1294 0.29145,-0.1664 0.1032,-0.0366 0.21622,-0.0463 0.32918,-0.0553 z" /><path
       id="path181"
       style="fill:none;stroke:#000000;stroke-width:0.264583"
       d="m 194.19125,151.75456 c -0.45307,0.0371 -0.90595,0.0742 -1.29243,0.2558 -0.36323,0.17068 -0.66763,0.46905 -0.97203,0.76739 -0.28482,0.53633 -0.56985,1.07291 -0.73691,1.64073 -0.22767,0.77388 -0.23646,1.60623 -0.24546,2.43861 0.008,0.83293 0.0162,1.66576 0.24391,2.44016 0.16602,0.56476 0.44895,1.09831 0.73174,1.63195 0.30567,0.30233 0.61089,0.6048 0.97668,0.77773 0.38667,0.18281 0.84067,0.22121 1.2945,0.25941 0.45308,-0.0371 0.90646,-0.0742 1.29294,-0.2558 0.36323,-0.17068 0.66764,-0.46904 0.97204,-0.76739 0.28485,-0.53517 0.56937,-1.07034 0.73638,-1.63711 0.22706,-0.77054 0.23647,-1.59936 0.24547,-2.42828 -0.001,-0.83169 -0.003,-1.66356 -0.22324,-2.43964 -0.15306,-0.53824 -0.41169,-1.04966 -0.67025,-1.56115 -0.32269,-0.32727 -0.64532,-0.65481 -1.03508,-0.84181 -0.39376,-0.18894 -0.85603,-0.2348 -1.31826,-0.2806 z m 0,1.58957 c 0.11266,0.009 0.22569,0.0184 0.32866,0.0548 0.10278,0.0364 0.19577,0.0996 0.28887,0.16329 0.0894,0.10549 0.1789,0.21135 0.2465,0.32867 0.0962,0.16678 0.14789,0.35757 0.19999,0.54828 0.0511,0.31065 0.10252,0.62092 0.13332,0.93328 0.0483,0.49194 0.0464,0.98838 0.0444,1.48466 7e-4,0.50348 0.001,1.00703 -0.0496,1.50585 -0.0341,0.33393 -0.0911,0.66552 -0.14831,0.99736 -0.0471,0.16904 -0.0944,0.33819 -0.18087,0.48524 -0.0656,0.11161 -0.15406,0.21054 -0.24236,0.30954 -0.0939,0.0647 -0.18766,0.1295 -0.29145,0.1664 -0.1032,0.0366 -0.21621,0.0463 -0.32918,0.0553 -0.11272,-0.009 -0.22534,-0.0184 -0.32815,-0.0553 -0.10298,-0.0369 -0.19587,-0.1017 -0.28887,-0.1664 -0.0894,-0.10636 -0.1788,-0.21265 -0.2465,-0.33073 -0.0959,-0.16735 -0.1482,-0.35842 -0.2005,-0.54932 -0.0511,-0.31064 -0.10201,-0.62088 -0.13281,-0.93327 h -5.2e-4 c -0.0483,-0.49194 -0.0459,-0.98842 -0.0439,-1.48467 -8e-4,-0.50295 -0.001,-1.00609 0.0496,-1.5043 0.0341,-0.33224 0.0911,-0.66204 0.14831,-0.99219 0.0472,-0.16904 0.0939,-0.33819 0.18035,-0.48524 0.0656,-0.11161 0.15406,-0.21054 0.24236,-0.30954 0.0939,-0.0647 0.18767,-0.1294 0.29146,-0.1664 0.10319,-0.0366 0.21622,-0.0463 0.32918,-0.0553 z" /><path
       style="fill:none;stroke:#000000;stroke-width:0.264583"
       d="m -17.458434,151.91531 v 1.778 h -6.555317 l -2.4e-5,-1.39109 c 0.283364,-0.31569 0.566748,-0.632 0.818531,-0.9714 0.309163,-0.41677 0.57068,-0.86834 0.832197,-1.31993 0.263308,-0.50678 0.526616,-1.01357 0.739256,-1.54075 0.214183,-0.53104 0.37696,-1.08281 0.539734,-1.63457 0.127942,-0.52803 0.255887,-1.05608 0.328274,-1.59189 0.0631,-0.46704 0.08399,-0.93996 0.104882,-1.41345 h 1.848606 c -0.05109,0.70429 -0.102138,1.40797 -0.237935,2.0947 -0.143216,0.72427 -0.380698,1.42968 -0.618178,2.13508 -0.28856,0.69506 -0.577117,1.39012 -0.943896,2.04126 -0.355912,0.63183 -0.785476,1.2223 -1.21509,1.8134 z"
       id="path190"
       sodipodi:nodetypes="ccccscscsccscscc" /><path
       id="path199"
       style="fill:none;stroke:#000000;stroke-width:0.264583"
       d="m -28.575517,108.92823 v 25.70955 h -4.571814 v 27.7244 h 4.571814 v 25.71006 H 6.8905355 c 0.5522844,0 0.9999388,-0.44818 0.9999389,-1.00045 v -3.57188 H 35.614364 v 3.57188 c 0,0.55227 0.447654,1.00045 0.999939,1.00045 h 25.724011 c 0.552284,0 1.000456,-0.44818 1.000456,-1.00045 v -3.57188 h 27.723889 v 3.57188 c 0,0.55228 0.447654,1.00045 0.999939,1.00045 h 25.724012 c 0.55228,0 0.99994,-0.44818 0.99994,-1.00045 v -3.57188 h 27.7244 v 3.57188 c 0,0.55227 0.44766,1.00045 0.99994,1.00045 h 25.72401 c 0.55228,0 0.99994,-0.44818 0.99994,-1.00045 v -3.57188 h 27.72441 v 3.57188 c 0,0.55227 0.44766,1.00045 0.99994,1.00045 h 35.46553 v -25.71006 h 4.57182 v -27.7244 h -4.57182 v -25.70955 h -6.92257 c -0.35727,0 -0.68746,0.19032 -0.8661,0.49972 l -5.19606,8.99996 c -0.17864,0.30939 -0.50884,0.50024 -0.8661,0.50023 h -8.76381 c -0.35726,1e-5 -0.68745,-0.19084 -0.86609,-0.50023 l -5.19607,-8.99996 c -0.17864,-0.3094 -0.50883,-0.49973 -0.8661,-0.49972 h -6.92257 v 4.57182 h -27.72441 v -4.57182 h -27.72389 v 4.57182 h -27.7244 v -4.57182 H 91.062659 v 4.57182 H 63.33877 v -4.57182 H 35.614364 v 4.57182 H 7.8904744 v -4.57182 H 0.96789958 c -0.35726252,0 -0.68746217,0.19032 -0.86609701,0.49972 l -5.19606527,8.99996 c -0.1786378,0.30939 -0.5088357,0.50023 -0.866097,0.50023 h -8.7643233 c -0.357261,0 -0.686942,-0.19084 -0.86558,-0.50023 l -5.196582,-8.99996 c -0.178635,-0.3094 -0.508317,-0.49972 -0.86558,-0.49972 z M 7.4248698,128.50017 H 35.424711 c 0.552281,0 0.999933,0.44766 0.999939,0.99994 v 22.99963 c 1.1e-5,0.55227 -0.447646,1.00045 -0.999939,1.00045 H 7.4248698 c -0.5522907,0 -0.99995,-0.44818 -0.999939,-1.00045 v -22.99963 c 5.6e-6,-0.55228 0.44766,-0.99994 0.999939,-0.99994 z m 57.4998492,4.99969 c 8.284256,0 15.000118,6.71586 15.000118,15.00012 0,8.28426 -6.715862,15.00012 -15.000118,15.00012 -8.284253,0 -15.000118,-6.71586 -15.000118,-15.00012 0,-8.28426 6.715865,-15.00012 15.000118,-15.00012 z m 79.999771,0 c 8.28425,0 15.00012,6.71586 15.00012,15.00012 0,8.28426 -6.71587,15.00012 -15.00012,15.00012 -8.28425,0 -14.9996,-6.71586 -14.9996,-15.00012 0,-8.28426 6.71535,-15.00012 14.9996,-15.00012 z m 60.00047,7.50394 c 1.24871,0 2.49709,0.83196 2.49959,2.49597 -0.005,3.32799 -4.9947,3.32799 -4.9997,0 0.003,-1.66401 1.2514,-2.49597 2.50011,-2.49597 z m 0,10.00042 c 1.24871,0 2.49709,0.83197 2.49959,2.49597 -0.005,3.32801 -4.9947,3.32801 -4.9997,0 0.003,-1.664 1.2514,-2.49597 2.50011,-2.49597 z" /></g></svg>
