<?xml version="1.0" encoding="UTF-8" standalone="no"?>
<!-- Created with Inkscape (http://www.inkscape.org/) -->

<svg
   width="276.40845mm"
   height="79.408592mm"
   viewBox="0 0 276.40845 79.408592"
   version="1.1"
   id="svg1"
   xml:space="preserve"
   inkscape:version="1.3.2 (091e20e, 2023-11-25, custom)"
   sodipodi:docname="Electronic right.svg"
   xmlns:inkscape="http://www.inkscape.org/namespaces/inkscape"
   xmlns:sodipodi="http://sodipodi.sourceforge.net/DTD/sodipodi-0.dtd"
   xmlns="http://www.w3.org/2000/svg"
   xmlns:svg="http://www.w3.org/2000/svg"><sodipodi:namedview
     id="namedview1"
     pagecolor="#ffffff"
     bordercolor="#000000"
     borderopacity="0.25"
     inkscape:showpageshadow="2"
     inkscape:pageopacity="0.0"
     inkscape:pagecheckerboard="0"
     inkscape:deskcolor="#d1d1d1"
     inkscape:document-units="mm"
     inkscape:zoom="0.97890839"
     inkscape:cx="658.38643"
     inkscape:cy="275.30666"
     inkscape:window-width="1920"
     inkscape:window-height="991"
     inkscape:window-x="1647"
     inkscape:window-y="-9"
     inkscape:window-maximized="1"
     inkscape:current-layer="layer1" /><defs
     id="defs1"><marker
       id="DistanceX"
       orient="auto"
       refX="0"
       refY="0"
       style="overflow:visible"><path
         d="M 3,-3 -3,3 M 0,-5 V 5"
         style="stroke:#000000;stroke-width:0.5"
         id="path1" /></marker><pattern
       id="Hatch"
       patternUnits="userSpaceOnUse"
       width="8"
       height="8"
       x="0"
       y="0"><path
         d="M8 4 l-4,4"
         stroke="#000000"
         stroke-width="0.25"
         linecap="square"
         id="path2" /><path
         d="M6 2 l-4,4"
         stroke="#000000"
         stroke-width="0.25"
         linecap="square"
         id="path3" /><path
         d="M4 0 l-4,4"
         stroke="#000000"
         stroke-width="0.25"
         linecap="square"
         id="path4" /></pattern><symbol
       id="*MODEL_SPACE" /><symbol
       id="*PAPER_SPACE" /></defs><g
     inkscape:label="Layer 1"
     inkscape:groupmode="layer"
     id="layer1"
     transform="translate(33.279622,-108.79594)"><path
       id="path8"
       style="fill:none;stroke:#000000;stroke-width:0.264583"
       d="m -28.575517,108.92823 v 25.70955 h -4.571814 v 27.7244 h 4.571814 v 25.71006 H 6.8905355 c 0.5522844,0 0.9999388,-0.44818 0.9999389,-1.00045 v -3.57188 H 35.614364 v 3.57188 c 0,0.55227 0.447654,1.00045 0.999939,1.00045 h 25.724011 c 0.552284,0 1.000456,-0.44818 1.000456,-1.00045 v -3.57188 h 27.723889 v 3.57188 c 0,0.55228 0.447654,1.00045 0.999939,1.00045 h 25.724012 c 0.55228,0 0.99994,-0.44818 0.99994,-1.00045 v -3.57188 h 27.7244 v 3.57188 c 0,0.55227 0.44766,1.00045 0.99994,1.00045 h 25.72401 c 0.55228,0 0.99994,-0.44818 0.99994,-1.00045 v -3.57188 h 27.72441 v 3.57188 c 0,0.55227 0.44766,1.00045 0.99994,1.00045 h 35.46553 v -25.71006 h 4.57182 v -27.7244 h -4.57182 v -25.70955 h -6.92257 c -0.35727,0 -0.68746,0.19032 -0.8661,0.49972 l -5.19606,8.99996 c -0.17864,0.30939 -0.50884,0.50024 -0.8661,0.50023 h -8.76381 c -0.35726,1e-5 -0.68745,-0.19084 -0.86609,-0.50023 l -5.19607,-8.99996 c -0.17864,-0.3094 -0.50883,-0.49973 -0.8661,-0.49972 h -6.92257 v 4.57182 h -27.72441 v -4.57182 h -27.72389 v 4.57182 h -27.7244 v -4.57182 H 91.062659 v 4.57182 H 63.33877 v -4.57182 H 35.614364 v 4.57182 H 7.8904744 v -4.57182 H 0.96789958 c -0.35726252,0 -0.68746217,0.19032 -0.86609701,0.49972 l -5.19606527,8.99996 c -0.1786378,0.30939 -0.5088357,0.50023 -0.866097,0.50023 h -8.7643233 c -0.357261,0 -0.686942,-0.19084 -0.86558,-0.50023 l -5.196582,-8.99996 c -0.178635,-0.3094 -0.508317,-0.49972 -0.86558,-0.49972 z m 230.500147,19.57194 h 13.00024 c 0.55228,1e-5 0.99992,0.44766 0.99993,0.99994 v 8.00002 c 1e-5,0.55229 -0.44764,0.99993 -0.99993,0.99994 h -13.00024 c -0.55229,0 -0.99995,-0.44765 -0.99994,-0.99994 v -8.00002 c 1e-5,-0.55228 0.44766,-0.99994 0.99994,-0.99994 z m -136.999911,4.99969 c 8.284256,0 15.000118,6.71586 15.000118,15.00012 0,8.28426 -6.715862,15.00012 -15.000118,15.00012 -8.284253,0 -15.000118,-6.71586 -15.000118,-15.00012 0,-8.28426 6.715865,-15.00012 15.000118,-15.00012 z m 79.999771,0 c 8.28425,0 15.00012,6.71586 15.00012,15.00012 0,8.28426 -6.71587,15.00012 -15.00012,15.00012 -8.28425,0 -14.9996,-6.71586 -14.9996,-15.00012 0,-8.28426 6.71535,-15.00012 14.9996,-15.00012 z" /><path
       id="path11"
       style="fill:none;stroke:#000000;stroke-width:0.264583"
       d="m 34.303333,150.87038 c -0.45312,0.0366 -0.906257,0.0731 -1.292945,0.25425 -0.363431,0.17026 -0.668318,0.46836 -0.973067,0.76636 -0.285451,0.53599 -0.570734,1.07205 -0.738456,1.63969 -0.228585,0.77361 -0.238664,1.60574 -0.248564,2.43809 0.0071,0.83296 0.01406,1.66598 0.240812,2.44068 0.165357,0.56494 0.447518,1.09903 0.729672,1.63298 0.30532,0.30271 0.610575,0.60538 0.976167,0.77876 0.386448,0.18322 0.840184,0.22175 1.293978,0.26045 0.45312,-0.0366 0.906257,-0.0731 1.292945,-0.25425 0.363431,-0.17026 0.668317,-0.46836 0.973067,-0.76636 0.285471,-0.53483 0.570782,-1.06953 0.738456,-1.63607 0.227962,-0.77028 0.238354,-1.59937 0.248564,-2.42828 -3.78e-4,-0.83169 -8.8e-4,-1.66334 -0.220659,-2.43964 -0.152429,-0.53843 -0.410213,-1.04988 -0.668176,-1.56167 -0.322297,-0.32766 -0.6445,-0.65536 -1.034045,-0.84284 -0.393538,-0.18937 -0.855576,-0.23585 -1.317749,-0.28215 z m -0.0021,1.58905 c 0.112644,0.009 0.22522,0.0187 0.328146,0.0553 0.102743,0.0365 0.195811,0.10002 0.288871,0.16382 0.08928,0.1056 0.1785,0.21126 0.24598,0.32866 0.09596,0.16693 0.148108,0.35753 0.199988,0.54829 0.05076,0.31069 0.101375,0.62189 0.131775,0.9343 0.0479,0.49199 0.04497,0.98787 0.04237,1.48415 1.1e-4,0.50348 2.91e-4,1.00711 -0.05116,1.50585 -0.03444,0.3339 -0.09179,0.66557 -0.149345,0.99736 -0.04735,0.16899 -0.09476,0.33829 -0.181385,0.48524 -0.06575,0.11155 -0.153982,0.21023 -0.242362,0.30903 -0.09398,0.0645 -0.188139,0.12908 -0.291972,0.16588 -0.10324,0.0366 -0.216202,0.0463 -0.329179,0.0553 -0.112717,-0.009 -0.225376,-0.0188 -0.328145,-0.0558 -0.102939,-0.0371 -0.195911,-0.10212 -0.288871,-0.16692 -0.08926,-0.10646 -0.17846,-0.21256 -0.24598,-0.33072 -0.09567,-0.16745 -0.147958,-0.35837 -0.199988,-0.54932 -0.05076,-0.3107 -0.101375,-0.62189 -0.131775,-0.93431 -0.0479,-0.492 -0.04498,-0.9879 -0.04237,-1.48415 -2.3e-4,-0.50294 -5.1e-4,-1.00614 0.05116,-1.5043 0.03446,-0.33218 0.09182,-0.66212 0.149345,-0.99219 0.04735,-0.16899 0.09475,-0.33778 0.181384,-0.48473 0.06575,-0.11155 0.153983,-0.21074 0.242363,-0.30954 0.09398,-0.0645 0.188139,-0.12908 0.291972,-0.16588 0.10324,-0.0366 0.216202,-0.0463 0.329178,-0.0553 z" /><path
       id="path23"
       style="fill:none;stroke:#000000;stroke-width:0.264583"
       d="m 18.764229,150.85229 c -0.45312,0.0365 -0.906256,0.0731 -1.292944,0.25425 -0.363432,0.17026 -0.668316,0.46836 -0.973067,0.76636 -0.285448,0.53602 -0.570733,1.07154 -0.738456,1.63918 -0.228586,0.77361 -0.238664,1.60625 -0.248564,2.43861 0.0071,0.83296 0.01458,1.66601 0.241329,2.44068 0.165356,0.56493 0.447514,1.0985 0.729671,1.63245 0.305321,0.30271 0.610575,0.60592 0.976168,0.77928 0.386447,0.18322 0.840186,0.22175 1.293978,0.26045 0.453119,-0.0366 0.906253,-0.0731 1.292944,-0.25424 0.363429,-0.17028 0.668319,-0.46837 0.973067,-0.76637 0.285473,-0.53485 0.570783,-1.06952 0.738457,-1.63607 0.227961,-0.77028 0.238353,-1.59937 0.248563,-2.42828 -3.81e-4,-0.83169 -8.79e-4,-1.6633 -0.220658,-2.43964 -0.152429,-0.53843 -0.410211,-1.05039 -0.668176,-1.56218 -0.322297,-0.32766 -0.645014,-0.65536 -1.034563,-0.84284 -0.393538,-0.18935 -0.855575,-0.23534 -1.317749,-0.28164 z m -0.0021,1.58905 c 0.112644,0.009 0.225737,0.0187 0.328662,0.0553 0.102743,0.0365 0.195812,0.10002 0.288872,0.16382 0.08928,0.1056 0.1785,0.21129 0.245979,0.32866 0.09596,0.16693 0.147592,0.3575 0.199471,0.54829 0.05076,0.3107 0.101375,0.62137 0.131775,0.93379 0.04789,0.49199 0.04549,0.98839 0.04289,1.48467 1.1e-4,0.50347 2.9e-4,1.00708 -0.05116,1.50585 -0.03444,0.33387 -0.09232,0.66559 -0.149861,0.99735 -0.04735,0.16902 -0.09424,0.33778 -0.180868,0.48473 -0.06575,0.11155 -0.154499,0.21074 -0.242879,0.30954 -0.09398,0.0645 -0.187619,0.12908 -0.291455,0.16588 -0.103238,0.0365 -0.216202,0.0458 -0.329179,0.0548 -0.112718,-0.009 -0.22589,-0.0188 -0.328662,-0.0558 -0.102939,-0.0371 -0.195912,-0.1016 -0.288872,-0.1664 -0.08926,-0.10647 -0.178459,-0.21309 -0.245979,-0.33125 -0.09567,-0.16745 -0.147441,-0.35837 -0.199471,-0.54932 -0.05076,-0.3107 -0.101375,-0.62137 -0.131775,-0.93379 -0.0479,-0.492 -0.04549,-0.98839 -0.04289,-1.48467 -2.2e-4,-0.50293 -5.1e-4,-1.00562 0.05116,-1.50378 0.03446,-0.33221 0.09233,-0.66215 0.149862,-0.99219 0.04735,-0.16902 0.09424,-0.33829 0.180867,-0.48524 0.06575,-0.11154 0.154499,-0.21022 0.242879,-0.30902 0.09399,-0.0646 0.187623,-0.12909 0.291455,-0.16589 0.10324,-0.0365 0.216204,-0.0463 0.329179,-0.0553 z" /><path
       d="m 8.8012335,137.498 c -0.1440656,0.72409 -0.3823732,1.4292 -0.6206781,2.13434 -0.2893722,0.69472 -0.5787443,1.38946 -0.9462876,2.04015 -0.3566504,0.63143 -0.7869079,1.22137 -1.2172235,1.81094 l 4.3589517,0.005 -0.0021,1.78079 -6.5553248,-0.008 0.00161,-1.3913 c 0.2837763,-0.31562 0.567534,-0.63159 0.8197163,-0.9707 0.3096471,-0.41641 0.5716958,-0.86768 0.8337417,-1.31895 0.2639034,-0.50647 0.5278067,-1.01293 0.7410635,-1.53988 0.2148073,-0.5308 0.3782272,-1.08235 0.5416471,-1.63393 0.128561,-0.5279 0.2571247,-1.05579 0.3301418,-1.59152 0.063643,-0.46697 0.085087,-0.93986 0.1065544,-1.4124 l 1.848604,0.003 c -0.051934,0.70288 -0.1038053,1.40651 -0.2404097,2.0931 z"
       style="fill:none;stroke:#000000;stroke-width:0.264583"
       id="path29"
       sodipodi:nodetypes="scscccccscscsccs" /><path
       id="path43"
       style="fill:none;stroke:#000000;stroke-width:0.264583"
       d="m 24.40988,135.42222 c -0.524928,0.002 -1.04978,0.003 -1.574065,0.0222 -0.287196,0.0107 -0.573909,0.027 -0.860929,0.0434 -0.252672,0.0382 -0.505744,0.0767 -0.741557,0.16227 -0.213706,0.0776 -0.41354,0.19359 -0.613399,0.31006 -0.17445,0.14094 -0.348679,0.28181 -0.491443,0.44958 -0.147978,0.17391 -0.261755,0.37706 -0.375688,0.57981 -0.09276,0.21474 -0.185605,0.4295 -0.238745,0.65371 -0.05173,0.21823 -0.06592,0.44511 -0.0801,0.67231 0.01854,0.27731 0.03669,0.5547 0.12144,0.81028 0.0816,0.24604 0.224968,0.47223 0.367936,0.69815 0.187328,0.20005 0.374264,0.39979 0.595829,0.54777 0.242059,0.16169 0.525298,0.26121 0.808219,0.36071 -0.204593,0.10928 -0.409455,0.21896 -0.581359,0.36638 -0.170212,0.146 -0.308315,0.32922 -0.446485,0.51263 -0.110658,0.20043 -0.221387,0.40105 -0.284737,0.61547 -0.06356,0.21511 -0.07916,0.44413 -0.09509,0.67334 0.0116,0.20913 0.02316,0.41822 0.07597,0.6165 0.05095,0.19129 0.140133,0.37227 0.229443,0.55346 0.106804,0.1642 0.213515,0.32846 0.344682,0.47025 0.125645,0.13581 0.273682,0.25113 0.42168,0.36639 0.159942,0.0961 0.319986,0.19195 0.490926,0.26045 0.176314,0.0707 0.364408,0.11218 0.552421,0.15348 0.244434,0.0289 0.488621,0.0577 0.733805,0.0749 0.344335,0.0232 0.690349,0.026 1.036113,0.0264 l 3.997172,0.003 0.01188,-9.99887 z m -0.709518,1.68207 c 0.07441,3.1e-4 0.148809,0.001 0.223242,0.002 l 1.869137,0.003 -0.0031,2.67219 -1.630391,-5.2e-4 c -0.38037,0.003 -0.760598,0.006 -1.136365,-0.0377 -0.219001,-0.0254 -0.436795,-0.0666 -0.654224,-0.10801 -0.127974,-0.053 -0.255884,-0.10625 -0.363802,-0.18655 -0.100439,-0.0747 -0.18359,-0.1729 -0.26665,-0.2713 -0.0635,-0.11337 -0.126988,-0.22699 -0.163298,-0.3483 -0.03963,-0.13242 -0.04654,-0.27412 -0.05374,-0.41599 0.0088,-0.16462 0.01757,-0.32954 0.07131,-0.47853 0.0475,-0.13168 0.129771,-0.25103 0.212391,-0.37052 0.102881,-0.0961 0.20616,-0.19206 0.325561,-0.25786 0.124267,-0.0685 0.266081,-0.10425 0.408244,-0.14005 0.164174,-0.0174 0.328454,-0.0349 0.492993,-0.0455 0.222387,-0.0146 0.445462,-0.0175 0.668693,-0.0165 z m 0.285254,4.33979 c 0.159465,-7.5e-4 0.319012,5e-5 0.478524,0.002 h 1.323433 l -0.0026,2.31252 H 24.62537 c -0.381482,0.001 -0.762944,0.003 -1.144116,-0.01 -0.193892,-0.006 -0.388081,-0.0163 -0.581877,-0.0264 -0.154004,-0.026 -0.307968,-0.052 -0.44235,-0.11886 -0.115604,-0.0576 -0.216729,-0.14578 -0.31781,-0.23358 -0.07443,-0.1075 -0.148603,-0.21469 -0.191203,-0.33331 -0.04708,-0.1311 -0.05536,-0.27597 -0.06356,-0.42065 0.01043,-0.15142 0.0211,-0.30272 0.07493,-0.43718 0.04968,-0.12409 0.136086,-0.234 0.222726,-0.34365 0.112848,-0.0894 0.225703,-0.17859 0.352433,-0.23719 0.142652,-0.066 0.302779,-0.0928 0.463021,-0.11989 0.169937,-0.01 0.340003,-0.0188 0.510046,-0.0248 0.159326,-0.005 0.318542,-0.008 0.478007,-0.009 z" /><path
       id="path58"
       style="fill:none;stroke:#000000;stroke-width:0.264583"
       d="m 233.15321,143.60157 c -0.5246,10e-4 -1.0493,0.003 -1.57355,0.0233 -0.2872,0.011 -0.57445,0.0277 -0.86144,0.0444 -0.25262,0.0385 -0.50533,0.0769 -0.74104,0.16278 -0.21363,0.0778 -0.41316,0.19438 -0.61289,0.31109 -0.17428,0.14113 -0.34836,0.28266 -0.49092,0.45062 -0.1478,0.17407 -0.26149,0.37693 -0.37517,0.57981 -0.0925,0.21485 -0.18533,0.42943 -0.23823,0.6537 -0.0515,0.2183 -0.0651,0.44561 -0.0791,0.67283 0.0189,0.27728 0.0375,0.55429 0.12248,0.80977 0.0819,0.24599 0.22523,0.47186 0.36845,0.69763 0.18756,0.19984 0.37511,0.39952 0.59686,0.54726 0.24225,0.1614 0.5252,0.26098 0.80822,0.36018 -0.20444,0.10948 -0.40858,0.21875 -0.58032,0.36639 -0.17002,0.14618 -0.308,0.33012 -0.44597,0.51366 -0.11046,0.20058 -0.22112,0.401 -0.28422,0.61547 -0.0632,0.21519 -0.079,0.44413 -0.0946,0.67334 0.0119,0.20912 0.0239,0.41827 0.077,0.6165 0.0512,0.19121 0.14046,0.37238 0.22996,0.55346 0.10699,0.1641 0.2144,0.32808 0.34571,0.46973 0.12581,0.13566 0.27354,0.2508 0.42168,0.36587 0.16005,0.0959 0.32043,0.19164 0.49145,0.25994 0.1764,0.0704 0.36436,0.11176 0.55242,0.15296 0.24448,0.0288 0.48911,0.0575 0.73432,0.0744 0.34436,0.0246 0.69018,0.0245 1.03611,0.0243 l 3.99769,-5.2e-4 v -9.99835 z m -0.70745,1.68259 c 0.0744,8e-5 0.14887,5.3e-4 0.22324,10e-4 l 1.87017,-5.2e-4 v 2.67529 h -1.63194 c -0.37986,0.004 -0.76003,0.007 -1.13585,-0.0362 -0.21905,-0.0252 -0.43622,-0.0664 -0.6537,-0.10749 -0.12804,-0.0529 -0.25631,-0.10532 -0.36432,-0.18552 -0.10051,-0.0746 -0.18345,-0.173 -0.26665,-0.2713 -0.0636,-0.11329 -0.12742,-0.2265 -0.16382,-0.34778 -0.0398,-0.13237 -0.0478,-0.27413 -0.0548,-0.416 0.009,-0.16462 0.0172,-0.32945 0.0708,-0.47852 0.0474,-0.13174 0.12989,-0.25148 0.21239,-0.37104 0.10279,-0.0962 0.20572,-0.19238 0.32505,-0.25838 0.12416,-0.0687 0.26613,-0.10456 0.40824,-0.14056 0.16417,-0.0176 0.32847,-0.0352 0.49299,-0.046 0.22237,-0.0141 0.44506,-0.0173 0.66818,-0.017 z m 0.29042,4.33875 c 0.1594,-10e-4 0.31877,-4.7e-4 0.47801,0.001 h 1.3255 v 2.31252 h -1.16117 c -0.38117,0.002 -0.76294,0.004 -1.14412,-0.008 -0.19392,-0.006 -0.38755,-0.0158 -0.58136,-0.0258 -0.15404,-0.0259 -0.30842,-0.0515 -0.44286,-0.11834 -0.11567,-0.0574 -0.21666,-0.14485 -0.31781,-0.23255 -0.0745,-0.10742 -0.14902,-0.21527 -0.19172,-0.33383 -0.0473,-0.13105 -0.0561,-0.27549 -0.0641,-0.42013 0.0103,-0.15145 0.0207,-0.30267 0.0744,-0.43718 0.0495,-0.12415 0.13571,-0.2339 0.22221,-0.34365 0.11274,-0.0896 0.22578,-0.17953 0.35243,-0.23823 0.14259,-0.0661 0.30282,-0.0931 0.46303,-0.1204 0.16992,-0.01 0.33947,-0.0198 0.50952,-0.0258 0.15932,-0.005 0.31862,-0.008 0.47801,-0.009 z" /><path
       id="path73"
       style="fill:none;stroke:#000000;stroke-width:0.264583"
       d="m 109.74627,116.1774 c -0.52493,10e-4 -1.04979,0.003 -1.57406,0.0238 -0.28718,0.0111 -0.57445,0.0277 -0.86145,0.0444 -0.25263,0.0385 -0.50533,0.0769 -0.74104,0.16278 -0.21362,0.0778 -0.41315,0.19441 -0.61288,0.31109 -0.17428,0.14116 -0.34836,0.28217 -0.49093,0.4501 -0.14777,0.17407 -0.26147,0.37696 -0.37517,0.57981 -0.0925,0.21487 -0.18533,0.42997 -0.23823,0.65423 -0.0515,0.21831 -0.0652,0.44508 -0.0791,0.67231 0.0189,0.27725 0.0375,0.5548 0.12247,0.81028 0.0819,0.24596 0.22523,0.47189 0.36846,0.69763 0.18756,0.19984 0.37513,0.39952 0.59686,0.54726 0.24225,0.1614 0.52518,0.26047 0.80822,0.35967 -0.20447,0.10951 -0.4086,0.21926 -0.58033,0.3669 -0.17004,0.14615 -0.308,0.32958 -0.44597,0.51315 -0.11045,0.20057 -0.22112,0.40096 -0.28422,0.61546 -0.0633,0.21519 -0.0789,0.44466 -0.0946,0.67386 0.0118,0.20913 0.024,0.4183 0.077,0.6165 0.0512,0.19124 0.14046,0.37241 0.22996,0.55346 0.107,0.1641 0.21387,0.32811 0.3452,0.46974 0.1258,0.13568 0.27406,0.25082 0.4222,0.36586 0.16005,0.0959 0.31991,0.19164 0.49092,0.25994 0.1764,0.0704 0.36488,0.11124 0.55294,0.15244 0.24447,0.0287 0.48861,0.0575 0.73381,0.0744 0.34437,0.0246 0.69025,0.0245 1.03611,0.0243 h 3.99717 v -9.99887 z m -0.70796,1.68311 c 0.0744,8e-5 0.14882,5.3e-4 0.22324,10e-4 l 1.86913,-10e-4 v 2.67529 h -1.63039 c -0.38033,0.004 -0.76054,0.008 -1.13636,-0.0357 -0.21903,-0.0251 -0.43675,-0.0664 -0.65423,-0.10749 -0.12804,-0.0528 -0.25579,-0.10583 -0.3638,-0.18603 -0.10053,-0.0746 -0.18396,-0.17249 -0.26716,-0.27079 -0.0636,-0.11329 -0.12732,-0.22705 -0.16382,-0.3483 -0.0398,-0.13237 -0.0473,-0.27412 -0.0543,-0.41599 0.009,-0.16465 0.0172,-0.32895 0.0708,-0.47801 0.0473,-0.13174 0.12989,-0.25145 0.21239,-0.37104 0.10277,-0.0962 0.2052,-0.19238 0.32453,-0.25838 0.12419,-0.0687 0.26664,-0.10508 0.40876,-0.14108 0.16416,-0.0175 0.32795,-0.0351 0.49247,-0.046 0.22237,-0.0142 0.44549,-0.0168 0.6687,-0.0165 z m 0.29042,4.33823 c 0.15947,-0.001 0.31899,5e-5 0.47852,0.002 l 1.32343,-5.1e-4 v 2.31252 h -1.15961 c -0.38149,0.002 -0.76294,0.004 -1.14412,-0.008 -0.1939,-0.006 -0.38807,-0.0158 -0.58188,-0.0258 -0.15403,-0.0258 -0.30789,-0.0521 -0.44235,-0.11886 -0.11567,-0.0574 -0.21661,-0.14494 -0.31781,-0.23254 -0.0746,-0.10742 -0.14953,-0.21476 -0.19223,-0.33332 -0.0472,-0.13105 -0.0556,-0.27597 -0.0636,-0.42064 0.0103,-0.15142 0.0202,-0.30264 0.0739,-0.43718 0.0495,-0.12414 0.13623,-0.2339 0.22273,-0.34365 0.11274,-0.0896 0.22524,-0.17901 0.35191,-0.23771 v -5.2e-4 c 0.14257,-0.0661 0.30281,-0.0932 0.46302,-0.12041 0.16993,-0.01 0.34002,-0.0198 0.51005,-0.0258 0.15932,-0.005 0.31854,-0.008 0.47801,-0.009 z" /><path
       style="fill:none;stroke:#000000;stroke-width:0.264583"
       d="m -20.17597,148.653 -0.982133,5.20435 h -5.068358 v -1.79388 h 3.615266 l 0.300102,-1.6991 c -0.212705,0.093 -0.425475,0.18651 -0.647957,0.23998 -0.214535,0.0515 -0.4381,0.0658 -0.661665,0.0801 -0.409244,-0.0389 -0.818491,-0.0778 -1.178378,-0.23191 -0.361121,-0.15462 -0.672544,-0.42519 -0.983969,-0.69578 -0.258527,-0.34136 -0.517057,-0.68273 -0.665075,-1.06582 -0.160269,-0.41476 -0.190979,-0.87841 -0.221692,-1.34207 0.02904,-0.39939 0.05809,-0.79878 0.179059,-1.16816 0.119378,-0.36452 0.328277,-0.69982 0.537176,-1.03513 0.361045,-0.38595 0.72209,-0.7719 1.164733,-0.99248 0.456565,-0.22757 0.999942,-0.27919 1.543317,-0.33083 0.431816,0.0241 0.863632,0.0481 1.256821,0.18587 0.354621,0.12422 0.677823,0.34094 1.001022,0.55763 0.262464,0.27464 0.524925,0.54925 0.697476,0.87143 0.182293,0.34036 0.264237,0.73377 0.346238,1.12771 l -1.909992,0.19681 c -0.03737,-0.20107 -0.07472,-0.40266 -0.162028,-0.58016 -0.07969,-0.16201 -0.200998,-0.30396 -0.322307,-0.44593 -0.138002,-0.11041 -0.276,-0.22082 -0.433152,-0.28393 -0.152781,-0.0614 -0.323662,-0.078 -0.494543,-0.0947 -0.193675,0.0217 -0.38735,0.0437 -0.554228,0.12196 -0.173318,0.0813 -0.317731,0.22355 -0.462143,0.36579 -0.120949,0.19862 -0.2419,0.39724 -0.312073,0.61134 -0.08842,0.26983 -0.09622,0.56423 -0.104024,0.85866 0.0084,0.27691 0.01677,0.55385 0.103172,0.80576 0.06951,0.20264 0.189513,0.38909 0.309515,0.57555 0.149997,0.13427 0.299992,0.26855 0.474932,0.3453 0.18184,0.0798 0.390631,0.0975 0.599419,0.11512 0.272841,-0.036 0.545679,-0.0719 0.782743,-0.18248 0.261517,-0.12195 0.479497,-0.33467 0.69749,-0.54799 z"
       id="path80"
       sodipodi:nodetypes="ccccccccccscscccccsccscccscscscscccc" /><path
       id="path109"
       style="fill:none;stroke:#000000;stroke-width:0.264583"
       d="m 116.28386,169.84855 -3.40393,5.1e-4 c -0.52485,0.002 -1.04929,0.004 -1.57355,0.0243 -0.28719,0.0111 -0.57444,0.0277 -0.86144,0.0444 -0.25263,0.0385 -0.50533,0.0769 -0.74104,0.16278 -0.21362,0.0778 -0.41316,0.19439 -0.61288,0.3111 -0.17429,0.14113 -0.34888,0.28269 -0.49145,0.45062 -0.14777,0.17406 -0.26147,0.37692 -0.37517,0.5798 -0.0925,0.21487 -0.18481,0.42942 -0.23771,0.65371 -0.0515,0.21831 -0.0652,0.4456 -0.0791,0.67283 0.0189,0.27728 0.0374,0.55481 0.12247,0.81029 0.0819,0.24594 0.22521,0.47134 0.36845,0.69711 0.18756,0.19984 0.37512,0.39953 0.59686,0.54725 0.24224,0.1614 0.52518,0.26099 0.80822,0.36019 -0.20447,0.10951 -0.40859,0.21874 -0.58032,0.36638 -0.17004,0.14618 -0.308,0.3301 -0.44597,0.51367 -0.11044,0.20055 -0.22112,0.40099 -0.28422,0.61546 -0.0633,0.21521 -0.0789,0.44414 -0.0946,0.67335 0.0118,0.20912 0.024,0.41828 0.077,0.6165 0.0512,0.19125 0.14046,0.37237 0.22996,0.55345 0.107,0.16409 0.21387,0.32811 0.3452,0.46974 0.1258,0.13565 0.27405,0.2508 0.42219,0.36587 0.16005,0.0959 0.31991,0.19163 0.49093,0.25993 0.1764,0.0705 0.36488,0.11187 0.55294,0.15297 0.24447,0.0288 0.4886,0.0575 0.7338,0.0744 0.34437,0.0246 0.69035,0.0246 1.03612,0.0248 h 3.99717 z m -4.11138,1.68413 c 0.0744,2.1e-4 0.14881,8e-4 0.22324,0.002 h 1.86914 v 2.67477 l -1.63039,-5.1e-4 c -0.38037,0.003 -0.76056,0.008 -1.13637,-0.0357 -0.21904,-0.0251 -0.43674,-0.0664 -0.65422,-0.10749 -0.12803,-0.0529 -0.25579,-0.10583 -0.3638,-0.18603 -0.10053,-0.0746 -0.18397,-0.173 -0.26717,-0.2713 -0.0636,-0.11332 -0.12731,-0.2265 -0.16381,-0.34778 -0.0398,-0.13237 -0.0473,-0.27413 -0.0543,-0.416 0.009,-0.16465 0.0172,-0.32945 0.0708,-0.47852 0.0473,-0.13176 0.12989,-0.25144 0.21239,-0.37104 0.10277,-0.0962 0.20521,-0.19187 0.32453,-0.25787 0.12419,-0.0687 0.26665,-0.10507 0.40876,-0.14107 0.16416,-0.0175 0.32796,-0.0351 0.49248,-0.046 0.22237,-0.0146 0.44546,-0.0177 0.66869,-0.0171 z m 0.29042,4.33927 c 0.15946,-0.001 0.31903,-4.6e-4 0.47853,0.001 l 1.32343,5.1e-4 v 2.31252 l -1.15962,-0.001 c -0.38154,0.002 -0.76294,0.004 -1.14412,-0.008 -0.1939,-0.006 -0.38806,-0.0158 -0.58187,-0.0258 -0.15403,-0.0259 -0.30789,-0.0516 -0.44235,-0.11834 -0.11567,-0.0574 -0.21665,-0.14536 -0.31781,-0.23306 -0.0745,-0.10742 -0.14954,-0.21477 -0.19224,-0.33331 -0.0473,-0.13104 -0.0556,-0.27548 -0.0636,-0.42013 0.0103,-0.15144 0.0202,-0.30316 0.0739,-0.4377 0.0495,-0.12415 0.13622,-0.23393 0.22272,-0.34365 0.11274,-0.0896 0.22526,-0.17891 0.35192,-0.23771 0.14257,-0.0661 0.30281,-0.0931 0.46302,-0.12041 0.16993,-0.01 0.34001,-0.0198 0.51005,-0.0258 0.15932,-0.005 0.31854,-0.008 0.478,-0.009 z" /><path
       d="m 104.78157,176.21901 c 0.41668,-0.24585 0.87427,-0.42223 1.33183,-0.59913 v 1.7402 c -0.26633,0.10863 -0.53268,0.21746 -0.78272,0.35536 -0.29796,0.16433 -0.57275,0.36994 -0.84754,0.57555 -0.26807,0.23201 -0.53614,0.46405 -0.74181,0.74265 -0.19109,0.25885 -0.32832,0.55788 -0.46559,0.8565 l -1.55526,-4.4e-4 v -10.04093 h 1.91691 l -5e-5,7.22518 c 0.36834,-0.30752 0.73672,-0.61446 1.14423,-0.85494 z"
       style="fill:none;stroke:#000000;stroke-width:0.264583"
       id="path116"
       sodipodi:nodetypes="sccscscccccs" /><path
       d="m 98.523044,178.28927 c -0.175032,0.33599 -0.446487,0.62417 -0.717942,0.91236 -0.328654,0.20082 -0.657312,0.40164 -1.012959,0.5167 -0.390943,0.1265 -0.814504,0.14936 -1.238063,0.17225 -0.455961,-0.0236 -0.91192,-0.0468 -1.321625,-0.19953 -0.35841,-0.13358 -0.681421,-0.36607 -1.004432,-0.59856 -0.246701,-0.28337 -0.493403,-0.56674 -0.634379,-0.8953 -0.142618,-0.3324 -0.177038,-0.71104 -0.21146,-1.08971 0.0098,-0.22164 0.01961,-0.44331 0.06054,-0.65911 0.04036,-0.21269 0.11099,-0.4197 0.181616,-0.62669 0.09761,-0.2123 0.195227,-0.42463 0.312927,-0.625 0.134106,-0.22833 0.294288,-0.44116 0.454469,-0.65399 0.159991,-0.1827 0.319985,-0.36542 0.48772,-0.5406 0.2448,-0.25567 0.506097,-0.49533 0.767392,-0.73499 0.249915,-0.22778 0.49983,-0.45556 0.740963,-0.69236 0.138062,-0.13557 0.273243,-0.27413 0.408427,-0.41267 0.07549,-0.088 0.150987,-0.17605 0.21913,-0.26945 0.06172,-0.0846 0.117404,-0.17362 0.173147,-0.26292 l -3.806238,-2.9e-4 v -1.78064 l 6.71885,4.3e-4 c -0.05546,0.33405 -0.110929,0.66764 -0.218263,0.98355 -0.109521,0.32237 -0.273042,0.62632 -0.43656,0.93025 -0.261903,0.35809 -0.523806,0.71615 -0.811731,1.05135 -0.41235,0.48003 -0.878072,0.91318 -1.343795,1.34633 -0.357904,0.32869 -0.715809,0.65738 -1.045363,1.01298 -0.187444,0.20225 -0.36572,0.4132 -0.543994,0.62413 -0.115287,0.19132 -0.230576,0.38261 -0.296728,0.59005 -0.05925,0.18579 -0.07908,0.38452 -0.09891,0.58322 0.0094,0.19608 0.01881,0.39219 0.08612,0.56703 0.05772,0.14996 0.158038,0.28432 0.258354,0.41865 0.131347,0.10038 0.262694,0.20074 0.410131,0.25836 0.166756,0.0652 0.354097,0.0756 0.541438,0.0861 0.186706,-0.0119 0.373414,-0.0241 0.538879,-0.0904 0.1504,-0.0604 0.28325,-0.16578 0.4161,-0.27116 0.106262,-0.15548 0.212526,-0.31098 0.279672,-0.48087 0.08826,-0.22331 0.108929,-0.47149 0.129653,-0.71996 l 1.90986,0.19074 c -0.07059,0.47694 -0.141238,0.9533 -0.35295,1.3597 z"
       style="fill:none;stroke:#000000;stroke-width:0.264583"
       id="path127"
       sodipodi:nodetypes="scscscscscscscscsccccscscscscscscccsccs" /><path
       id="path153"
       style="fill:none;stroke:#000000;stroke-width:0.264583"
       d="m -13.661698,143.99328 c -0.524864,0.001 -1.049804,0.003 -1.574065,0.0232 -0.287183,0.0111 -0.573928,0.0277 -0.860929,0.0444 -0.252624,0.0385 -0.505328,0.0769 -0.74104,0.16278 -0.213614,0.0778 -0.413159,0.19439 -0.612882,0.3111 -0.174283,0.14113 -0.348877,0.28266 -0.491443,0.45062 -0.147775,0.17406 -0.261476,0.37693 -0.375171,0.57981 -0.09251,0.21483 -0.184842,0.42944 -0.237712,0.6537 -0.05147,0.21831 -0.06566,0.44561 -0.07958,0.67283 0.01886,0.27728 0.03794,0.55484 0.122989,0.81029 0.08188,0.24598 0.225221,0.47134 0.368453,0.69711 0.187563,0.19984 0.375126,0.40003 0.596863,0.54777 0.242247,0.1614 0.525182,0.26047 0.80822,0.35967 -0.204465,0.10948 -0.409111,0.21874 -0.580844,0.36638 -0.170039,0.14618 -0.308018,0.33013 -0.445967,0.51367 -0.110416,0.20058 -0.220604,0.40099 -0.283704,0.61546 -0.06331,0.21522 -0.07891,0.44414 -0.09457,0.67335 0.01185,0.20912 0.02344,0.41827 0.07648,0.6165 0.05118,0.19121 0.140956,0.37237 0.230476,0.55345 0.106997,0.1641 0.213865,0.32811 0.345199,0.46974 0.125804,0.13565 0.274067,0.2508 0.422196,0.36587 0.160057,0.0959 0.319908,0.19215 0.490927,0.26045 0.176399,0.0704 0.36436,0.11125 0.552421,0.15245 0.244468,0.0288 0.489119,0.0575 0.734322,0.0744 0.344362,0.0246 0.690317,0.0246 1.036112,0.0243 l 3.997172,-5.2e-4 v -9.99836 z m -0.707451,1.68258 c 0.07441,8e-5 0.148806,5.4e-4 0.223242,0.001 l 1.869137,-5.2e-4 v 2.67477 l -1.630391,5.2e-4 c -0.380395,0.004 -0.761065,0.007 -1.136882,-0.0362 -0.219032,-0.0251 -0.436228,-0.0659 -0.653707,-0.10697 -0.128038,-0.0529 -0.256308,-0.10583 -0.364319,-0.18603 -0.100525,-0.0746 -0.18347,-0.173 -0.26665,-0.2713 -0.06363,-0.11332 -0.127364,-0.2265 -0.163814,-0.34778 -0.03978,-0.13237 -0.04686,-0.27415 -0.05426,-0.416 0.0086,-0.16465 0.01671,-0.32946 0.07028,-0.47852 0.04735,-0.13174 0.129912,-0.25147 0.21239,-0.37104 0.102769,-0.0962 0.20572,-0.19238 0.325045,-0.25838 0.124185,-0.0687 0.266126,-0.10456 0.408244,-0.14056 0.164155,-0.0175 0.328467,-0.0351 0.492993,-0.046 0.222369,-0.0142 0.445457,-0.0173 0.668693,-0.0171 z m 0.290422,4.33876 c 0.159461,-0.001 0.31902,-4.7e-4 0.478524,0.001 h 1.323433 v 2.31252 h -1.159619 c -0.381561,0.002 -0.76345,0.004 -1.144633,-0.008 -0.1939,-0.006 -0.387552,-0.0158 -0.58136,-0.0258 -0.154038,-0.0259 -0.307892,-0.0516 -0.44235,-0.11834 -0.115673,-0.0574 -0.217143,-0.14484 -0.318327,-0.23254 -0.07456,-0.10742 -0.14898,-0.21478 -0.19172,-0.33331 -0.04723,-0.13108 -0.05568,-0.27601 -0.06408,-0.42065 0.01025,-0.15145 0.02073,-0.30267 0.07441,-0.43718 0.04953,-0.12415 0.136215,-0.23391 0.222725,-0.34365 0.112741,-0.0896 0.225256,-0.17953 0.351917,-0.23823 0.142571,-0.0661 0.302809,-0.0931 0.46302,-0.1204 0.169926,-0.01 0.340013,-0.0198 0.510047,-0.0258 0.159321,-0.006 0.318545,-0.008 0.478007,-0.009 z" /><path
       id="path160"
       style="fill:none;stroke:#000000;stroke-width:0.264583"
       d="m 97.876713,116.17689 v 2.01228 h -1.241268 v 1.68517 h 1.241268 v 6.3438 h 1.610238 l 4.338239,-6.35052 v -1.67845 h -4.092776 v -2.01228 z m 1.855701,3.69745 h 2.298566 l -2.298566,3.41736 z" /><path
       id="path162"
       style="fill:none;stroke:#000000;stroke-width:0.264583"
       d="m 223.58325,143.4238 c -0.45675,0.0287 -0.91358,0.0574 -1.32085,0.21653 -0.37034,0.1447 -0.69948,0.39705 -1.02888,0.64957 -0.25758,0.31726 -0.51512,0.63444 -0.66249,0.99581 -0.15695,0.38499 -0.18927,0.82017 -0.22117,1.25522 0.0164,0.269 0.0331,0.53807 0.10852,0.78961 0.0722,0.2409 0.19873,0.46605 0.32504,0.69092 0.16611,0.20294 0.33208,0.4057 0.53279,0.5643 0.21715,0.17158 0.47463,0.29114 0.73225,0.41083 -0.20447,0.10385 -0.40882,0.20763 -0.58136,0.35037 -0.16428,0.13595 -0.29981,0.30731 -0.43511,0.47852 -0.10542,0.1891 -0.21049,0.37841 -0.27079,0.58084 -0.0624,0.20961 -0.0764,0.43344 -0.0904,0.65733 0.0313,0.35525 0.0625,0.71013 0.19689,1.02112 0.13131,0.30385 0.36087,0.56572 0.59066,0.82734 0.30536,0.21251 0.61063,0.42491 0.94723,0.54726 0.3936,0.14305 0.83026,0.16281 1.26659,0.18241 0.43935,-0.0191 0.87834,-0.0382 1.27434,-0.18241 0.33602,-0.1224 0.64088,-0.33477 0.94567,-0.54726 0.22778,-0.26186 0.45584,-0.52394 0.58602,-0.82734 0.13356,-0.31133 0.16453,-0.66602 0.19533,-1.02112 -0.0138,-0.21347 -0.028,-0.42696 -0.0847,-0.62839 -0.0563,-0.19976 -0.15471,-0.38779 -0.25321,-0.57567 -0.13615,-0.17598 -0.27197,-0.35204 -0.43873,-0.49041 -0.18809,-0.15606 -0.41535,-0.26432 -0.64234,-0.37259 0.26586,-0.12985 0.53169,-0.25978 0.75034,-0.44597 0.19884,-0.16933 0.35853,-0.38509 0.51831,-0.60099 0.1174,-0.23278 0.23469,-0.4657 0.30179,-0.71211 0.0681,-0.25011 0.0847,-0.51405 0.10077,-0.77824 -0.0405,-0.46167 -0.0809,-0.92353 -0.26768,-1.31672 -0.17857,-0.376 -0.49074,-0.68915 -0.80305,-1.00252 -0.33089,-0.20878 -0.6619,-0.41782 -1.02165,-0.53744 -0.39359,-0.13084 -0.82185,-0.1547 -1.25005,-0.1788 z m 0.0341,1.54151 c 0.19381,0.0183 0.38787,0.0363 0.55707,0.11059 0.16828,0.0739 0.31183,0.20348 0.45579,0.3328 0.11822,0.17103 0.23637,0.34187 0.30437,0.5302 0.0793,0.21916 0.0907,0.46178 0.1018,0.70435 -0.0151,0.18634 -0.0303,0.37266 -0.0863,0.5457 -0.0574,0.17761 -0.15792,0.34129 -0.25838,0.50488 -0.13507,0.14118 -0.2702,0.28238 -0.43408,0.36328 -0.18092,0.0893 -0.39682,0.10503 -0.61288,0.12093 -0.19275,-0.0169 -0.38571,-0.0337 -0.55449,-0.10646 -0.1647,-0.0711 -0.30614,-0.19555 -0.44804,-0.31988 -0.1153,-0.15918 -0.23104,-0.31805 -0.29714,-0.49506 -0.0735,-0.19653 -0.086,-0.41505 -0.0987,-0.63355 0.009,-0.24447 0.0188,-0.4892 0.0971,-0.71055 0.0653,-0.18433 0.17832,-0.3526 0.29146,-0.5209 0.13893,-0.12436 0.27815,-0.24887 0.44028,-0.31987 0.16479,-0.0722 0.35334,-0.0893 0.54209,-0.10646 z m 0.0548,4.74752 c 0.16785,0.0106 0.33578,0.0213 0.48524,0.0801 0.13608,0.0536 0.25695,0.14732 0.37775,0.24082 0.0944,0.12285 0.18868,0.24541 0.24288,0.38344 0.0617,0.15687 0.0711,0.33354 0.0811,0.51004 -0.0112,0.16827 -0.0227,0.33627 -0.0822,0.48576 -0.0547,0.13732 -0.14997,0.25885 -0.24547,0.38034 -0.12269,0.0954 -0.24562,0.19128 -0.38395,0.24598 -0.15272,0.0604 -0.32433,0.0708 -0.4961,0.0816 -0.16617,-0.0111 -0.33241,-0.0223 -0.48007,-0.0811 -0.13582,-0.0541 -0.25557,-0.14838 -0.37569,-0.24288 -0.0945,-0.1207 -0.18929,-0.24147 -0.24339,-0.37776 -0.0593,-0.14928 -0.0698,-0.31729 -0.0806,-0.48524 0.01,-0.17683 0.0198,-0.35342 0.0816,-0.51056 0.0547,-0.13901 0.15006,-0.26294 0.24546,-0.38654 0.12219,-0.0945 0.24431,-0.18878 0.38189,-0.24288 0.15129,-0.0596 0.32153,-0.0703 0.49145,-0.0811 z" /><path
       id="path182"
       style="fill:none;stroke:#000000;stroke-width:0.264583"
       d="m 14.914852,135.24032 c -0.45312,0.0366 -0.906257,0.0731 -1.292944,0.25425 -0.363432,0.17026 -0.668318,0.46836 -0.973068,0.76636 -0.28545,0.53599 -0.570731,1.07206 -0.738456,1.6397 -0.228585,0.77361 -0.238664,1.60626 -0.248564,2.43861 0.0071,0.83293 0.01458,1.66546 0.241329,2.44016 0.165357,0.56493 0.447515,1.09901 0.729672,1.63297 0.30532,0.30268 0.610574,0.60539 0.976167,0.77877 0.386448,0.18322 0.840186,0.22226 1.293978,0.26096 0.45312,-0.0366 0.906256,-0.0731 1.292945,-0.25424 0.363431,-0.17026 0.668317,-0.46837 0.973067,-0.76637 0.285472,-0.53483 0.570781,-1.06951 0.738456,-1.63607 0.227962,-0.77028 0.238354,-1.59936 0.248564,-2.42828 -3.79e-4,-0.83169 -8.83e-4,-1.66333 -0.220659,-2.43964 -0.152428,-0.53843 -0.410213,-1.0504 -0.668176,-1.56218 -0.322297,-0.32766 -0.645016,-0.65535 -1.034562,-0.84284 -0.393538,-0.18937 -0.855576,-0.23586 -1.317749,-0.28216 z m -0.0015,1.58957 c 0.112643,0.009 0.225219,0.0182 0.328145,0.0548 0.102743,0.0365 0.195811,0.10053 0.288871,0.16433 0.08928,0.1056 0.1785,0.21127 0.24598,0.32866 0.09596,0.16693 0.147581,0.35753 0.199471,0.54829 0.05076,0.3107 0.101375,0.62137 0.131775,0.93379 0.0479,0.492 0.04549,0.98839 0.04289,1.48467 1.1e-4,0.50346 2.91e-4,1.00711 -0.05116,1.50585 -0.03444,0.33391 -0.09231,0.66556 -0.149862,0.99735 -0.04735,0.16898 -0.09424,0.33778 -0.180867,0.48473 -0.06575,0.11155 -0.1545,0.21022 -0.24288,0.30902 -0.09398,0.0645 -0.187622,0.12908 -0.291455,0.16588 -0.103241,0.0366 -0.216202,0.0463 -0.329179,0.0553 -0.112718,-0.009 -0.22589,-0.0188 -0.328662,-0.0558 -0.102939,-0.0371 -0.195911,-0.1016 -0.288871,-0.1664 -0.08925,-0.10646 -0.17846,-0.21308 -0.24598,-0.33125 -0.09567,-0.16745 -0.147441,-0.35837 -0.199471,-0.54932 -0.05076,-0.3107 -0.101375,-0.62137 -0.131775,-0.93379 -0.0479,-0.49199 -0.04549,-0.98841 -0.04289,-1.48467 -2.2e-4,-0.50293 -5.1e-4,-1.00562 0.05116,-1.50378 0.03445,-0.33218 0.09233,-0.66263 0.149862,-0.9927 0.04735,-0.16898 0.09424,-0.33778 0.180868,-0.48473 0.06575,-0.11155 0.154499,-0.21074 0.242879,-0.30954 0.09398,-0.0646 0.187622,-0.12908 0.291455,-0.16588 0.103241,-0.0365 0.216722,-0.0458 0.329696,-0.0548 z" /><path
       d="m 35.109587,143.74304 0.0026,-2.21691 -5.02046,-0.006 0.0019,-1.68484 5.02046,0.006 0.0032,-2.72169 -5.586624,-0.007 0.0019,-1.68486 7.605725,0.009 -0.01172,10.00001 -7.414728,-0.009 0.0019,-1.69167 z"
       style="fill:none;stroke:#000000;stroke-width:0.264583"
       id="path185"
       sodipodi:nodetypes="ccccccccccccc" /><path
       id="path188"
       style="fill:none;stroke:#000000;stroke-width:0.264583"
       d="m 10.994678,150.84299 c -0.45312,0.0366 -0.906257,0.0731 -1.2929446,0.25425 -0.3634313,0.17026 -0.6678011,0.46836 -0.9725505,0.76636 -0.2854507,0.53599 -0.5712484,1.07205 -0.7389729,1.63969 -0.228581,0.77361 -0.2381269,1.60574 -0.2480469,2.4381 0.00713,0.83296 0.014062,1.66597 0.2408122,2.44067 0.1653565,0.56494 0.4475172,1.09903 0.7296712,1.63298 0.305321,0.30271 0.6105749,0.60537 0.9761678,0.77876 0.3864477,0.18322 0.8401857,0.22175 1.2939777,0.26045 0.45312,-0.0366 0.906257,-0.0731 1.292944,-0.25425 0.363432,-0.17026 0.668318,-0.46784 0.973068,-0.76584 0.285471,-0.53483 0.570782,-1.07004 0.738456,-1.63659 0.227962,-0.77028 0.238354,-1.59885 0.248564,-2.42776 -3.78e-4,-0.83169 -8.82e-4,-1.66385 -0.220659,-2.44016 -0.152429,-0.53843 -0.410213,-1.04989 -0.668176,-1.56166 -0.3223,-0.32766 -0.6445,-0.65537 -1.034045,-0.84285 -0.393538,-0.18938 -0.856093,-0.23575 -1.318266,-0.28215 z m -0.0016,1.58905 c 0.112644,0.009 0.22522,0.0188 0.328146,0.0553 0.102743,0.0365 0.195811,0.10002 0.288871,0.16382 0.08928,0.10559 0.1785,0.21126 0.24598,0.32866 0.09596,0.16692 0.147581,0.35804 0.199471,0.5488 0.05076,0.3107 0.101892,0.62138 0.132292,0.9338 0.0479,0.49199 0.04497,0.98786 0.04237,1.48414 1.1e-4,0.50348 2.91e-4,1.0071 -0.05116,1.50585 -0.03444,0.33388 -0.0918,0.66557 -0.149345,0.99736 -0.04735,0.16899 -0.09475,0.33829 -0.181385,0.48524 -0.06575,0.11154 -0.154499,0.21023 -0.242879,0.30903 -0.09398,0.0646 -0.187622,0.12908 -0.291455,0.16588 -0.10324,0.0365 -0.216205,0.0463 -0.329179,0.0553 -0.112721,-0.009 -0.225373,-0.0188 -0.328145,-0.0558 -0.102939,-0.0371 -0.195911,-0.10211 -0.288871,-0.16691 -0.08926,-0.10647 -0.17846,-0.21257 -0.24598,-0.33073 -0.09567,-0.16746 -0.1479581,-0.35837 -0.199988,-0.54932 -0.050761,-0.3107 -0.1013769,-0.62138 -0.1317749,-0.9338 -0.047868,-0.49199 -0.045541,-0.98841 -0.042891,-1.48466 -2.28e-4,-0.50295 -5.113e-4,-1.00614 0.05116,-1.5043 0.034459,-0.33218 0.092326,-0.66212 0.1498617,-0.99219 0.047352,-0.16899 0.094754,-0.33775 0.1813842,-0.48472 0.06575,-0.11155 0.153983,-0.21065 0.242363,-0.30955 0.09398,-0.0645 0.188139,-0.12908 0.291972,-0.16588 0.10324,-0.0366 0.216202,-0.0463 0.329178,-0.0553 z" /><path
       d="m 27.922695,157.40277 c 0.416967,-0.24538 0.874762,-0.42119 1.3326,-0.59749 l -0.0021,1.74019 c -0.266495,0.10825 -0.532973,0.21675 -0.783174,0.35436 -0.298153,0.16399 -0.573185,0.36925 -0.848217,0.57454 -0.26834,0.23173 -0.536681,0.46345 -0.742685,0.74182 -0.191389,0.2586 -0.328973,0.55747 -0.466524,0.85636 l -1.555189,-0.003 0.01164,-10.04076 1.916907,0.003 -0.0085,7.22348 c 0.368711,-0.30599 0.737452,-0.61251 1.145242,-0.85248 z"
       style="fill:none;stroke:#000000;stroke-width:0.264583"
       id="path194"
       sodipodi:nodetypes="sccscscccccs" /></g></svg>
