<?xml version="1.0" encoding="UTF-8" standalone="no"?>
<!-- Created with Inkscape (http://www.inkscape.org/) -->

<svg
   width="276.40845mm"
   height="509.40869mm"
   viewBox="0 0 276.40845 509.40869"
   version="1.1"
   id="svg1"
   xml:space="preserve"
   inkscape:version="1.3.2 (091e20e, 2023-11-25, custom)"
   sodipodi:docname="Back.svg"
   xmlns:inkscape="http://www.inkscape.org/namespaces/inkscape"
   xmlns:sodipodi="http://sodipodi.sourceforge.net/DTD/sodipodi-0.dtd"
   xmlns="http://www.w3.org/2000/svg"
   xmlns:svg="http://www.w3.org/2000/svg"><sodipodi:namedview
     id="namedview1"
     pagecolor="#ffffff"
     bordercolor="#000000"
     borderopacity="0.25"
     inkscape:showpageshadow="2"
     inkscape:pageopacity="0.0"
     inkscape:pagecheckerboard="0"
     inkscape:deskcolor="#d1d1d1"
     inkscape:document-units="mm"
     inkscape:zoom="0.17304819"
     inkscape:cx="2250.8181"
     inkscape:cy="2227.7032"
     inkscape:window-width="1920"
     inkscape:window-height="991"
     inkscape:window-x="1647"
     inkscape:window-y="-9"
     inkscape:window-maximized="1"
     inkscape:current-layer="layer1" /><defs
     id="defs1"><marker
       id="DistanceX"
       orient="auto"
       refX="0"
       refY="0"
       style="overflow:visible"><path
         d="M 3,-3 -3,3 M 0,-5 V 5"
         style="stroke:#000000;stroke-width:0.5"
         id="path1" /></marker><pattern
       id="Hatch"
       patternUnits="userSpaceOnUse"
       width="8"
       height="8"
       x="0"
       y="0"><path
         d="M8 4 l-4,4"
         stroke="#000000"
         stroke-width="0.25"
         linecap="square"
         id="path2" /><path
         d="M6 2 l-4,4"
         stroke="#000000"
         stroke-width="0.25"
         linecap="square"
         id="path3" /><path
         d="M4 0 l-4,4"
         stroke="#000000"
         stroke-width="0.25"
         linecap="square"
         id="path4" /></pattern><symbol
       id="*MODEL_SPACE" /><symbol
       id="*PAPER_SPACE" /></defs><g
     inkscape:label="Layer 1"
     inkscape:groupmode="layer"
     id="layer1"
     transform="translate(33.279622,106.20437)"><path
       id="path5"
       style="fill:none;stroke:#000000;stroke-width:0.264583"
       d="m -33.147331,-106.07208 v 46.641082 h 4.571814 v 27.724406 h -4.571814 v 27.7238894 h 4.571814 V 23.741703 h -4.571814 v 27.723889 h 4.571814 v 27.72389 h -4.571814 v 27.724408 h 4.571814 v 27.72389 h -4.571814 v 27.7244 h 4.571814 v 27.72389 h -4.571814 v 27.72441 h 4.571814 v 27.72389 h -4.571814 v 27.72389 h 4.571814 v 27.7244 h -4.571814 v 27.72389 h 4.571814 v 27.72441 h -4.571814 v 46.64108 H 7.8904744 v -4.57182 H 35.614364 v 4.57182 H 63.33877 v -4.57182 h 27.723889 v 4.57182 h 27.723891 v -4.57182 h 27.7244 v 4.57182 h 27.72389 v -4.57182 h 27.72441 v 4.57182 h 41.03729 v -46.64108 h -4.57182 v -27.72441 h 4.57182 v -27.72389 h -4.57182 v -27.7244 h 4.57182 v -27.72389 h -4.57182 v -27.72389 h 4.57182 v -27.72441 h -4.57182 v -27.72389 h 4.57182 v -27.7244 h -4.57182 v -27.72389 h 4.57182 V 79.189482 h -4.57182 v -27.72389 h 4.57182 V 23.741703 h -4.57182 V -3.9827026 h 4.57182 V -31.706592 h -4.57182 v -27.724406 h 4.57182 v -46.641082 h -41.03729 v 4.57233 h -27.72441 v -4.57233 h -27.72389 v 4.57233 h -27.7244 v -4.57233 H 91.062659 v 4.57233 H 63.33877 v -4.57233 H 35.614364 v 4.57233 H 7.8904744 v -4.57233 z M 140.72474,200.49991 h 6.00015 v 6.00015 h -6.00015 z m 49.40009,0 h 5.99963 v 6.00015 h -5.99963 z" /><path
       id="path8"
       style="fill:none;stroke:#000000;stroke-width:0.264583"
       d="m 101.63307,-86.318245 c -0.45463,0.03556 -0.90911,0.07124 -1.31465,0.232027 -0.390101,0.154675 -0.734836,0.425028 -1.079516,0.695565 -0.280524,0.32451 -0.561099,0.649366 -0.721403,1.02526 -0.158958,0.372744 -0.199546,0.795767 -0.240296,1.219047 0.01907,0.288317 0.03807,0.576643 0.128675,0.840776 0.0859,0.250375 0.23584,0.479287 0.386023,0.707967 0.188535,0.195208 0.376948,0.390058 0.600997,0.526582 0.232332,0.141552 0.503086,0.22027 0.7736,0.29869 -0.419201,0.266859 -0.838464,0.533505 -1.079525,0.917257 -0.210484,0.335068 -0.284998,0.759184 -0.359668,1.18339 0.03219,0.304297 0.06444,0.608667 0.1757,0.88005 0.117179,0.285803 0.3217,0.535131 0.526583,0.784448 0.315614,0.262519 0.63143,0.525154 0.9927,0.675411 0.3888,0.161717 0.8306,0.193609 1.27228,0.225309 0.26486,-0.0113 0.52937,-0.0225 0.78496,-0.07751 0.24052,-0.05178 0.47308,-0.142551 0.70539,-0.233061 0.20755,-0.110358 0.41503,-0.220815 0.59169,-0.368453 0.1667,-0.139303 0.30574,-0.311726 0.44494,-0.484208 0.11824,-0.207275 0.23664,-0.414531 0.32504,-0.633553 0.10527,-0.260879 0.16809,-0.538224 0.23099,-0.815454 l -1.76681,-0.301274 c -0.0309,0.199971 -0.0618,0.399902 -0.14315,0.577226 -0.069,0.150521 -0.17425,0.284612 -0.27957,0.419096 -0.12211,0.09948 -0.24397,0.198968 -0.38344,0.255798 -0.1401,0.05713 -0.29817,0.07125 -0.45578,0.08527 -0.15526,-0.01011 -0.31006,-0.02011 -0.44804,-0.07493 -0.12616,-0.05011 -0.23811,-0.137292 -0.34985,-0.224792 -0.0875,-0.112315 -0.17521,-0.224744 -0.22531,-0.3514 -0.0552,-0.139594 -0.0649,-0.296689 -0.0749,-0.453719 0.0153,-0.186425 0.0306,-0.372568 0.10232,-0.534334 0.0683,-0.153855 0.18761,-0.285505 0.30696,-0.417029 0.16248,-0.103055 0.32486,-0.20619 0.50126,-0.26355 0.21476,-0.07001 0.4503,-0.0717 0.68575,-0.0739 l 0.21136,-1.562695 c -0.15771,0.0421 -0.315,0.08341 -0.47543,0.107486 -0.13345,0.01994 -0.26926,0.02827 -0.40462,0.03617 -0.17983,-0.01815 -0.3592,-0.03651 -0.51625,-0.105937 -0.15947,-0.07049 -0.29551,-0.193944 -0.4315,-0.317293 -0.11328,-0.160311 -0.22697,-0.320294 -0.29197,-0.497644 -0.0739,-0.201374 -0.0854,-0.424688 -0.0971,-0.648023 0.0122,-0.236033 0.0247,-0.472307 0.1018,-0.685746 0.0679,-0.187881 0.18612,-0.358285 0.30437,-0.52865 0.1425,-0.131313 0.28493,-0.262407 0.45269,-0.337447 0.16574,-0.07413 0.35582,-0.09334 0.54622,-0.112654 0.17695,0.01524 0.35389,0.03022 0.5116,0.09353 0.15575,0.06252 0.29295,0.172205 0.42994,0.281637 0.11793,0.146816 0.23578,0.293812 0.31368,0.458886 0.0907,0.19214 0.12731,0.408631 0.16381,0.625285 l 1.85519,-0.224792 c -0.0762,-0.397973 -0.15217,-0.795935 -0.33073,-1.141533 -0.17199,-0.332872 -0.43889,-0.617022 -0.7059,-0.901237 -0.325,-0.2277 -0.65021,-0.455677 -1.00976,-0.586011 -0.38712,-0.140362 -0.8141,-0.167896 -1.24127,-0.195336 z m 3.86747,0.170532 4.0044,9.999906 h 2.13476 l 3.89537,-9.999906 h -2.14199 l -0.82527,2.271696 h -3.99769 l -0.87282,-2.271696 z m 3.7176,3.956347 h 2.72852 l -1.35031,3.710885 z m -76.16331,43.662968 c -0.453078,0.03709 -0.905951,0.07419 -1.292428,0.255799 -0.363229,0.170682 -0.667631,0.469025 -0.972033,0.767395 -0.284818,0.536335 -0.569849,1.072906 -0.736906,1.640726 -0.227678,0.773906 -0.236563,1.60626 -0.245463,2.438611 0.0081,0.832959 0.01626,1.665728 0.243912,2.440161 0.166018,0.564727 0.448957,1.098332 0.731739,1.631942 0.305673,0.302339 0.611404,0.6048 0.977201,0.77773 0.386665,0.182802 0.840141,0.220689 1.293978,0.258899 0.453076,-0.0371 0.906469,-0.07419 1.292944,-0.255798 0.36323,-0.170709 0.667634,-0.469051 0.972034,-0.767395 0.284845,-0.535171 0.569378,-1.070347 0.736389,-1.637109 0.227065,-0.770546 0.23668,-1.599365 0.24598,-2.428276 -0.0014,-0.83169 -0.0031,-1.663079 -0.223759,-2.439127 -0.153058,-0.538242 -0.411678,-1.050171 -0.670243,-1.561662 -0.322681,-0.327289 -0.645312,-0.654259 -1.035079,-0.841293 -0.393758,-0.188939 -0.856041,-0.234803 -1.318266,-0.280603 z m 18.792651,0 c -0.502372,0.02524 -1.004775,0.05025 -1.469161,0.198438 -0.416268,0.132821 -0.801783,0.364756 -1.187524,0.596346 -0.328435,0.316679 -0.657154,0.633182 -0.898136,1.005107 -0.27664,0.426957 -0.438062,0.926537 -0.599447,1.425752 l 1.95802,0.621668 c 0.08631,-0.330636 0.172663,-0.661685 0.334346,-0.95188 0.132318,-0.23749 0.314825,-0.447444 0.497644,-0.657841 0.204102,-0.149198 0.408261,-0.298676 0.636137,-0.383956 0.232979,-0.08718 0.490964,-0.107271 0.748792,-0.127641 0.345615,0.03223 0.691229,0.06421 0.989087,0.201022 0.292099,0.134169 0.538274,0.368816 0.784448,0.60358 0.197763,0.351605 0.395529,0.703427 0.511597,1.077971 0.158812,0.512523 0.164732,1.067664 0.170532,1.623156 -0.0086,0.527765 -0.01726,1.055559 -0.173116,1.539958 -0.117398,0.36486 -0.318413,0.705161 -0.519348,1.045414 -0.25091,0.232754 -0.50195,0.465355 -0.797368,0.598413 -0.304201,0.137003 -0.655261,0.168718 -1.006657,0.199988 -0.255198,-0.0164 -0.510683,-0.03291 -0.744657,-0.112654 -0.22031,-0.07512 -0.421725,-0.206678 -0.623218,-0.337964 -0.172273,-0.167111 -0.344265,-0.333922 -0.466121,-0.531751 -0.128765,-0.209074 -0.201415,-0.452307 -0.273885,-0.695565 l -1.998845,0.476457 c 0.118126,0.367731 0.236225,0.735176 0.426331,1.061434 0.163468,0.280564 0.380164,0.530588 0.596863,0.780831 0.422592,0.316177 0.845236,0.632306 1.318266,0.813387 0.514454,0.196925 1.088834,0.234211 1.662947,0.271301 0.659571,-0.0503 1.319194,-0.100486 1.898075,-0.345198 0.545079,-0.2304 1.018362,-0.633338 1.491899,-1.036113 0.375433,-0.534828 0.750818,-1.069376 0.966866,-1.659847 0.252025,-0.688788 0.287321,-1.453466 0.322461,-2.217952 -0.03823,-0.728081 -0.07677,-1.456283 -0.320911,-2.110466 -0.214569,-0.574938 -0.58808,-1.092886 -0.961698,-1.610754 -0.462775,-0.396875 -0.925658,-0.79373 -1.459859,-1.02061 -0.55367,-0.235134 -1.183964,-0.287511 -1.81436,-0.340031 z m -26.514144,0.170016 c -0.02087,0.473471 -0.0418,0.946335 -0.104903,1.41335 -0.07239,0.535834 -0.200204,1.064096 -0.328145,1.592151 -0.162775,0.551762 -0.325833,1.103481 -0.540019,1.634526 -0.212637,0.527181 -0.475662,1.033692 -0.738973,1.540474 -0.261517,0.451591 -0.523344,0.903045 -0.832507,1.319816 -0.251782,0.339407 -0.535173,0.655804 -0.818555,0.971517 v 1.39113 h 6.555672 v -1.78077 l -4.358907,0.001 c 0.429501,-0.589808 0.859004,-1.180468 1.214913,-1.812292 0.366781,-0.651139 0.655571,-1.346159 0.944129,-2.041219 0.237478,-0.705404 0.474834,-1.411001 0.61805,-2.13527 0.135798,-0.686726 0.186641,-1.390206 0.237711,-2.094446 z m 12.626103,5.17e-4 v 9.999906 h 2.018998 v -3.935677 h 3.956348 v 3.935677 h 2.018998 v -9.999906 h -2.018998 v 4.372343 h -3.956348 v -4.372343 z m -4.90461,1.419034 c 0.112654,0.0091 0.225697,0.01783 0.328662,0.05426 0.102785,0.03638 0.195741,0.100154 0.288871,0.163814 0.0894,0.105489 0.178877,0.210856 0.246497,0.328145 0.09616,0.16682 0.147878,0.357575 0.199988,0.548287 0.05112,0.310647 0.102565,0.621401 0.133325,0.933793 0.04844,0.491939 0.04654,0.988413 0.04444,1.484664 7.1e-4,0.503502 0.0012,1.006517 -0.04961,1.505335 -0.03405,0.333929 -0.09115,0.666031 -0.148311,0.997872 -0.04715,0.169069 -0.09442,0.338188 -0.180868,0.485241 -0.06562,0.111628 -0.153585,0.210592 -0.241845,0.309542 -0.09391,0.06464 -0.188181,0.128922 -0.291972,0.165882 -0.103196,0.03661 -0.216215,0.04651 -0.329179,0.05581 -0.112728,-0.0093 -0.22533,-0.01893 -0.328145,-0.05581 -0.102982,-0.03696 -0.195842,-0.101242 -0.288872,-0.165882 -0.08938,-0.106389 -0.178836,-0.212645 -0.246496,-0.330729 -0.09587,-0.167349 -0.148255,-0.358451 -0.200505,-0.54932 -0.05112,-0.310647 -0.102048,-0.621427 -0.132808,-0.933794 -0.04844,-0.491938 -0.04654,-0.987868 -0.04444,-1.484147 -8.2e-4,-0.502918 -0.0015,-1.006091 0.04961,-1.504301 0.03407,-0.332235 0.09116,-0.662557 0.148312,-0.992704 0.04715,-0.169042 0.09441,-0.338187 0.180867,-0.485242 0.06562,-0.111626 0.153586,-0.210075 0.241846,-0.309025 0.09391,-0.06466 0.187665,-0.129458 0.291455,-0.166398 0.103196,-0.03664 0.216215,-0.04599 0.329179,-0.05529 z m -3.130558,14.017749 c -0.45308,0.03709 -0.906468,0.07419 -1.292945,0.255799 -0.363229,0.170683 -0.667634,0.469051 -0.972033,0.767395 -0.284821,0.536335 -0.569332,1.072388 -0.73639,1.64021 -0.227673,0.773878 -0.237079,1.606232 -0.245979,2.438611 0.0081,0.832933 0.01626,1.665754 0.243912,2.440161 0.166018,0.564751 0.44896,1.098822 0.731739,1.632458 0.305674,0.302339 0.611401,0.604283 0.977201,0.777214 0.386662,0.182803 0.840655,0.221207 1.294495,0.259415 0.453076,-0.03709 0.905952,-0.07419 1.292427,-0.255798 0.36323,-0.170682 0.667631,-0.469024 0.972034,-0.767395 0.284843,-0.535171 0.569896,-1.070347 0.736906,-1.637109 0.227068,-0.770544 0.236163,-1.599365 0.245463,-2.428276 -0.0014,-0.831689 -0.0031,-1.66357 -0.223759,-2.439644 -0.153061,-0.538242 -0.411163,-1.049654 -0.669727,-1.561145 -0.322681,-0.327263 -0.645829,-0.654802 -1.035595,-0.841809 -0.393758,-0.188938 -0.855526,-0.234287 -1.317749,-0.280087 z m 7.769034,0 c -0.453073,0.03709 -0.90595,0.07419 -1.292427,0.255799 -0.36323,0.170683 -0.667631,0.469051 -0.972034,0.767395 -0.284818,0.536335 -0.569848,1.072388 -0.736906,1.64021 -0.227675,0.773878 -0.236563,1.606232 -0.245463,2.438611 0.0081,0.832933 0.01626,1.665754 0.243913,2.440161 0.166018,0.564751 0.448958,1.098822 0.731738,1.632458 0.305675,0.302339 0.611402,0.604283 0.977202,0.777214 0.38666,0.182803 0.840142,0.221207 1.293977,0.259415 0.453081,-0.03709 0.906469,-0.07419 1.292945,-0.255798 0.363229,-0.170682 0.667633,-0.469024 0.972034,-0.767395 0.284843,-0.535171 0.569379,-1.070347 0.736389,-1.637109 0.227064,-0.770544 0.236163,-1.599365 0.245463,-2.428276 -0.0014,-0.831689 -0.0026,-1.66357 -0.223242,-2.439644 -0.153059,-0.538242 -0.41168,-1.049654 -0.670244,-1.561145 -0.322679,-0.327263 -0.645313,-0.654802 -1.035079,-0.841809 -0.393759,-0.188938 -0.856039,-0.234287 -1.318266,-0.280087 z m 15.539104,0 c -0.453077,0.03709 -0.906468,0.07419 -1.292945,0.255799 -0.363229,0.170683 -0.667634,0.469051 -0.972033,0.767395 -0.284821,0.536335 -0.569332,1.072388 -0.73639,1.64021 -0.227673,0.773878 -0.236563,1.606232 -0.245463,2.438611 0.0081,0.832933 0.01626,1.665754 0.243913,2.440161 0.166021,0.564751 0.448441,1.098822 0.731222,1.632458 0.305674,0.302339 0.611404,0.604283 0.977201,0.777214 0.386662,0.182803 0.840658,0.221207 1.294495,0.259415 0.453076,-0.03709 0.905953,-0.07419 1.292427,-0.255798 0.363231,-0.170682 0.667634,-0.469024 0.972034,-0.767395 0.284845,-0.535171 0.569896,-1.070347 0.736906,-1.637109 0.227078,-0.770544 0.236163,-1.599365 0.245463,-2.428276 -0.0014,-0.831689 -0.0026,-1.66357 -0.223242,-2.439644 -0.153058,-0.538242 -0.41168,-1.049654 -0.670244,-1.561145 -0.322679,-0.327263 -0.645313,-0.654802 -1.035079,-0.841809 -0.393758,-0.188938 -0.85604,-0.234287 -1.318265,-0.280087 z m -9.43405,0.170016 v 10.040731 h 1.555461 c 0.137237,-0.298821 0.274521,-0.597437 0.465604,-0.856279 0.205677,-0.278605 0.47349,-0.511067 0.741557,-0.743107 0.274793,-0.205608 0.549533,-0.410826 0.847494,-0.575159 0.250038,-0.1379 0.516547,-0.246617 0.782898,-0.355017 v -1.740462 c -0.457584,0.176689 -0.915023,0.353053 -1.331702,0.59893 -0.407509,0.240453 -0.776195,0.547255 -1.144633,0.853695 v -7.223332 z m -13.874088,1.419035 c 0.112652,0.0091 0.225177,0.01835 0.328145,0.05478 0.102785,0.03638 0.195741,0.09964 0.288871,0.163297 0.0894,0.105489 0.178877,0.211347 0.246497,0.328662 0.09616,0.166819 0.148394,0.357577 0.200504,0.548287 0.05112,0.310647 0.102049,0.62091 0.132809,0.933277 0.04844,0.491938 0.04654,0.988385 0.04444,1.484664 7.1e-4,0.503474 0.0012,1.007032 -0.04961,1.505851 -0.03405,0.33393 -0.09115,0.666032 -0.148311,0.997872 -0.04715,0.169042 -0.09442,0.337669 -0.180868,0.484725 -0.06562,0.111601 -0.153575,0.210592 -0.241845,0.309542 -0.09391,0.06466 -0.188181,0.129458 -0.291972,0.166398 -0.103195,0.03665 -0.215698,0.04599 -0.328662,0.05529 -0.112731,-0.0093 -0.22585,-0.01841 -0.328662,-0.05529 -0.102984,-0.03694 -0.195832,-0.10174 -0.288872,-0.166398 -0.08938,-0.106362 -0.178836,-0.21262 -0.246496,-0.33073 -0.09587,-0.167347 -0.148255,-0.358423 -0.200505,-0.54932 -0.05112,-0.310621 -0.102048,-0.620884 -0.132808,-0.933276 -0.04844,-0.49194 -0.04654,-0.988387 -0.04444,-1.484664 -8.2e-4,-0.502946 -0.0015,-1.005575 0.04961,-1.503785 0.03407,-0.332236 0.09116,-0.662557 0.148312,-0.992704 0.04715,-0.169043 0.09441,-0.338187 0.180867,-0.485242 0.06562,-0.111626 0.153586,-0.210591 0.241846,-0.309541 0.09391,-0.06464 0.188181,-0.12944 0.291972,-0.166398 0.103198,-0.03664 0.216213,-0.04599 0.329179,-0.05529 z m 7.769034,0 c 0.112655,0.0091 0.225698,0.01835 0.328663,0.05478 0.102786,0.03638 0.195741,0.09964 0.288871,0.163297 0.0894,0.105489 0.178876,0.211347 0.246496,0.328662 0.09616,0.166819 0.148395,0.357577 0.200505,0.548287 0.05112,0.310647 0.102038,0.62091 0.132808,0.933277 0.04844,0.491938 0.04654,0.988385 0.04444,1.484664 7e-4,0.503474 0.0013,1.007032 -0.04961,1.505851 -0.03405,0.33393 -0.09115,0.666032 -0.148312,0.997872 -0.04715,0.169042 -0.09441,0.337669 -0.180867,0.484725 -0.06562,0.111601 -0.153586,0.210592 -0.241846,0.309542 -0.09391,0.06466 -0.188182,0.129458 -0.291972,0.166398 -0.103198,0.03665 -0.216212,0.04599 -0.329179,0.05529 -0.112726,-0.0093 -0.225327,-0.01841 -0.328145,-0.05529 -0.102981,-0.03694 -0.195841,-0.10174 -0.288871,-0.166398 -0.08938,-0.106362 -0.178837,-0.21262 -0.246497,-0.33073 -0.09587,-0.167347 -0.148254,-0.358423 -0.200504,-0.54932 -0.05112,-0.310621 -0.102049,-0.620884 -0.132809,-0.933276 -0.04844,-0.49194 -0.04654,-0.988387 -0.04444,-1.484664 -8.2e-4,-0.502946 -0.0015,-1.005575 0.04961,-1.503785 0.03406,-0.332236 0.09116,-0.662557 0.148311,-0.992704 0.04715,-0.169043 0.09442,-0.338187 0.180868,-0.485242 0.06562,-0.111626 0.153576,-0.210591 0.241846,-0.309541 0.09391,-0.06464 0.187664,-0.12944 0.291455,-0.166398 0.103198,-0.03664 0.216216,-0.04599 0.329178,-0.05529 z m 15.539104,0 c 0.112655,0.0091 0.225177,0.01835 0.328145,0.05478 0.102785,0.03638 0.195741,0.09964 0.288871,0.163297 0.0894,0.105489 0.178877,0.211347 0.246497,0.328662 0.09616,0.166819 0.148394,0.357577 0.200504,0.548287 0.05113,0.310647 0.102049,0.62091 0.132809,0.933277 0.04844,0.491938 0.04654,0.988385 0.04444,1.484664 7e-4,0.503474 0.0018,1.007032 -0.04909,1.505851 -0.03405,0.33393 -0.09167,0.666032 -0.148828,0.997872 -0.04715,0.169042 -0.09389,0.337669 -0.180351,0.484725 -0.06562,0.111601 -0.154092,0.210592 -0.242362,0.309542 -0.09391,0.06466 -0.187666,0.129458 -0.291455,0.166398 -0.103198,0.03665 -0.216212,0.04599 -0.329179,0.05529 -0.112728,-0.0093 -0.225332,-0.01841 -0.328146,-0.05529 -0.102982,-0.03694 -0.196348,-0.10174 -0.289388,-0.166398 -0.08938,-0.106362 -0.178836,-0.21262 -0.246496,-0.33073 -0.09587,-0.167347 -0.147738,-0.357908 -0.199988,-0.548803 -0.05112,-0.310621 -0.102565,-0.621401 -0.133325,-0.933793 -0.04844,-0.49194 -0.04654,-0.988387 -0.04444,-1.484664 -8.2e-4,-0.502946 -0.0015,-1.005575 0.04961,-1.503785 0.03407,-0.332236 0.09116,-0.662557 0.148312,-0.992704 0.04715,-0.169043 0.09441,-0.338187 0.180867,-0.485242 0.06562,-0.111626 0.154103,-0.210591 0.242363,-0.309541 0.09391,-0.06464 0.187664,-0.12944 0.291455,-0.166398 0.103195,-0.03664 0.216216,-0.04599 0.329179,-0.05529 z M 202.80209,118.38606 c -0.0209,0.47352 -0.0418,0.94633 -0.1049,1.41335 -0.0724,0.5358 -0.20021,1.06409 -0.32815,1.59215 -0.16278,0.55176 -0.32583,1.10347 -0.54002,1.63452 -0.21264,0.52718 -0.47566,1.0337 -0.73897,1.54048 -0.26152,0.45159 -0.52335,0.90356 -0.83251,1.32033 -0.25178,0.33941 -0.53521,0.65534 -0.81855,0.971 v 1.39113 h 6.55515 v -1.77767 l -4.3589,-0.001 c 0.42958,-0.59107 0.85952,-1.1815 1.21543,-1.81333 0.36678,-0.65113 0.65505,-1.34616 0.94361,-2.04122 0.23748,-0.7054 0.47536,-1.41048 0.61857,-2.13475 0.1358,-0.68672 0.18651,-1.39068 0.23771,-2.09496 z m 3.84008,5.1e-4 4.0044,9.99991 h 2.13476 l 3.89537,-9.99991 h -2.14199 l -0.82527,2.2717 h -3.99769 l -0.87282,-2.2717 z M 0.40152588,121.69955 c -0.45675723,0.0287 -0.91359319,0.0574 -1.32084961,0.21652 -0.37034187,0.14467 -0.69998627,0.39706 -1.02939457,0.64958 -0.2575739,0.31729 -0.5151219,0.63443 -0.6624918,0.9958 -0.1570089,0.38499 -0.1887444,0.82017 -0.2206584,1.25522 0.016436,0.26903 0.03259,0.53808 0.1080038,0.78962 0.072226,0.2409 0.1987248,0.46601 0.3250447,0.69091 0.1661023,0.20291 0.3320794,0.40571 0.532784,0.56431 0.2171432,0.1716 0.4751264,0.29112 0.7327718,0.41082 -0.2044934,0.10382 -0.4093501,0.2076 -0.5818766,0.35037 -0.1642713,0.13592 -0.2993072,0.30731 -0.4345988,0.47852 -0.1054387,0.1891 -0.2110293,0.37842 -0.2713013,0.58085 -0.06241,0.20963 -0.076438,0.43343 -0.090434,0.65732 0.031279,0.35523 0.062482,0.71014 0.1968872,1.02113 0.1313284,0.30388 0.3613961,0.56572 0.5911784,0.82734 0.3053497,0.21254 0.610624,0.42493 0.94722899,0.54725 0.39358013,0.14308 0.82976232,0.16262 1.26607259,0.18242 0.43935826,-0.0191 0.87885122,-0.0382 1.27485762,-0.18242 0.3360068,-0.1224 0.640882,-0.33476 0.9456787,-0.54725 0.2277924,-0.26183 0.4553007,-0.52394 0.585494,-0.82734 0.1335957,-0.31131 0.1645049,-0.66605 0.1953369,-1.02113 -0.013833,-0.21349 -0.027488,-0.42695 -0.084233,-0.62838 -0.056277,-0.19976 -0.1547347,-0.3878 -0.2532145,-0.57568 -0.1361809,-0.17594 -0.2724912,-0.35203 -0.4392497,-0.49041 -0.188084,-0.15608 -0.4148357,-0.26432 -0.6418213,-0.37259 0.26585,-0.12989 0.5317011,-0.25977 0.7503418,-0.44596 0.1988366,-0.16933 0.3585251,-0.3851 0.5183146,-0.601 0.1173821,-0.23275 0.2347104,-0.46566 0.3017904,-0.7121 0.06809,-0.25011 0.084497,-0.51409 0.100769,-0.77825 -0.040497,-0.46168 -0.081463,-0.92354 -0.2682007,-1.31671 -0.1785748,-0.376 -0.4907381,-0.68916 -0.8030517,-1.00253 -0.3308662,-0.20878 -0.6618923,-0.41784 -1.0216431,-0.53743 -0.3936145,-0.13087 -0.8213459,-0.1547 -1.24953542,-0.1788 z m 3.96306562,0.17725 4.0038899,9.9999 h 2.1352706 l 3.894852,-9.9999 h -2.141988 l -0.825272,2.27169 H 7.4341715 L 6.5608398,121.8768 Z m 205.9951785,0.46612 h 2.72852 l -1.35031,3.71088 z M 0.43563232,123.24106 c 0.19378555,0.0182 0.38734407,0.0363 0.55655518,0.11058 0.1682586,0.0739 0.312346,0.2035 0.4563029,0.3328 0.118197,0.17103 0.2363685,0.3419 0.3043742,0.5302 0.079133,0.21916 0.090121,0.46178 0.1012858,0.70435 -0.015086,0.18634 -0.029837,0.37269 -0.085783,0.5457 -0.057422,0.17761 -0.1579149,0.34129 -0.2583821,0.50488 -0.1350669,0.14115 -0.2702101,0.28239 -0.4340821,0.36329 -0.18094002,0.0893 -0.39734114,0.10502 -0.61339923,0.12092 -0.19272986,-0.0169 -0.38519945,-0.0336 -0.55397135,-0.10645 -0.16471058,-0.0711 -0.30665846,-0.19555 -0.44855144,-0.31988 -0.11530504,-0.1592 -0.2305115,-0.31857 -0.29662272,-0.49558 -0.0734032,-0.19653 -0.0864659,-0.41453 -0.0992188,-0.63303 0.009401,-0.24444 0.0187479,-0.4892 0.0971517,-0.71055 0.0652963,-0.18434 0.17881518,-0.3526 0.29197185,-0.5209 0.13891112,-0.12436 0.27761702,-0.24878 0.43976644,-0.31988 0.16476611,-0.0722 0.35384141,-0.0892 0.54260267,-0.10645 z m 7.64656168,2.59209 h 2.728516 l -1.3508223,3.71088 z m -7.59230142,2.15542 c 0.16785644,0.0106 0.33579226,0.0213 0.4852417,0.0801 0.13608552,0.0536 0.25693292,0.14679 0.37775472,0.24029 0.094398,0.12285 0.1886715,0.24595 0.2428792,0.38396 0.061635,0.1569 0.071452,0.33354 0.081132,0.51005 -0.011168,0.16824 -0.022131,0.33623 -0.081649,0.48575 -0.054666,0.13729 -0.1505309,0.25887 -0.2459799,0.38034 -0.1226893,0.0954 -0.2451179,0.19077 -0.38343908,0.24547 -0.15271176,0.0605 -0.32432676,0.0713 -0.49609375,0.0822 -0.16619486,-0.0111 -0.33241583,-0.0223 -0.48007406,-0.0811 -0.13579168,-0.0541 -0.25608925,-0.14848 -0.37620442,-0.24288 -0.0944507,-0.12073 -0.18876949,-0.24144 -0.24287924,-0.37775 -0.0592533,-0.14925 -0.0702576,-0.31729 -0.081132,-0.48525 0.009985,-0.17679 0.0197602,-0.35345 0.0816488,-0.51056 0.0547633,-0.13904 0.15057659,-0.26293 0.24597982,-0.38654 0.12219213,-0.0944 0.24428475,-0.18878 0.38188883,-0.24288 0.15129095,-0.0596 0.32100591,-0.0703 0.49092611,-0.0811 z M 94.61283,365.34152 l 4.004406,10.00043 h 2.134754 l 3.89485,-10.00043 h -2.14147 l -0.82579,2.2717 h -3.99717 l -0.872815,-2.2717 z m -12.551172,5.2e-4 v 10.04125 l 1.55546,-5.2e-4 c 0.137223,-0.29931 0.274518,-0.59795 0.465605,-0.85679 0.205677,-0.27861 0.473489,-0.51107 0.741557,-0.74311 0.274791,-0.20561 0.549534,-0.41082 0.847493,-0.57516 0.250037,-0.13787 0.516533,-0.24682 0.782898,-0.35605 v -1.73891 c -0.457599,0.1762 -0.915022,0.35253 -1.331701,0.59841 -0.407508,0.24045 -0.776209,0.54728 -1.144633,0.85421 v -7.22333 z m 6.998539,0 v 10.04125 l 1.555461,-5.2e-4 c 0.137293,-0.29931 0.274519,-0.59795 0.465604,-0.85679 0.205676,-0.27861 0.473489,-0.51107 0.741557,-0.74311 0.274791,-0.20561 0.549533,-0.41082 0.847493,-0.57516 0.250036,-0.13787 0.516606,-0.24682 0.782898,-0.35605 v -1.73891 c -0.457528,0.1762 -0.91502,0.35253 -1.331701,0.59841 -0.407508,0.24045 -0.775752,0.54728 -1.144116,0.85421 v -7.22333 z m 9.270235,3.95583 h 2.728518 l -1.350307,3.71089 z" /></g></svg>
