<?xml version="1.0" encoding="UTF-8" standalone="no"?>
<!-- Created with Inkscape (http://www.inkscape.org/) -->

<svg
   width="276.4086mm"
   height="276.4086mm"
   viewBox="0 0 276.4086 276.4086"
   version="1.1"
   id="svg1"
   xml:space="preserve"
   inkscape:version="1.3.2 (091e20e, 2023-11-25, custom)"
   sodipodi:docname="Bottom.svg"
   xmlns:inkscape="http://www.inkscape.org/namespaces/inkscape"
   xmlns:sodipodi="http://sodipodi.sourceforge.net/DTD/sodipodi-0.dtd"
   xmlns="http://www.w3.org/2000/svg"
   xmlns:svg="http://www.w3.org/2000/svg"><sodipodi:namedview
     id="namedview1"
     pagecolor="#ffffff"
     bordercolor="#000000"
     borderopacity="0.25"
     inkscape:showpageshadow="2"
     inkscape:pageopacity="0.0"
     inkscape:pagecheckerboard="0"
     inkscape:deskcolor="#d1d1d1"
     inkscape:document-units="mm"
     inkscape:zoom="0.2447271"
     inkscape:cx="2192.2378"
     inkscape:cy="1248.3293"
     inkscape:window-width="1920"
     inkscape:window-height="991"
     inkscape:window-x="1647"
     inkscape:window-y="-9"
     inkscape:window-maximized="1"
     inkscape:current-layer="layer1" /><defs
     id="defs1"><marker
       id="DistanceX"
       orient="auto"
       refX="0"
       refY="0"
       style="overflow:visible"><path
         d="M 3,-3 -3,3 M 0,-5 V 5"
         style="stroke:#000000;stroke-width:0.5"
         id="path1" /></marker><pattern
       id="Hatch"
       patternUnits="userSpaceOnUse"
       width="8"
       height="8"
       x="0"
       y="0"><path
         d="M8 4 l-4,4"
         stroke="#000000"
         stroke-width="0.25"
         linecap="square"
         id="path2" /><path
         d="M6 2 l-4,4"
         stroke="#000000"
         stroke-width="0.25"
         linecap="square"
         id="path3" /><path
         d="M4 0 l-4,4"
         stroke="#000000"
         stroke-width="0.25"
         linecap="square"
         id="path4" /></pattern><symbol
       id="*MODEL_SPACE" /><symbol
       id="*PAPER_SPACE" /></defs><g
     inkscape:label="Layer 1"
     inkscape:groupmode="layer"
     id="layer1"
     transform="translate(33.279587,-10.29571)"><path
       id="path96"
       style="fill:none;stroke:#000000;stroke-width:0.264583"
       d="m 103.27948,21.172351 4.00389,9.999906 h 2.13527 l 3.89486,-9.999906 h -2.14199 l -0.82527,2.271696 h -3.99718 l -0.87333,-2.271696 z m -5.552629,5.17e-4 v 10.041247 l 1.555461,-5.16e-4 c 0.137177,-0.29935 0.274,-0.598471 0.465088,-0.857312 0.205676,-0.278606 0.474,-0.510551 0.74207,-0.742591 0.27479,-0.205607 0.54954,-0.411342 0.8475,-0.575675 0.25004,-0.137901 0.51648,-0.24634 0.78289,-0.355534 v -1.738912 c -0.45764,0.176172 -0.91553,0.352562 -1.33221,0.598413 -0.40751,0.24048 -0.77574,0.547256 -1.14412,0.854212 v -7.223332 z m 9.270239,3.955831 h 2.72851 l -1.35082,3.710884 z M 96.759985,130.05253 c -0.453079,0.0371 -0.905953,0.0742 -1.292427,0.2558 -0.363231,0.17068 -0.667634,0.46905 -0.972034,0.76739 -0.284821,0.53636 -0.569848,1.07291 -0.736906,1.64073 -0.227675,0.77388 -0.236563,1.60625 -0.245463,2.43861 0.0081,0.83293 0.01625,1.66575 0.243913,2.44016 0.166018,0.56475 0.448957,1.09833 0.731738,1.63194 0.305673,0.30234 0.611403,0.60477 0.977201,0.77773 0.386662,0.18279 0.84014,0.2207 1.293978,0.2589 0.453077,-0.0371 0.906469,-0.0742 1.292945,-0.2558 0.363229,-0.17069 0.667631,-0.46905 0.972033,-0.76739 0.284842,-0.5352 0.56938,-1.07038 0.73639,-1.63711 0.227072,-0.77055 0.236159,-1.59936 0.245467,-2.42828 -0.001,-0.83171 -0.003,-1.66357 -0.223247,-2.43964 -0.15306,-0.53824 -0.411679,-1.04969 -0.670243,-1.56115 -0.322683,-0.32729 -0.64531,-0.65425 -1.035079,-0.84129 -0.393756,-0.18891 -0.856042,-0.2348 -1.318266,-0.2806 z m 18.792655,0 c -0.50238,0.0252 -1.00477,0.0503 -1.46916,0.19843 -0.41627,0.13282 -0.80179,0.36473 -1.18753,0.59635 -0.32844,0.31668 -0.65716,0.63319 -0.89814,1.00511 -0.27664,0.42696 -0.43805,0.92667 -0.59944,1.42678 l 1.95802,0.62012 c 0.0863,-0.33024 0.17267,-0.66117 0.33434,-0.95136 0.13232,-0.23749 0.31483,-0.44747 0.49765,-0.65784 0.2041,-0.14922 0.40827,-0.29866 0.63614,-0.38396 0.23298,-0.0872 0.49096,-0.10724 0.74879,-0.12764 0.34561,0.0322 0.69122,0.0642 0.98908,0.20102 0.2921,0.13417 0.53828,0.36881 0.78445,0.60358 0.19777,0.3516 0.39553,0.70343 0.5116,1.07797 0.15883,0.5125 0.16453,1.06767 0.17053,1.62316 -0.009,0.52774 -0.0173,1.05556 -0.17311,1.53996 -0.1174,0.36486 -0.31841,0.70515 -0.51935,1.04541 -0.25091,0.23278 -0.50195,0.46537 -0.79737,0.59841 -0.3042,0.13702 -0.65526,0.16827 -1.00666,0.19947 -0.2552,-0.0164 -0.51068,-0.0323 -0.74465,-0.11213 -0.22031,-0.0751 -0.42173,-0.20671 -0.62322,-0.33797 -0.17228,-0.16711 -0.34478,-0.33389 -0.46664,-0.53175 -0.12877,-0.20905 -0.20087,-0.45242 -0.27337,-0.69608 l -1.99884,0.47801 c 0.11814,0.36685 0.23622,0.73414 0.42633,1.0604 0.16347,0.28053 0.38016,0.53056 0.59686,0.78083 0.42259,0.31617 0.84525,0.63231 1.31827,0.81339 0.51446,0.19695 1.08883,0.2342 1.66294,0.2713 0.65957,-0.0503 1.31868,-0.10049 1.89756,-0.3452 0.54508,-0.23042 1.01888,-0.63333 1.49242,-1.03611 0.37543,-0.53482 0.75081,-1.06938 0.96686,-1.65985 0.252,-0.68879 0.28736,-1.45346 0.32246,-2.21795 -0.0382,-0.72808 -0.0768,-1.45629 -0.32091,-2.11047 -0.21457,-0.57494 -0.58807,-1.09288 -0.96169,-1.61075 -0.46278,-0.39687 -0.92566,-0.79373 -1.45986,-1.02061 -0.55367,-0.23516 -1.18397,-0.28753 -1.81436,-0.34003 z m -13.88804,0.17053 v 9.99991 h 2.01899 v -3.93568 h 3.95635 v 3.93568 h 2.019 v -9.99991 h -2.019 v 4.37234 h -3.95635 v -4.37234 z m -12.626107,5.2e-4 c -0.02086,0.47257 -0.0418,0.9453 -0.104903,1.41231 -0.07239,0.53581 -0.200201,1.0641 -0.328146,1.59215 -0.162774,0.55176 -0.325833,1.10352 -0.540018,1.63453 -0.212637,0.52721 -0.475666,1.03369 -0.738973,1.54047 -0.26152,0.45156 -0.523345,0.90307 -0.832508,1.31982 -0.251781,0.33941 -0.535161,0.65594 -0.818554,0.97255 v 1.39216 h 6.555672 v -1.78077 l -4.358907,-5.1e-4 c 0.429515,-0.59069 0.859003,-1.18098 1.214913,-1.81281 0.36678,-0.65114 0.655054,-1.34613 0.943611,-2.04122 0.237479,-0.70538 0.475351,-1.411 0.618567,-2.13527 0.135798,-0.68673 0.186652,-1.39007 0.237712,-2.09341 z m 7.721492,1.418 c 0.112651,0.009 0.225179,0.0184 0.328146,0.0548 0.102786,0.0364 0.196258,0.10012 0.289388,0.16382 0.0894,0.10549 0.178876,0.21083 0.246496,0.32814 0.09616,0.16682 0.147878,0.35755 0.199988,0.54829 0.05112,0.31062 0.102565,0.6214 0.133325,0.93379 0.04844,0.49192 0.04654,0.98787 0.04444,1.48415 7.1e-4,0.50347 0.0013,1.00703 -0.04961,1.50585 -0.03405,0.33393 -0.09115,0.66603 -0.148312,0.99787 -0.04715,0.16907 -0.09441,0.33819 -0.180867,0.48525 -0.06562,0.11163 -0.154093,0.21064 -0.242363,0.30954 -0.09391,0.0647 -0.187664,0.12898 -0.291455,0.16588 -0.103196,0.0366 -0.216216,0.0468 -0.329179,0.0558 -0.112731,-0.009 -0.22533,-0.0189 -0.328145,-0.0558 -0.102984,-0.0369 -0.195831,-0.10118 -0.288871,-0.16588 -0.08938,-0.10636 -0.178837,-0.21314 -0.246497,-0.33125 -0.09587,-0.16732 -0.148254,-0.35793 -0.200504,-0.5488 -0.05112,-0.31064 -0.102049,-0.62141 -0.132809,-0.9338 -0.04844,-0.4919 -0.04654,-0.98787 -0.04444,-1.48414 -8.1e-4,-0.50295 -0.0015,-1.00606 0.04961,-1.5043 0.03407,-0.33221 0.09116,-0.66259 0.148311,-0.99271 0.04715,-0.16907 0.09389,-0.33819 0.180351,-0.48524 0.06562,-0.11163 0.154092,-0.21012 0.242362,-0.30902 0.09391,-0.0647 0.187666,-0.1294 0.291455,-0.1664 0.103198,-0.0366 0.216212,-0.0468 0.329179,-0.0558 z m -118.511112,10.75283 v 2.01228 h -1.241268 v 1.68517 h 1.241268 v 6.3438 h 1.610238 l 4.338236,-6.35052 v -1.67845 h -4.092773 v -2.01228 z m 6.26215,0 4.00389,10.00042 h 2.1352701 l 3.8948527,-10.00042 h -2.1419881 l -0.8252726,2.2717 h -3.9971721 l -0.873332,-2.2717 z m 231.396727,0 v 1.78077 h 3.80649 c -0.0557,0.0889 -0.11142,0.17792 -0.17312,0.26252 -0.0681,0.0934 -0.14361,0.18123 -0.21911,0.26923 -0.13518,0.13854 -0.27071,0.27732 -0.40876,0.41289 -0.24114,0.23683 -0.4906,0.46471 -0.74052,0.69247 -0.26129,0.23966 -0.5226,0.47917 -0.7674,0.73484 -0.16774,0.17518 -0.32783,0.35783 -0.48782,0.54053 -0.16018,0.21286 -0.32064,0.42592 -0.45475,0.65423 -0.1177,0.20039 -0.21505,0.41246 -0.31265,0.62476 -0.0706,0.20701 -0.1415,0.41412 -0.1819,0.62684 -0.0409,0.21577 -0.0505,0.4372 -0.0605,0.65887 0.0344,0.37864 0.0687,0.75747 0.21136,1.08986 0.14097,0.32859 0.38788,0.61167 0.63458,0.89504 0.32302,0.23249 0.64618,0.46537 1.00459,0.59893 0.4097,0.15272 0.86541,0.17617 1.32137,0.19947 0.42356,-0.0229 0.84722,-0.0456 1.23817,-0.17209 0.35564,-0.11507 0.6842,-0.31594 1.01286,-0.51676 0.27145,-0.28818 0.54326,-0.57661 0.7183,-0.91261 0.21171,-0.4064 0.28215,-0.88255 0.35295,-1.35909 l -1.90996,-0.19068 c -0.0207,0.24809 -0.0414,0.49603 -0.12971,0.71933 -0.0671,0.16989 -0.1733,0.3256 -0.27957,0.48111 -0.13285,0.10537 -0.26611,0.21039 -0.41651,0.27079 -0.16546,0.0663 -0.35176,0.0785 -0.53847,0.0904 -0.18734,-0.0105 -0.37481,-0.0206 -0.54157,-0.0858 -0.14743,-0.0576 -0.27895,-0.15801 -0.41031,-0.25839 -0.10032,-0.13433 -0.20068,-0.2686 -0.25838,-0.41857 -0.0673,-0.17484 -0.0768,-0.3713 -0.0858,-0.56741 0.0198,-0.1987 0.0394,-0.39715 0.0987,-0.58291 0.0661,-0.20744 0.18133,-0.39886 0.29662,-0.59015 0.17828,-0.21095 0.3567,-0.42201 0.54415,-0.62425 0.32955,-0.35558 0.68752,-0.68417 1.04542,-1.01286 0.46572,-0.43315 0.93123,-0.86611 1.34358,-1.34617 0.28793,-0.3352 0.54993,-0.69355 0.81184,-1.05161 0.16352,-0.30395 0.32714,-0.60784 0.43667,-0.93018 0.10733,-0.31591 0.16257,-0.64974 0.21807,-0.9834 z m 7.12153,0 4.00389,10.00042 h 2.13527 l 3.89485,-10.00042 h -2.14198 l -0.82528,2.2717 h -3.99717 l -0.87333,-2.2717 z m -129.40037,3.26492 c -0.453076,0.0371 -0.905952,0.0742 -1.292427,0.25579 -0.363231,0.17069 -0.667633,0.46955 -0.972034,0.76792 -0.284821,0.53634 -0.569846,1.07236 -0.736906,1.64021 -0.227675,0.77388 -0.236563,1.60626 -0.245463,2.43861 0.0081,0.83296 0.01626,1.66572 0.243913,2.44016 0.166021,0.56475 0.448957,1.09832 0.731738,1.63194 0.305676,0.30236 0.611406,0.6048 0.977201,0.77773 0.386662,0.18281 0.84014,0.22122 1.293978,0.25942 0.453078,-0.0371 0.906469,-0.0742 1.292945,-0.2558 0.363229,-0.17069 0.667634,-0.46906 0.972033,-0.7674 0.284845,-0.53517 0.56938,-1.07035 0.73639,-1.63711 0.227066,-0.77055 0.236679,-1.59936 0.245979,-2.42827 -0.0014,-0.83169 -0.0031,-1.6636 -0.223759,-2.43965 -0.153059,-0.53824 -0.411679,-1.04965 -0.670243,-1.56114 -0.322681,-0.32729 -0.645313,-0.65477 -1.035079,-0.84181 -0.393758,-0.18891 -0.856039,-0.2348 -1.318266,-0.2806 z m 7.76955,0 c -0.45308,0.0371 -0.90595,0.0742 -1.29243,0.25579 -0.363217,0.17069 -0.667631,0.46955 -0.972029,0.76792 -0.284821,0.53634 -0.569848,1.07236 -0.736906,1.64021 -0.227675,0.77388 -0.236563,1.60626 -0.245463,2.43861 0.0081,0.83296 0.01626,1.66572 0.243912,2.44016 0.166021,0.56475 0.448958,1.09832 0.731739,1.63194 0.305674,0.30236 0.611405,0.6048 0.977197,0.77773 0.38666,0.18281 0.84014,0.22122 1.29398,0.25942 0.45307,-0.0371 0.90647,-0.0742 1.29295,-0.2558 0.36323,-0.17069 0.66763,-0.46906 0.97203,-0.7674 0.28485,-0.53517 0.56938,-1.07035 0.73639,-1.63711 0.22707,-0.77055 0.23646,-1.59936 0.24546,-2.42827 -0.001,-0.83169 -0.003,-1.6636 -0.22324,-2.43965 -0.15306,-0.53824 -0.41168,-1.04965 -0.67024,-1.56114 -0.32268,-0.32729 -0.64531,-0.65477 -1.03508,-0.84181 -0.39376,-0.18891 -0.85605,-0.2348 -1.31827,-0.2806 z m 15.53911,0 c -0.45307,0.0371 -0.90647,0.0742 -1.29295,0.25579 -0.36323,0.17069 -0.66763,0.46955 -0.97203,0.76792 -0.28482,0.53634 -0.56933,1.07236 -0.73639,1.64021 -0.22767,0.77388 -0.23647,1.60626 -0.24547,2.43861 0.008,0.83296 0.0157,1.66572 0.2434,2.44016 0.16602,0.56475 0.44896,1.09832 0.73174,1.63194 0.30568,0.30236 0.6114,0.6048 0.9772,0.77773 0.38666,0.18281 0.84067,0.22122 1.2945,0.25942 0.45306,-0.0371 0.90594,-0.0742 1.29242,-0.2558 0.36323,-0.17069 0.66764,-0.46906 0.97204,-0.7674 0.28485,-0.53517 0.56989,-1.07035 0.7369,-1.63711 0.22707,-0.77055 0.23647,-1.59936 0.24547,-2.42827 -10e-4,-0.83169 -0.003,-1.6636 -0.22325,-2.43965 -0.15306,-0.53824 -0.41168,-1.04965 -0.67024,-1.56114 -0.32268,-0.32729 -0.64531,-0.65477 -1.03508,-0.84181 -0.39376,-0.18891 -0.85605,-0.2348 -1.31826,-0.2806 z m -9.43405,0.16949 v 10.04074 l 1.55546,0.001 c 0.13724,-0.29841 0.27451,-0.59744 0.4656,-0.85628 0.20568,-0.2786 0.47349,-0.51107 0.74156,-0.74311 0.27479,-0.2056 0.54953,-0.41083 0.84749,-0.57516 0.25003,-0.1379 0.51657,-0.24669 0.7829,-0.35553 v -1.73891 c -0.45758,0.1758 -0.91502,0.35205 -1.3317,0.5979 -0.4075,0.24048 -0.77581,0.54739 -1.14412,0.85472 v -7.2254 z m -119.274895,0.52245 h 2.7285161 l -1.3508221,3.71037 z m 238.518255,0 h 2.72852 l -1.35082,3.71037 z m -133.11797,0.89762 c 0.112652,0.009 0.225696,0.0183 0.328662,0.0548 0.102785,0.0364 0.195742,0.0996 0.288872,0.1633 0.0894,0.10549 0.178876,0.21137 0.246496,0.32866 0.09616,0.16682 0.148395,0.35758 0.200505,0.54829 0.05112,0.31065 0.102048,0.62087 0.132808,0.93327 0.04844,0.49194 0.04654,0.98842 0.04444,1.48467 7.1e-4,0.5035 0.0013,1.00701 -0.04961,1.50585 -0.03405,0.33393 -0.09115,0.66551 -0.148312,0.99735 -0.04715,0.16904 -0.09441,0.3382 -0.180867,0.48525 -0.06562,0.11163 -0.153576,0.21054 -0.241846,0.30954 -0.09391,0.0647 -0.188181,0.1294 -0.291972,0.1664 -0.103195,0.0366 -0.216215,0.0463 -0.329179,0.0553 -0.112731,-0.009 -0.225331,-0.0184 -0.328145,-0.0553 -0.102982,-0.037 -0.195831,-0.1017 -0.288871,-0.1664 -0.08938,-0.10639 -0.178837,-0.21264 -0.246497,-0.33073 -0.09587,-0.16735 -0.148254,-0.35843 -0.200504,-0.54932 -0.05112,-0.31065 -0.102049,-0.62089 -0.132809,-0.93328 -0.04844,-0.49194 -0.04654,-0.98838 -0.04444,-1.48466 -8.2e-4,-0.50292 -0.0015,-1.00609 0.04961,-1.5043 0.03407,-0.33224 0.09116,-0.66205 0.148311,-0.99219 0.04715,-0.16905 0.09441,-0.33819 0.180868,-0.48524 0.06562,-0.1116 0.153575,-0.21054 0.241845,-0.30954 0.09391,-0.0647 0.188181,-0.1295 0.291972,-0.1664 0.103198,-0.0366 0.215695,-0.0463 0.328662,-0.0553 z m 7.76955,0 c 0.11265,0.009 0.22518,0.0183 0.32815,0.0548 0.10279,0.0364 0.19629,0.0996 0.28939,0.1633 0.0894,0.10549 0.17889,0.21137 0.24649,0.32866 0.0962,0.16682 0.14789,0.35758 0.19999,0.54829 0.0511,0.31065 0.10252,0.62087 0.13332,0.93327 0.0483,0.49194 0.0459,0.98842 0.0439,1.48467 7e-4,0.5035 0.002,1.00701 -0.0491,1.50585 -0.034,0.33393 -0.0911,0.66551 -0.14831,0.99735 -0.0472,0.16904 -0.0945,0.3382 -0.18087,0.48525 -0.0656,0.11163 -0.15406,0.21054 -0.24236,0.30954 -0.0939,0.0647 -0.18767,0.1294 -0.29146,0.1664 -0.10319,0.0366 -0.21622,0.0463 -0.32918,0.0553 -0.11274,-0.009 -0.22532,-0.0184 -0.32814,-0.0553 -0.10298,-0.037 -0.19587,-0.1017 -0.28887,-0.1664 -0.0894,-0.10639 -0.1788,-0.21264 -0.2465,-0.33073 -0.0959,-0.16735 -0.14821,-0.35843 -0.20051,-0.54932 -0.0511,-0.31065 -0.10252,-0.62089 -0.13332,-0.93328 -0.0483,-0.49194 -0.0459,-0.98838 -0.0439,-1.48466 -8e-4,-0.50292 -10e-4,-1.00609 0.0496,-1.5043 0.0341,-0.33224 0.0911,-0.66205 0.14831,-0.99219 0.0472,-0.16905 0.094,-0.33819 0.18036,-0.48524 0.0656,-0.1116 0.15406,-0.21054 0.24236,-0.30954 0.0939,-0.0647 0.18766,-0.1295 0.29145,-0.1664 0.1032,-0.0366 0.21621,-0.0463 0.32918,-0.0553 z m 15.53911,0 c 0.11264,0.009 0.22517,0.0183 0.32814,0.0548 0.10279,0.0364 0.19577,0.0996 0.28887,0.1633 0.0894,0.10549 0.1789,0.21137 0.2465,0.32866 0.0962,0.16682 0.1484,0.35758 0.2005,0.54829 0.0511,0.31065 0.10201,0.62087 0.13281,0.93327 0.0483,0.49194 0.0464,0.98842 0.0444,1.48467 7e-4,0.5035 10e-4,1.00701 -0.0496,1.50585 -0.034,0.33393 -0.0911,0.66551 -0.14831,0.99735 -0.0471,0.16904 -0.0945,0.3382 -0.18087,0.48525 -0.0656,0.11163 -0.15354,0.21054 -0.24184,0.30954 -0.0939,0.0647 -0.18767,0.1294 -0.29146,0.1664 -0.10319,0.0366 -0.21622,0.0463 -0.32917,0.0553 -0.11272,-0.009 -0.22585,-0.0184 -0.32867,-0.0553 -0.10298,-0.037 -0.19587,-0.1017 -0.28887,-0.1664 -0.0894,-0.10639 -0.17879,-0.21264 -0.24649,-0.33073 -0.0959,-0.16735 -0.14821,-0.35843 -0.20051,-0.54932 -0.0511,-0.31065 -0.10201,-0.62089 -0.13281,-0.93328 -0.0483,-0.49194 -0.0464,-0.98838 -0.0444,-1.48466 -8e-4,-0.50292 -0.001,-1.00609 0.0496,-1.5043 0.0341,-0.33224 0.0912,-0.66205 0.14831,-0.99219 0.0472,-0.16905 0.0945,-0.33819 0.18087,-0.48524 0.0656,-0.1116 0.15406,-0.21054 0.24236,-0.30954 0.0939,-0.0647 0.18767,-0.1295 0.29146,-0.1664 0.1032,-0.0366 0.21622,-0.0463 0.32918,-0.0553 z m -16.54421,117.66982 c -0.454629,0.0356 -0.909111,0.0712 -1.314653,0.23203 -0.390104,0.15467 -0.734838,0.42504 -1.079521,0.69557 -0.280525,0.32451 -0.561099,0.64885 -0.721403,1.02474 -0.15896,0.37275 -0.200062,0.79628 -0.240812,1.21956 0.01907,0.28831 0.03858,0.57664 0.129191,0.84078 0.08589,0.25037 0.235843,0.47877 0.386023,0.70745 0.188539,0.19521 0.376948,0.39057 0.600997,0.5271 0.232331,0.14155 0.503081,0.22029 0.773596,0.29869 -0.419202,0.26686 -0.838459,0.53351 -1.079521,0.91725 -0.210483,0.33507 -0.284998,0.7592 -0.359667,1.1834 0.03219,0.30429 0.06443,0.60865 0.175699,0.88004 0.117179,0.2858 0.321701,0.53513 0.526583,0.78445 0.315614,0.26255 0.631433,0.52516 0.992704,0.67541 0.3888,0.16171 0.830584,0.1931 1.272274,0.2248 0.26485,-0.0113 0.52937,-0.0225 0.78497,-0.0775 0.24051,-0.0518 0.47306,-0.14204 0.70538,-0.23254 0.20754,-0.11036 0.41504,-0.22083 0.59169,-0.36846 0.16671,-0.13931 0.30575,-0.31172 0.44494,-0.4842 0.11824,-0.20727 0.23664,-0.41454 0.32504,-0.63356 0.10528,-0.26088 0.1682,-0.53843 0.231,-0.81648 l -1.76682,-0.29973 c -0.031,0.19947 -0.0618,0.39891 -0.14314,0.57619 -0.069,0.15053 -0.17425,0.28514 -0.27957,0.41962 -0.12211,0.0995 -0.24449,0.199 -0.38396,0.2558 -0.1401,0.0571 -0.29766,0.0713 -0.45527,0.0853 -0.15527,-0.0101 -0.31058,-0.0201 -0.44855,-0.0749 -0.126168,-0.0501 -0.237618,-0.13781 -0.349334,-0.22531 -0.08749,-0.11231 -0.175169,-0.22423 -0.225309,-0.35088 -0.05524,-0.1396 -0.06503,-0.29669 -0.07493,-0.45372 0.01528,-0.18643 0.03056,-0.37308 0.10232,-0.53485 0.06825,-0.15386 0.187607,-0.28551 0.306958,-0.41703 0.162483,-0.10305 0.324865,-0.20563 0.501265,-0.26303 0.21475,-0.0706 0.45029,-0.0719 0.68574,-0.0749 l 0.21136,-1.56167 c -0.15771,0.0417 -0.31551,0.0834 -0.47594,0.10749 -0.13345,0.0199 -0.26875,0.0277 -0.40411,0.0357 -0.17982,-0.0181 -0.359706,-0.036 -0.516765,-0.10542 -0.159462,-0.0705 -0.295506,-0.19395 -0.431498,-0.3173 -0.113279,-0.16031 -0.226405,-0.32081 -0.291455,-0.49816 -0.07387,-0.20138 -0.08548,-0.42468 -0.09715,-0.64802 0.01217,-0.23603 0.02415,-0.47179 0.101286,-0.68523 0.0679,-0.18788 0.186126,-0.35829 0.304374,-0.52865 0.142502,-0.13132 0.285443,-0.26296 0.453202,-0.33796 0.165746,-0.0742 0.355806,-0.0928 0.546216,-0.11214 0.17694,0.0152 0.35389,0.0302 0.5116,0.0935 0.15576,0.0625 0.29296,0.17221 0.42995,0.28164 0.11793,0.14682 0.23577,0.29329 0.31367,0.45837 0.0907,0.19214 0.12732,0.40916 0.16382,0.62632 l 1.85518,-0.22479 c -0.0762,-0.39847 -0.15216,-0.79697 -0.33073,-1.14257 -0.17199,-0.33287 -0.4389,-0.61702 -0.7059,-0.90124 -0.32501,-0.2277 -0.65022,-0.45515 -1.00976,-0.58549 -0.38713,-0.14036 -0.81409,-0.16794 -1.24126,-0.19534 z m 3.86746,0.17054 4.00441,9.9999 h 2.13475 l 3.89485,-9.9999 h -2.14147 l -0.82579,2.27169 h -3.99717 l -0.87282,-2.27169 z m 3.7176,3.95634 h 2.72852 l -1.35031,3.71089 z" /><path
       d="m 201.95906,11.427994 c 0,-0.552282 -0.44772,-0.999993 -1,-0.999993 h -25.7241 c -0.55228,0 -1,0.447711 -1,0.999993 v 3.572007 h -27.7241 v -3.572007 c 0,-0.552282 -0.44772,-0.999993 -1,-0.999993 h -25.7241 c -0.55228,0 -1,0.447711 -1,0.999993 v 3.572007 H 91.062663 v -3.572007 c -4e-6,-0.552282 -0.447719,-0.999993 -1.000001,-0.999993 H 64.338564 c -0.552282,0 -0.999997,0.447711 -1.000001,0.999993 v 3.572007 H 35.614472 v -3.572007 c -4e-6,-0.552289 -0.44773,-1.000003 -1.000019,-0.999993 H 8.8903647 c -0.5522791,4e-6 -0.9999888,0.447714 -0.9999927,0.999993 v 3.572007 h -36.465668 v 36.465642 h -4.572 v 27.724099 h 4.572 v 27.724098 h -4.572 v 27.7241 h 4.572 v 27.7241 h -4.572 v 27.7241 h 4.572 v 27.7241 h -4.572 v 27.7241 h 4.572 v 36.46567 H 7.890372 v 4.572 h 27.7241 v -4.572 h 27.724091 v 4.572 h 27.7241 v -4.572 h 27.724097 v 4.572 h 27.7241 v -4.572 h 27.7241 v 4.572 h 27.7241 v -4.572 h 36.46565 v -36.46567 h 4.572 v -27.7241 h -4.572 v -27.7241 h 4.572 v -27.7241 h -4.572 v -27.7241 h 4.572 v -27.7241 h -4.572 V 79.189742 h 4.572 V 51.465643 h -4.572 V 15.000001 h -36.46565 z"
       style="fill:none;stroke:#000000;stroke-width:0.264583"
       id="path5"
       sodipodi:nodetypes="ssssccssscccccccccccccccccccccccccccccccccccccccccccccccccccccccccccccccccccs" /><path
       d="m -17.596755,146.09181 h -2.298779 v 3.41746 z"
       style="fill:none;stroke:#000000;stroke-width:0.264583"
       id="path140"
       sodipodi:nodetypes="cccc" /></g></svg>
