<?xml version="1.0" encoding="UTF-8" standalone="no"?>
<!-- Created with Inkscape (http://www.inkscape.org/) -->

<svg
   width="271.83664mm"
   height="509.40817mm"
   viewBox="0 0 271.83664 509.40817"
   version="1.1"
   id="svg1"
   xml:space="preserve"
   inkscape:version="1.3.2 (091e20e, 2023-11-25, custom)"
   sodipodi:docname="Front.svg"
   xmlns:inkscape="http://www.inkscape.org/namespaces/inkscape"
   xmlns:sodipodi="http://sodipodi.sourceforge.net/DTD/sodipodi-0.dtd"
   xmlns="http://www.w3.org/2000/svg"
   xmlns:svg="http://www.w3.org/2000/svg"><sodipodi:namedview
     id="namedview1"
     pagecolor="#ffffff"
     bordercolor="#000000"
     borderopacity="0.25"
     inkscape:showpageshadow="2"
     inkscape:pageopacity="0.0"
     inkscape:pagecheckerboard="0"
     inkscape:deskcolor="#d1d1d1"
     inkscape:document-units="mm"
     inkscape:zoom="0.4894542"
     inkscape:cx="1171.7133"
     inkscape:cy="1355.5916"
     inkscape:window-width="1920"
     inkscape:window-height="991"
     inkscape:window-x="1647"
     inkscape:window-y="-9"
     inkscape:window-maximized="1"
     inkscape:current-layer="layer1" /><defs
     id="defs1"><marker
       id="DistanceX"
       orient="auto"
       refX="0"
       refY="0"
       style="overflow:visible"><path
         d="M 3,-3 -3,3 M 0,-5 V 5"
         style="stroke:#000000;stroke-width:0.5"
         id="path1" /></marker><pattern
       id="Hatch"
       patternUnits="userSpaceOnUse"
       width="8"
       height="8"
       x="0"
       y="0"><path
         d="M8 4 l-4,4"
         stroke="#000000"
         stroke-width="0.25"
         linecap="square"
         id="path2" /><path
         d="M6 2 l-4,4"
         stroke="#000000"
         stroke-width="0.25"
         linecap="square"
         id="path3" /><path
         d="M4 0 l-4,4"
         stroke="#000000"
         stroke-width="0.25"
         linecap="square"
         id="path4" /></pattern><symbol
       id="*MODEL_SPACE" /><symbol
       id="*PAPER_SPACE" /></defs><g
     inkscape:label="Layer 1"
     inkscape:groupmode="layer"
     id="layer1"
     transform="translate(41.85946,139.02252)"><path
       id="path47"
       style="fill:none;stroke:#000000;stroke-width:0.264583"
       d="m 85.835588,-123.63948 v 10.04125 l 1.554943,5.1e-4 c 0.137291,-0.29848 0.274518,-0.59744 0.465605,-0.85628 0.205676,-0.27861 0.474006,-0.51109 0.742074,-0.7431 0.274793,-0.20561 0.549533,-0.41083 0.847493,-0.57516 0.250037,-0.1379 0.516084,-0.24675 0.782381,-0.35554 v -1.73891 c -0.457532,0.17572 -0.915023,0.35205 -1.331701,0.5979 -0.407508,0.24045 -0.775757,0.54735 -1.144117,0.85473 v -7.2254 z m 5.552115,0.001 4.004407,10.00043 h 2.134754 l 3.895366,-10.00043 h -2.141985 l -0.825273,2.2717 h -3.997688 l -0.872815,-2.2717 z m 3.717603,3.95635 h 2.728516 l -1.350306,3.71088 z M 9.2035726,-72.662231 c -0.453077,0.03709 -0.9064682,0.07419 -1.2929443,0.255798 -0.3632326,0.170682 -0.6676339,0.469051 -0.9720337,0.767395 -0.2848183,0.536335 -0.5693317,1.072904 -0.7363892,1.640727 -0.2276813,0.773878 -0.2370398,1.606233 -0.2459798,2.43861 0.0081,0.832935 0.016255,1.665753 0.2439127,2.440162 0.1660206,0.564751 0.4489575,1.098305 0.7317383,1.631941 0.3056752,0.30234 0.6114049,0.604799 0.9772014,0.777731 0.3866613,0.1828 0.8406582,0.220689 1.2944946,0.258899 0.4530768,-0.03709 0.9059524,-0.07419 1.2924274,-0.255799 0.363231,-0.170683 0.667634,-0.469051 0.972034,-0.767395 0.284846,-0.53517 0.569896,-1.070347 0.736906,-1.637109 0.227075,-0.770544 0.236163,-1.599365 0.245463,-2.428276 -0.0014,-0.83169 -0.0026,-1.663053 -0.223242,-2.439127 -0.153059,-0.538242 -0.41168,-1.050171 -0.670244,-1.561662 -0.322678,-0.327263 -0.645311,-0.654286 -1.035079,-0.841292 -0.393756,-0.188937 -0.8560393,-0.234803 -1.3182654,-0.280603 z m 18.7926514,0 c -0.502375,0.02524 -1.004778,0.05027 -1.469161,0.198437 -0.416269,0.132821 -0.802301,0.364756 -1.188041,0.596346 -0.328436,0.316679 -0.656638,0.633182 -0.89762,1.005107 -0.276641,0.426984 -0.438077,0.927028 -0.599446,1.426269 l 1.957503,0.621151 c 0.08629,-0.330663 0.172663,-0.661659 0.334346,-0.95188 0.132318,-0.23749 0.315342,-0.447471 0.498161,-0.657841 0.204102,-0.149225 0.407742,-0.298656 0.63562,-0.383956 0.232979,-0.08718 0.490963,-0.107271 0.748792,-0.127641 0.345613,0.0322 0.691227,0.06421 0.989087,0.201022 0.292099,0.13417 0.538275,0.368843 0.784448,0.60358 0.197763,0.351605 0.39553,0.703401 0.511597,1.077971 0.158811,0.512497 0.164732,1.067691 0.170532,1.623157 -0.0086,0.527764 -0.01726,1.055585 -0.173116,1.539957 -0.117399,0.36486 -0.318411,0.705161 -0.519348,1.045414 -0.250907,0.232754 -0.50143,0.465382 -0.796851,0.598414 -0.304199,0.137002 -0.655778,0.168717 -1.007174,0.199987 -0.2552,-0.0164 -0.510167,-0.03288 -0.74414,-0.112654 -0.220311,-0.07509 -0.422244,-0.206678 -0.623735,-0.337964 -0.172273,-0.167111 -0.344264,-0.333922 -0.466121,-0.531751 -0.128765,-0.209046 -0.201435,-0.452334 -0.273885,-0.695564 l -1.998328,0.476456 c 0.11811,0.367705 0.236225,0.735178 0.426331,1.061434 0.163466,0.280538 0.380164,0.530588 0.596862,0.780831 0.422589,0.316203 0.84472,0.632332 1.317749,0.813387 0.514456,0.196925 1.088834,0.234201 1.662948,0.271301 0.65957,-0.0503 1.319195,-0.100485 1.898075,-0.345198 0.545079,-0.230425 1.018361,-0.633312 1.491899,-1.036113 0.375433,-0.534828 0.750818,-1.069377 0.966866,-1.659847 0.252025,-0.688763 0.287321,-1.453466 0.322461,-2.217952 -0.03823,-0.72808 -0.07625,-1.456284 -0.320394,-2.110466 -0.214566,-0.574965 -0.588081,-1.092886 -0.961698,-1.610754 -0.462775,-0.396875 -0.925658,-0.793756 -1.45986,-1.02061 -0.553668,-0.23516 -1.183964,-0.28748 -1.814359,-0.34003 z m -26.5146607,0.170015 c -0.020891,0.473445 -0.041808,0.946308 -0.1049031,1.41335 -0.07239,0.535807 -0.2002036,1.064097 -0.3281454,1.592151 -0.16277417,0.551762 -0.32531666,1.103481 -0.53950194,1.634526 -0.21263748,0.527208 -0.47617933,1.033692 -0.73948975,1.540474 -0.26151655,0.451591 -0.52283049,0.903072 -0.83199051,1.319816 -0.2517852,0.339407 -0.5351889,0.655778 -0.8185547,0.971517 v 1.39113 h 6.5551554 v -1.780253 l -4.35890706,5.17e-4 c 0.42961807,-0.589836 0.85900366,-1.180443 1.21491296,-1.812293 0.3667782,-0.651112 0.6555715,-1.346159 0.9441284,-2.041219 0.2374817,-0.705404 0.474834,-1.411027 0.6180501,-2.13527 0.1357973,-0.686751 0.1871424,-1.390206 0.2382284,-2.094446 z m 12.6261027,5.17e-4 v 9.999906 h 2.019515 v -3.935677 h 3.956348 v 3.935677 h 2.018998 v -9.999906 h -2.018998 v 4.372343 h -3.956348 v -4.372343 z m -4.9040934,1.419035 c 0.1126541,0.0091 0.2251803,0.0178 0.3281453,0.05426 0.1027851,0.03638 0.1957385,0.100154 0.2888713,0.163814 0.0894,0.105489 0.1788794,0.21083 0.2464968,0.328146 0.09616,0.166791 0.148394,0.357576 0.200504,0.548286 0.05112,0.310647 0.102049,0.621427 0.132809,0.933794 0.04844,0.491937 0.04654,0.988386 0.04444,1.484663 7.1e-4,0.503476 0.0013,1.007033 -0.04961,1.505852 -0.03405,0.333929 -0.09115,0.665515 -0.148311,0.997355 -0.04715,0.169043 -0.09441,0.338186 -0.180868,0.485242 -0.06562,0.111599 -0.1535805,0.210591 -0.2418455,0.309541 -0.093911,0.06467 -0.1876645,0.129459 -0.291455,0.166399 -0.1031979,0.03664 -0.2162153,0.04599 -0.3291789,0.05529 -0.1127308,-0.0093 -0.2258452,-0.01842 -0.3286621,-0.05529 -0.1029809,-0.03694 -0.1958355,-0.101729 -0.2888713,-0.166399 -0.089379,-0.106362 -0.1788376,-0.212645 -0.2464966,-0.330729 -0.095869,-0.167348 -0.1482497,-0.358423 -0.2005045,-0.54932 -0.051125,-0.310647 -0.1020486,-0.621402 -0.1328084,-0.933793 -0.048439,-0.49194 -0.046562,-0.987895 -0.044442,-1.484148 -8.18e-4,-0.502944 -0.00148,-1.006092 0.049609,-1.5043 0.034068,-0.332237 0.091161,-0.662558 0.1483114,-0.992705 0.047154,-0.169042 0.094413,-0.33767 0.1808675,-0.484725 0.065622,-0.111628 0.1535809,-0.210593 0.2418457,-0.309541 0.093908,-0.06466 0.1881813,-0.129439 0.2919718,-0.166399 0.1031952,-0.03664 0.2162152,-0.04599 0.3291789,-0.05529 z m -3.131075,14.017749 c -0.4530769,0.0371 -0.9064683,0.07419 -1.2929444,0.255798 -0.3632298,0.17071 -0.6676312,0.469051 -0.9720337,0.767395 -0.284818,0.536361 -0.5693315,1.07239 -0.7363891,1.64021 -0.2276813,0.773878 -0.2365231,1.60626 -0.2454631,2.438611 0.0081,0.832959 0.016255,1.665754 0.2439128,2.440161 0.1660177,0.564751 0.4484407,1.098848 0.7312215,1.632458 0.3056751,0.302339 0.6114024,0.604256 0.9772013,0.777214 0.3866613,0.182776 0.8406584,0.221206 1.2944947,0.259416 0.4530768,-0.03707 0.9059514,-0.07416 1.2924275,-0.255799 0.36323,-0.170682 0.6676338,-0.46905 0.9720337,-0.767395 0.2848445,-0.535197 0.5698961,-1.070373 0.7369059,-1.637109 0.2270707,-0.770544 0.2362031,-1.599336 0.2454631,-2.428276 -0.00135,-0.831689 -0.00255,-1.66357 -0.2232422,-2.439644 -0.1530584,-0.53824 -0.4116772,-1.049681 -0.6702433,-1.561145 -0.32268,-0.32729 -0.6453113,-0.654775 -1.035079,-0.841809 -0.3937574,-0.188938 -0.8560396,-0.234286 -1.3182657,-0.280086 z m 7.7695514,0 c -0.453076,0.0371 -0.906469,0.07419 -1.292944,0.255798 -0.363233,0.17071 -0.667634,0.469051 -0.972034,0.767395 -0.284819,0.536361 -0.569331,1.07239 -0.736389,1.64021 -0.227678,0.773878 -0.23708,1.60626 -0.24598,2.438611 0.0081,0.832959 0.01626,1.665754 0.243913,2.440161 0.166018,0.564751 0.448957,1.098848 0.731738,1.632458 0.305676,0.302339 0.611405,0.604256 0.977202,0.777214 0.38666,0.182776 0.840659,0.221206 1.294494,0.259416 0.453077,-0.03707 0.905951,-0.07416 1.292428,-0.255799 0.363228,-0.170682 0.667635,-0.46905 0.972033,-0.767395 0.284845,-0.535197 0.569898,-1.070373 0.736906,-1.637109 0.227075,-0.770544 0.236163,-1.599336 0.245463,-2.428276 -0.0014,-0.831689 -0.0026,-1.66357 -0.223242,-2.439644 -0.153059,-0.53824 -0.411679,-1.049681 -0.670243,-1.561145 -0.322683,-0.32729 -0.645311,-0.654775 -1.035079,-0.841809 -0.393758,-0.188938 -0.856039,-0.234286 -1.318266,-0.280086 z m 15.538587,0 c -0.453078,0.0371 -0.905951,0.07419 -1.292428,0.255798 -0.36323,0.17071 -0.667634,0.469051 -0.972034,0.767395 -0.28482,0.536361 -0.569848,1.07239 -0.736906,1.64021 -0.227673,0.773878 -0.236563,1.60626 -0.245463,2.438611 0.0081,0.832959 0.01626,1.665754 0.243913,2.440161 0.166018,0.564751 0.448958,1.098848 0.731738,1.632458 0.305673,0.302339 0.610888,0.604256 0.976685,0.777214 0.386664,0.182776 0.840658,0.221206 1.294495,0.259416 0.453076,-0.03707 0.906467,-0.07416 1.292944,-0.255799 0.363233,-0.170682 0.667634,-0.46905 0.972034,-0.767395 0.284844,-0.535197 0.569379,-1.070373 0.736389,-1.637109 0.227078,-0.770544 0.236163,-1.599336 0.245463,-2.428276 -0.0014,-0.831689 -0.0026,-1.66357 -0.223242,-2.439644 -0.153062,-0.53824 -0.41168,-1.049681 -0.670244,-1.561145 -0.322681,-0.32729 -0.645311,-0.654775 -1.035079,-0.841809 -0.393756,-0.188938 -0.85604,-0.234286 -1.318265,-0.280086 z m -9.433533,0.170015 v 10.040731 l 1.554944,5.17e-4 c 0.137221,-0.298846 0.274517,-0.597955 0.465604,-0.856796 0.205676,-0.278606 0.474006,-0.51055 0.742074,-0.74259 0.274794,-0.205607 0.549534,-0.41137 0.847493,-0.575675 0.250039,-0.137901 0.516013,-0.246645 0.782382,-0.355017 v -1.740463 c -0.457604,0.176662 -0.915023,0.353053 -1.331702,0.59893 -0.407508,0.240453 -0.775695,0.547255 -1.144116,0.853695 V -56.8849 Z m -13.8746054,1.419035 c 0.1126539,0.0091 0.2251802,0.01835 0.3281453,0.05478 0.1027851,0.03638 0.1957385,0.100154 0.2888713,0.163814 0.0894,0.105489 0.1788797,0.210829 0.2464965,0.328146 0.09616,0.166817 0.1483978,0.357549 0.2005046,0.548287 0.051125,0.310619 0.1020456,0.621399 0.1328084,0.933793 0.048439,0.491938 0.046562,0.987868 0.044442,1.484147 7.04e-4,0.5035 0.00177,1.007034 -0.049093,1.505851 -0.034047,0.33393 -0.09167,0.666032 -0.1488282,0.997872 -0.047154,0.169069 -0.093896,0.337669 -0.1803507,0.484725 -0.065625,0.111627 -0.1540977,0.210612 -0.2423625,0.309542 -0.093911,0.06466 -0.1876645,0.129468 -0.2914551,0.166398 -0.1031952,0.03664 -0.2162127,0.04599 -0.3291788,0.05529 -0.1127281,-0.0093 -0.2253312,-0.01838 -0.3281454,-0.05529 -0.1029836,-0.03693 -0.1963552,-0.101738 -0.289388,-0.166398 -0.089381,-0.106362 -0.1788398,-0.212621 -0.2464966,-0.330729 -0.095872,-0.167322 -0.1477358,-0.357933 -0.1999878,-0.548804 -0.051126,-0.310647 -0.1025622,-0.621401 -0.1333252,-0.933793 -0.048439,-0.491913 -0.046562,-0.988387 -0.044442,-1.484664 -8.18e-4,-0.502946 -0.00148,-1.005549 0.049609,-1.503784 0.034068,-0.332211 0.091162,-0.662584 0.1483113,-0.992705 0.047154,-0.169067 0.094413,-0.338186 0.1808675,-0.485241 0.065622,-0.111628 0.1540977,-0.210612 0.2423625,-0.309542 0.093911,-0.06466 0.1876645,-0.129458 0.2914551,-0.166398 0.1031952,-0.03664 0.2162153,-0.04599 0.3291789,-0.05529 z m 7.7695514,0 c 0.112654,0.0091 0.225181,0.01835 0.328145,0.05478 0.102785,0.03638 0.195732,0.100154 0.288872,0.163814 0.0894,0.105489 0.178876,0.210829 0.246496,0.328146 0.09616,0.166817 0.148395,0.357549 0.200505,0.548287 0.05112,0.310619 0.102048,0.621399 0.132808,0.933793 0.04844,0.491938 0.04654,0.987868 0.04444,1.484147 7e-4,0.5035 0.0013,1.007034 -0.04961,1.505851 -0.03405,0.33393 -0.09115,0.666032 -0.148312,0.997872 -0.04715,0.169069 -0.09441,0.337669 -0.180867,0.484725 -0.06562,0.111627 -0.153576,0.210612 -0.241846,0.309542 -0.09391,0.06466 -0.187664,0.129468 -0.291455,0.166398 -0.103198,0.03664 -0.216213,0.04599 -0.329179,0.05529 -0.112729,-0.0093 -0.225848,-0.01838 -0.328662,-0.05529 -0.102981,-0.03693 -0.195831,-0.101738 -0.288871,-0.166398 -0.08938,-0.106362 -0.178837,-0.212621 -0.246497,-0.330729 -0.09587,-0.167322 -0.148254,-0.357933 -0.200504,-0.548804 -0.05112,-0.310647 -0.102049,-0.621401 -0.132809,-0.933793 -0.04844,-0.491913 -0.04654,-0.988387 -0.04444,-1.484664 -8.2e-4,-0.502946 -0.0015,-1.005549 0.04961,-1.503784 0.03407,-0.332211 0.09116,-0.662584 0.148311,-0.992705 0.04716,-0.169067 0.09442,-0.338186 0.180868,-0.485241 0.06562,-0.111628 0.153587,-0.210612 0.241845,-0.309542 0.09391,-0.06466 0.188181,-0.129458 0.291972,-0.166398 0.103198,-0.03664 0.216215,-0.04599 0.329179,-0.05529 z m 15.538587,0 c 0.112652,0.0091 0.225179,0.01835 0.328145,0.05478 0.102785,0.03638 0.196258,0.100154 0.289388,0.163814 0.0894,0.105489 0.178877,0.210829 0.246497,0.328146 0.09616,0.166817 0.147877,0.357549 0.199987,0.548287 0.05113,0.310619 0.102566,0.621399 0.133326,0.933793 0.04844,0.491938 0.04654,0.987868 0.04444,1.484147 7e-4,0.5035 0.0013,1.007034 -0.04961,1.505851 -0.03405,0.33393 -0.09115,0.666032 -0.148311,0.997872 -0.04715,0.169069 -0.09441,0.337669 -0.180868,0.484725 -0.06562,0.111627 -0.154094,0.210612 -0.242362,0.309542 -0.09391,0.06466 -0.187668,0.129468 -0.291456,0.166398 -0.103196,0.03664 -0.216214,0.04599 -0.329178,0.05529 -0.112729,-0.0093 -0.225332,-0.01838 -0.328146,-0.05529 -0.102981,-0.03693 -0.195831,-0.101738 -0.288871,-0.166398 -0.08938,-0.106362 -0.178837,-0.212621 -0.246497,-0.330729 -0.09587,-0.167322 -0.148254,-0.357933 -0.200504,-0.548804 -0.05112,-0.310647 -0.102049,-0.621401 -0.132809,-0.933793 -0.04844,-0.491913 -0.04654,-0.988387 -0.04444,-1.484664 -8.2e-4,-0.502946 -0.002,-1.005549 0.04909,-1.503784 0.03407,-0.332211 0.09168,-0.662584 0.148828,-0.992705 0.04715,-0.169067 0.09389,-0.338186 0.180351,-0.485241 0.06562,-0.111628 0.154103,-0.210612 0.242363,-0.309542 0.09391,-0.06466 0.187664,-0.129458 0.291455,-0.166398 0.103195,-0.03664 0.216215,-0.04599 0.329179,-0.05529 z M -27.047445,106.1837 c -0.445402,0.0347 -0.890861,0.0694 -1.284159,0.23203 -0.374218,0.1547 -0.701315,0.42554 -1.028361,0.69608 -0.262455,0.34576 -0.525015,0.69157 -0.675411,1.07952 -0.165503,0.42694 -0.195509,0.90481 -0.225309,1.38286 0.02962,0.4532 0.05967,0.90641 0.214457,1.3131 0.142897,0.37544 0.392245,0.71115 0.641821,1.04696 0.297259,0.26659 0.594391,0.5334 0.942062,0.68575 0.339439,0.14872 0.727169,0.18851 1.11466,0.22841 0.341576,-0.0369 0.683205,-0.0736 0.977202,-0.21136 0.300978,-0.14099 0.55194,-0.38788 0.803051,-0.63458 -0.02573,0.48657 -0.05129,0.97327 -0.186552,1.43092 -0.08508,0.28787 -0.213681,0.56433 -0.342098,0.84077 -0.143675,0.15909 -0.287586,0.31818 -0.466638,0.40928 -0.166371,0.0846 -0.363259,0.11052 -0.560172,0.13642 -0.143136,-0.009 -0.285809,-0.0188 -0.413928,-0.0682 -0.118233,-0.0456 -0.223732,-0.12504 -0.329179,-0.20464 -0.08718,-0.1116 -0.174458,-0.22314 -0.232028,-0.34778 v -5.2e-4 c -0.07063,-0.15291 -0.09691,-0.32503 -0.122989,-0.49816 l -1.855184,0.20516 c 0.08232,0.37285 0.164446,0.74634 0.340031,1.07022 0.155201,0.28628 0.383255,0.53405 0.611332,0.78186 0.272482,0.18592 0.544892,0.37154 0.844909,0.47801 0.325434,0.11553 0.683449,0.13768 1.041281,0.15968 0.514616,-0.0491 1.02929,-0.0986 1.471744,-0.30386 0.436122,-0.20238 0.801877,-0.55642 1.167888,-0.91054 0.294851,-0.5211 0.590172,-1.0421 0.762744,-1.59783 0.231882,-0.74673 0.242631,-1.55595 0.253731,-2.36523 -0.01005,-0.78819 -0.02015,-1.57637 -0.243913,-2.30477 -0.165715,-0.53943 -0.448288,-1.04625 -0.731221,-1.55288 -0.346922,-0.34319 -0.694207,-0.68598 -1.110527,-0.88211 -0.414093,-0.19507 -0.89649,-0.24496 -1.379244,-0.29456 z m 4.112928,0.17105 4.004406,9.9999 h 2.134754 l 3.894852,-9.9999 h -2.141471 l -0.825789,2.27118 h -3.997172 l -0.872815,-2.27118 z m -4.208529,1.41852 c 0.18247,0.0254 0.365044,0.0508 0.521932,0.12712 0.174603,0.0849 0.317521,0.23325 0.460437,0.38137 0.125063,0.19933 0.249764,0.39838 0.321944,0.61444 0.08682,0.25987 0.09718,0.54382 0.107487,0.82785 -0.0082,0.25511 -0.01644,0.51015 -0.0956,0.74259 -0.06428,0.18875 -0.175184,0.36259 -0.286288,0.5364 -0.133242,0.12631 -0.266638,0.25285 -0.42478,0.32505 -0.154184,0.0704 -0.331677,0.0889 -0.50953,0.108 -0.183653,-0.0197 -0.367621,-0.0391 -0.525549,-0.11317 -0.161093,-0.0756 -0.295107,-0.20772 -0.429431,-0.34003 -0.110915,-0.19019 -0.222144,-0.38076 -0.286804,-0.58446 -0.08452,-0.26628 -0.0901,-0.55557 -0.0956,-0.84491 0.0039,-0.27911 0.0079,-0.55798 0.08888,-0.81494 0.06023,-0.19121 0.163232,-0.37035 0.266133,-0.54932 0.124919,-0.12136 0.249736,-0.24272 0.398942,-0.31212 0.146882,-0.0683 0.317406,-0.0862 0.487826,-0.10387 z m 7.926131,2.53783 h 2.728516 l -1.350305,3.71036 z m 225.916445,0.7121 c -0.54338,0.0516 -1.08701,0.10369 -1.54358,0.33124 -0.44264,0.2206 -0.80374,0.60624 -1.16478,0.99219 -0.2089,0.33531 -0.41754,0.67056 -0.53692,1.03508 -0.12096,0.36938 -0.15022,0.76904 -0.17932,1.1684 0.0307,0.46366 0.0614,0.92728 0.22169,1.34204 0.14802,0.38307 0.40655,0.72421 0.66508,1.06557 0.31143,0.27059 0.62331,0.54146 0.98443,0.69608 0.35989,0.15414 0.76898,0.19313 1.17823,0.23203 0.22356,-0.0143 0.44693,-0.0291 0.66146,-0.0806 0.22248,-0.0534 0.43527,-0.14699 0.64802,-0.24029 l -0.29973,1.69912 h -3.61528 v 1.79369 h 5.06791 l 0.98237,-5.20434 -1.55546,-0.22531 c -0.21804,0.21227 -0.43561,0.42532 -0.69712,0.54726 -0.23707,0.11058 -0.51006,0.14652 -0.7829,0.18242 -0.20878,-0.0177 -0.4176,-0.0354 -0.59944,-0.11524 -0.17494,-0.0768 -0.32491,-0.2109 -0.47491,-0.3452 -0.12,-0.18645 -0.24004,-0.37303 -0.30954,-0.57568 -0.0864,-0.25188 -0.0953,-0.52869 -0.10335,-0.80563 0.008,-0.2944 0.016,-0.58904 0.10438,-0.85886 0.0702,-0.2141 0.19066,-0.41272 0.31161,-0.61134 0.14441,-0.14224 0.2892,-0.28457 0.46251,-0.36587 0.16688,-0.0783 0.3603,-0.10025 0.55397,-0.12195 0.17088,0.0166 0.34176,0.0332 0.49454,0.0946 0.15715,0.0631 0.29505,0.17381 0.43305,0.28422 0.12131,0.14195 0.24276,0.28395 0.32246,0.44596 0.0873,0.17751 0.12445,0.37924 0.16175,0.58136 l 1.91048,-0.19843 c -0.0819,-0.39367 -0.16395,-0.78724 -0.34624,-1.12758 -0.17255,-0.32218 -0.43516,-0.59666 -0.69763,-0.87127 -0.3232,-0.21669 -0.64635,-0.43337 -1.00097,-0.55759 -0.39319,-0.1378 -0.82496,-0.16193 -1.25677,-0.18603 z m 3.9765,0.17053 4.00441,10.00042 h 2.13475 l 3.89537,-10.00042 h -2.14199 l -0.82527,2.2717 h -3.99769 l -0.87282,-2.2717 z m 3.7176,3.95635 h 2.72852 l -1.35031,3.71088 z M 88.603377,344.92055 c -0.516394,0.0489 -1.032379,0.098 -1.476395,0.30386 -0.436602,0.20238 -0.80333,0.5564 -1.169955,0.91053 -0.294865,0.52049 -0.589679,1.04109 -0.762227,1.59629 -0.231553,0.74506 -0.242978,1.5525 -0.254248,2.36006 0.0097,0.79163 0.01951,1.58341 0.243913,2.31511 0.165764,0.54049 0.448833,1.04818 0.731738,1.55597 0.347534,0.34319 0.694759,0.68653 1.11156,0.88264 0.415648,0.19557 0.900396,0.24474 1.384928,0.29404 0.442185,-0.0354 0.8845,-0.0711 1.274858,-0.23306 0.374241,-0.15526 0.700722,-0.42661 1.027327,-0.69815 0.263472,-0.34531 0.527074,-0.69054 0.677995,-1.07849 0.164914,-0.42395 0.195306,-0.89871 0.225826,-1.37356 -0.0291,-0.45649 -0.05813,-0.91342 -0.21394,-1.32292 -0.14293,-0.37568 -0.39278,-0.71136 -0.642338,-1.04748 -0.295558,-0.26559 -0.590935,-0.53135 -0.936894,-0.68316 -0.334878,-0.14698 -0.717057,-0.18759 -1.099158,-0.22789 -0.347179,0.0358 -0.694417,0.0716 -0.994254,0.2098 -0.30348,0.13984 -0.55841,0.38471 -0.813387,0.62942 0.0278,-0.48474 0.05581,-0.96958 0.191202,-1.42575 0.08525,-0.28721 0.213158,-0.5628 0.341065,-0.83871 0.141539,-0.15907 0.283079,-0.31818 0.460437,-0.40928 0.162896,-0.0836 0.355695,-0.10992 0.548804,-0.13642 0.146638,0.009 0.293436,0.018 0.42478,0.0682 0.11925,0.0456 0.225633,0.12514 0.332279,0.20464 0.08716,0.11102 0.174429,0.22157 0.232027,0.34571 0.07021,0.15129 0.09669,0.32212 0.12299,0.493 l 1.855184,-0.20412 c -0.07956,-0.37932 -0.159284,-0.75815 -0.334346,-1.08779 -0.150672,-0.28374 -0.371856,-0.53089 -0.593246,-0.77825 -0.269728,-0.1819 -0.53946,-0.36386 -0.835608,-0.46819 -0.3315,-0.11685 -0.696314,-0.13646 -1.060917,-0.15606 z m 3.512964,0.17725 4.004407,10.00042 h 2.134753 l 3.895369,-10.00042 h -2.14199 l -0.82527,2.27169 h -3.997689 l -0.872815,-2.27169 z m 3.717603,3.95635 h 2.728515 l -1.350305,3.71088 z m -7.435205,0.82579 c 0.183654,0.0196 0.367619,0.0391 0.525549,0.11317 0.161091,0.0756 0.295109,0.20773 0.429431,0.34003 0.11093,0.1896 0.222164,0.37922 0.286804,0.58239 0.08418,0.26461 0.0899,0.55263 0.0956,0.84026 -0.0037,0.28093 -0.0075,0.56187 -0.08785,0.82114 -0.05967,0.19243 -0.161648,0.37247 -0.26355,0.55294 -0.123904,0.12235 -0.247676,0.24481 -0.396358,0.31471 -0.146296,0.0688 -0.317023,0.0869 -0.487309,0.1049 -0.184108,-0.0253 -0.368189,-0.0503 -0.526066,-0.12764 -0.17458,-0.0855 -0.316902,-0.23487 -0.459404,-0.38396 -0.12408,-0.19974 -0.248297,-0.39926 -0.319877,-0.61546 -0.08571,-0.25881 -0.096,-0.54131 -0.106453,-0.82373 0.0081,-0.25522 0.01618,-0.51057 0.09457,-0.74362 0.06371,-0.18938 0.174105,-0.36426 0.28422,-0.53899 0.132228,-0.12735 0.264068,-0.25431 0.42168,-0.32711 0.153607,-0.0709 0.331298,-0.09 0.509013,-0.10903 z" /><path
       id="path141"
       style="fill:none;stroke:#000000;stroke-width:0.264583"
       d="m -41.727169,-138.89023 v 509.1436 h 36.4654747 v -4.57181 H 22.462712 v 4.57181 h 27.723889 v -4.57181 h 27.724406 v 4.57181 H 105.6349 v -4.57181 h 27.72388 v 4.57181 h 27.72441 v -4.57181 h 27.72389 v 4.57181 h 41.03781 v -46.64108 h -4.57182 V 295.8884 h 4.57182 v -27.72441 h -4.57182 V 240.4401 h 4.57182 v -27.7244 h -4.57182 v -27.72389 h 4.57182 v -27.72389 h -4.57182 v -27.72441 h 4.57182 v -27.72389 h -4.57182 V 74.095219 h 4.57182 V 46.37133 h -4.57182 V 18.647441 h 4.57182 V -9.0769653 h -4.57182 V -36.800854 h 4.57182 V -64.52526 h -4.57182 v -27.72389 h 4.57182 v -46.64108 h -41.03781 v 4.57181 h -27.72389 v -4.57181 h -27.72441 v 4.57181 H 105.6349 v -4.57181 H 77.911007 v 4.57181 H 50.186601 v -4.57181 H 22.462712 v 4.57181 H -5.2616943 v -4.57181 z m 216.672559,73.227055 c 8.28427,0 14.99961,6.715857 14.99961,15.000118 0,8.284259 -6.71534,15.000118 -14.99961,15.000118 -8.28425,0 -15.00011,-6.715859 -15.00011,-15.000118 0,-8.284261 6.71586,-15.000118 15.00011,-15.000118 z M 17.773075,45.681449 H 165.77283 c 0.55229,0 0.99995,0.447648 0.99994,0.999939 V 314.68157 c 1e-5,0.55229 -0.44765,0.99994 -0.99994,0.99994 H 17.773075 c -0.552291,0 -1.000466,-0.44765 -1.000455,-0.99994 V 46.681388 c -1.1e-5,-0.552291 0.448164,-0.999939 1.000455,-0.999939 z" /></g></svg>
