<?xml version="1.0" encoding="UTF-8" standalone="no"?>
<!-- Created with Inkscape (http://www.inkscape.org/) -->

<svg
   width="276.40845mm"
   height="519.40808mm"
   viewBox="0 0 276.40845 519.40808"
   version="1.1"
   id="svg1"
   xml:space="preserve"
   inkscape:version="1.3.2 (091e20e, 2023-11-25, custom)"
   sodipodi:docname="Left.svg"
   xmlns:inkscape="http://www.inkscape.org/namespaces/inkscape"
   xmlns:sodipodi="http://sodipodi.sourceforge.net/DTD/sodipodi-0.dtd"
   xmlns="http://www.w3.org/2000/svg"
   xmlns:svg="http://www.w3.org/2000/svg"><sodipodi:namedview
     id="namedview1"
     pagecolor="#ffffff"
     bordercolor="#000000"
     borderopacity="0.25"
     inkscape:showpageshadow="2"
     inkscape:pageopacity="0.0"
     inkscape:pagecheckerboard="0"
     inkscape:deskcolor="#d1d1d1"
     inkscape:document-units="mm"
     inkscape:zoom="0.69219276"
     inkscape:cx="733.17727"
     inkscape:cy="366.22746"
     inkscape:window-width="1920"
     inkscape:window-height="991"
     inkscape:window-x="1647"
     inkscape:window-y="-9"
     inkscape:window-maximized="1"
     inkscape:current-layer="layer1" /><defs
     id="defs1"><marker
       id="DistanceX"
       orient="auto"
       refX="0"
       refY="0"
       style="overflow:visible"><path
         d="M 3,-3 -3,3 M 0,-5 V 5"
         style="stroke:#000000;stroke-width:0.5"
         id="path1" /></marker><pattern
       id="Hatch"
       patternUnits="userSpaceOnUse"
       width="8"
       height="8"
       x="0"
       y="0"><path
         d="M8 4 l-4,4"
         stroke="#000000"
         stroke-width="0.25"
         linecap="square"
         id="path2" /><path
         d="M6 2 l-4,4"
         stroke="#000000"
         stroke-width="0.25"
         linecap="square"
         id="path3" /><path
         d="M4 0 l-4,4"
         stroke="#000000"
         stroke-width="0.25"
         linecap="square"
         id="path4" /></pattern><symbol
       id="*MODEL_SPACE" /><symbol
       id="*PAPER_SPACE" /></defs><g
     inkscape:label="Layer 1"
     inkscape:groupmode="layer"
     id="layer1"
     transform="translate(33.279622,111.20406)"><path
       id="path15"
       style="fill:none;stroke:#000000;stroke-width:0.264583"
       d="m 94.79163,-92.658944 v 1.780253 l 3.805969,5.17e-4 c -0.05571,0.08947 -0.111406,0.178443 -0.173116,0.263033 -0.06815,0.09342 -0.143618,0.181721 -0.219108,0.269751 -0.135184,0.138535 -0.270182,0.276806 -0.408244,0.412378 -0.241132,0.236829 -0.491125,0.464711 -0.74104,0.692464 -0.261293,0.239659 -0.522592,0.479146 -0.767395,0.734839 -0.167735,0.175181 -0.327832,0.357842 -0.487825,0.540536 -0.160182,0.21283 -0.320129,0.425915 -0.454236,0.654223 -0.1177,0.200395 -0.215539,0.412468 -0.313159,0.624768 -0.07063,0.206984 -0.141025,0.414111 -0.181385,0.626835 -0.04093,0.215768 -0.05066,0.437724 -0.06046,0.659392 0.03442,0.378645 0.06874,0.756943 0.211357,1.089339 0.140977,0.328586 0.387886,0.612184 0.634586,0.895553 0.323011,0.232488 0.645664,0.464851 1.004073,0.598413 0.409704,0.152691 0.865925,0.176191 1.321883,0.199471 0.423561,-0.02286 0.847225,-0.04559 1.238168,-0.172083 0.355649,-0.115067 0.684203,-0.315945 1.012852,-0.516764 0.27145,-0.288184 0.54276,-0.576095 0.71779,-0.912089 0.21171,-0.406426 0.28225,-0.882826 0.35295,-1.358574 l -1.909959,-0.192236 c -0.02069,0.248616 -0.04145,0.496544 -0.129708,0.719853 -0.06715,0.169889 -0.173308,0.325584 -0.27957,0.481107 -0.13285,0.105385 -0.265598,0.210922 -0.415995,0.271302 -0.165468,0.0663 -0.352279,0.07852 -0.538985,0.09043 -0.187341,-0.01048 -0.374813,-0.02113 -0.541569,-0.0863 -0.147436,-0.05763 -0.278449,-0.158 -0.409794,-0.258382 -0.100315,-0.134328 -0.200653,-0.268614 -0.258383,-0.41858 -0.06731,-0.174835 -0.0769,-0.370781 -0.0863,-0.56689 0.01983,-0.198702 0.03997,-0.397637 0.09922,-0.583427 0.06615,-0.207407 0.181335,-0.398851 0.296622,-0.590145 0.178276,-0.210952 0.356706,-0.422004 0.544153,-0.624251 0.329554,-0.355574 0.686996,-0.684168 1.044898,-1.012858 0.465721,-0.43315 0.931751,-0.866112 1.3441,-1.346171 0.28792,-0.335201 0.54994,-0.693555 0.81184,-1.051616 0.16352,-0.303952 0.32663,-0.607834 0.43615,-0.930175 0.10734,-0.315939 0.16319,-0.649208 0.21859,-0.983403 z m 7.12153,0.001 4.00389,9.999906 h 2.13527 l 3.89485,-9.999906 h -2.14199 l -0.82527,2.271179 h -3.99717 l -0.87333,-2.271179 z m 3.7176,3.956348 h 2.72852 l -1.35082,3.710884 z m 65.81769,25.98291 c -0.45308,0.03709 -0.90596,0.07419 -1.29243,0.255798 -0.36323,0.170709 -0.66762,0.46905 -0.97203,0.767395 -0.28482,0.536334 -0.56985,1.072905 -0.73691,1.640727 -0.22766,0.773878 -0.23646,1.606232 -0.24546,2.438611 0.008,0.832932 0.0163,1.665752 0.24391,2.440161 0.16602,0.564751 0.44896,1.098304 0.73174,1.631941 0.30568,0.302339 0.61089,0.604799 0.97669,0.777731 0.38664,0.182802 0.84065,0.221205 1.29449,0.259415 0.45308,-0.03709 0.90646,-0.07419 1.29294,-0.255798 0.36323,-0.170683 0.66763,-0.469025 0.97204,-0.767395 0.28484,-0.535171 0.56938,-1.070347 0.73639,-1.637109 0.22707,-0.770546 0.23646,-1.599365 0.24546,-2.428276 -0.001,-0.831689 -0.003,-1.663571 -0.22324,-2.439644 -0.15306,-0.538242 -0.41168,-1.049655 -0.67025,-1.561145 -0.32268,-0.327263 -0.6453,-0.654804 -1.03507,-0.841809 -0.39376,-0.188938 -0.85604,-0.234803 -1.31827,-0.280603 z m 18.79265,0 c -0.50237,0.02524 -1.00478,0.05079 -1.46916,0.198954 -0.41627,0.13282 -0.80177,0.364239 -1.18752,0.595829 -0.32843,0.31668 -0.65716,0.633183 -0.89814,1.005107 -0.27664,0.426984 -0.43811,0.927055 -0.59945,1.427303 l 1.95802,0.620117 c 0.0863,-0.330372 0.17267,-0.661141 0.33435,-0.951363 0.13232,-0.23749 0.31482,-0.447988 0.49764,-0.658358 0.2041,-0.149225 0.40826,-0.298686 0.63614,-0.383956 0.23298,-0.08721 0.49096,-0.107271 0.74879,-0.127641 0.34561,0.0322 0.69124,0.06421 0.98909,0.201022 0.2921,0.13417 0.53828,0.369333 0.78445,0.604097 0.19777,0.351578 0.39552,0.702883 0.51159,1.077454 0.15883,0.512497 0.16454,1.068207 0.17054,1.623673 -0.009,0.527764 -0.0173,1.055586 -0.17312,1.539958 -0.1174,0.36486 -0.31842,0.705161 -0.51935,1.045414 -0.25091,0.232754 -0.50195,0.465381 -0.79737,0.598413 -0.3042,0.137002 -0.65526,0.168221 -1.00665,0.199471 -0.2552,-0.0164 -0.51069,-0.03288 -0.74466,-0.112654 -0.22032,-0.07509 -0.42173,-0.206161 -0.62322,-0.337447 -0.17227,-0.167111 -0.34479,-0.334439 -0.46664,-0.532268 -0.12877,-0.209046 -0.20086,-0.452559 -0.27336,-0.696081 l -1.99885,0.478524 c 0.11808,0.366671 0.23622,0.733626 0.42633,1.059883 0.16346,0.280537 0.38016,0.531105 0.59686,0.781348 0.42259,0.316204 0.84524,0.632333 1.31827,0.813387 0.51446,0.196932 1.08883,0.234181 1.66295,0.271301 0.65957,-0.05032 1.31868,-0.101001 1.89756,-0.345715 0.54508,-0.230425 1.01887,-0.63282 1.49241,-1.035596 0.37543,-0.534827 0.75082,-1.06992 0.96687,-1.660364 0.25201,-0.688788 0.28736,-1.45344 0.32246,-2.217952 -0.0382,-0.728079 -0.0768,-1.455766 -0.32091,-2.109949 -0.21457,-0.574938 -0.58809,-1.092886 -0.9617,-1.610754 -0.46278,-0.396875 -0.92565,-0.79373 -1.45986,-1.02061 -0.55366,-0.235161 -1.18396,-0.287997 -1.81436,-0.340547 z m -13.88804,0.170532 v 10.000423 h 2.019 v -3.936194 h 3.95635 v 3.936194 h 2.01899 V -62.54812 h -2.01899 v 4.37286 h -3.95635 v -4.37286 z m -12.6261,5.17e-4 c -0.0209,0.472427 -0.0418,0.945301 -0.10491,1.412317 -0.0724,0.535807 -0.20019,1.064096 -0.32814,1.59215 -0.16277,0.551762 -0.32583,1.103482 -0.54002,1.634526 -0.21264,0.527208 -0.47567,1.034236 -0.73897,1.540991 -0.26152,0.451591 -0.52335,0.903072 -0.83251,1.319816 -0.25179,0.339408 -0.53522,0.655779 -0.81856,0.972551 v 1.392163 h 6.55516 v -1.78077 l -4.35839,-5.17e-4 c 0.42959,-0.590866 0.859,-1.181475 1.21491,-1.813326 0.36678,-0.651112 0.65506,-1.34616 0.94361,-2.041219 0.23748,-0.705405 0.47535,-1.41051 0.61857,-2.134753 0.1358,-0.686752 0.18671,-1.390733 0.23771,-2.093929 z m 7.72149,1.418518 c 0.11265,0.0091 0.22519,0.01832 0.32815,0.05478 0.10277,0.03638 0.19628,0.09964 0.28938,0.163297 0.0894,0.10549 0.1789,0.211346 0.2465,0.328662 0.0962,0.16682 0.14789,0.357578 0.19999,0.548287 0.0511,0.310648 0.10252,0.62091 0.13332,0.933277 0.0483,0.491938 0.0464,0.988385 0.0444,1.484664 7e-4,0.503473 0.001,1.007032 -0.0496,1.505851 -0.034,0.333929 -0.0911,0.665514 -0.14831,0.997355 -0.0472,0.169042 -0.0944,0.338187 -0.18086,0.485242 -0.0656,0.111601 -0.15407,0.210593 -0.24237,0.309541 -0.0939,0.06466 -0.18765,0.129459 -0.29145,0.166399 -0.10319,0.03664 -0.21621,0.04599 -0.32918,0.05529 -0.11273,-0.0093 -0.22533,-0.01841 -0.32815,-0.05529 -0.10298,-0.03694 -0.19638,-0.101739 -0.28938,-0.166399 -0.0894,-0.106361 -0.17838,-0.212619 -0.24598,-0.330729 -0.0959,-0.167349 -0.14831,-0.358424 -0.20051,-0.54932 -0.0511,-0.310621 -0.10252,-0.620884 -0.13332,-0.933277 -0.0483,-0.491938 -0.0459,-0.988386 -0.0439,-1.484663 -8e-4,-0.502947 -0.002,-1.006092 0.0491,-1.504301 0.0341,-0.332237 0.0917,-0.662041 0.14883,-0.992188 0.0472,-0.169042 0.0939,-0.338186 0.18035,-0.485242 0.0656,-0.111625 0.15407,-0.210591 0.24237,-0.309541 0.0939,-0.06466 0.18766,-0.129439 0.29145,-0.166399 0.1032,-0.03664 0.21621,-0.04599 0.32918,-0.05529 z m -3.13108,14.017749 c -0.45306,0.03707 -0.90595,0.07416 -1.29242,0.255798 -0.36324,0.170683 -0.66764,0.469051 -0.97204,0.767395 -0.28482,0.536364 -0.56984,1.072389 -0.7369,1.64021 -0.22766,0.773904 -0.23647,1.606261 -0.24547,2.438611 0.008,0.83296 0.0163,1.666271 0.24392,2.440678 0.16602,0.564751 0.44896,1.098331 0.73174,1.631942 0.30568,0.302338 0.6114,0.604798 0.9772,0.77773 0.38666,0.182802 0.84015,0.220699 1.29397,0.258899 0.45308,-0.03709 0.90648,-0.07419 1.29295,-0.255799 0.36323,-0.170707 0.66763,-0.469051 0.97203,-0.767395 0.28485,-0.535171 0.56938,-1.070373 0.73639,-1.637109 0.22707,-0.770544 0.23698,-1.599363 0.24598,-2.428276 -0.001,-0.831716 -0.003,-1.663597 -0.22376,-2.439644 -0.15306,-0.538266 -0.41167,-1.049653 -0.67024,-1.561145 -0.32268,-0.32729 -0.64531,-0.654258 -1.03508,-0.841292 -0.39376,-0.188941 -0.85604,-0.234833 -1.31827,-0.280603 z m 7.76956,0 c -0.45308,0.03707 -0.90595,0.07416 -1.29243,0.255798 -0.36323,0.170683 -0.66765,0.469051 -0.97203,0.767395 -0.28482,0.536364 -0.56985,1.072389 -0.73691,1.64021 -0.22767,0.773904 -0.23646,1.606261 -0.24546,2.438611 0.008,0.83296 0.0162,1.666271 0.24391,2.440678 0.16602,0.564751 0.44896,1.098331 0.73174,1.631942 0.30568,0.302338 0.61089,0.604798 0.97668,0.77773 0.38667,0.182802 0.84066,0.220699 1.2945,0.258899 0.45308,-0.03709 0.90647,-0.07419 1.29294,-0.255799 0.36324,-0.170707 0.66763,-0.469051 0.97203,-0.767395 0.28484,-0.535171 0.56938,-1.070373 0.73639,-1.637109 0.22706,-0.770544 0.23647,-1.599363 0.24547,-2.428276 -0.001,-0.831716 -0.003,-1.663597 -0.22325,-2.439644 -0.15307,-0.538266 -0.41167,-1.049653 -0.67024,-1.561145 -0.32268,-0.32729 -0.64531,-0.654258 -1.03508,-0.841292 -0.39375,-0.188941 -0.85603,-0.234833 -1.31826,-0.280603 z m 15.5391,0 c -0.45308,0.03707 -0.90648,0.07416 -1.29294,0.255798 -0.36323,0.170683 -0.66764,0.469051 -0.97204,0.767395 -0.28482,0.536364 -0.56933,1.072389 -0.73639,1.64021 -0.22767,0.773904 -0.23646,1.606261 -0.24546,2.438611 0.008,0.83296 0.0157,1.666271 0.2434,2.440678 0.16602,0.564751 0.44894,1.098331 0.73173,1.631942 0.30567,0.302338 0.61143,0.604798 0.9772,0.77773 0.38667,0.182802 0.84066,0.220699 1.2945,0.258899 0.45308,-0.03709 0.90595,-0.07419 1.29243,-0.255799 0.36323,-0.170707 0.66763,-0.469051 0.97203,-0.767395 0.28484,-0.535171 0.5699,-1.070373 0.73691,-1.637109 0.22706,-0.770544 0.23646,-1.599363 0.24546,-2.428276 -0.001,-0.831716 -0.003,-1.663597 -0.22324,-2.439644 -0.15305,-0.538266 -0.41169,-1.049653 -0.67025,-1.561145 -0.32269,-0.32729 -0.64533,-0.654258 -1.03507,-0.841292 -0.39376,-0.188941 -0.85604,-0.234833 -1.31827,-0.280603 z m -9.43405,0.169498 v 10.040731 l 1.55546,5.17e-4 c 0.1372,-0.298569 0.27453,-0.597437 0.46561,-0.856278 0.20568,-0.278606 0.47348,-0.510578 0.74155,-0.742591 0.27479,-0.205608 0.54954,-0.411342 0.8475,-0.575675 0.25004,-0.137901 0.5165,-0.24687 0.78289,-0.355534 v -1.739946 c -0.45762,0.176952 -0.91502,0.353053 -1.3317,0.59893 -0.40751,0.240454 -0.77624,0.547774 -1.14463,0.855245 v -7.225399 z m -6.10505,1.419552 c 0.11265,0.0091 0.22569,0.01835 0.32866,0.05478 0.10278,0.03638 0.19577,0.100154 0.28887,0.163814 0.0894,0.10549 0.1789,0.210856 0.2465,0.328146 0.0962,0.16682 0.14788,0.357548 0.19998,0.548287 0.0511,0.310618 0.10253,0.6214 0.13333,0.933793 0.0483,0.491938 0.0464,0.987868 0.0444,1.484147 7e-4,0.5035 0.001,1.007034 -0.0496,1.505851 -0.0341,0.333931 -0.0912,0.666032 -0.14831,0.997872 -0.0471,0.169069 -0.0944,0.338187 -0.18087,0.485242 -0.0656,0.111628 -0.15406,0.210612 -0.24236,0.309542 -0.0939,0.06467 -0.18766,0.128921 -0.29145,0.165881 -0.1032,0.03661 -0.21621,0.04651 -0.32918,0.05581 -0.11273,-0.0093 -0.22534,-0.01893 -0.32815,-0.05581 -0.10299,-0.03696 -0.19587,-0.101221 -0.28887,-0.165881 -0.0894,-0.106363 -0.1789,-0.212646 -0.2465,-0.33073 -0.0959,-0.167347 -0.1482,-0.35845 -0.2005,-0.54932 -0.0511,-0.310648 -0.10253,-0.621428 -0.13333,-0.933793 -0.0483,-0.49194 -0.0459,-0.988387 -0.0439,-1.484664 -8e-4,-0.50292 -0.001,-1.005576 0.0496,-1.503784 0.0341,-0.332238 0.0911,-0.662585 0.14831,-0.992705 0.0472,-0.169067 0.0939,-0.338185 0.18035,-0.485241 0.0656,-0.111628 0.15406,-0.210075 0.24236,-0.309025 0.0939,-0.06466 0.18767,-0.129458 0.29146,-0.166398 0.10319,-0.03664 0.21622,-0.04651 0.32918,-0.05581 z m 15.5391,0 c 0.11266,0.0091 0.22517,0.01835 0.32814,0.05478 0.10278,0.03638 0.19578,0.100154 0.28888,0.163814 0.0894,0.10549 0.17889,0.210856 0.24649,0.328146 0.0962,0.16682 0.14841,0.357548 0.20051,0.548287 0.0511,0.310618 0.10201,0.6214 0.13281,0.933793 0.0483,0.491938 0.0464,0.987868 0.0444,1.484147 7e-4,0.5035 0.001,1.007034 -0.0496,1.505851 -0.0341,0.333931 -0.0911,0.666032 -0.14831,0.997872 -0.0472,0.169069 -0.0939,0.338187 -0.18035,0.485242 -0.0656,0.111628 -0.15407,0.210612 -0.24237,0.309542 -0.0939,0.06467 -0.18766,0.128921 -0.29145,0.165881 -0.1032,0.03661 -0.21621,0.04651 -0.32918,0.05581 -0.11273,-0.0093 -0.22585,-0.01893 -0.32866,-0.05581 -0.10298,-0.03696 -0.19587,-0.101221 -0.28887,-0.165881 -0.0894,-0.106363 -0.1788,-0.212646 -0.2465,-0.33073 -0.0959,-0.167347 -0.14821,-0.35845 -0.20051,-0.54932 -0.0511,-0.310648 -0.102,-0.621428 -0.1328,-0.933793 -0.0483,-0.49194 -0.0464,-0.988387 -0.0444,-1.484664 -8e-4,-0.50292 -0.001,-1.005576 0.0496,-1.503784 0.0341,-0.332238 0.0911,-0.662585 0.14832,-0.992705 0.0472,-0.169067 0.0944,-0.338185 0.18086,-0.485241 0.0656,-0.111628 0.15407,-0.210075 0.24237,-0.309025 0.0939,-0.06466 0.18765,-0.129458 0.29145,-0.166398 0.10319,-0.03664 0.21622,-0.04651 0.32918,-0.05581 z m -23.30866,5.17e-4 c 0.11265,0.0091 0.22571,0.01783 0.32867,0.05426 0.10279,0.03638 0.19577,0.100154 0.28887,0.163814 0.0894,0.10549 0.17889,0.210856 0.24649,0.328146 0.0961,0.16682 0.14841,0.357548 0.20051,0.548287 0.0511,0.310618 0.10201,0.6214 0.13281,0.933793 0.0483,0.491938 0.0464,0.987868 0.0444,1.484147 7e-4,0.5035 0.001,1.007034 -0.0496,1.505851 -0.034,0.333931 -0.0911,0.666032 -0.14831,0.997872 -0.0472,0.169069 -0.0944,0.338187 -0.18087,0.485242 -0.0656,0.111628 -0.15406,0.210612 -0.24236,0.309542 -0.0939,0.06467 -0.18767,0.128921 -0.29146,0.165881 -0.10319,0.03661 -0.21622,0.04651 -0.32918,0.05581 -0.11273,-0.0093 -0.22532,-0.01893 -0.32814,-0.05581 -0.10298,-0.03696 -0.19587,-0.101221 -0.28887,-0.165881 -0.0894,-0.106363 -0.1789,-0.212646 -0.2465,-0.33073 -0.0959,-0.167347 -0.1482,-0.35845 -0.2005,-0.54932 -0.0511,-0.310648 -0.10201,-0.621428 -0.13281,-0.933793 -0.0483,-0.49194 -0.0464,-0.988387 -0.0444,-1.484664 -8e-4,-0.50292 -0.001,-1.005576 0.0496,-1.503784 0.0341,-0.332238 0.0912,-0.662585 0.14831,-0.992705 0.0472,-0.169067 0.0944,-0.338185 0.18087,-0.485241 0.0656,-0.111628 0.15354,-0.210075 0.24184,-0.309025 0.0939,-0.06466 0.18767,-0.129458 0.29146,-0.166398 0.1032,-0.03664 0.2162,-0.04599 0.32917,-0.05529 z M -8.39587,119.72086 l 4.00389,9.9999 h 2.1347534 l 3.8953695,-9.9999 h -2.14198811 l -0.82527259,2.27118 h -3.9971721 l -0.8733317,-2.27118 z m -3.840592,5.1e-4 c -0.02083,0.47235 -0.0418,0.94531 -0.104904,1.41232 -0.07239,0.53584 -0.200201,1.06359 -0.328145,1.59164 -0.162774,0.55176 -0.325834,1.10348 -0.540019,1.63452 -0.212637,0.52718 -0.475665,1.03421 -0.738973,1.54099 -0.261516,0.45159 -0.523346,0.90305 -0.832507,1.31982 -0.251785,0.33941 -0.535132,0.65572 -0.818555,0.97255 v 1.39216 h 6.5551558 v -1.78025 l -4.3583898,-5.2e-4 c 0.429544,-0.59092 0.859004,-1.18149 1.214912,-1.81332 0.366781,-0.65114 0.655572,-1.34616 0.944129,-2.04122 0.237482,-0.7054 0.474834,-1.411 0.61805,-2.13527 0.135798,-0.68673 0.186682,-1.39027 0.237712,-2.09342 z m 228.716792,2.40761 c -0.4454,0.0347 -0.89086,0.0694 -1.28416,0.23203 -0.37423,0.15471 -0.70083,0.42505 -1.02785,0.69556 -0.26247,0.34576 -0.52502,0.69156 -0.67541,1.07952 -0.16551,0.42693 -0.19551,0.90481 -0.22531,1.38286 0.0296,0.4532 0.0592,0.90641 0.21394,1.3131 0.1429,0.37544 0.39276,0.71167 0.64234,1.04748 0.29726,0.26657 0.59439,0.53286 0.94206,0.68523 0.33943,0.14873 0.72667,0.18851 1.11415,0.22841 0.34158,-0.0369 0.68319,-0.0736 0.9772,-0.21135 0.30096,-0.14097 0.55245,-0.38737 0.80357,-0.63407 -0.0257,0.48654 -0.0518,0.97275 -0.18707,1.4304 -0.0851,0.28787 -0.21318,0.56438 -0.34158,0.84077 -0.1437,0.15912 -0.2876,0.31818 -0.46664,0.40928 -0.16637,0.0846 -0.36327,0.11053 -0.56017,0.13643 -0.14314,-0.009 -0.28634,-0.0188 -0.41445,-0.0682 -0.11824,-0.0455 -0.22372,-0.12514 -0.32918,-0.20464 -0.0872,-0.11163 -0.17391,-0.22312 -0.23151,-0.34779 -0.0705,-0.15291 -0.0966,-0.3253 -0.12299,-0.49764 l -1.85518,0.20412 c 0.0822,0.37337 0.16443,0.74634 0.34003,1.07022 0.15521,0.28628 0.38326,0.53407 0.61133,0.78187 0.27249,0.18593 0.54487,0.37206 0.84491,0.47852 0.32541,0.11544 0.68346,0.13716 1.04128,0.15916 0.51462,-0.0491 1.02929,-0.098 1.47175,-0.30334 0.4361,-0.20238 0.80188,-0.55639 1.16788,-0.91054 0.29488,-0.52107 0.58967,-1.0421 0.76223,-1.59783 0.23188,-0.74673 0.24315,-1.55647 0.25425,-2.36575 -0.01,-0.78817 -0.0202,-1.57588 -0.24391,-2.30425 -0.16574,-0.53943 -0.4488,-1.04625 -0.73174,-1.55288 -0.34692,-0.34322 -0.69368,-0.68652 -1.11001,-0.88263 -0.41407,-0.19506 -0.897,-0.24444 -1.37976,-0.29404 z m 4.11344,0.17053 4.00389,9.99991 h 2.13527 l 3.89485,-9.99991 h -2.14198 l -0.82528,2.2717 h -3.99717 l -0.87333,-2.2717 z m -225.2720374,1.3777 h 2.7285156 l -1.3508219,3.71088 z m 221.0629874,0.0408 c 0.18248,0.0254 0.36507,0.0508 0.52194,0.12712 0.1746,0.0849 0.31753,0.23329 0.46043,0.38138 0.12507,0.19936 0.25026,0.3989 0.32246,0.61495 0.0868,0.25985 0.0972,0.54379 0.10749,0.82785 -0.008,0.25511 -0.0164,0.51015 -0.0956,0.74259 -0.0643,0.18875 -0.17519,0.36262 -0.28629,0.5364 -0.13324,0.12634 -0.26664,0.25233 -0.42478,0.32453 -0.15417,0.0704 -0.33218,0.0895 -0.51004,0.10852 -0.18364,-0.0196 -0.36711,-0.0396 -0.52504,-0.11369 -0.16108,-0.0756 -0.29561,-0.20774 -0.42994,-0.34003 -0.11091,-0.19019 -0.22159,-0.38024 -0.28629,-0.58394 -0.0844,-0.26628 -0.0896,-0.55554 -0.0956,-0.84491 0.004,-0.27908 0.008,-0.55851 0.0889,-0.81545 0.0602,-0.19122 0.16272,-0.36987 0.26562,-0.54881 0.12491,-0.12136 0.25026,-0.24282 0.39946,-0.31212 0.14687,-0.0682 0.3169,-0.0864 0.4873,-0.10439 z m 7.92665,2.53783 h 2.72852 l -1.35082,3.71088 z M 96.132117,372.76071 c -0.453078,0.0371 -0.906468,0.0742 -1.292945,0.2558 -0.363231,0.17071 -0.667634,0.46905 -0.972033,0.76739 -0.284821,0.53637 -0.569333,1.07238 -0.736389,1.64021 -0.227687,0.77388 -0.236564,1.60626 -0.245464,2.43861 0.0081,0.83296 0.01574,1.66627 0.243396,2.44068 0.16602,0.56476 0.448958,1.09832 0.731739,1.63194 0.305674,0.30234 0.611404,0.60426 0.977201,0.77722 0.386662,0.18279 0.840658,0.22121 1.294495,0.25941 0.453076,-0.0371 0.905952,-0.0742 1.292427,-0.2558 0.363231,-0.17068 0.667631,-0.46905 0.972034,-0.76739 0.284843,-0.5352 0.569896,-1.07037 0.736906,-1.63711 0.227075,-0.77055 0.236163,-1.59934 0.245463,-2.42828 -0.0014,-0.83167 -0.0026,-1.66356 -0.223242,-2.43964 -0.153062,-0.53824 -0.411678,-1.04968 -0.670244,-1.56115 -0.322679,-0.32727 -0.645314,-0.65476 -1.035079,-0.8418 -0.393759,-0.18893 -0.85604,-0.23429 -1.318265,-0.28009 z m 6.105053,0.17002 v 10.04073 l 1.55494,5.1e-4 c 0.13728,-0.29889 0.27452,-0.59795 0.46561,-0.85679 0.20568,-0.2786 0.474,-0.51055 0.74207,-0.74259 0.27479,-0.20561 0.54954,-0.41138 0.8475,-0.57568 0.25003,-0.13791 0.51608,-0.24668 0.78238,-0.35502 v -1.74046 c -0.45754,0.17662 -0.91503,0.35305 -1.3317,0.59893 -0.40751,0.24045 -0.77577,0.54773 -1.14412,0.85421 v -7.22384 z m 5.55212,5.1e-4 4.0044,9.99991 h 2.13476 l 3.89537,-9.99991 h -2.14199 l -0.82527,2.27118 h -3.99769 l -0.87282,-2.27118 z m -11.657173,1.41852 c 0.112654,0.009 0.225179,0.0184 0.328145,0.0548 0.102785,0.0364 0.195741,0.10011 0.288871,0.16381 0.0894,0.10549 0.178877,0.21083 0.246497,0.32815 0.09616,0.16682 0.148394,0.35754 0.200504,0.54828 0.05112,0.31062 0.102049,0.6214 0.132809,0.9338 0.04844,0.49194 0.04654,0.98786 0.04444,1.48414 7.1e-4,0.5035 0.0012,1.00705 -0.04961,1.50586 -0.03405,0.33392 -0.09115,0.66603 -0.148311,0.99787 -0.04715,0.16906 -0.09389,0.33767 -0.180351,0.48472 -0.06562,0.11163 -0.154092,0.21064 -0.242362,0.30954 -0.09391,0.0647 -0.187667,0.1295 -0.291455,0.1664 -0.103196,0.0366 -0.216215,0.0463 -0.329179,0.0553 -0.112729,-0.009 -0.22585,-0.0184 -0.328662,-0.0553 -0.102981,-0.0369 -0.195832,-0.1017 -0.288872,-0.1664 -0.08938,-0.10636 -0.178836,-0.21262 -0.246496,-0.33073 -0.09587,-0.16733 -0.147728,-0.35793 -0.199988,-0.5488 -0.05112,-0.31065 -0.102565,-0.6214 -0.133325,-0.93379 -0.04844,-0.49191 -0.04654,-0.98839 -0.04444,-1.48467 -8.2e-4,-0.50295 -0.0015,-1.00554 0.04961,-1.50378 0.03407,-0.33221 0.09116,-0.66258 0.148312,-0.9927 0.04716,-0.16907 0.09441,-0.33819 0.180867,-0.48525 0.06562,-0.11163 0.154093,-0.21064 0.242363,-0.30954 0.09391,-0.0647 0.187664,-0.1295 0.291455,-0.1664 0.103195,-0.0366 0.216215,-0.0463 0.329179,-0.0553 z m 15.374773,2.53783 h 2.72851 l -1.3503,3.71037 z" /><path
       id="path149"
       style="fill:none;stroke:#000000;stroke-width:0.264583"
       d="m -28.575517,-111.07177 v 46.641077 h -4.571814 v 27.72389 h 4.571814 v 27.7244055 h -4.571814 V 18.741492 h 4.571814 v 27.724406 h -4.571814 v 27.723889 h 4.571814 v 27.723893 h -4.571814 v 27.7244 h 4.571814 v 27.72389 h -4.571814 v 27.72441 h 4.571814 v 27.72389 h -4.571814 v 27.72389 h 4.571814 v 27.7244 h -4.571814 v 27.72389 h 4.571814 v 27.72441 h -4.571814 v 27.72389 h 4.571814 v 46.64108 h 6.923092 c 0.357267,0 0.68695,0.19082 0.86558,0.50022 l 5.196582,8.99997 c 0.178638,0.30939 0.508319,0.49971 0.86558,0.49971 h 8.7643233 c 0.3572613,0 0.6874592,-0.19032 0.866097,-0.49971 l 5.19606527,-8.99997 c 0.17862976,-0.3094 0.50883037,-0.50022 0.86609701,-0.50022 H 7.8904744 v -4.57182 H 35.614364 v 4.57182 H 63.33877 v -4.57182 h 27.723889 v 4.57182 h 27.723891 v -4.57182 h 27.7244 v 4.57182 h 27.72389 v -4.57182 h 27.72441 v 4.57182 h 6.92257 c 0.35727,0 0.68747,0.19081 0.8661,0.50022 l 5.19607,8.99997 c 0.17864,0.30939 0.50883,0.49972 0.86609,0.49971 h 8.76381 c 0.35726,10e-6 0.68746,-0.19032 0.8661,-0.49971 l 5.19606,-8.99997 c 0.17863,-0.30941 0.50883,-0.50022 0.8661,-0.50022 h 11.49439 v -509.1436 h -41.03729 v 4.57181 h -27.72441 v -4.57181 h -27.72389 v 4.57181 h -27.7244 v -4.57181 H 91.062659 v 4.57181 H 63.33877 v -4.57181 H 35.614364 v 4.57181 H 7.8904744 v -4.57181 z m 46.000293,88.071624 H 30.4245 c 0.552279,1e-6 1.000451,0.447659 1.000455,0.999938 v 8.000029 c -4e-6,0.552279 -0.448176,0.999938 -1.000455,0.999939 H 17.424776 c -0.55228,0 -0.999935,-0.447659 -0.999939,-0.999939 v -8.000029 c 4e-6,-0.55228 0.447659,-0.999938 0.999939,-0.999938 z M -26.575122,50.49976 h 4.571814 v 20.00033 h -4.571814 z m 258.427632,0 h 4.57234 v 20.00033 h -4.57234 z M 8.9245199,61.500639 c 0.9999979,0 2.0000971,0.666329 2.0003951,1.999361 5.96e-4,2.666063 -3.9996769,2.666063 -4.0002731,0 -2.981e-4,-1.333032 0.99988,-1.999361 1.999878,-1.999361 z m 29.9997191,0 c 0.999998,0 1.999973,0.666452 2.000395,1.999361 8.43e-4,2.665816 -3.998913,2.665816 -3.999756,0 -4.22e-4,-1.332909 0.999363,-1.999361 1.999361,-1.999361 z m 66.000621,43.405621 c 21.31573,0 38.59671,17.27777 38.59971,38.59351 -0.003,21.31574 -17.28398,38.59402 -38.59971,38.59402 -21.315717,0 -38.596826,-17.27828 -38.600226,-38.59402 0.0034,-21.31574 17.284509,-38.59351 38.600226,-38.59351 z m 35.74976,0.6935 c 1.075,0 2.15025,0.71692 2.15025,2.15025 0,2.86667 -4.29999,2.86667 -4.29999,0 0,-1.43333 1.07474,-2.15025 2.14974,-2.15025 z m -71.502098,0.002 c 1.075,0 2.151023,0.71617 2.152323,2.14819 0.0026,2.86404 -4.297396,2.86404 -4.299996,0 -0.0013,-1.43202 1.072673,-2.14819 2.147673,-2.14819 z M 8.9245199,171.50064 c 0.9999979,0 2.0000971,0.66634 2.0003951,1.99936 5.96e-4,2.66607 -3.9996769,2.66607 -4.0002731,0 -2.981e-4,-1.33302 0.99988,-1.99936 1.999878,-1.99936 z m 29.9997191,0 c 0.999998,0 1.999973,0.66647 2.000395,1.99936 8.43e-4,2.66582 -3.998913,2.66582 -3.999756,0 -4.22e-4,-1.33289 0.999363,-1.99936 1.999361,-1.99936 z m 101.750381,5.59914 c 1.075,0 2.15025,0.71693 2.15025,2.15026 0,2.86667 -4.29999,2.86667 -4.29999,0 0,-1.43333 1.07474,-2.15026 2.14974,-2.15026 z m -71.502098,0.002 c 1.075,0 2.151023,0.71617 2.152323,2.14819 0.0026,2.86404 -4.297396,2.86404 -4.299996,0 -0.0013,-1.43202 1.072673,-2.14819 2.147673,-2.14819 z M 8.9245199,271.50022 c 0.9999979,0 2.0000971,0.66685 2.0003951,1.99988 5.96e-4,2.66607 -3.9996769,2.66607 -4.0002731,0 -2.981e-4,-1.33303 0.99988,-1.99988 1.999878,-1.99988 z m 29.9997191,5.2e-4 c 0.999998,0 1.999973,0.66645 2.000395,1.99936 8.43e-4,2.66582 -3.998913,2.66582 -3.999756,0 -4.22e-4,-1.33291 0.999363,-1.99936 1.999361,-1.99936 z M 17.424776,353.49987 H 30.4245 c 0.55229,0 1.000466,0.44765 1.000455,0.99994 v 8.00003 c -6e-6,0.55228 -0.448177,0.99994 -1.000455,0.99994 H 17.424776 c -0.552279,0 -0.999933,-0.44766 -0.999939,-0.99994 v -8.00003 c -1.1e-5,-0.55229 0.447648,-0.99994 0.999939,-0.99994 z m -8.5002561,18.00045 c 0.9999979,0 2.0000971,0.66685 2.0003951,1.99988 5.96e-4,2.66607 -3.9996769,2.66607 -4.0002731,0 -2.981e-4,-1.33303 0.99988,-1.99988 1.999878,-1.99988 z m 29.9997191,5.2e-4 c 0.999998,0 1.999973,0.66645 2.000395,1.99936 8.43e-4,2.66582 -3.998913,2.66582 -3.999756,0 -4.22e-4,-1.33291 0.999363,-1.99936 1.999361,-1.99936 z" /></g></svg>
