<?xml version="1.0" encoding="UTF-8" standalone="no"?>
<!-- Created with Inkscape (http://www.inkscape.org/) -->

<svg
   width="276.40845mm"
   height="519.40808mm"
   viewBox="0 0 276.40845 519.40808"
   version="1.1"
   id="svg1"
   xml:space="preserve"
   inkscape:version="1.3.2 (091e20e, 2023-11-25, custom)"
   sodipodi:docname="Right.svg"
   xmlns:inkscape="http://www.inkscape.org/namespaces/inkscape"
   xmlns:sodipodi="http://sodipodi.sourceforge.net/DTD/sodipodi-0.dtd"
   xmlns="http://www.w3.org/2000/svg"
   xmlns:svg="http://www.w3.org/2000/svg"><sodipodi:namedview
     id="namedview1"
     pagecolor="#ffffff"
     bordercolor="#000000"
     borderopacity="0.25"
     inkscape:showpageshadow="2"
     inkscape:pageopacity="0.0"
     inkscape:pagecheckerboard="0"
     inkscape:deskcolor="#d1d1d1"
     inkscape:document-units="mm"
     inkscape:zoom="0.34609638"
     inkscape:cx="917.37452"
     inkscape:cy="822.02535"
     inkscape:window-width="1920"
     inkscape:window-height="991"
     inkscape:window-x="1647"
     inkscape:window-y="-9"
     inkscape:window-maximized="1"
     inkscape:current-layer="layer1" /><defs
     id="defs1"><marker
       id="DistanceX"
       orient="auto"
       refX="0"
       refY="0"
       style="overflow:visible"><path
         d="M 3,-3 -3,3 M 0,-5 V 5"
         style="stroke:#000000;stroke-width:0.5"
         id="path1" /></marker><pattern
       id="Hatch"
       patternUnits="userSpaceOnUse"
       width="8"
       height="8"
       x="0"
       y="0"><path
         d="M8 4 l-4,4"
         stroke="#000000"
         stroke-width="0.25"
         linecap="square"
         id="path2" /><path
         d="M6 2 l-4,4"
         stroke="#000000"
         stroke-width="0.25"
         linecap="square"
         id="path3" /><path
         d="M4 0 l-4,4"
         stroke="#000000"
         stroke-width="0.25"
         linecap="square"
         id="path4" /></pattern><symbol
       id="*MODEL_SPACE" /><symbol
       id="*PAPER_SPACE" /></defs><g
     inkscape:label="Layer 1"
     inkscape:groupmode="layer"
     id="layer1"
     transform="translate(33.279622,111.20406)"><path
       id="path14"
       style="fill:none;stroke:#000000;stroke-width:0.264583"
       d="m -28.575517,-111.07177 v 46.641077 h -3.571875 c -0.552292,0 -0.999949,0.447647 -0.999939,0.999939 v 25.724012 c 4e-6,0.552281 0.447658,0.999939 0.999939,0.999939 h 3.571875 v 27.7244055 h -3.571875 c -0.552292,-5e-7 -0.999949,0.447647 -0.999939,0.999939 V 17.741553 c 4e-6,0.552281 0.447658,0.999939 0.999939,0.999939 h 3.571875 v 27.723889 h -3.571875 c -0.552292,0 -0.99995,0.448163 -0.999939,1.000456 v 25.724011 c 4e-6,0.552281 0.447658,0.999939 0.999939,0.999939 h 3.571875 v 27.723893 h -3.571875 c -0.552292,0 -0.99995,0.44765 -0.999939,0.99993 v 25.72453 c 6e-6,0.55228 0.447659,0.99994 0.999939,0.99994 h 3.571875 v 27.72389 h -3.571875 c -0.552292,0 -0.99995,0.44765 -0.999939,0.99994 v 25.72401 c 6e-6,0.55228 0.447659,1.00046 0.999939,1.00046 h 3.571875 v 27.72389 h -3.571875 c -0.552292,0 -0.99995,0.44765 -0.999939,0.99994 v 25.72401 c 6e-6,0.55228 0.447659,0.99994 0.999939,0.99994 h 3.571875 v 27.7244 h -3.571875 c -0.552292,0 -0.99995,0.44765 -0.999939,0.99994 v 25.72401 c 6e-6,0.55228 0.447659,0.99994 0.999939,0.99994 h 3.571875 v 27.72441 h -3.571875 c -0.552292,0 -0.99995,0.44765 -0.999939,0.99994 v 25.72401 c 6e-6,0.55228 0.447659,0.99994 0.999939,0.99994 h 3.571875 v 46.64108 h 6.923092 c 0.357267,0 0.68695,0.19082 0.86558,0.50022 l 5.196582,8.99997 c 0.17863,0.30941 0.508313,0.49971 0.86558,0.49971 h 8.7643233 c 0.3572675,0 0.6874668,-0.1903 0.866097,-0.49971 l 5.19606527,-8.99997 c 0.17862976,-0.3094 0.50883037,-0.50022 0.86609701,-0.50022 H 7.8904744 v -4.57182 H 35.614364 v 4.57182 H 63.33877 v -4.57182 h 27.723889 v 4.57182 h 27.723891 v -4.57182 h 27.7244 v 4.57182 h 27.72389 v -4.57182 h 27.72441 v 4.57182 h 6.92257 c 0.35727,0 0.68747,0.19081 0.8661,0.50022 l 5.19607,8.99997 c 0.17863,0.30941 0.50882,0.49971 0.86609,0.49971 h 8.76381 c 0.35727,0 0.68747,-0.1903 0.8661,-0.49971 l 5.19606,-8.99997 c 0.17863,-0.30941 0.50883,-0.50022 0.8661,-0.50022 h 6.92257 v -46.64108 h 4.57182 v -27.72389 h -4.57182 v -27.72441 h 4.57182 v -27.72389 h -4.57182 v -27.7244 h 4.57182 v -27.72389 h -4.57182 v -27.72389 h 4.57182 v -27.72441 h -4.57182 v -27.72389 h 4.57182 v -27.7244 h -4.57182 V 74.189787 h 4.57182 V 46.465381 h -4.57182 V 18.741492 h 4.57182 V -8.9823975 h -4.57182 V -36.706803 h 4.57182 v -27.72389 h -4.57182 v -46.641077 h -36.46547 v 4.57181 h -27.72441 v -4.57181 h -27.72389 v 4.57181 h -27.7244 v -4.57181 H 91.062659 v 4.57181 H 63.33877 v -4.57181 H 35.614364 v 4.57181 H 7.8904744 v -4.57181 z m 133.500377,82.075607 c 3.31217,0 5.99764,2.683855 5.99964,5.996017 -0.002,3.31216 -2.68747,5.996016 -5.99964,5.996016 -3.31216,0 -5.997949,-2.683856 -6.000149,-5.996016 0.0022,-3.312162 2.687989,-5.996017 6.000149,-5.996017 z M -26.575122,50.49976 h 4.571814 v 20.00033 h -4.571814 z m 258.427632,0 h 4.57234 v 20.00033 h -4.57234 z M 104.92486,234.90608 c 21.31573,0 38.59671,17.27828 38.59971,38.59402 -0.003,21.31574 -17.28398,38.59351 -38.59971,38.59351 -21.315717,0 -38.596826,-17.27777 -38.600226,-38.59351 0.0034,-21.31574 17.284509,-38.59402 38.600226,-38.59402 z m 35.74976,0.69401 c 1.075,0 2.15025,0.71641 2.15025,2.14974 0,2.86667 -4.29999,2.86667 -4.29999,0 0,-1.43333 1.07474,-2.14974 2.14974,-2.14974 z m -71.502098,0.002 c 1.075,0 2.151023,0.71565 2.152323,2.14767 0.0026,2.86404 -4.297396,2.86404 -4.299996,0 -0.0013,-1.43202 1.072673,-2.14767 2.147673,-2.14767 z m 71.502098,71.49796 c 1.075,0 2.15025,0.7164 2.15025,2.14974 0,2.86665 -4.29999,2.86665 -4.29999,0 0,-1.43334 1.07474,-2.14974 2.14974,-2.14974 z m -71.502098,0.002 c 1.075,0 2.151023,0.71565 2.152323,2.14767 0.0026,2.86402 -4.297396,2.86402 -4.299996,0 -0.0013,-1.43202 1.072673,-2.14767 2.147673,-2.14767 z m 110.252188,46.39768 h 13.00024 c 0.55229,0 0.99995,0.44765 0.99994,0.99994 v 8.00003 c -1e-5,0.55228 -0.44766,0.99994 -0.99994,0.99994 h -13.00024 c -0.55228,0 -0.99993,-0.44766 -0.99994,-0.99994 v -8.00003 c -1e-5,-0.55229 0.44765,-0.99994 0.99994,-0.99994 z" /><path
       id="path15"
       style="fill:none;stroke:#000000;stroke-width:0.264583"
       d="m 97.190967,-98.310278 v 2.012797 h -1.241785 v 1.684651 h 1.241785 v 6.343799 h 1.609721 l 4.338232,-6.350517 v -1.677933 h -4.092769 v -2.012797 z m 6.261633,0 4.00441,10.000423 h 2.13475 l 3.89485,-10.000423 h -2.14147 l -0.82579,2.271696 h -3.99717 l -0.87281,-2.271696 z m -4.406449,3.697448 h 2.298569 l -2.298569,3.417363 z m 8.124049,0.258899 h 2.72852 l -1.35031,3.710885 z m 60.59062,57.675033 c -0.45307,0.03709 -0.90595,0.07419 -1.29243,0.255798 -0.36323,0.170683 -0.66763,0.469053 -0.97203,0.767395 -0.28482,0.536337 -0.56985,1.072363 -0.73691,1.64021 -0.22767,0.773878 -0.23646,1.606261 -0.24546,2.438611 0.008,0.83296 0.0163,1.666244 0.24391,2.440678 0.16602,0.564751 0.44896,1.098331 0.73174,1.631942 0.30567,0.302364 0.6114,0.604281 0.9772,0.777213 0.38666,0.182802 0.84015,0.221216 1.29398,0.259416 0.45308,-0.03709 0.90646,-0.07419 1.29294,-0.255798 0.36323,-0.170682 0.66764,-0.469053 0.97204,-0.767395 0.28484,-0.535173 0.56938,-1.070346 0.73639,-1.63711 0.22706,-0.770544 0.23698,-1.599364 0.24598,-2.428275 -0.001,-0.831691 -0.003,-1.663571 -0.22376,-2.439645 -0.15306,-0.53824 -0.41169,-1.049653 -0.67025,-1.561145 -0.32268,-0.327261 -0.64533,-0.654802 -1.03507,-0.841809 -0.39376,-0.188938 -0.85604,-0.234286 -1.31827,-0.280086 z m 18.79265,0 c -0.50238,0.02524 -1.00477,0.05027 -1.46916,0.198437 -0.41627,0.132821 -0.80178,0.36424 -1.18752,0.59583 -0.32844,0.316679 -0.65664,0.633699 -0.89762,1.005623 -0.27665,0.426959 -0.43813,0.926684 -0.59945,1.42627 l 1.9575,0.62115 c 0.0862,-0.331006 0.17266,-0.661685 0.33435,-0.95188 0.13231,-0.237489 0.31482,-0.447962 0.49764,-0.658357 0.2041,-0.149199 0.40826,-0.29816 0.63614,-0.383439 0.23297,-0.08718 0.49096,-0.107788 0.74879,-0.128158 0.34562,0.03223 0.69123,0.06472 0.98909,0.201538 0.2921,0.134171 0.53827,0.368816 0.78445,0.603581 0.19776,0.351604 0.39552,0.702883 0.51159,1.077453 0.15883,0.512498 0.16454,1.068181 0.17054,1.623674 -0.009,0.527763 -0.0173,1.055586 -0.17312,1.539958 -0.1174,0.36486 -0.31841,0.70516 -0.51935,1.045414 -0.25091,0.232754 -0.50195,0.465354 -0.79737,0.598413 -0.3042,0.137002 -0.65525,0.168201 -1.00665,0.199471 -0.2552,-0.0164 -0.51069,-0.0329 -0.74466,-0.112655 -0.22031,-0.07509 -0.42172,-0.206161 -0.62322,-0.337447 -0.17227,-0.167111 -0.34426,-0.334438 -0.46612,-0.532267 -0.12876,-0.209047 -0.20148,-0.452161 -0.27388,-0.695048 l -1.99885,0.476973 c 0.11806,0.367361 0.23622,0.73466 0.42633,1.060918 0.16347,0.280537 0.38017,0.530588 0.59686,0.78083 0.42259,0.316177 0.84524,0.632334 1.31827,0.813387 0.51445,0.196935 1.08884,0.234212 1.66295,0.271302 0.65957,-0.0503 1.31918,-0.100513 1.89807,-0.345199 0.54508,-0.230426 1.01836,-0.633311 1.4919,-1.036112 0.37543,-0.534829 0.75082,-1.069894 0.96687,-1.660364 0.252,-0.688762 0.28736,-1.45295 0.32246,-2.217436 -0.0382,-0.728079 -0.0763,-1.456284 -0.3204,-2.110465 -0.21456,-0.57494 -0.58859,-1.092913 -0.96221,-1.610755 -0.46277,-0.3969 -0.92514,-0.793728 -1.45934,-1.020609 -0.55367,-0.235135 -1.18449,-0.287511 -1.81488,-0.340031 z m -26.51414,0.170015 c -0.0209,0.473101 -0.0418,0.946309 -0.10491,1.413351 -0.0724,0.535807 -0.2002,1.063578 -0.32814,1.591634 -0.16277,0.551734 -0.32584,1.103481 -0.54002,1.634525 -0.21264,0.527209 -0.47566,1.034209 -0.73897,1.540992 -0.26152,0.451589 -0.52335,0.903045 -0.83251,1.319816 -0.25178,0.339407 -0.53472,0.655949 -0.81804,0.972033 v 1.39113 h 6.55464 v -1.78077 l -4.35839,5.17e-4 c 0.42958,-0.590179 0.859,-1.180441 1.21491,-1.812293 0.36678,-0.651112 0.65557,-1.346159 0.94413,-2.041219 0.23748,-0.705405 0.47483,-1.411027 0.61805,-2.13527 0.13579,-0.686752 0.18661,-1.390549 0.23771,-2.094446 z m 12.6261,5.17e-4 v 9.999907 h 2.019 v -3.936194 h 3.95635 v 3.936194 h 2.01951 v -9.999907 h -2.01951 v 4.372343 h -3.95635 v -4.372343 z m -4.90461,1.418518 c 0.11266,0.0091 0.22569,0.01832 0.32866,0.05478 0.10278,0.03638 0.19577,0.100156 0.28887,0.163814 0.0894,0.10549 0.1789,0.210856 0.2465,0.328146 0.0962,0.16682 0.1484,0.357575 0.2005,0.548287 0.0511,0.310645 0.10201,0.6214 0.13281,0.933793 0.0483,0.491938 0.0464,0.987897 0.0444,1.484147 7e-4,0.503502 0.001,1.007007 -0.0496,1.505851 -0.0341,0.33393 -0.0911,0.666034 -0.14831,0.997872 -0.0471,0.169042 -0.0944,0.33767 -0.18086,0.484725 -0.0656,0.111628 -0.15355,0.210592 -0.24185,0.309542 -0.0939,0.06466 -0.18818,0.129438 -0.29197,0.166398 -0.1032,0.03664 -0.21621,0.04599 -0.32918,0.05529 -0.11273,-0.0093 -0.22534,-0.01841 -0.32815,-0.05529 -0.10298,-0.03696 -0.19587,-0.101738 -0.28887,-0.166398 -0.0894,-0.106363 -0.17879,-0.212645 -0.24649,-0.330729 -0.0959,-0.167349 -0.14821,-0.357907 -0.20051,-0.548804 -0.0511,-0.310648 -0.10201,-0.621399 -0.13281,-0.933793 -0.0483,-0.49194 -0.0464,-0.988385 -0.0444,-1.484664 -8e-4,-0.502918 -0.001,-1.005576 0.0496,-1.503784 0.0341,-0.332238 0.0911,-0.662559 0.14831,-0.992704 0.0472,-0.169043 0.0944,-0.338186 0.18087,-0.485242 0.0656,-0.111601 0.15355,-0.210592 0.24185,-0.309542 0.0939,-0.06466 0.18818,-0.129458 0.29197,-0.166398 0.10319,-0.03664 0.2157,-0.04599 0.32866,-0.05529 z m -3.13056,14.017749 c -0.45307,0.03709 -0.90646,0.07419 -1.29294,0.255799 -0.36323,0.170707 -0.66764,0.469051 -0.97204,0.767395 -0.28482,0.536362 -0.56933,1.072906 -0.73639,1.640726 -0.22767,0.77388 -0.23698,1.60626 -0.24598,2.438611 0.008,0.832932 0.0163,1.665754 0.24392,2.440161 0.16601,0.564753 0.44895,1.098306 0.73174,1.631942 0.30565,0.30234 0.6114,0.604798 0.9772,0.77773 0.38666,0.182802 0.84066,0.221206 1.29449,0.259416 0.45308,-0.03709 0.90595,-0.07419 1.29243,-0.255798 0.36323,-0.170683 0.66763,-0.469026 0.97203,-0.767395 0.28484,-0.535172 0.5699,-1.070373 0.73691,-1.63711 0.22706,-0.770571 0.23646,-1.599881 0.24546,-2.428792 -0.001,-0.831689 -0.003,-1.663053 -0.22376,-2.439128 -0.15305,-0.53824 -0.41116,-1.049653 -0.66972,-1.561145 -0.32269,-0.327261 -0.64584,-0.654802 -1.0356,-0.841809 -0.39376,-0.188938 -0.85552,-0.234803 -1.31775,-0.280603 z m 7.76904,0 c -0.45308,0.03709 -0.90596,0.07419 -1.29243,0.255799 -0.36324,0.170707 -0.66764,0.469051 -0.97204,0.767395 -0.2848,0.536362 -0.56984,1.072906 -0.7369,1.640726 -0.22766,0.77388 -0.23646,1.60626 -0.24546,2.438611 0.008,0.832932 0.0163,1.665754 0.24391,2.440161 0.16602,0.564753 0.44896,1.098306 0.73174,1.631942 0.30567,0.30234 0.6114,0.604798 0.9772,0.77773 0.38666,0.182802 0.84014,0.221206 1.29398,0.259416 0.45307,-0.03709 0.90646,-0.07416 1.29294,-0.255798 0.36323,-0.170683 0.66763,-0.469026 0.97203,-0.767395 0.28485,-0.535172 0.56938,-1.070373 0.73639,-1.63711 0.22707,-0.770571 0.23698,-1.599881 0.24598,-2.428792 -0.001,-0.831689 -0.003,-1.663053 -0.22376,-2.439128 -0.15306,-0.53824 -0.41168,-1.049653 -0.67024,-1.561145 -0.32268,-0.327261 -0.64531,-0.654802 -1.03508,-0.841809 -0.39376,-0.188938 -0.85604,-0.234803 -1.31826,-0.280603 z m 15.5391,0 c -0.45308,0.03709 -0.90595,0.07419 -1.29243,0.255799 -0.36323,0.170707 -0.66763,0.469051 -0.97203,0.767395 -0.28482,0.536362 -0.56985,1.072906 -0.73691,1.640726 -0.22766,0.77388 -0.23646,1.60626 -0.24546,2.438611 0.008,0.832932 0.0162,1.665754 0.24391,2.440161 0.16602,0.564753 0.44844,1.098306 0.73122,1.631942 0.30567,0.30234 0.6114,0.604798 0.9772,0.77773 0.38666,0.182802 0.84066,0.221206 1.2945,0.259416 0.45307,-0.03709 0.90595,-0.07416 1.29243,-0.255798 0.36323,-0.170683 0.66763,-0.469026 0.97203,-0.767395 0.28485,-0.535172 0.5699,-1.070373 0.73691,-1.63711 0.22707,-0.770571 0.23646,-1.599881 0.24546,-2.428792 -10e-4,-0.831689 -0.003,-1.663053 -0.22324,-2.439128 -0.15306,-0.53824 -0.41168,-1.049653 -0.67025,-1.561145 -0.32268,-0.327261 -0.64532,-0.654802 -1.03507,-0.841809 -0.39376,-0.188938 -0.85605,-0.234803 -1.31827,-0.280603 z m -9.43405,0.171049 v 10.040731 h 1.55546 c 0.13718,-0.299191 0.27452,-0.59847 0.46561,-0.857312 0.20567,-0.278606 0.47348,-0.510552 0.74155,-0.74259 0.2748,-0.205608 0.54954,-0.411344 0.8475,-0.575676 0.25003,-0.137875 0.51648,-0.246698 0.78289,-0.35605 v -1.738912 c -0.45765,0.176318 -0.91501,0.353052 -1.3317,0.598929 -0.4075,0.240453 -0.77572,0.547401 -1.14411,0.854212 v -7.223332 z m -13.87409,1.418518 c 0.11266,0.009 0.22518,0.01783 0.32815,0.05426 0.10278,0.03638 0.19577,0.100124 0.28887,0.163814 0.0894,0.105462 0.17889,0.210829 0.24649,0.328145 0.0962,0.16682 0.14841,0.357576 0.20051,0.548287 0.0511,0.310648 0.10201,0.621402 0.13281,0.933793 0.0483,0.491914 0.0464,0.988387 0.0444,1.484664 7e-4,0.503475 0.001,1.007034 -0.0496,1.505851 -0.0341,0.333931 -0.0911,0.665515 -0.14831,0.997356 -0.0471,0.16904 -0.0945,0.338186 -0.18087,0.485241 -0.0656,0.111628 -0.15354,0.210592 -0.24184,0.309542 -0.0939,0.06466 -0.18819,0.129458 -0.29198,0.166398 -0.1032,0.03665 -0.21569,0.04599 -0.32866,0.05529 -0.11272,-0.0093 -0.22585,-0.01838 -0.32866,-0.05529 -0.10298,-0.03694 -0.19587,-0.101738 -0.28887,-0.166398 -0.0894,-0.106363 -0.1788,-0.212619 -0.2465,-0.330729 -0.0959,-0.167323 -0.1482,-0.358424 -0.2005,-0.549321 -0.0511,-0.310618 -0.10201,-0.6214 -0.13281,-0.933793 -0.0483,-0.491938 -0.0464,-0.987868 -0.0444,-1.484147 -8e-4,-0.502945 -10e-4,-1.006064 0.0496,-1.504301 0.0341,-0.332209 0.0911,-0.662069 0.14831,-0.992187 0.0472,-0.169069 0.0945,-0.338186 0.18086,-0.485242 0.0656,-0.111627 0.15355,-0.210612 0.24185,-0.309542 0.0939,-0.06467 0.18818,-0.129438 0.29197,-0.166398 0.10319,-0.03661 0.21622,-0.04599 0.32918,-0.05529 z m 7.76904,0 c 0.11265,0.009 0.22569,0.01783 0.32866,0.05426 0.10278,0.03638 0.19577,0.100124 0.28887,0.163814 0.0894,0.105462 0.1789,0.210829 0.2465,0.328145 0.0962,0.16682 0.1484,0.357576 0.2005,0.548287 0.0511,0.310648 0.10201,0.621402 0.13281,0.933793 0.0483,0.491914 0.0464,0.988387 0.0444,1.484664 7e-4,0.503475 0.001,1.007034 -0.0496,1.505851 -0.034,0.333931 -0.0911,0.665515 -0.14831,0.997356 -0.0472,0.16904 -0.0945,0.338186 -0.18087,0.485241 -0.0656,0.111628 -0.15354,0.210592 -0.24184,0.309542 -0.0939,0.06466 -0.18819,0.129458 -0.29198,0.166398 -0.10317,0.03665 -0.21621,0.04599 -0.32917,0.05529 -0.11273,-0.0093 -0.22533,-0.01838 -0.32815,-0.05529 -0.10298,-0.03694 -0.19587,-0.101738 -0.28887,-0.166398 -0.0894,-0.106363 -0.1788,-0.212619 -0.2465,-0.330729 -0.0959,-0.167323 -0.1483,-0.358424 -0.2005,-0.549321 -0.0511,-0.310618 -0.10201,-0.6214 -0.13281,-0.933793 -0.0483,-0.491938 -0.0464,-0.987868 -0.0444,-1.484147 -8e-4,-0.502945 -0.001,-1.006064 0.0496,-1.504301 0.0341,-0.332209 0.0911,-0.662069 0.14831,-0.992187 0.0472,-0.169069 0.0945,-0.338186 0.18087,-0.485242 0.0656,-0.111627 0.15354,-0.210612 0.24184,-0.309542 0.0939,-0.06467 0.18818,-0.129438 0.29197,-0.166398 0.1032,-0.03661 0.2157,-0.04599 0.32867,-0.05529 z m 15.5391,0 c 0.11265,0.009 0.22518,0.01783 0.32814,0.05426 0.10279,0.03638 0.19629,0.100124 0.28939,0.163814 0.0894,0.105462 0.17838,0.210829 0.24598,0.328145 0.0962,0.16682 0.14841,0.357576 0.20051,0.548287 0.0511,0.310648 0.10252,0.621402 0.13332,0.933793 0.0483,0.491914 0.0459,0.988387 0.0439,1.484664 7e-4,0.503475 0.002,1.007034 -0.0491,1.505851 -0.0341,0.333931 -0.0916,0.665515 -0.14882,0.997356 -0.0472,0.16904 -0.0939,0.338186 -0.18035,0.485241 -0.0656,0.111628 -0.15407,0.210592 -0.24237,0.309542 -0.0939,0.06466 -0.18767,0.129458 -0.29145,0.166398 -0.1032,0.03665 -0.21622,0.04599 -0.32918,0.05529 -0.11273,-0.0093 -0.22533,-0.01838 -0.32815,-0.05529 -0.10298,-0.03694 -0.19638,-0.101738 -0.28938,-0.166398 -0.0894,-0.106363 -0.1788,-0.212619 -0.2465,-0.330729 -0.0959,-0.167323 -0.14769,-0.358424 -0.19999,-0.549321 -0.0511,-0.310618 -0.10252,-0.6214 -0.13332,-0.933793 -0.0483,-0.491938 -0.0464,-0.987868 -0.0445,-1.484147 -8e-4,-0.502945 -0.001,-1.006064 0.0496,-1.504301 0.0341,-0.332209 0.0911,-0.662069 0.14832,-0.992187 0.0471,-0.169069 0.0944,-0.338186 0.18086,-0.485242 0.0656,-0.111627 0.15407,-0.210612 0.24237,-0.309542 0.0939,-0.06467 0.18766,-0.129438 0.29145,-0.166398 0.1032,-0.03661 0.21621,-0.04599 0.32918,-0.05529 z M -10.05365,111.86914 c -0.543376,0.0516 -1.08701,0.10371 -1.543575,0.33125 -0.442642,0.22061 -0.803742,0.60623 -1.164787,0.99218 -0.208899,0.33531 -0.41754,0.67056 -0.536918,1.03508 -0.120969,0.36938 -0.150277,0.76903 -0.179317,1.16841 0.03071,0.46366 0.06142,0.92725 0.221692,1.34203 0.148018,0.38307 0.406549,0.72418 0.665076,1.06557 0.311421,0.27057 0.622797,0.54146 0.983919,0.69608 0.359886,0.15413 0.769495,0.19313 1.178739,0.23203 0.223565,-0.0143 0.446924,-0.029 0.6614585,-0.0806 0.22248,-0.0534 0.4352541,-0.14682 0.6480225,-0.24082 l -0.3002401,1.69809 h -3.6147669 v 1.79421 h 5.0679082 l 0.982369,-5.20485 -1.5554606,-0.22428 c -0.2179238,0.21301 -0.4361126,0.42582 -0.6976319,0.54777 -0.2370611,0.11056 -0.5095407,0.14642 -0.7823807,0.18242 -0.208788,-0.0176 -0.417607,-0.0354 -0.599447,-0.11524 -0.17494,-0.0768 -0.324913,-0.21092 -0.474906,-0.3452 -0.120005,-0.18645 -0.240032,-0.37302 -0.309542,-0.57567 -0.0864,-0.25191 -0.09495,-0.5287 -0.103353,-0.80564 0.0078,-0.2944 0.01545,-0.58906 0.103869,-0.85886 0.07017,-0.21412 0.191174,-0.41274 0.312126,-0.61133 0.144412,-0.14224 0.289184,-0.28457 0.462504,-0.36587 0.166876,-0.0783 0.360297,-0.10026 0.553972,-0.12196 0.170881,0.0167 0.3417621,0.0337 0.494543,0.0951 0.1571517,0.0631 0.2950473,0.17326 0.4330485,0.2837 0.1213087,0.14195 0.242771,0.28396 0.3224609,0.44597 0.087307,0.1775 0.1244473,0.37894 0.1617473,0.58032 l 1.9099609,-0.19792 c -0.081931,-0.39294 -0.1634229,-0.7867 -0.3457153,-1.12706 -0.1725506,-0.32216 -0.4351708,-0.59666 -0.6976319,-0.87127 -0.3232015,-0.21672 -0.6463517,-0.43336 -1.0009725,-0.55758 -0.3931889,-0.1378 -0.8249554,-0.16194 -1.2567709,-0.18604 z m 3.9765016,0.17053 4.0044067,10.00043 H 0.06201172 L 3.9568644,112.03967 H 1.8153931 l -0.82578942,2.2717 H -3.0075684 l -0.8728149,-2.2717 z m 219.8139684,0.71417 c -0.45673,0.0287 -0.91306,0.0574 -1.32033,0.21653 -0.37034,0.1447 -0.69998,0.39758 -1.02939,0.65008 -0.25757,0.31726 -0.51511,0.63444 -0.66249,0.99581 -0.15695,0.38502 -0.18876,0.82017 -0.22066,1.25522 0.0165,0.269 0.0326,0.53808 0.108,0.78962 0.0722,0.24091 0.19874,0.46552 0.32505,0.69039 0.16611,0.20294 0.33206,0.40572 0.53278,0.56431 0.21714,0.17159 0.47512,0.29164 0.73277,0.41134 -0.20449,0.10385 -0.40935,0.20763 -0.58188,0.35037 -0.16428,0.13595 -0.29932,0.30731 -0.43459,0.47852 -0.10542,0.18913 -0.21101,0.3779 -0.27131,0.58033 -0.0624,0.20961 -0.0764,0.43345 -0.0904,0.65732 0.0313,0.35525 0.0625,0.71066 0.19689,1.02165 0.13132,0.30385 0.36139,0.56575 0.59118,0.82734 0.30535,0.21254 0.6106,0.42491 0.94723,0.54725 0.39357,0.14306 0.82975,0.16282 1.26607,0.18242 0.43937,-0.0191 0.87883,-0.0382 1.27486,-0.18242 0.33599,-0.12239 0.64087,-0.33474 0.94567,-0.54725 0.22778,-0.26183 0.45533,-0.52394 0.5855,-0.82734 0.13366,-0.31133 0.16454,-0.66656 0.19534,-1.02165 -0.0138,-0.21348 -0.0274,-0.42696 -0.0842,-0.62838 -0.0563,-0.19977 -0.15471,-0.38726 -0.25321,-0.57516 -0.13618,-0.17595 -0.27248,-0.35203 -0.43925,-0.49041 -0.18809,-0.15607 -0.41536,-0.26432 -0.64234,-0.37259 0.26585,-0.12988 0.53169,-0.25977 0.75034,-0.44596 0.19884,-0.16933 0.35905,-0.3851 0.51883,-0.601 0.1174,-0.23278 0.23469,-0.46569 0.30179,-0.7121 0.0681,-0.25013 0.0842,-0.51458 0.10026,-0.77877 -0.0405,-0.46165 -0.081,-0.92301 -0.26769,-1.31619 -0.17857,-0.37599 -0.49073,-0.6897 -0.80305,-1.00304 -0.33086,-0.20879 -0.66189,-0.41732 -1.02164,-0.53692 -0.39359,-0.13087 -0.82186,-0.15522 -1.25006,-0.17932 z m 3.96359,0.17777 4.00389,9.9999 h 2.13527 l 3.89485,-9.9999 h -2.14199 l -0.82527,2.27118 h -3.99717 l -0.87333,-2.27118 z m -3.92948,1.36426 c 0.1938,0.0182 0.38787,0.0363 0.55707,0.11058 0.16827,0.0739 0.31238,0.20348 0.45631,0.3328 0.11822,0.171 0.23637,0.34187 0.30437,0.5302 0.0793,0.21913 0.0902,0.46178 0.10129,0.70435 -0.0151,0.18631 -0.0303,0.37266 -0.0863,0.5457 -0.0574,0.17759 -0.15792,0.34129 -0.25839,0.50488 -0.13507,0.14116 -0.26968,0.28187 -0.43356,0.36277 -0.18092,0.0893 -0.39734,0.10554 -0.6134,0.12144 -0.19275,-0.0169 -0.38519,-0.0336 -0.55397,-0.10645 -0.1647,-0.0711 -0.30666,-0.19553 -0.44855,-0.31988 -0.11531,-0.1592 -0.23053,-0.31857 -0.29663,-0.49558 -0.0735,-0.19656 -0.0865,-0.41506 -0.0992,-0.63355 0.009,-0.24445 0.0188,-0.48869 0.0971,-0.71004 0.0653,-0.18433 0.17884,-0.35256 0.29197,-0.52089 0.13893,-0.12433 0.27763,-0.24878 0.43977,-0.31988 0.16478,-0.0722 0.35332,-0.0893 0.54208,-0.10645 z m -216.1304759,1.70015 h 2.72851563 l -1.35030518,3.71089 z m 223.7775559,0.89194 h 2.72852 l -1.35083,3.71036 z m -7.5923,2.15542 c 0.16785,0.0107 0.33577,0.0213 0.48524,0.0801 0.13607,0.0535 0.25695,0.14679 0.37775,0.24029 0.0944,0.12282 0.18868,0.24596 0.24288,0.38396 0.0617,0.1569 0.0711,0.33302 0.0811,0.50953 -0.0112,0.16825 -0.0227,0.33678 -0.0822,0.48627 -0.0547,0.13732 -0.14996,0.25886 -0.24546,0.38034 -0.12268,0.0954 -0.24511,0.19077 -0.38344,0.24547 -0.15271,0.0605 -0.32484,0.0707 -0.49661,0.0816 -0.16618,-0.0111 -0.3319,-0.0218 -0.47956,-0.0806 -0.13579,-0.0541 -0.25608,-0.1489 -0.3762,-0.2434 -0.0944,-0.12073 -0.18878,-0.24146 -0.24288,-0.37775 -0.0593,-0.14928 -0.0703,-0.31679 -0.0811,-0.48473 0.01,-0.17682 0.0198,-0.35397 0.0816,-0.51108 0.0547,-0.13904 0.15058,-0.26241 0.24598,-0.38602 0.12218,-0.0944 0.24431,-0.1893 0.38189,-0.2434 0.15129,-0.0596 0.32102,-0.0697 0.49093,-0.0806 z m -108.87863,255.59628 4.00389,9.99991 h 2.13527 l 3.89486,-9.99991 h -2.14199 l -0.82528,2.2717 h -3.99717 l -0.87333,-2.2717 z m -14.890561,5.2e-4 v 1.78077 l 3.805969,-5.2e-4 c -0.05563,0.0885 -0.111406,0.1774 -0.173116,0.262 -0.06815,0.0934 -0.143618,0.18176 -0.219108,0.26976 -0.135184,0.13856 -0.270182,0.27677 -0.408244,0.41237 -0.24113,0.2368 -0.491125,0.46469 -0.74104,0.69247 -0.261297,0.23966 -0.522592,0.47917 -0.767395,0.73484 -0.167735,0.17518 -0.327835,0.35835 -0.487826,0.54105 -0.160181,0.21286 -0.320129,0.4254 -0.454236,0.65371 -0.117696,0.20038 -0.215549,0.41298 -0.313159,0.62528 -0.07063,0.20701 -0.141024,0.4136 -0.181384,0.62632 -0.04094,0.21577 -0.05118,0.43772 -0.06098,0.65939 0.03442,0.37864 0.06925,0.75697 0.211873,1.08934 0.140977,0.32859 0.38737,0.61218 0.63407,0.89555 0.323014,0.23252 0.64618,0.46485 1.00459,0.59841 0.409703,0.15272 0.865408,0.17588 1.321366,0.19948 0.42356,-0.0229 0.847225,-0.0456 1.238168,-0.17209 0.355649,-0.11509 0.684201,-0.31594 1.012858,-0.51676 0.271454,-0.28816 0.54327,-0.57609 0.718302,-0.91209 0.211712,-0.4064 0.28233,-0.88294 0.35295,-1.35909 l -1.909961,-0.19069 c -0.02074,0.24773 -0.04145,0.49604 -0.129708,0.71934 -0.06715,0.16989 -0.173304,0.3251 -0.279569,0.48059 -0.13285,0.10537 -0.265599,0.2109 -0.415996,0.2713 -0.165467,0.0663 -0.35228,0.0785 -0.538985,0.0904 -0.187341,-0.0105 -0.37481,-0.0211 -0.541569,-0.0863 -0.147436,-0.0576 -0.278964,-0.15801 -0.410311,-0.25839 -0.100312,-0.13433 -0.200652,-0.26859 -0.258382,-0.41858 -0.06728,-0.17484 -0.07638,-0.37081 -0.08578,-0.56689 0.01983,-0.19873 0.03945,-0.39763 0.0987,-0.58342 0.06615,-0.20744 0.181336,-0.39886 0.296623,-0.59015 0.178276,-0.21095 0.356706,-0.42149 0.544153,-0.62373 0.329554,-0.35558 0.687512,-0.68469 1.045414,-1.01338 0.465722,-0.43315 0.931238,-0.86611 1.343587,-1.34617 0.287925,-0.3352 0.549933,-0.69304 0.811837,-1.0511 0.16352,-0.30395 0.327142,-0.60832 0.436666,-0.93069 0.107334,-0.31591 0.162595,-0.64911 0.218075,-0.98237 z m 9.337931,0 v 10.04125 l 1.55546,-5.2e-4 c 0.13725,-0.29936 0.27452,-0.59846 0.46561,-0.85731 0.20567,-0.2786 0.47348,-0.51055 0.74155,-0.74259 0.27479,-0.20561 0.54954,-0.41135 0.8475,-0.57568 0.25004,-0.1379 0.51655,-0.24635 0.78289,-0.35553 v -1.73891 c -0.45757,0.17614 -0.91502,0.35253 -1.3317,0.59841 -0.40751,0.24045 -0.7763,0.54722 -1.14463,0.85421 l 5.2e-4,-7.22333 z m 9.27024,3.95583 h 2.72851 l -1.35082,3.71089 z" /></g></svg>
