<?xml version="1.0" encoding="UTF-8" standalone="no"?>
<!-- Created with Inkscape (http://www.inkscape.org/) -->

<svg
   width="276.40845mm"
   height="276.40897mm"
   viewBox="0 0 276.40845 276.40897"
   version="1.1"
   id="svg1"
   xml:space="preserve"
   inkscape:version="1.3.2 (091e20e, 2023-11-25, custom)"
   sodipodi:docname="Top.svg"
   xmlns:inkscape="http://www.inkscape.org/namespaces/inkscape"
   xmlns:sodipodi="http://sodipodi.sourceforge.net/DTD/sodipodi-0.dtd"
   xmlns="http://www.w3.org/2000/svg"
   xmlns:svg="http://www.w3.org/2000/svg"><sodipodi:namedview
     id="namedview1"
     pagecolor="#ffffff"
     bordercolor="#000000"
     borderopacity="0.25"
     inkscape:showpageshadow="2"
     inkscape:pageopacity="0.0"
     inkscape:pagecheckerboard="0"
     inkscape:deskcolor="#d1d1d1"
     inkscape:document-units="mm"
     inkscape:zoom="0.34609638"
     inkscape:cx="1813.0788"
     inkscape:cy="911.59578"
     inkscape:window-width="1920"
     inkscape:window-height="991"
     inkscape:window-x="1647"
     inkscape:window-y="-9"
     inkscape:window-maximized="1"
     inkscape:current-layer="layer1" /><defs
     id="defs1"><marker
       id="DistanceX"
       orient="auto"
       refX="0"
       refY="0"
       style="overflow:visible"><path
         d="M 3,-3 -3,3 M 0,-5 V 5"
         style="stroke:#000000;stroke-width:0.5"
         id="path1" /></marker><pattern
       id="Hatch"
       patternUnits="userSpaceOnUse"
       width="8"
       height="8"
       x="0"
       y="0"><path
         d="M8 4 l-4,4"
         stroke="#000000"
         stroke-width="0.25"
         linecap="square"
         id="path2" /><path
         d="M6 2 l-4,4"
         stroke="#000000"
         stroke-width="0.25"
         linecap="square"
         id="path3" /><path
         d="M4 0 l-4,4"
         stroke="#000000"
         stroke-width="0.25"
         linecap="square"
         id="path4" /></pattern><symbol
       id="*MODEL_SPACE" /><symbol
       id="*PAPER_SPACE" /></defs><g
     inkscape:label="Layer 1"
     inkscape:groupmode="layer"
     id="layer1"
     transform="translate(33.279622,-10.295496)"><path
       id="path8"
       style="fill:none;stroke:#000000;stroke-width:0.264583"
       d="m 108.46986,21.219893 c -0.44216,0.03543 -0.8845,0.07062 -1.27485,0.232544 -0.37425,0.155257 -0.70072,0.427124 -1.02733,0.698666 -0.26347,0.345306 -0.52709,0.690528 -0.67799,1.078487 -0.16495,0.423939 -0.19533,0.898713 -0.22583,1.373559 0.0291,0.456485 0.0581,0.912906 0.21394,1.3224 0.14293,0.375682 0.39278,0.711873 0.64234,1.047998 0.29556,0.265589 0.59093,0.531345 0.93689,0.683163 0.33488,0.146944 0.71706,0.187026 1.09916,0.227376 0.34718,-0.0358 0.69441,-0.07164 0.99425,-0.209806 0.30347,-0.139832 0.55841,-0.384191 0.81339,-0.628902 -0.0278,0.484741 -0.0558,0.969586 -0.1912,1.425752 -0.0853,0.287205 -0.21316,0.562802 -0.34107,0.838709 -0.14154,0.159068 -0.28308,0.318157 -0.46043,0.409277 -0.1629,0.08369 -0.3557,0.109966 -0.54881,0.136426 -0.14664,-0.009 -0.29343,-0.01799 -0.42478,-0.06821 -0.11925,-0.04556 -0.22564,-0.125109 -0.33228,-0.204639 -0.0872,-0.111018 -0.17442,-0.22209 -0.23202,-0.346232 -0.0702,-0.151289 -0.0967,-0.321808 -0.12299,-0.492993 l -1.85519,0.205156 c 0.0795,0.378299 0.15928,0.75711 0.33435,1.086755 0.15067,0.283739 0.37185,0.531379 0.59324,0.778764 0.26973,0.181901 0.53946,0.363863 0.83561,0.468188 0.3315,0.116811 0.69632,0.136483 1.06092,0.156063 0.5164,-0.04887 1.03237,-0.09804 1.47639,-0.303857 0.43661,-0.20238 0.80334,-0.556394 1.16996,-0.910539 0.29487,-0.520489 0.58969,-1.041085 0.76223,-1.596285 0.23159,-0.745064 0.24294,-1.552504 0.25424,-2.360063 -0.01,-0.791632 -0.0195,-1.583401 -0.24391,-2.315104 -0.16576,-0.540489 -0.44883,-1.048191 -0.73174,-1.555977 -0.34753,-0.343191 -0.69476,-0.686525 -1.11156,-0.882634 -0.41565,-0.195553 -0.90039,-0.244749 -1.38493,-0.294039 z m -9.842805,0.04083 -3.89537,9.999906 h 2.141989 l 0.825272,-2.271179 h 3.997684 l 0.87282,2.271179 h 2.19677 l -4.00441,-9.999906 z m 9.754445,1.548742 c 0.1841,0.02529 0.36818,0.05033 0.52606,0.127641 0.17458,0.08551 0.31691,0.234863 0.45941,0.383956 0.12408,0.199734 0.24827,0.399277 0.31987,0.615466 0.0857,0.258816 0.0961,0.541307 0.10646,0.823723 -0.008,0.255217 -0.0162,0.510579 -0.0946,0.743624 -0.0637,0.189387 -0.17411,0.363737 -0.28422,0.538468 -0.13223,0.127344 -0.26407,0.254869 -0.42168,0.327629 -0.15361,0.07093 -0.33129,0.08999 -0.50901,0.109037 -0.18365,-0.01963 -0.36763,-0.03903 -0.52555,-0.113171 -0.1611,-0.07559 -0.2951,-0.208256 -0.42943,-0.340548 -0.11092,-0.1896 -0.22221,-0.379221 -0.28681,-0.582394 -0.0842,-0.264608 -0.0896,-0.552114 -0.0956,-0.839742 0.004,-0.280933 0.007,-0.561873 0.0879,-0.821138 0.0597,-0.192431 0.16165,-0.372983 0.26355,-0.553455 0.1239,-0.122343 0.24767,-0.244262 0.39636,-0.314192 0.14629,-0.06879 0.31702,-0.08691 0.48731,-0.104904 z m -8.711098,0.784449 1.378208,3.710368 H 98.320097 Z M 1.515153,140.93817 c -0.453077,0.0371 -0.90595147,0.0742 -1.29242758,0.2558 -0.36322984,0.17068 -0.66763382,0.46904 -0.97203369,0.76739 -0.28484453,0.53517 -0.56989613,1.07035 -0.73690593,1.63711 -0.2270734,0.77055 -0.2362032,1.59987 -0.245463,2.42879 0.00135,0.83169 0.00255,1.66305 0.2232421,2.43913 0.1530586,0.53824 0.4116798,1.04967 0.67024337,1.56114 0.32267989,0.32727 0.64531143,0.65481 1.03507894,0.84181 0.3937574,0.18894 0.85603969,0.23481 1.31826579,0.28061 0.4530768,-0.0371 0.9059515,-0.0742 1.2924276,-0.2558 0.3632298,-0.17068 0.6676339,-0.46905 0.9720337,-0.7674 0.2848207,-0.53633 0.5698455,-1.0729 0.7369059,-1.64072 0.2276786,-0.77388 0.236523,-1.60623 0.245463,-2.43861 -0.0081,-0.83294 -0.016255,-1.66577 -0.2439127,-2.44016 -0.1660206,-0.56475 -0.4484407,-1.09831 -0.7312215,-1.63195 -0.3056752,-0.30234 -0.6114049,-0.6048 -0.9772014,-0.77773 -0.3866613,-0.18281 -0.8406558,-0.22121 -1.2944946,-0.25941 z m -7.6605143,5.1e-4 c -0.1372076,0.29849 -0.2740033,0.59796 -0.4650879,0.8568 -0.2056763,0.27861 -0.474006,0.51055 -0.7420736,0.74259 -0.2747906,0.20561 -0.5495332,0.41135 -0.8474935,0.57568 -0.2500362,0.13789 -0.516521,0.24628 -0.7828979,0.35501 v 1.73891 c 0.4576122,-0.1757 0.9155398,-0.35201 1.3322184,-0.59789 0.4075082,-0.24045 0.7757055,-0.5473 1.1441162,-0.85473 v 7.2254 h 1.9166789 v -10.04073 z m -10.1363327,0.0408 -3.894852,9.9999 h 2.141988 l 0.825273,-2.27169 h 3.997172 l 0.873331,2.27169 h 2.196249 l -4.00389,-9.9999 z m 17.796847,1.54822 c 0.1127308,0.009 0.2253311,0.0184 0.3281453,0.0553 0.1029836,0.0369 0.1963533,0.1017 0.2893881,0.1664 0.089379,0.10636 0.1788397,0.21265 0.2464965,0.33073 0.095869,0.16735 0.147733,0.35842 0.1999878,0.54932 0.051126,0.31064 0.1025624,0.62139 0.1333252,0.93379 0.048439,0.49194 0.046045,0.9879 0.043925,1.48415 8.15e-4,0.50295 0.002,1.00609 -0.049093,1.5043 -0.034068,0.33224 -0.091164,0.66203 -0.1483114,0.99218 -0.047154,0.16904 -0.09441,0.3382 -0.1808675,0.48525 -0.065622,0.11161 -0.1540945,0.21054 -0.2423625,0.30954 -0.093908,0.0647 -0.1876645,0.1294 -0.291455,0.1664 -0.1031979,0.0366 -0.2162126,0.0463 -0.3291789,0.0553 -0.1126541,-0.009 -0.2251777,-0.0178 -0.3281454,-0.0543 -0.1027849,-0.0364 -0.19625485,-0.10011 -0.28938797,-0.16381 -0.0893999,-0.10549 -0.17836036,-0.21083 -0.24597982,-0.32815 -0.09616,-0.16679 -0.14839766,-0.35758 -0.20050456,-0.54829 -0.0511254,-0.31065 -0.10256215,-0.62143 -0.13332519,-0.93379 -0.0484398,-0.49194 -0.046042,-0.98838 -0.043925,-1.48466 -7.038e-4,-0.50348 -0.001768,-1.00704 0.0490926,-1.50586 0.0340492,-0.33391 0.0911562,-0.66551 0.14831136,-0.99735 0.0471566,-0.16904 0.0944125,-0.33818 0.18086752,-0.48524 0.0656218,-0.1116 0.15409494,-0.21054 0.24236246,-0.30954 0.0939084,-0.0647 0.1876672,-0.1295 0.2914551,-0.1664 0.1031979,-0.0366 0.2162153,-0.0463 0.3291789,-0.0553 z m -16.752983,0.78445 1.377694,3.71089 h -2.728516 z m 241.8209,2.97088 c -0.42357,0.0229 -0.84671,0.0456 -1.23765,0.17208 -0.35566,0.11509 -0.68474,0.31595 -1.01338,0.51677 -0.27146,0.28816 -0.54276,0.5766 -0.71778,0.9126 -0.21172,0.4064 -0.28265,0.88235 -0.35295,1.35806 l 1.91048,0.19224 c 0.0202,-0.2486 0.0409,-0.49655 0.12919,-0.71986 0.0671,-0.16989 0.17331,-0.3256 0.27957,-0.4811 0.13284,-0.10537 0.2656,-0.21091 0.41599,-0.27131 0.16547,-0.0666 0.35228,-0.0785 0.53899,-0.0904 0.18736,0.0105 0.3748,0.0211 0.54157,0.0863 0.14742,0.0576 0.27844,0.15802 0.40979,0.25838 0.10031,0.13435 0.20068,0.26859 0.25838,0.41858 0.0673,0.17484 0.0773,0.37081 0.0863,0.56689 -0.0198,0.19873 -0.04,0.39763 -0.0992,0.58343 -0.0661,0.20743 -0.18132,0.39885 -0.29662,0.59014 -0.17828,0.21095 -0.35621,0.42202 -0.54364,0.62426 -0.32956,0.35558 -0.68751,0.68416 -1.04541,1.01285 -0.46572,0.43315 -0.93174,0.86612 -1.3441,1.34617 -0.28792,0.3352 -0.54993,0.69356 -0.81184,1.05162 -0.16351,0.30396 -0.32661,0.60781 -0.43615,0.93018 -0.10733,0.31591 -0.16309,0.64926 -0.21859,0.9834 l 6.71845,5.2e-4 v -1.78026 l -3.80493,-5.1e-4 c 0.0551,-0.0894 0.1109,-0.17844 0.1726,-0.26304 0.0682,-0.0934 0.1436,-0.18175 0.2191,-0.26975 0.1352,-0.13856 0.27019,-0.27678 0.40825,-0.41238 0.24114,-0.2368 0.49112,-0.46468 0.74104,-0.69246 0.2613,-0.23966 0.52257,-0.47917 0.76739,-0.73484 0.16772,-0.17518 0.32784,-0.35784 0.48783,-0.54054 0.16018,-0.21285 0.32011,-0.42592 0.45423,-0.65422 0.11769,-0.2004 0.21556,-0.41247 0.31316,-0.62477 0.0706,-0.20701 0.14109,-0.41411 0.18139,-0.62683 0.0409,-0.21577 0.0505,-0.43772 0.0605,-0.65939 -0.0344,-0.37864 -0.0687,-0.75697 -0.21136,-1.08934 -0.14097,-0.32859 -0.38737,-0.61219 -0.63407,-0.89556 -0.32303,-0.2325 -0.64618,-0.46484 -1.00459,-0.59841 -0.40971,-0.15272 -0.86592,-0.17617 -1.32188,-0.19947 z m -7.72149,5.2e-4 c -0.13723,0.29848 -0.27452,0.59744 -0.46561,0.85628 -0.20568,0.2786 -0.4735,0.51055 -0.74156,0.74259 -0.27479,0.20561 -0.55005,0.41134 -0.84801,0.57567 -0.25004,0.1379 -0.51602,0.24681 -0.78238,0.35554 v 1.73891 c 0.4576,-0.1757 0.91503,-0.35203 1.33171,-0.5979 0.4075,-0.24046 0.77568,-0.5473 1.14411,-0.85473 l 5.2e-4,7.22489 h 1.91616 v -10.04074 z m -10.13634,0.0403 -3.89485,9.9999 h 2.14147 l 0.82579,-2.27118 h 3.99717 l 0.87282,2.27118 h 2.19676 l -4.0044,-9.9999 z m 1.04335,2.33267 1.37821,3.71088 h -2.72851 z M 12.465389,219.50391 c -0.453078,0.0371 -0.905951,0.0742 -1.292428,0.2558 -0.363228,0.17068 -0.667634,0.46903 -0.972033,0.7674 -0.2848423,0.53518 -0.5698963,1.07035 -0.7369062,1.63711 -0.2270707,0.77055 -0.2362032,1.59935 -0.245463,2.42827 0.00135,0.83169 0.00307,1.66306 0.2237589,2.43913 0.1530612,0.53825 0.4111607,1.04966 0.6697263,1.56115 0.322681,0.32724 0.645828,0.65479 1.035596,0.8418 0.393759,0.18894 0.855522,0.23481 1.317749,0.28061 0.453078,-0.0371 0.906469,-0.0742 1.292944,-0.2558 0.363231,-0.17068 0.667633,-0.46905 0.972034,-0.7674 0.284821,-0.53634 0.569331,-1.0729 0.736389,-1.64072 0.227685,-0.77388 0.23708,-1.60623 0.24598,-2.43861 -0.0081,-0.83294 -0.01625,-1.66577 -0.243913,-2.44016 -0.166018,-0.56475 -0.448956,-1.09831 -0.731738,-1.63195 -0.305675,-0.30234 -0.611406,-0.6048 -0.977201,-0.77773 -0.386662,-0.18281 -0.840658,-0.2207 -1.294495,-0.2589 z m 15.539103,0 c -0.453076,0.0371 -0.905952,0.0742 -1.292427,0.2558 -0.363231,0.17068 -0.667633,0.46903 -0.972034,0.7674 -0.284845,0.53518 -0.569896,1.07035 -0.736906,1.63711 -0.227075,0.77055 -0.236163,1.59935 -0.245463,2.42827 0.0014,0.83169 0.0026,1.66306 0.223242,2.43913 0.153059,0.53825 0.41168,1.04966 0.670243,1.56115 0.322683,0.32724 0.645312,0.65479 1.035079,0.8418 0.393758,0.18894 0.856041,0.23481 1.318266,0.28061 0.453078,-0.0371 0.905953,-0.0742 1.292428,-0.2558 0.363231,-0.17068 0.667634,-0.46905 0.972033,-0.7674 0.284821,-0.53634 0.56985,-1.0729 0.736906,-1.64072 0.227677,-0.77388 0.236563,-1.60623 0.245463,-2.43861 -0.0081,-0.83294 -0.01626,-1.66577 -0.243912,-2.44016 -0.166021,-0.56475 -0.44844,-1.09831 -0.731222,-1.63195 -0.305675,-0.30234 -0.611406,-0.6048 -0.977201,-0.77773 -0.386662,-0.18281 -0.840658,-0.2207 -1.294495,-0.2589 z m 7.769552,0 c -0.453078,0.0371 -0.906468,0.0742 -1.292945,0.2558 -0.363228,0.17068 -0.667635,0.46903 -0.972033,0.7674 -0.284845,0.53518 -0.56938,1.07035 -0.736389,1.63711 -0.227065,0.77055 -0.236163,1.59935 -0.245463,2.42827 0.0014,0.83169 0.0026,1.66306 0.223242,2.43913 0.153059,0.53825 0.411676,1.04966 0.670243,1.56115 0.322681,0.32724 0.645311,0.65479 1.035079,0.8418 0.393759,0.18894 0.856039,0.23481 1.318266,0.28061 0.453076,-0.0371 0.905952,-0.0742 1.292427,-0.2558 0.363231,-0.17068 0.667634,-0.46905 0.972034,-0.7674 0.284819,-0.53634 0.569848,-1.0729 0.736906,-1.64072 0.227678,-0.77388 0.236563,-1.60623 0.245463,-2.43861 -0.0081,-0.83294 -0.01626,-1.66577 -0.243913,-2.44016 -0.166018,-0.56475 -0.448956,-1.09831 -0.731738,-1.63195 -0.305675,-0.30234 -0.611406,-0.6048 -0.977201,-0.77773 -0.386665,-0.18281 -0.840143,-0.2207 -1.293978,-0.2589 z m -15.430066,5.2e-4 c -0.137204,0.29844 -0.274001,0.59744 -0.465088,0.85628 -0.205677,0.27861 -0.474006,0.51055 -0.742074,0.74259 -0.274792,0.20561 -0.549532,0.41134 -0.847493,0.57568 -0.250036,0.1379 -0.516513,0.24675 -0.782898,0.35553 v 1.73891 c 0.45762,-0.17575 0.915023,-0.35253 1.331702,-0.59841 0.407508,-0.24045 0.776229,-0.54735 1.144633,-0.85473 v 7.2254 h 1.916678 v -10.04073 z m -7.878589,1.58853 c 0.112728,0.009 0.225847,0.0184 0.328662,0.0553 0.102981,0.0369 0.195831,0.1017 0.288871,0.1664 0.08938,0.10637 0.178837,0.21262 0.246497,0.33073 0.09587,0.16735 0.148255,0.35843 0.200505,0.54932 0.05112,0.31063 0.102048,0.62139 0.132808,0.93379 0.04844,0.49194 0.04654,0.9879 0.04444,1.48415 8.2e-4,0.50294 0.0015,1.00609 -0.04961,1.5043 -0.03407,0.33224 -0.09116,0.66255 -0.148311,0.9927 -0.04715,0.16904 -0.09441,0.33767 -0.180868,0.48473 -0.06562,0.11162 -0.153575,0.21054 -0.241845,0.30954 -0.09391,0.0647 -0.188182,0.1294 -0.291972,0.1664 -0.103196,0.0366 -0.216215,0.0463 -0.329179,0.0553 -0.112654,-0.009 -0.22518,-0.0178 -0.328145,-0.0543 -0.102785,-0.0364 -0.195742,-0.10021 -0.288872,-0.16381 -0.0894,-0.10549 -0.178876,-0.21083 -0.246496,-0.32815 -0.09616,-0.16682 -0.148395,-0.35758 -0.200505,-0.54829 -0.05112,-0.31065 -0.102048,-0.62143 -0.132808,-0.93379 -0.04844,-0.49194 -0.04654,-0.98838 -0.04444,-1.48466 -7.1e-4,-0.50348 -0.0012,-1.00705 0.04961,-1.50585 0.03405,-0.33393 0.09116,-0.66552 0.148312,-0.99736 0.04715,-0.16904 0.09442,-0.33818 0.180867,-0.48524 0.06562,-0.1116 0.153576,-0.21054 0.241846,-0.30954 0.09391,-0.0647 0.188184,-0.1295 0.291972,-0.1664 0.103198,-0.0366 0.215695,-0.0463 0.328662,-0.0553 z m 15.539103,0 c 0.112728,0.009 0.225331,0.0184 0.328146,0.0553 0.102979,0.0369 0.196348,0.1017 0.289388,0.1664 0.08938,0.10637 0.178319,0.21262 0.245979,0.33073 0.09587,0.16735 0.148255,0.35843 0.200505,0.54932 0.05112,0.31063 0.102565,0.62139 0.133325,0.93379 0.04844,0.49194 0.04603,0.9879 0.04393,1.48415 8.2e-4,0.50294 0.002,1.00609 -0.04909,1.5043 -0.03407,0.33224 -0.09116,0.66255 -0.148311,0.9927 -0.04715,0.16904 -0.09442,0.33767 -0.180867,0.48473 -0.06562,0.11162 -0.154103,0.21054 -0.242363,0.30954 -0.09391,0.0647 -0.187665,0.1294 -0.291455,0.1664 -0.103198,0.0366 -0.216215,0.0463 -0.329179,0.0553 -0.112654,-0.009 -0.225177,-0.0178 -0.328145,-0.0543 -0.102785,-0.0364 -0.196258,-0.10021 -0.289388,-0.16381 -0.0894,-0.10549 -0.17836,-0.21083 -0.24598,-0.32815 -0.09616,-0.16682 -0.148395,-0.35758 -0.200505,-0.54829 -0.05112,-0.31065 -0.102565,-0.62143 -0.133325,-0.93379 -0.04844,-0.49194 -0.04603,-0.98838 -0.04392,-1.48466 -7e-4,-0.50348 -0.0018,-1.00705 0.04909,-1.50585 0.03405,-0.33393 0.09115,-0.66552 0.148311,-0.99736 0.04715,-0.16904 0.09441,-0.33818 0.180868,-0.48524 0.06563,-0.1116 0.154102,-0.21054 0.242362,-0.30954 0.09391,-0.0647 0.187665,-0.1295 0.291455,-0.1664 0.103199,-0.0366 0.216212,-0.0463 0.329179,-0.0553 z m 7.769552,0 c 0.112728,0.009 0.225328,0.0184 0.328145,0.0553 0.102981,0.0369 0.195841,0.1017 0.288871,0.1664 0.08938,0.10637 0.178837,0.21262 0.246497,0.33073 0.09587,0.16735 0.148255,0.35843 0.200505,0.54932 0.05112,0.31063 0.102048,0.62139 0.132808,0.93379 0.04844,0.49194 0.04654,0.9879 0.04444,1.48415 8.2e-4,0.50294 0.0015,1.00609 -0.04961,1.5043 -0.03407,0.33224 -0.09116,0.66255 -0.148311,0.9927 -0.04715,0.16904 -0.09389,0.33767 -0.180351,0.48473 -0.06562,0.11162 -0.154102,0.21054 -0.242362,0.30954 -0.09391,0.0647 -0.187665,0.1294 -0.291455,0.1664 -0.103196,0.0366 -0.216215,0.0463 -0.329179,0.0553 -0.112655,-0.009 -0.225181,-0.0178 -0.328146,-0.0543 -0.102783,-0.0364 -0.196258,-0.10021 -0.289388,-0.16381 -0.0894,-0.10549 -0.178876,-0.21083 -0.246496,-0.32815 -0.09616,-0.16682 -0.147878,-0.35758 -0.199988,-0.54829 -0.05112,-0.31065 -0.102565,-0.62143 -0.133325,-0.93379 -0.04844,-0.49194 -0.04654,-0.98838 -0.04444,-1.48466 -7.1e-4,-0.50348 -0.0012,-1.00705 0.04961,-1.50585 0.03405,-0.33393 0.09115,-0.66552 0.148312,-0.99736 0.04715,-0.16904 0.09441,-0.33818 0.180867,-0.48524 0.06562,-0.1116 0.154103,-0.21054 0.242363,-0.30954 0.09391,-0.0647 0.187664,-0.1295 0.291455,-0.1664 0.103195,-0.0366 0.216212,-0.0463 0.329179,-0.0553 z m -21.800737,13.88805 c -0.659568,0.0503 -1.319194,0.101 -1.898075,0.34571 -0.545079,0.2304 -1.018878,0.63282 -1.492415,1.0356 -0.375433,0.53483 -0.7508159,1.06988 -0.9668665,1.66036 -0.2520206,0.68879 -0.287319,1.45295 -0.3224609,2.21744 0.03823,0.72808 0.076769,1.45628 0.3209106,2.11046 0.2145663,0.57494 0.5880838,1.09289 0.9616988,1.61076 0.462774,0.39687 0.925658,0.79373 1.459859,1.02061 0.553669,0.23514 1.183964,0.28753 1.814359,0.34003 0.502375,-0.0252 1.004778,-0.0503 1.469161,-0.19844 0.416269,-0.13283 0.801781,-0.36425 1.187525,-0.59583 0.328434,-0.31668 0.657156,-0.63369 0.898136,-1.00562 0.27664,-0.42696 0.438095,-0.92663 0.599447,-1.42679 l -1.95802,-0.62012 c -0.08627,0.33026 -0.172145,0.66118 -0.33383,0.95137 -0.132318,0.23749 -0.315342,0.44795 -0.498161,0.65835 -0.204103,0.1492 -0.408259,0.29814 -0.636137,0.38344 -0.232978,0.0872 -0.490963,0.10776 -0.748791,0.12816 -0.345615,-0.0322 -0.69123,-0.0647 -0.989087,-0.20154 -0.292103,-0.13415 -0.538275,-0.36881 -0.784448,-0.60358 -0.197763,-0.3516 -0.395529,-0.70291 -0.511597,-1.07745 -0.158811,-0.51252 -0.164632,-1.06819 -0.170532,-1.62368 0.0086,-0.52776 0.01726,-1.05555 0.173116,-1.53995 0.117398,-0.36486 0.31841,-0.70517 0.519348,-1.04542 0.25091,-0.23276 0.501948,-0.46535 0.797367,-0.59841 0.3042,-0.13692 0.655779,-0.16817 1.007174,-0.19947 0.255202,0.0165 0.510167,0.0329 0.744141,0.11265 0.220309,0.0751 0.421727,0.20617 0.623217,0.33745 0.172272,0.16711 0.344783,0.33444 0.466639,0.53227 0.128767,0.20908 0.200928,0.45243 0.273368,0.69608 l 1.998844,-0.47852 c -0.118093,-0.36679 -0.236222,-0.73416 -0.42633,-1.0604 -0.163465,-0.28057 -0.380167,-0.5306 -0.596863,-0.78084 -0.422593,-0.31618 -0.845236,-0.6323 -1.318266,-0.81338 -0.514455,-0.19694 -1.088317,-0.2342 -1.662431,-0.2713 z m 18.669662,0.1297 c -0.453078,0.0371 -0.905951,0.0742 -1.292428,0.2558 -0.363229,0.17071 -0.667633,0.46905 -0.972034,0.7674 -0.284843,0.53517 -0.569897,1.07034 -0.736905,1.63711 -0.227075,0.77054 -0.236165,1.59936 -0.245463,2.42827 0.0014,0.83169 0.0026,1.6636 0.223242,2.43965 0.153059,0.53826 0.411679,1.04965 0.670243,1.56114 0.322681,0.32729 0.64531,0.65478 1.035079,0.84181 0.393758,0.18891 0.856039,0.23429 1.318266,0.28009 0.453076,-0.0371 0.90595,-0.0742 1.292427,-0.2558 0.363231,-0.17068 0.667633,-0.46902 0.972034,-0.7674 0.284821,-0.53633 0.569848,-1.07239 0.736906,-1.64021 0.227687,-0.77391 0.236563,-1.60626 0.245463,-2.43861 -0.0081,-0.83296 -0.01625,-1.66573 -0.243913,-2.44016 -0.166021,-0.56473 -0.448442,-1.09885 -0.731221,-1.63246 -0.305676,-0.30234 -0.611405,-0.60428 -0.977202,-0.77721 -0.38666,-0.18281 -0.840659,-0.22122 -1.294494,-0.25942 z m -12.898955,0.0408 v 9.9999 h 2.018999 v -4.37234 h 3.956347 v 4.37234 h 2.018999 v -9.9999 H 25.71936 v 3.93619 h -3.956347 v -3.93619 z m 17.428394,0.13591 v 1.78025 l 4.358907,5.2e-4 c -0.4296,0.59075 -0.85952,1.18099 -1.21543,1.81281 -0.366777,0.65114 -0.655055,1.34616 -0.943611,2.04122 -0.237482,0.7054 -0.474832,1.411 -0.61805,2.13527 -0.135798,0.68672 -0.187119,1.39062 -0.238229,2.09392 h 1.848466 c 0.0209,-0.47253 0.04181,-0.94582 0.104903,-1.41283 0.07239,-0.53584 0.200721,-1.06357 0.328663,-1.59163 0.162773,-0.55176 0.325316,-1.10348 0.539501,-1.63453 0.212637,-0.52718 0.476182,-1.0342 0.73949,-1.54099 0.261517,-0.45159 0.52283,-0.90305 0.831991,-1.31982 0.251785,-0.33941 0.535209,-0.6559 0.818554,-0.97255 v -1.39164 z m -4.529439,1.41283 c 0.112731,0.009 0.22533,0.0184 0.328145,0.0553 0.102981,0.037 0.196348,0.1018 0.289388,0.1664 0.08938,0.10639 0.17832,0.21265 0.24598,0.33073 0.09587,0.16735 0.148246,0.35794 0.200504,0.54881 0.05112,0.31064 0.102566,0.62142 0.133326,0.93379 0.04844,0.49194 0.04603,0.98838 0.04393,1.48466 8.2e-4,0.50292 0.002,1.00558 -0.04909,1.50379 -0.03407,0.33224 -0.09116,0.66258 -0.148311,0.9927 -0.04716,0.16904 -0.09441,0.33818 -0.180868,0.48524 -0.06562,0.11162 -0.154092,0.21064 -0.242362,0.30954 -0.09391,0.0647 -0.187664,0.1295 -0.291455,0.1664 -0.103196,0.0366 -0.216215,0.0463 -0.329179,0.0553 -0.112654,-0.009 -0.225178,-0.0184 -0.328146,-0.0548 -0.102783,-0.0364 -0.196258,-0.10011 -0.289388,-0.16381 -0.0894,-0.10549 -0.178361,-0.21086 -0.245979,-0.32815 -0.09616,-0.16682 -0.148395,-0.35755 -0.200505,-0.54829 -0.05112,-0.31065 -0.102565,-0.62088 -0.133325,-0.93327 -0.04844,-0.49194 -0.04603,-0.98842 -0.04393,-1.48467 -7.1e-4,-0.50351 -0.0018,-1.00703 0.04909,-1.50585 0.03405,-0.33393 0.09116,-0.66603 0.148312,-0.99787 0.04715,-0.16907 0.09441,-0.33767 0.180867,-0.48473 0.06562,-0.11163 0.154093,-0.21054 0.242363,-0.30954 0.09391,-0.0646 0.187665,-0.1294 0.291455,-0.1664 0.103198,-0.0366 0.216215,-0.0463 0.329179,-0.0553 z m 72.913381,24.49153 c -0.13728,0.29841 -0.27452,0.59744 -0.46561,0.85628 -0.20568,0.27861 -0.47348,0.51106 -0.74155,0.7431 -0.27479,0.2056 -0.54954,0.41083 -0.8475,0.57516 -0.25004,0.1379 -0.5166,0.24674 -0.7829,0.35554 v 1.73891 c 0.45753,-0.17577 0.91503,-0.35203 1.33171,-0.5979 0.40751,-0.24046 0.77628,-0.54738 1.14463,-0.85473 v 7.2254 h 1.91668 v -10.04073 z m 6.99854,0 c -0.13722,0.29841 -0.27401,0.59744 -0.46509,0.85628 -0.20568,0.27861 -0.474,0.51106 -0.74207,0.7431 -0.27479,0.2056 -0.54954,0.41083 -0.8475,0.57516 -0.25004,0.1379 -0.51652,0.24674 -0.7829,0.35554 v 1.73891 c 0.45761,-0.17577 0.91554,-0.35203 1.33222,-0.5979 0.40751,-0.24046 0.7757,-0.54738 1.14412,-0.85473 v 7.2254 h 1.91668 v -10.04073 z m -17.134875,0.0403 -3.894852,9.9999 h 2.141988 l 0.825273,-2.27118 h 3.997172 l 0.873331,2.27118 h 2.196253 l -4.003894,-9.9999 z m 1.043864,2.33319 1.377694,3.71037 h -2.728516 z" /><path
       id="path157"
       style="fill:none;stroke:#000000;stroke-width:0.264583"
       d="m 8.8904134,10.427787 c -0.5522813,0 -0.9999345,0.448175 -0.999939,1.000456 v 3.571875 H -28.575517 v 36.465474 h -4.571814 v 27.724406 h 4.571814 v 27.723892 h -4.571814 v 27.72389 h 4.571814 v 27.7244 h -4.571814 v 27.72389 h 4.571814 v 27.72441 h -4.571814 v 27.72389 h 4.571814 v 36.46547 H 7.8904744 v 4.57233 H 35.614364 v -4.57233 H 63.33877 v 4.57233 h 27.723889 v -4.57233 h 27.723891 v 4.57233 h 27.7244 v -4.57233 h 27.72389 v 4.57233 h 27.72441 v -4.57233 h 36.46547 v -36.46547 h 4.57182 v -27.72389 h -4.57182 v -27.72441 h 4.57182 v -27.72389 h -4.57182 v -27.7244 h 4.57182 v -27.72389 h -4.57182 V 79.189998 h 4.57182 V 51.465592 h -4.57182 V 15.000118 h -36.46547 v -3.571875 c 0,-0.552281 -0.44766,-1.000456 -0.99994,-1.000456 h -25.72453 c -0.55228,0 -0.99994,0.448175 -0.99994,1.000456 v 3.571875 h -27.72389 v -3.571875 c 0,-0.552281 -0.44766,-1.000456 -0.99994,-1.000456 H 119.787 c -0.55228,0 -1.00045,0.448175 -1.00045,1.000456 v 3.571875 H 91.062659 v -3.571875 c -4e-6,-0.55228 -0.447659,-1.000455 -0.999939,-1.000456 H 64.338708 c -0.552281,0 -0.999934,0.448175 -0.999938,1.000456 v 3.571875 H 35.614364 v -3.571875 c -4e-6,-0.55228 -0.447659,-1.000455 -0.999939,-1.000456 z M 86.424699,69.999862 H 121.42463 V 103.86188 H 86.424699 Z M 67.424825,110.99994 H 142.4249 v 75.00008 H 67.424825 Z" /></g></svg>
